G04 #@! TF.GenerationSoftware,KiCad,Pcbnew,5.1.2-f72e74a~84~ubuntu18.04.1*
G04 #@! TF.CreationDate,2019-07-20T11:54:10-04:00*
G04 #@! TF.ProjectId,stm32G0_basic,73746d33-3247-4305-9f62-617369632e6b,rev?*
G04 #@! TF.SameCoordinates,Original*
G04 #@! TF.FileFunction,Legend,Top*
G04 #@! TF.FilePolarity,Positive*
%FSLAX46Y46*%
G04 Gerber Fmt 4.6, Leading zero omitted, Abs format (unit mm)*
G04 Created by KiCad (PCBNEW 5.1.2-f72e74a~84~ubuntu18.04.1) date 2019-07-20 11:54:10*
%MOMM*%
%LPD*%
G04 APERTURE LIST*
%ADD10C,0.127000*%
%ADD11C,0.114300*%
%ADD12C,0.120000*%
%ADD13C,0.010000*%
G04 APERTURE END LIST*
D10*
X149111304Y-106295673D02*
X149202019Y-106325911D01*
X149353209Y-106325911D01*
X149413685Y-106295673D01*
X149443923Y-106265435D01*
X149474161Y-106204959D01*
X149474161Y-106144483D01*
X149443923Y-106084007D01*
X149413685Y-106053769D01*
X149353209Y-106023530D01*
X149232257Y-105993292D01*
X149171780Y-105963054D01*
X149141542Y-105932816D01*
X149111304Y-105872340D01*
X149111304Y-105811864D01*
X149141542Y-105751388D01*
X149171780Y-105721150D01*
X149232257Y-105690911D01*
X149383447Y-105690911D01*
X149474161Y-105721150D01*
X150018447Y-106325911D02*
X150018447Y-105993292D01*
X149988209Y-105932816D01*
X149927733Y-105902578D01*
X149806780Y-105902578D01*
X149746304Y-105932816D01*
X150018447Y-106295673D02*
X149957971Y-106325911D01*
X149806780Y-106325911D01*
X149746304Y-106295673D01*
X149716066Y-106235197D01*
X149716066Y-106174721D01*
X149746304Y-106114245D01*
X149806780Y-106084007D01*
X149957971Y-106084007D01*
X150018447Y-106053769D01*
X150411542Y-106325911D02*
X150351066Y-106295673D01*
X150320828Y-106235197D01*
X150320828Y-105690911D01*
X150562733Y-105902578D02*
X150804638Y-105902578D01*
X150653447Y-105690911D02*
X150653447Y-106235197D01*
X150683685Y-106295673D01*
X150744161Y-106325911D01*
X150804638Y-106325911D01*
X150955828Y-105902578D02*
X151107019Y-106325911D01*
X151258209Y-105902578D02*
X151107019Y-106325911D01*
X151046542Y-106477102D01*
X151016304Y-106507340D01*
X150955828Y-106537578D01*
X151409400Y-105690911D02*
X151772257Y-105690911D01*
X151590828Y-106325911D02*
X151590828Y-105690911D01*
X151983923Y-106325911D02*
X151983923Y-105902578D01*
X151983923Y-105690911D02*
X151953685Y-105721150D01*
X151983923Y-105751388D01*
X152014161Y-105721150D01*
X151983923Y-105690911D01*
X151983923Y-105751388D01*
X152286304Y-105902578D02*
X152286304Y-106325911D01*
X152286304Y-105963054D02*
X152316542Y-105932816D01*
X152377019Y-105902578D01*
X152467733Y-105902578D01*
X152528209Y-105932816D01*
X152558447Y-105993292D01*
X152558447Y-106325911D01*
X152860828Y-106325911D02*
X152860828Y-105690911D01*
X152921304Y-106084007D02*
X153102733Y-106325911D01*
X153102733Y-105902578D02*
X152860828Y-106144483D01*
X153616780Y-106295673D02*
X153556304Y-106325911D01*
X153435352Y-106325911D01*
X153374876Y-106295673D01*
X153344638Y-106235197D01*
X153344638Y-105993292D01*
X153374876Y-105932816D01*
X153435352Y-105902578D01*
X153556304Y-105902578D01*
X153616780Y-105932816D01*
X153647019Y-105993292D01*
X153647019Y-106053769D01*
X153344638Y-106114245D01*
X153919161Y-106325911D02*
X153919161Y-105902578D01*
X153919161Y-106023530D02*
X153949400Y-105963054D01*
X153979638Y-105932816D01*
X154040114Y-105902578D01*
X154100590Y-105902578D01*
X154554161Y-106295673D02*
X154493685Y-106325911D01*
X154372733Y-106325911D01*
X154312257Y-106295673D01*
X154282019Y-106235197D01*
X154282019Y-105993292D01*
X154312257Y-105932816D01*
X154372733Y-105902578D01*
X154493685Y-105902578D01*
X154554161Y-105932816D01*
X154584400Y-105993292D01*
X154584400Y-106053769D01*
X154282019Y-106114245D01*
X154856542Y-106325911D02*
X154856542Y-105902578D01*
X154856542Y-106023530D02*
X154886780Y-105963054D01*
X154917019Y-105932816D01*
X154977495Y-105902578D01*
X155037971Y-105902578D01*
X146284042Y-107375173D02*
X146374757Y-107405411D01*
X146525947Y-107405411D01*
X146586423Y-107375173D01*
X146616661Y-107344935D01*
X146646900Y-107284459D01*
X146646900Y-107223983D01*
X146616661Y-107163507D01*
X146586423Y-107133269D01*
X146525947Y-107103030D01*
X146404995Y-107072792D01*
X146344519Y-107042554D01*
X146314280Y-107012316D01*
X146284042Y-106951840D01*
X146284042Y-106891364D01*
X146314280Y-106830888D01*
X146344519Y-106800650D01*
X146404995Y-106770411D01*
X146556185Y-106770411D01*
X146646900Y-106800650D01*
X146828328Y-106770411D02*
X147191185Y-106770411D01*
X147009757Y-107405411D02*
X147009757Y-106770411D01*
X147402852Y-107405411D02*
X147402852Y-106770411D01*
X147614519Y-107223983D01*
X147826185Y-106770411D01*
X147826185Y-107405411D01*
X148068090Y-106770411D02*
X148461185Y-106770411D01*
X148249519Y-107012316D01*
X148340233Y-107012316D01*
X148400709Y-107042554D01*
X148430947Y-107072792D01*
X148461185Y-107133269D01*
X148461185Y-107284459D01*
X148430947Y-107344935D01*
X148400709Y-107375173D01*
X148340233Y-107405411D01*
X148158804Y-107405411D01*
X148098328Y-107375173D01*
X148068090Y-107344935D01*
X148703090Y-106830888D02*
X148733328Y-106800650D01*
X148793804Y-106770411D01*
X148944995Y-106770411D01*
X149005471Y-106800650D01*
X149035709Y-106830888D01*
X149065947Y-106891364D01*
X149065947Y-106951840D01*
X149035709Y-107042554D01*
X148672852Y-107405411D01*
X149065947Y-107405411D01*
X149670709Y-106800650D02*
X149610233Y-106770411D01*
X149519519Y-106770411D01*
X149428804Y-106800650D01*
X149368328Y-106861126D01*
X149338090Y-106921602D01*
X149307852Y-107042554D01*
X149307852Y-107133269D01*
X149338090Y-107254221D01*
X149368328Y-107314697D01*
X149428804Y-107375173D01*
X149519519Y-107405411D01*
X149579995Y-107405411D01*
X149670709Y-107375173D01*
X149700947Y-107344935D01*
X149700947Y-107133269D01*
X149579995Y-107133269D01*
X150094042Y-106770411D02*
X150154519Y-106770411D01*
X150214995Y-106800650D01*
X150245233Y-106830888D01*
X150275471Y-106891364D01*
X150305709Y-107012316D01*
X150305709Y-107163507D01*
X150275471Y-107284459D01*
X150245233Y-107344935D01*
X150214995Y-107375173D01*
X150154519Y-107405411D01*
X150094042Y-107405411D01*
X150033566Y-107375173D01*
X150003328Y-107344935D01*
X149973090Y-107284459D01*
X149942852Y-107163507D01*
X149942852Y-107012316D01*
X149973090Y-106891364D01*
X150003328Y-106830888D01*
X150033566Y-106800650D01*
X150094042Y-106770411D01*
X150517376Y-106770411D02*
X150940709Y-106770411D01*
X150668566Y-107405411D01*
X151303566Y-106770411D02*
X151364042Y-106770411D01*
X151424519Y-106800650D01*
X151454757Y-106830888D01*
X151484995Y-106891364D01*
X151515233Y-107012316D01*
X151515233Y-107163507D01*
X151484995Y-107284459D01*
X151454757Y-107344935D01*
X151424519Y-107375173D01*
X151364042Y-107405411D01*
X151303566Y-107405411D01*
X151243090Y-107375173D01*
X151212852Y-107344935D01*
X151182614Y-107284459D01*
X151152376Y-107163507D01*
X151152376Y-107012316D01*
X151182614Y-106891364D01*
X151212852Y-106830888D01*
X151243090Y-106800650D01*
X151303566Y-106770411D01*
X152482852Y-107072792D02*
X152573566Y-107103030D01*
X152603804Y-107133269D01*
X152634042Y-107193745D01*
X152634042Y-107284459D01*
X152603804Y-107344935D01*
X152573566Y-107375173D01*
X152513090Y-107405411D01*
X152271185Y-107405411D01*
X152271185Y-106770411D01*
X152482852Y-106770411D01*
X152543328Y-106800650D01*
X152573566Y-106830888D01*
X152603804Y-106891364D01*
X152603804Y-106951840D01*
X152573566Y-107012316D01*
X152543328Y-107042554D01*
X152482852Y-107072792D01*
X152271185Y-107072792D01*
X153178328Y-107405411D02*
X153178328Y-107072792D01*
X153148090Y-107012316D01*
X153087614Y-106982078D01*
X152966661Y-106982078D01*
X152906185Y-107012316D01*
X153178328Y-107375173D02*
X153117852Y-107405411D01*
X152966661Y-107405411D01*
X152906185Y-107375173D01*
X152875947Y-107314697D01*
X152875947Y-107254221D01*
X152906185Y-107193745D01*
X152966661Y-107163507D01*
X153117852Y-107163507D01*
X153178328Y-107133269D01*
X153450471Y-107375173D02*
X153510947Y-107405411D01*
X153631900Y-107405411D01*
X153692376Y-107375173D01*
X153722614Y-107314697D01*
X153722614Y-107284459D01*
X153692376Y-107223983D01*
X153631900Y-107193745D01*
X153541185Y-107193745D01*
X153480709Y-107163507D01*
X153450471Y-107103030D01*
X153450471Y-107072792D01*
X153480709Y-107012316D01*
X153541185Y-106982078D01*
X153631900Y-106982078D01*
X153692376Y-107012316D01*
X153994757Y-107405411D02*
X153994757Y-106982078D01*
X153994757Y-106770411D02*
X153964519Y-106800650D01*
X153994757Y-106830888D01*
X154024995Y-106800650D01*
X153994757Y-106770411D01*
X153994757Y-106830888D01*
X154569280Y-107375173D02*
X154508804Y-107405411D01*
X154387852Y-107405411D01*
X154327376Y-107375173D01*
X154297138Y-107344935D01*
X154266900Y-107284459D01*
X154266900Y-107103030D01*
X154297138Y-107042554D01*
X154327376Y-107012316D01*
X154387852Y-106982078D01*
X154508804Y-106982078D01*
X154569280Y-107012316D01*
X155536900Y-107072792D02*
X155627614Y-107103030D01*
X155657852Y-107133269D01*
X155688090Y-107193745D01*
X155688090Y-107284459D01*
X155657852Y-107344935D01*
X155627614Y-107375173D01*
X155567138Y-107405411D01*
X155325233Y-107405411D01*
X155325233Y-106770411D01*
X155536900Y-106770411D01*
X155597376Y-106800650D01*
X155627614Y-106830888D01*
X155657852Y-106891364D01*
X155657852Y-106951840D01*
X155627614Y-107012316D01*
X155597376Y-107042554D01*
X155536900Y-107072792D01*
X155325233Y-107072792D01*
X156050947Y-107405411D02*
X155990471Y-107375173D01*
X155960233Y-107344935D01*
X155929995Y-107284459D01*
X155929995Y-107103030D01*
X155960233Y-107042554D01*
X155990471Y-107012316D01*
X156050947Y-106982078D01*
X156141661Y-106982078D01*
X156202138Y-107012316D01*
X156232376Y-107042554D01*
X156262614Y-107103030D01*
X156262614Y-107284459D01*
X156232376Y-107344935D01*
X156202138Y-107375173D01*
X156141661Y-107405411D01*
X156050947Y-107405411D01*
X156806900Y-107405411D02*
X156806900Y-107072792D01*
X156776661Y-107012316D01*
X156716185Y-106982078D01*
X156595233Y-106982078D01*
X156534757Y-107012316D01*
X156806900Y-107375173D02*
X156746423Y-107405411D01*
X156595233Y-107405411D01*
X156534757Y-107375173D01*
X156504519Y-107314697D01*
X156504519Y-107254221D01*
X156534757Y-107193745D01*
X156595233Y-107163507D01*
X156746423Y-107163507D01*
X156806900Y-107133269D01*
X157109280Y-107405411D02*
X157109280Y-106982078D01*
X157109280Y-107103030D02*
X157139519Y-107042554D01*
X157169757Y-107012316D01*
X157230233Y-106982078D01*
X157290709Y-106982078D01*
X157774519Y-107405411D02*
X157774519Y-106770411D01*
X157774519Y-107375173D02*
X157714042Y-107405411D01*
X157593090Y-107405411D01*
X157532614Y-107375173D01*
X157502376Y-107344935D01*
X157472138Y-107284459D01*
X157472138Y-107103030D01*
X157502376Y-107042554D01*
X157532614Y-107012316D01*
X157593090Y-106982078D01*
X157714042Y-106982078D01*
X157774519Y-107012316D01*
D11*
X166539333Y-113990059D02*
X166539333Y-113482059D01*
X166732857Y-113482059D01*
X166781238Y-113506250D01*
X166805428Y-113530440D01*
X166829619Y-113578821D01*
X166829619Y-113651392D01*
X166805428Y-113699773D01*
X166781238Y-113723964D01*
X166732857Y-113748154D01*
X166539333Y-113748154D01*
X167023142Y-113844916D02*
X167265047Y-113844916D01*
X166974761Y-113990059D02*
X167144095Y-113482059D01*
X167313428Y-113990059D01*
X167748857Y-113990059D02*
X167458571Y-113990059D01*
X167603714Y-113990059D02*
X167603714Y-113482059D01*
X167555333Y-113554630D01*
X167506952Y-113603011D01*
X167458571Y-113627202D01*
X167918190Y-113482059D02*
X168232666Y-113482059D01*
X168063333Y-113675583D01*
X168135904Y-113675583D01*
X168184285Y-113699773D01*
X168208476Y-113723964D01*
X168232666Y-113772345D01*
X168232666Y-113893297D01*
X168208476Y-113941678D01*
X168184285Y-113965869D01*
X168135904Y-113990059D01*
X167990761Y-113990059D01*
X167942380Y-113965869D01*
X167918190Y-113941678D01*
X168813238Y-113457869D02*
X168377809Y-114111011D01*
X166563523Y-114842169D02*
X166636095Y-114866359D01*
X166757047Y-114866359D01*
X166805428Y-114842169D01*
X166829619Y-114817978D01*
X166853809Y-114769597D01*
X166853809Y-114721216D01*
X166829619Y-114672835D01*
X166805428Y-114648645D01*
X166757047Y-114624454D01*
X166660285Y-114600264D01*
X166611904Y-114576073D01*
X166587714Y-114551883D01*
X166563523Y-114503502D01*
X166563523Y-114455121D01*
X166587714Y-114406740D01*
X166611904Y-114382550D01*
X166660285Y-114358359D01*
X166781238Y-114358359D01*
X166853809Y-114382550D01*
X167023142Y-114358359D02*
X167144095Y-114866359D01*
X167240857Y-114503502D01*
X167337619Y-114866359D01*
X167458571Y-114358359D01*
X167652095Y-114866359D02*
X167652095Y-114358359D01*
X167773047Y-114358359D01*
X167845619Y-114382550D01*
X167894000Y-114430930D01*
X167918190Y-114479311D01*
X167942380Y-114576073D01*
X167942380Y-114648645D01*
X167918190Y-114745407D01*
X167894000Y-114793788D01*
X167845619Y-114842169D01*
X167773047Y-114866359D01*
X167652095Y-114866359D01*
X168160095Y-114866359D02*
X168160095Y-114358359D01*
X168498761Y-114358359D02*
X168595523Y-114358359D01*
X168643904Y-114382550D01*
X168692285Y-114430930D01*
X168716476Y-114527692D01*
X168716476Y-114697026D01*
X168692285Y-114793788D01*
X168643904Y-114842169D01*
X168595523Y-114866359D01*
X168498761Y-114866359D01*
X168450380Y-114842169D01*
X168402000Y-114793788D01*
X168377809Y-114697026D01*
X168377809Y-114527692D01*
X168402000Y-114430930D01*
X168450380Y-114382550D01*
X168498761Y-114358359D01*
X160808609Y-111939009D02*
X160808609Y-111431009D01*
X161002133Y-111431009D01*
X161050514Y-111455200D01*
X161074704Y-111479390D01*
X161098895Y-111527771D01*
X161098895Y-111600342D01*
X161074704Y-111648723D01*
X161050514Y-111672914D01*
X161002133Y-111697104D01*
X160808609Y-111697104D01*
X161292419Y-111793866D02*
X161534323Y-111793866D01*
X161244038Y-111939009D02*
X161413371Y-111431009D01*
X161582704Y-111939009D01*
X162018133Y-111939009D02*
X161727847Y-111939009D01*
X161872990Y-111939009D02*
X161872990Y-111431009D01*
X161824609Y-111503580D01*
X161776228Y-111551961D01*
X161727847Y-111576152D01*
X162453561Y-111600342D02*
X162453561Y-111939009D01*
X162332609Y-111406819D02*
X162211657Y-111769676D01*
X162526133Y-111769676D01*
X163082514Y-111406819D02*
X162647085Y-112059961D01*
X163227657Y-111914819D02*
X163300228Y-111939009D01*
X163421180Y-111939009D01*
X163469561Y-111914819D01*
X163493752Y-111890628D01*
X163517942Y-111842247D01*
X163517942Y-111793866D01*
X163493752Y-111745485D01*
X163469561Y-111721295D01*
X163421180Y-111697104D01*
X163324419Y-111672914D01*
X163276038Y-111648723D01*
X163251847Y-111624533D01*
X163227657Y-111576152D01*
X163227657Y-111527771D01*
X163251847Y-111479390D01*
X163276038Y-111455200D01*
X163324419Y-111431009D01*
X163445371Y-111431009D01*
X163517942Y-111455200D01*
X163687276Y-111431009D02*
X163808228Y-111939009D01*
X163904990Y-111576152D01*
X164001752Y-111939009D01*
X164122704Y-111431009D01*
X164606514Y-111890628D02*
X164582323Y-111914819D01*
X164509752Y-111939009D01*
X164461371Y-111939009D01*
X164388800Y-111914819D01*
X164340419Y-111866438D01*
X164316228Y-111818057D01*
X164292038Y-111721295D01*
X164292038Y-111648723D01*
X164316228Y-111551961D01*
X164340419Y-111503580D01*
X164388800Y-111455200D01*
X164461371Y-111431009D01*
X164509752Y-111431009D01*
X164582323Y-111455200D01*
X164606514Y-111479390D01*
X165066133Y-111939009D02*
X164824228Y-111939009D01*
X164824228Y-111431009D01*
X165235466Y-111939009D02*
X165235466Y-111431009D01*
X165525752Y-111939009D02*
X165308038Y-111648723D01*
X165525752Y-111431009D02*
X165235466Y-111721295D01*
X166106323Y-111406819D02*
X165670895Y-112059961D01*
X166444990Y-111672914D02*
X166517561Y-111697104D01*
X166541752Y-111721295D01*
X166565942Y-111769676D01*
X166565942Y-111842247D01*
X166541752Y-111890628D01*
X166517561Y-111914819D01*
X166469180Y-111939009D01*
X166275657Y-111939009D01*
X166275657Y-111431009D01*
X166444990Y-111431009D01*
X166493371Y-111455200D01*
X166517561Y-111479390D01*
X166541752Y-111527771D01*
X166541752Y-111576152D01*
X166517561Y-111624533D01*
X166493371Y-111648723D01*
X166444990Y-111672914D01*
X166275657Y-111672914D01*
X166880419Y-111431009D02*
X166977180Y-111431009D01*
X167025561Y-111455200D01*
X167073942Y-111503580D01*
X167098133Y-111600342D01*
X167098133Y-111769676D01*
X167073942Y-111866438D01*
X167025561Y-111914819D01*
X166977180Y-111939009D01*
X166880419Y-111939009D01*
X166832038Y-111914819D01*
X166783657Y-111866438D01*
X166759466Y-111769676D01*
X166759466Y-111600342D01*
X166783657Y-111503580D01*
X166832038Y-111455200D01*
X166880419Y-111431009D01*
X167412609Y-111431009D02*
X167509371Y-111431009D01*
X167557752Y-111455200D01*
X167606133Y-111503580D01*
X167630323Y-111600342D01*
X167630323Y-111769676D01*
X167606133Y-111866438D01*
X167557752Y-111914819D01*
X167509371Y-111939009D01*
X167412609Y-111939009D01*
X167364228Y-111914819D01*
X167315847Y-111866438D01*
X167291657Y-111769676D01*
X167291657Y-111600342D01*
X167315847Y-111503580D01*
X167364228Y-111455200D01*
X167412609Y-111431009D01*
X167775466Y-111431009D02*
X168065752Y-111431009D01*
X167920609Y-111939009D02*
X167920609Y-111431009D01*
X168331847Y-111431009D02*
X168380228Y-111431009D01*
X168428609Y-111455200D01*
X168452800Y-111479390D01*
X168476990Y-111527771D01*
X168501180Y-111624533D01*
X168501180Y-111745485D01*
X168476990Y-111842247D01*
X168452800Y-111890628D01*
X168428609Y-111914819D01*
X168380228Y-111939009D01*
X168331847Y-111939009D01*
X168283466Y-111914819D01*
X168259276Y-111890628D01*
X168235085Y-111842247D01*
X168210895Y-111745485D01*
X168210895Y-111624533D01*
X168235085Y-111527771D01*
X168259276Y-111479390D01*
X168283466Y-111455200D01*
X168331847Y-111431009D01*
D10*
X166375442Y-108976280D02*
X166375442Y-108392080D01*
X166709271Y-108976280D01*
X166709271Y-108392080D01*
X167321290Y-108976280D02*
X167126557Y-108698090D01*
X166987461Y-108976280D02*
X166987461Y-108392080D01*
X167210014Y-108392080D01*
X167265652Y-108419900D01*
X167293471Y-108447719D01*
X167321290Y-108503357D01*
X167321290Y-108586814D01*
X167293471Y-108642452D01*
X167265652Y-108670271D01*
X167210014Y-108698090D01*
X166987461Y-108698090D01*
X167543842Y-108948461D02*
X167627300Y-108976280D01*
X167766395Y-108976280D01*
X167822033Y-108948461D01*
X167849852Y-108920642D01*
X167877671Y-108865004D01*
X167877671Y-108809366D01*
X167849852Y-108753728D01*
X167822033Y-108725909D01*
X167766395Y-108698090D01*
X167655119Y-108670271D01*
X167599480Y-108642452D01*
X167571661Y-108614633D01*
X167543842Y-108558995D01*
X167543842Y-108503357D01*
X167571661Y-108447719D01*
X167599480Y-108419900D01*
X167655119Y-108392080D01*
X167794214Y-108392080D01*
X167877671Y-108419900D01*
X168044585Y-108392080D02*
X168378414Y-108392080D01*
X168211500Y-108976280D02*
X168211500Y-108392080D01*
X165874095Y-106286300D02*
X165818457Y-106258480D01*
X165735000Y-106258480D01*
X165651542Y-106286300D01*
X165595904Y-106341938D01*
X165568085Y-106397576D01*
X165540266Y-106508852D01*
X165540266Y-106592309D01*
X165568085Y-106703585D01*
X165595904Y-106759223D01*
X165651542Y-106814861D01*
X165735000Y-106842680D01*
X165790638Y-106842680D01*
X165874095Y-106814861D01*
X165901914Y-106787042D01*
X165901914Y-106592309D01*
X165790638Y-106592309D01*
X166152285Y-106842680D02*
X166152285Y-106258480D01*
X166486114Y-106842680D01*
X166486114Y-106258480D01*
X166764304Y-106842680D02*
X166764304Y-106258480D01*
X166903400Y-106258480D01*
X166986857Y-106286300D01*
X167042495Y-106341938D01*
X167070314Y-106397576D01*
X167098133Y-106508852D01*
X167098133Y-106592309D01*
X167070314Y-106703585D01*
X167042495Y-106759223D01*
X166986857Y-106814861D01*
X166903400Y-106842680D01*
X166764304Y-106842680D01*
X169936280Y-104567566D02*
X169352080Y-104567566D01*
X169352080Y-104345014D01*
X169379900Y-104289376D01*
X169407719Y-104261557D01*
X169463357Y-104233738D01*
X169546814Y-104233738D01*
X169602452Y-104261557D01*
X169630271Y-104289376D01*
X169658090Y-104345014D01*
X169658090Y-104567566D01*
X169769366Y-104011185D02*
X169769366Y-103732995D01*
X169936280Y-104066823D02*
X169352080Y-103872090D01*
X169936280Y-103677357D01*
X169407719Y-103510442D02*
X169379900Y-103482623D01*
X169352080Y-103426985D01*
X169352080Y-103287890D01*
X169379900Y-103232252D01*
X169407719Y-103204433D01*
X169463357Y-103176614D01*
X169518995Y-103176614D01*
X169602452Y-103204433D01*
X169936280Y-103538261D01*
X169936280Y-103176614D01*
X167904280Y-104567566D02*
X167320080Y-104567566D01*
X167320080Y-104345014D01*
X167347900Y-104289376D01*
X167375719Y-104261557D01*
X167431357Y-104233738D01*
X167514814Y-104233738D01*
X167570452Y-104261557D01*
X167598271Y-104289376D01*
X167626090Y-104345014D01*
X167626090Y-104567566D01*
X167737366Y-104011185D02*
X167737366Y-103732995D01*
X167904280Y-104066823D02*
X167320080Y-103872090D01*
X167904280Y-103677357D01*
X167320080Y-103538261D02*
X167320080Y-103176614D01*
X167542633Y-103371347D01*
X167542633Y-103287890D01*
X167570452Y-103232252D01*
X167598271Y-103204433D01*
X167653909Y-103176614D01*
X167793004Y-103176614D01*
X167848642Y-103204433D01*
X167876461Y-103232252D01*
X167904280Y-103287890D01*
X167904280Y-103454804D01*
X167876461Y-103510442D01*
X167848642Y-103538261D01*
X165364280Y-104567566D02*
X164780080Y-104567566D01*
X164780080Y-104345014D01*
X164807900Y-104289376D01*
X164835719Y-104261557D01*
X164891357Y-104233738D01*
X164974814Y-104233738D01*
X165030452Y-104261557D01*
X165058271Y-104289376D01*
X165086090Y-104345014D01*
X165086090Y-104567566D01*
X165197366Y-104011185D02*
X165197366Y-103732995D01*
X165364280Y-104066823D02*
X164780080Y-103872090D01*
X165364280Y-103677357D01*
X164974814Y-103232252D02*
X165364280Y-103232252D01*
X164752261Y-103371347D02*
X165169547Y-103510442D01*
X165169547Y-103148795D01*
X162824280Y-104567566D02*
X162240080Y-104567566D01*
X162240080Y-104345014D01*
X162267900Y-104289376D01*
X162295719Y-104261557D01*
X162351357Y-104233738D01*
X162434814Y-104233738D01*
X162490452Y-104261557D01*
X162518271Y-104289376D01*
X162546090Y-104345014D01*
X162546090Y-104567566D01*
X162657366Y-104011185D02*
X162657366Y-103732995D01*
X162824280Y-104066823D02*
X162240080Y-103872090D01*
X162824280Y-103677357D01*
X162240080Y-103204433D02*
X162240080Y-103482623D01*
X162518271Y-103510442D01*
X162490452Y-103482623D01*
X162462633Y-103426985D01*
X162462633Y-103287890D01*
X162490452Y-103232252D01*
X162518271Y-103204433D01*
X162573909Y-103176614D01*
X162713004Y-103176614D01*
X162768642Y-103204433D01*
X162796461Y-103232252D01*
X162824280Y-103287890D01*
X162824280Y-103426985D01*
X162796461Y-103482623D01*
X162768642Y-103510442D01*
X160284280Y-104567566D02*
X159700080Y-104567566D01*
X159700080Y-104345014D01*
X159727900Y-104289376D01*
X159755719Y-104261557D01*
X159811357Y-104233738D01*
X159894814Y-104233738D01*
X159950452Y-104261557D01*
X159978271Y-104289376D01*
X160006090Y-104345014D01*
X160006090Y-104567566D01*
X160117366Y-104011185D02*
X160117366Y-103732995D01*
X160284280Y-104066823D02*
X159700080Y-103872090D01*
X160284280Y-103677357D01*
X159700080Y-103232252D02*
X159700080Y-103343528D01*
X159727900Y-103399166D01*
X159755719Y-103426985D01*
X159839176Y-103482623D01*
X159950452Y-103510442D01*
X160173004Y-103510442D01*
X160228642Y-103482623D01*
X160256461Y-103454804D01*
X160284280Y-103399166D01*
X160284280Y-103287890D01*
X160256461Y-103232252D01*
X160228642Y-103204433D01*
X160173004Y-103176614D01*
X160033909Y-103176614D01*
X159978271Y-103204433D01*
X159950452Y-103232252D01*
X159922633Y-103287890D01*
X159922633Y-103399166D01*
X159950452Y-103454804D01*
X159978271Y-103482623D01*
X160033909Y-103510442D01*
X157744280Y-104567566D02*
X157160080Y-104567566D01*
X157160080Y-104345014D01*
X157187900Y-104289376D01*
X157215719Y-104261557D01*
X157271357Y-104233738D01*
X157354814Y-104233738D01*
X157410452Y-104261557D01*
X157438271Y-104289376D01*
X157466090Y-104345014D01*
X157466090Y-104567566D01*
X157577366Y-104011185D02*
X157577366Y-103732995D01*
X157744280Y-104066823D02*
X157160080Y-103872090D01*
X157744280Y-103677357D01*
X157160080Y-103538261D02*
X157160080Y-103148795D01*
X157744280Y-103399166D01*
X154470704Y-104785280D02*
X154470704Y-104201080D01*
X154693257Y-104201080D01*
X154748895Y-104228900D01*
X154776714Y-104256719D01*
X154804533Y-104312357D01*
X154804533Y-104395814D01*
X154776714Y-104451452D01*
X154748895Y-104479271D01*
X154693257Y-104507090D01*
X154470704Y-104507090D01*
X155249638Y-104479271D02*
X155333095Y-104507090D01*
X155360914Y-104534909D01*
X155388733Y-104590547D01*
X155388733Y-104674004D01*
X155360914Y-104729642D01*
X155333095Y-104757461D01*
X155277457Y-104785280D01*
X155054904Y-104785280D01*
X155054904Y-104201080D01*
X155249638Y-104201080D01*
X155305276Y-104228900D01*
X155333095Y-104256719D01*
X155360914Y-104312357D01*
X155360914Y-104367995D01*
X155333095Y-104423633D01*
X155305276Y-104451452D01*
X155249638Y-104479271D01*
X155054904Y-104479271D01*
X155750380Y-104201080D02*
X155806019Y-104201080D01*
X155861657Y-104228900D01*
X155889476Y-104256719D01*
X155917295Y-104312357D01*
X155945114Y-104423633D01*
X155945114Y-104562728D01*
X155917295Y-104674004D01*
X155889476Y-104729642D01*
X155861657Y-104757461D01*
X155806019Y-104785280D01*
X155750380Y-104785280D01*
X155694742Y-104757461D01*
X155666923Y-104729642D01*
X155639104Y-104674004D01*
X155611285Y-104562728D01*
X155611285Y-104423633D01*
X155639104Y-104312357D01*
X155666923Y-104256719D01*
X155694742Y-104228900D01*
X155750380Y-104201080D01*
X152791280Y-104609295D02*
X152207080Y-104609295D01*
X152207080Y-104386742D01*
X152234900Y-104331104D01*
X152262719Y-104303285D01*
X152318357Y-104275466D01*
X152401814Y-104275466D01*
X152457452Y-104303285D01*
X152485271Y-104331104D01*
X152513090Y-104386742D01*
X152513090Y-104609295D01*
X152485271Y-103830361D02*
X152513090Y-103746904D01*
X152540909Y-103719085D01*
X152596547Y-103691266D01*
X152680004Y-103691266D01*
X152735642Y-103719085D01*
X152763461Y-103746904D01*
X152791280Y-103802542D01*
X152791280Y-104025095D01*
X152207080Y-104025095D01*
X152207080Y-103830361D01*
X152234900Y-103774723D01*
X152262719Y-103746904D01*
X152318357Y-103719085D01*
X152373995Y-103719085D01*
X152429633Y-103746904D01*
X152457452Y-103774723D01*
X152485271Y-103830361D01*
X152485271Y-104025095D01*
X152791280Y-103134885D02*
X152791280Y-103468714D01*
X152791280Y-103301800D02*
X152207080Y-103301800D01*
X152290538Y-103357438D01*
X152346176Y-103413076D01*
X152373995Y-103468714D01*
X150251280Y-104609295D02*
X149667080Y-104609295D01*
X149667080Y-104386742D01*
X149694900Y-104331104D01*
X149722719Y-104303285D01*
X149778357Y-104275466D01*
X149861814Y-104275466D01*
X149917452Y-104303285D01*
X149945271Y-104331104D01*
X149973090Y-104386742D01*
X149973090Y-104609295D01*
X149945271Y-103830361D02*
X149973090Y-103746904D01*
X150000909Y-103719085D01*
X150056547Y-103691266D01*
X150140004Y-103691266D01*
X150195642Y-103719085D01*
X150223461Y-103746904D01*
X150251280Y-103802542D01*
X150251280Y-104025095D01*
X149667080Y-104025095D01*
X149667080Y-103830361D01*
X149694900Y-103774723D01*
X149722719Y-103746904D01*
X149778357Y-103719085D01*
X149833995Y-103719085D01*
X149889633Y-103746904D01*
X149917452Y-103774723D01*
X149945271Y-103830361D01*
X149945271Y-104025095D01*
X149722719Y-103468714D02*
X149694900Y-103440895D01*
X149667080Y-103385257D01*
X149667080Y-103246161D01*
X149694900Y-103190523D01*
X149722719Y-103162704D01*
X149778357Y-103134885D01*
X149833995Y-103134885D01*
X149917452Y-103162704D01*
X150251280Y-103496533D01*
X150251280Y-103134885D01*
X147584280Y-104567566D02*
X147000080Y-104567566D01*
X147000080Y-104345014D01*
X147027900Y-104289376D01*
X147055719Y-104261557D01*
X147111357Y-104233738D01*
X147194814Y-104233738D01*
X147250452Y-104261557D01*
X147278271Y-104289376D01*
X147306090Y-104345014D01*
X147306090Y-104567566D01*
X147417366Y-104011185D02*
X147417366Y-103732995D01*
X147584280Y-104066823D02*
X147000080Y-103872090D01*
X147584280Y-103677357D01*
X147250452Y-103399166D02*
X147222633Y-103454804D01*
X147194814Y-103482623D01*
X147139176Y-103510442D01*
X147111357Y-103510442D01*
X147055719Y-103482623D01*
X147027900Y-103454804D01*
X147000080Y-103399166D01*
X147000080Y-103287890D01*
X147027900Y-103232252D01*
X147055719Y-103204433D01*
X147111357Y-103176614D01*
X147139176Y-103176614D01*
X147194814Y-103204433D01*
X147222633Y-103232252D01*
X147250452Y-103287890D01*
X147250452Y-103399166D01*
X147278271Y-103454804D01*
X147306090Y-103482623D01*
X147361728Y-103510442D01*
X147473004Y-103510442D01*
X147528642Y-103482623D01*
X147556461Y-103454804D01*
X147584280Y-103399166D01*
X147584280Y-103287890D01*
X147556461Y-103232252D01*
X147528642Y-103204433D01*
X147473004Y-103176614D01*
X147361728Y-103176614D01*
X147306090Y-103204433D01*
X147278271Y-103232252D01*
X147250452Y-103287890D01*
X145044280Y-104567566D02*
X144460080Y-104567566D01*
X144460080Y-104345014D01*
X144487900Y-104289376D01*
X144515719Y-104261557D01*
X144571357Y-104233738D01*
X144654814Y-104233738D01*
X144710452Y-104261557D01*
X144738271Y-104289376D01*
X144766090Y-104345014D01*
X144766090Y-104567566D01*
X144877366Y-104011185D02*
X144877366Y-103732995D01*
X145044280Y-104066823D02*
X144460080Y-103872090D01*
X145044280Y-103677357D01*
X145044280Y-103454804D02*
X145044280Y-103343528D01*
X145016461Y-103287890D01*
X144988642Y-103260071D01*
X144905185Y-103204433D01*
X144793909Y-103176614D01*
X144571357Y-103176614D01*
X144515719Y-103204433D01*
X144487900Y-103232252D01*
X144460080Y-103287890D01*
X144460080Y-103399166D01*
X144487900Y-103454804D01*
X144515719Y-103482623D01*
X144571357Y-103510442D01*
X144710452Y-103510442D01*
X144766090Y-103482623D01*
X144793909Y-103454804D01*
X144821728Y-103399166D01*
X144821728Y-103287890D01*
X144793909Y-103232252D01*
X144766090Y-103204433D01*
X144710452Y-103176614D01*
X142504280Y-104609295D02*
X141920080Y-104609295D01*
X141920080Y-104386742D01*
X141947900Y-104331104D01*
X141975719Y-104303285D01*
X142031357Y-104275466D01*
X142114814Y-104275466D01*
X142170452Y-104303285D01*
X142198271Y-104331104D01*
X142226090Y-104386742D01*
X142226090Y-104609295D01*
X142448642Y-103691266D02*
X142476461Y-103719085D01*
X142504280Y-103802542D01*
X142504280Y-103858180D01*
X142476461Y-103941638D01*
X142420823Y-103997276D01*
X142365185Y-104025095D01*
X142253909Y-104052914D01*
X142170452Y-104052914D01*
X142059176Y-104025095D01*
X142003538Y-103997276D01*
X141947900Y-103941638D01*
X141920080Y-103858180D01*
X141920080Y-103802542D01*
X141947900Y-103719085D01*
X141975719Y-103691266D01*
X141920080Y-103190523D02*
X141920080Y-103301800D01*
X141947900Y-103357438D01*
X141975719Y-103385257D01*
X142059176Y-103440895D01*
X142170452Y-103468714D01*
X142393004Y-103468714D01*
X142448642Y-103440895D01*
X142476461Y-103413076D01*
X142504280Y-103357438D01*
X142504280Y-103246161D01*
X142476461Y-103190523D01*
X142448642Y-103162704D01*
X142393004Y-103134885D01*
X142253909Y-103134885D01*
X142198271Y-103162704D01*
X142170452Y-103190523D01*
X142142633Y-103246161D01*
X142142633Y-103357438D01*
X142170452Y-103413076D01*
X142198271Y-103440895D01*
X142253909Y-103468714D01*
X139837280Y-105099757D02*
X139253080Y-105099757D01*
X139253080Y-104877204D01*
X139280900Y-104821566D01*
X139308719Y-104793747D01*
X139364357Y-104765928D01*
X139447814Y-104765928D01*
X139503452Y-104793747D01*
X139531271Y-104821566D01*
X139559090Y-104877204D01*
X139559090Y-105099757D01*
X139670366Y-104543376D02*
X139670366Y-104265185D01*
X139837280Y-104599014D02*
X139253080Y-104404280D01*
X139837280Y-104209547D01*
X139837280Y-103708804D02*
X139837280Y-104042633D01*
X139837280Y-103875719D02*
X139253080Y-103875719D01*
X139336538Y-103931357D01*
X139392176Y-103986995D01*
X139419995Y-104042633D01*
X139253080Y-103347157D02*
X139253080Y-103291519D01*
X139280900Y-103235880D01*
X139308719Y-103208061D01*
X139364357Y-103180242D01*
X139475633Y-103152423D01*
X139614728Y-103152423D01*
X139726004Y-103180242D01*
X139781642Y-103208061D01*
X139809461Y-103235880D01*
X139837280Y-103291519D01*
X139837280Y-103347157D01*
X139809461Y-103402795D01*
X139781642Y-103430614D01*
X139726004Y-103458433D01*
X139614728Y-103486252D01*
X139475633Y-103486252D01*
X139364357Y-103458433D01*
X139308719Y-103430614D01*
X139280900Y-103402795D01*
X139253080Y-103347157D01*
X137551280Y-105099757D02*
X136967080Y-105099757D01*
X136967080Y-104877204D01*
X136994900Y-104821566D01*
X137022719Y-104793747D01*
X137078357Y-104765928D01*
X137161814Y-104765928D01*
X137217452Y-104793747D01*
X137245271Y-104821566D01*
X137273090Y-104877204D01*
X137273090Y-105099757D01*
X137384366Y-104543376D02*
X137384366Y-104265185D01*
X137551280Y-104599014D02*
X136967080Y-104404280D01*
X137551280Y-104209547D01*
X137551280Y-103708804D02*
X137551280Y-104042633D01*
X137551280Y-103875719D02*
X136967080Y-103875719D01*
X137050538Y-103931357D01*
X137106176Y-103986995D01*
X137133995Y-104042633D01*
X137551280Y-103152423D02*
X137551280Y-103486252D01*
X137551280Y-103319338D02*
X136967080Y-103319338D01*
X137050538Y-103374976D01*
X137106176Y-103430614D01*
X137133995Y-103486252D01*
X134295242Y-103769280D02*
X134295242Y-103185080D01*
X134517795Y-103185080D01*
X134573433Y-103212900D01*
X134601252Y-103240719D01*
X134629071Y-103296357D01*
X134629071Y-103379814D01*
X134601252Y-103435452D01*
X134573433Y-103463271D01*
X134517795Y-103491090D01*
X134295242Y-103491090D01*
X134851623Y-103602366D02*
X135129814Y-103602366D01*
X134795985Y-103769280D02*
X134990719Y-103185080D01*
X135185452Y-103769280D01*
X135686195Y-103769280D02*
X135352366Y-103769280D01*
X135519280Y-103769280D02*
X135519280Y-103185080D01*
X135463642Y-103268538D01*
X135408004Y-103324176D01*
X135352366Y-103351995D01*
X135908747Y-103240719D02*
X135936566Y-103212900D01*
X135992204Y-103185080D01*
X136131300Y-103185080D01*
X136186938Y-103212900D01*
X136214757Y-103240719D01*
X136242576Y-103296357D01*
X136242576Y-103351995D01*
X136214757Y-103435452D01*
X135880928Y-103769280D01*
X136242576Y-103769280D01*
X131963280Y-105099757D02*
X131379080Y-105099757D01*
X131379080Y-104877204D01*
X131406900Y-104821566D01*
X131434719Y-104793747D01*
X131490357Y-104765928D01*
X131573814Y-104765928D01*
X131629452Y-104793747D01*
X131657271Y-104821566D01*
X131685090Y-104877204D01*
X131685090Y-105099757D01*
X131796366Y-104543376D02*
X131796366Y-104265185D01*
X131963280Y-104599014D02*
X131379080Y-104404280D01*
X131963280Y-104209547D01*
X131963280Y-103708804D02*
X131963280Y-104042633D01*
X131963280Y-103875719D02*
X131379080Y-103875719D01*
X131462538Y-103931357D01*
X131518176Y-103986995D01*
X131545995Y-104042633D01*
X131379080Y-103180242D02*
X131379080Y-103458433D01*
X131657271Y-103486252D01*
X131629452Y-103458433D01*
X131601633Y-103402795D01*
X131601633Y-103263700D01*
X131629452Y-103208061D01*
X131657271Y-103180242D01*
X131712909Y-103152423D01*
X131852004Y-103152423D01*
X131907642Y-103180242D01*
X131935461Y-103208061D01*
X131963280Y-103263700D01*
X131963280Y-103402795D01*
X131935461Y-103458433D01*
X131907642Y-103486252D01*
X129931280Y-104609295D02*
X129347080Y-104609295D01*
X129347080Y-104386742D01*
X129374900Y-104331104D01*
X129402719Y-104303285D01*
X129458357Y-104275466D01*
X129541814Y-104275466D01*
X129597452Y-104303285D01*
X129625271Y-104331104D01*
X129653090Y-104386742D01*
X129653090Y-104609295D01*
X129625271Y-103830361D02*
X129653090Y-103746904D01*
X129680909Y-103719085D01*
X129736547Y-103691266D01*
X129820004Y-103691266D01*
X129875642Y-103719085D01*
X129903461Y-103746904D01*
X129931280Y-103802542D01*
X129931280Y-104025095D01*
X129347080Y-104025095D01*
X129347080Y-103830361D01*
X129374900Y-103774723D01*
X129402719Y-103746904D01*
X129458357Y-103719085D01*
X129513995Y-103719085D01*
X129569633Y-103746904D01*
X129597452Y-103774723D01*
X129625271Y-103830361D01*
X129625271Y-104025095D01*
X129347080Y-103496533D02*
X129347080Y-103134885D01*
X129569633Y-103329619D01*
X129569633Y-103246161D01*
X129597452Y-103190523D01*
X129625271Y-103162704D01*
X129680909Y-103134885D01*
X129820004Y-103134885D01*
X129875642Y-103162704D01*
X129903461Y-103190523D01*
X129931280Y-103246161D01*
X129931280Y-103413076D01*
X129903461Y-103468714D01*
X129875642Y-103496533D01*
X127391280Y-104609295D02*
X126807080Y-104609295D01*
X126807080Y-104386742D01*
X126834900Y-104331104D01*
X126862719Y-104303285D01*
X126918357Y-104275466D01*
X127001814Y-104275466D01*
X127057452Y-104303285D01*
X127085271Y-104331104D01*
X127113090Y-104386742D01*
X127113090Y-104609295D01*
X127085271Y-103830361D02*
X127113090Y-103746904D01*
X127140909Y-103719085D01*
X127196547Y-103691266D01*
X127280004Y-103691266D01*
X127335642Y-103719085D01*
X127363461Y-103746904D01*
X127391280Y-103802542D01*
X127391280Y-104025095D01*
X126807080Y-104025095D01*
X126807080Y-103830361D01*
X126834900Y-103774723D01*
X126862719Y-103746904D01*
X126918357Y-103719085D01*
X126973995Y-103719085D01*
X127029633Y-103746904D01*
X127057452Y-103774723D01*
X127085271Y-103830361D01*
X127085271Y-104025095D01*
X127001814Y-103190523D02*
X127391280Y-103190523D01*
X126779261Y-103329619D02*
X127196547Y-103468714D01*
X127196547Y-103107066D01*
X124724280Y-104609295D02*
X124140080Y-104609295D01*
X124140080Y-104386742D01*
X124167900Y-104331104D01*
X124195719Y-104303285D01*
X124251357Y-104275466D01*
X124334814Y-104275466D01*
X124390452Y-104303285D01*
X124418271Y-104331104D01*
X124446090Y-104386742D01*
X124446090Y-104609295D01*
X124418271Y-103830361D02*
X124446090Y-103746904D01*
X124473909Y-103719085D01*
X124529547Y-103691266D01*
X124613004Y-103691266D01*
X124668642Y-103719085D01*
X124696461Y-103746904D01*
X124724280Y-103802542D01*
X124724280Y-104025095D01*
X124140080Y-104025095D01*
X124140080Y-103830361D01*
X124167900Y-103774723D01*
X124195719Y-103746904D01*
X124251357Y-103719085D01*
X124306995Y-103719085D01*
X124362633Y-103746904D01*
X124390452Y-103774723D01*
X124418271Y-103830361D01*
X124418271Y-104025095D01*
X124140080Y-103162704D02*
X124140080Y-103440895D01*
X124418271Y-103468714D01*
X124390452Y-103440895D01*
X124362633Y-103385257D01*
X124362633Y-103246161D01*
X124390452Y-103190523D01*
X124418271Y-103162704D01*
X124473909Y-103134885D01*
X124613004Y-103134885D01*
X124668642Y-103162704D01*
X124696461Y-103190523D01*
X124724280Y-103246161D01*
X124724280Y-103385257D01*
X124696461Y-103440895D01*
X124668642Y-103468714D01*
X122311280Y-104609295D02*
X121727080Y-104609295D01*
X121727080Y-104386742D01*
X121754900Y-104331104D01*
X121782719Y-104303285D01*
X121838357Y-104275466D01*
X121921814Y-104275466D01*
X121977452Y-104303285D01*
X122005271Y-104331104D01*
X122033090Y-104386742D01*
X122033090Y-104609295D01*
X122005271Y-103830361D02*
X122033090Y-103746904D01*
X122060909Y-103719085D01*
X122116547Y-103691266D01*
X122200004Y-103691266D01*
X122255642Y-103719085D01*
X122283461Y-103746904D01*
X122311280Y-103802542D01*
X122311280Y-104025095D01*
X121727080Y-104025095D01*
X121727080Y-103830361D01*
X121754900Y-103774723D01*
X121782719Y-103746904D01*
X121838357Y-103719085D01*
X121893995Y-103719085D01*
X121949633Y-103746904D01*
X121977452Y-103774723D01*
X122005271Y-103830361D01*
X122005271Y-104025095D01*
X121727080Y-103190523D02*
X121727080Y-103301800D01*
X121754900Y-103357438D01*
X121782719Y-103385257D01*
X121866176Y-103440895D01*
X121977452Y-103468714D01*
X122200004Y-103468714D01*
X122255642Y-103440895D01*
X122283461Y-103413076D01*
X122311280Y-103357438D01*
X122311280Y-103246161D01*
X122283461Y-103190523D01*
X122255642Y-103162704D01*
X122200004Y-103134885D01*
X122060909Y-103134885D01*
X122005271Y-103162704D01*
X121977452Y-103190523D01*
X121949633Y-103246161D01*
X121949633Y-103357438D01*
X121977452Y-103413076D01*
X122005271Y-103440895D01*
X122060909Y-103468714D01*
X119644280Y-104609295D02*
X119060080Y-104609295D01*
X119060080Y-104386742D01*
X119087900Y-104331104D01*
X119115719Y-104303285D01*
X119171357Y-104275466D01*
X119254814Y-104275466D01*
X119310452Y-104303285D01*
X119338271Y-104331104D01*
X119366090Y-104386742D01*
X119366090Y-104609295D01*
X119338271Y-103830361D02*
X119366090Y-103746904D01*
X119393909Y-103719085D01*
X119449547Y-103691266D01*
X119533004Y-103691266D01*
X119588642Y-103719085D01*
X119616461Y-103746904D01*
X119644280Y-103802542D01*
X119644280Y-104025095D01*
X119060080Y-104025095D01*
X119060080Y-103830361D01*
X119087900Y-103774723D01*
X119115719Y-103746904D01*
X119171357Y-103719085D01*
X119226995Y-103719085D01*
X119282633Y-103746904D01*
X119310452Y-103774723D01*
X119338271Y-103830361D01*
X119338271Y-104025095D01*
X119060080Y-103496533D02*
X119060080Y-103107066D01*
X119644280Y-103357438D01*
X117231280Y-104609295D02*
X116647080Y-104609295D01*
X116647080Y-104386742D01*
X116674900Y-104331104D01*
X116702719Y-104303285D01*
X116758357Y-104275466D01*
X116841814Y-104275466D01*
X116897452Y-104303285D01*
X116925271Y-104331104D01*
X116953090Y-104386742D01*
X116953090Y-104609295D01*
X116925271Y-103830361D02*
X116953090Y-103746904D01*
X116980909Y-103719085D01*
X117036547Y-103691266D01*
X117120004Y-103691266D01*
X117175642Y-103719085D01*
X117203461Y-103746904D01*
X117231280Y-103802542D01*
X117231280Y-104025095D01*
X116647080Y-104025095D01*
X116647080Y-103830361D01*
X116674900Y-103774723D01*
X116702719Y-103746904D01*
X116758357Y-103719085D01*
X116813995Y-103719085D01*
X116869633Y-103746904D01*
X116897452Y-103774723D01*
X116925271Y-103830361D01*
X116925271Y-104025095D01*
X116897452Y-103357438D02*
X116869633Y-103413076D01*
X116841814Y-103440895D01*
X116786176Y-103468714D01*
X116758357Y-103468714D01*
X116702719Y-103440895D01*
X116674900Y-103413076D01*
X116647080Y-103357438D01*
X116647080Y-103246161D01*
X116674900Y-103190523D01*
X116702719Y-103162704D01*
X116758357Y-103134885D01*
X116786176Y-103134885D01*
X116841814Y-103162704D01*
X116869633Y-103190523D01*
X116897452Y-103246161D01*
X116897452Y-103357438D01*
X116925271Y-103413076D01*
X116953090Y-103440895D01*
X117008728Y-103468714D01*
X117120004Y-103468714D01*
X117175642Y-103440895D01*
X117203461Y-103413076D01*
X117231280Y-103357438D01*
X117231280Y-103246161D01*
X117203461Y-103190523D01*
X117175642Y-103162704D01*
X117120004Y-103134885D01*
X117008728Y-103134885D01*
X116953090Y-103162704D01*
X116925271Y-103190523D01*
X116897452Y-103246161D01*
X114691280Y-104609295D02*
X114107080Y-104609295D01*
X114107080Y-104386742D01*
X114134900Y-104331104D01*
X114162719Y-104303285D01*
X114218357Y-104275466D01*
X114301814Y-104275466D01*
X114357452Y-104303285D01*
X114385271Y-104331104D01*
X114413090Y-104386742D01*
X114413090Y-104609295D01*
X114385271Y-103830361D02*
X114413090Y-103746904D01*
X114440909Y-103719085D01*
X114496547Y-103691266D01*
X114580004Y-103691266D01*
X114635642Y-103719085D01*
X114663461Y-103746904D01*
X114691280Y-103802542D01*
X114691280Y-104025095D01*
X114107080Y-104025095D01*
X114107080Y-103830361D01*
X114134900Y-103774723D01*
X114162719Y-103746904D01*
X114218357Y-103719085D01*
X114273995Y-103719085D01*
X114329633Y-103746904D01*
X114357452Y-103774723D01*
X114385271Y-103830361D01*
X114385271Y-104025095D01*
X114691280Y-103413076D02*
X114691280Y-103301800D01*
X114663461Y-103246161D01*
X114635642Y-103218342D01*
X114552185Y-103162704D01*
X114440909Y-103134885D01*
X114218357Y-103134885D01*
X114162719Y-103162704D01*
X114134900Y-103190523D01*
X114107080Y-103246161D01*
X114107080Y-103357438D01*
X114134900Y-103413076D01*
X114162719Y-103440895D01*
X114218357Y-103468714D01*
X114357452Y-103468714D01*
X114413090Y-103440895D01*
X114440909Y-103413076D01*
X114468728Y-103357438D01*
X114468728Y-103246161D01*
X114440909Y-103190523D01*
X114413090Y-103162704D01*
X114357452Y-103134885D01*
X112024280Y-104567566D02*
X111440080Y-104567566D01*
X111440080Y-104345014D01*
X111467900Y-104289376D01*
X111495719Y-104261557D01*
X111551357Y-104233738D01*
X111634814Y-104233738D01*
X111690452Y-104261557D01*
X111718271Y-104289376D01*
X111746090Y-104345014D01*
X111746090Y-104567566D01*
X111857366Y-104011185D02*
X111857366Y-103732995D01*
X112024280Y-104066823D02*
X111440080Y-103872090D01*
X112024280Y-103677357D01*
X111440080Y-103371347D02*
X111440080Y-103315709D01*
X111467900Y-103260071D01*
X111495719Y-103232252D01*
X111551357Y-103204433D01*
X111662633Y-103176614D01*
X111801728Y-103176614D01*
X111913004Y-103204433D01*
X111968642Y-103232252D01*
X111996461Y-103260071D01*
X112024280Y-103315709D01*
X112024280Y-103371347D01*
X111996461Y-103426985D01*
X111968642Y-103454804D01*
X111913004Y-103482623D01*
X111801728Y-103510442D01*
X111662633Y-103510442D01*
X111551357Y-103482623D01*
X111495719Y-103454804D01*
X111467900Y-103426985D01*
X111440080Y-103371347D01*
X106188933Y-103607809D02*
X106188933Y-103099809D01*
X106382457Y-103099809D01*
X106430838Y-103124000D01*
X106455028Y-103148190D01*
X106479219Y-103196571D01*
X106479219Y-103269142D01*
X106455028Y-103317523D01*
X106430838Y-103341714D01*
X106382457Y-103365904D01*
X106188933Y-103365904D01*
X106672742Y-103462666D02*
X106914647Y-103462666D01*
X106624361Y-103607809D02*
X106793695Y-103099809D01*
X106963028Y-103607809D01*
X107398457Y-103607809D02*
X107108171Y-103607809D01*
X107253314Y-103607809D02*
X107253314Y-103099809D01*
X107204933Y-103172380D01*
X107156552Y-103220761D01*
X107108171Y-103244952D01*
X108832952Y-103124000D02*
X108784571Y-103099809D01*
X108712000Y-103099809D01*
X108639428Y-103124000D01*
X108591047Y-103172380D01*
X108566857Y-103220761D01*
X108542666Y-103317523D01*
X108542666Y-103390095D01*
X108566857Y-103486857D01*
X108591047Y-103535238D01*
X108639428Y-103583619D01*
X108712000Y-103607809D01*
X108760380Y-103607809D01*
X108832952Y-103583619D01*
X108857142Y-103559428D01*
X108857142Y-103390095D01*
X108760380Y-103390095D01*
X109074857Y-103607809D02*
X109074857Y-103099809D01*
X109365142Y-103607809D01*
X109365142Y-103099809D01*
X109607047Y-103607809D02*
X109607047Y-103099809D01*
X109728000Y-103099809D01*
X109800571Y-103124000D01*
X109848952Y-103172380D01*
X109873142Y-103220761D01*
X109897333Y-103317523D01*
X109897333Y-103390095D01*
X109873142Y-103486857D01*
X109848952Y-103535238D01*
X109800571Y-103583619D01*
X109728000Y-103607809D01*
X109607047Y-103607809D01*
X103638047Y-103099809D02*
X103952523Y-103099809D01*
X103783190Y-103293333D01*
X103855761Y-103293333D01*
X103904142Y-103317523D01*
X103928333Y-103341714D01*
X103952523Y-103390095D01*
X103952523Y-103511047D01*
X103928333Y-103559428D01*
X103904142Y-103583619D01*
X103855761Y-103607809D01*
X103710619Y-103607809D01*
X103662238Y-103583619D01*
X103638047Y-103559428D01*
X104097666Y-103099809D02*
X104267000Y-103607809D01*
X104436333Y-103099809D01*
X104557285Y-103099809D02*
X104871761Y-103099809D01*
X104702428Y-103293333D01*
X104775000Y-103293333D01*
X104823380Y-103317523D01*
X104847571Y-103341714D01*
X104871761Y-103390095D01*
X104871761Y-103511047D01*
X104847571Y-103559428D01*
X104823380Y-103583619D01*
X104775000Y-103607809D01*
X104629857Y-103607809D01*
X104581476Y-103583619D01*
X104557285Y-103559428D01*
X101297619Y-102972809D02*
X101466952Y-103480809D01*
X101636285Y-102972809D01*
X101805619Y-103480809D02*
X101805619Y-102972809D01*
X102047523Y-103480809D02*
X102047523Y-102972809D01*
X102337809Y-103480809D01*
X102337809Y-102972809D01*
D12*
X104541400Y-106082200D02*
X104541400Y-104382200D01*
X104541400Y-104382200D02*
X101391400Y-104382200D01*
X104541400Y-106082200D02*
X101391400Y-106082200D01*
X171510000Y-102930000D02*
X171510000Y-100270000D01*
X102870000Y-102930000D02*
X171510000Y-102930000D01*
X102870000Y-100270000D02*
X171510000Y-100270000D01*
X102870000Y-102930000D02*
X102870000Y-100270000D01*
X101600000Y-102930000D02*
X100270000Y-102930000D01*
X100270000Y-102930000D02*
X100270000Y-101600000D01*
D13*
G36*
X143258310Y-106157548D02*
G01*
X143336854Y-106157978D01*
X143393698Y-106159142D01*
X143432505Y-106161407D01*
X143456938Y-106165140D01*
X143470662Y-106170706D01*
X143477340Y-106178473D01*
X143480636Y-106188805D01*
X143480956Y-106190143D01*
X143485962Y-106214279D01*
X143495229Y-106261901D01*
X143507792Y-106327941D01*
X143522687Y-106407328D01*
X143538951Y-106494996D01*
X143539519Y-106498075D01*
X143555810Y-106583989D01*
X143571052Y-106659896D01*
X143584261Y-106721245D01*
X143594454Y-106763482D01*
X143600648Y-106782055D01*
X143600943Y-106782384D01*
X143619188Y-106791453D01*
X143656805Y-106806567D01*
X143705671Y-106824462D01*
X143705943Y-106824558D01*
X143767493Y-106847693D01*
X143840057Y-106877165D01*
X143908457Y-106906797D01*
X143911694Y-106908262D01*
X144023102Y-106958826D01*
X144269799Y-106790360D01*
X144345477Y-106739003D01*
X144414031Y-106693089D01*
X144471488Y-106655230D01*
X144513876Y-106628037D01*
X144537225Y-106614121D01*
X144539442Y-106613089D01*
X144556410Y-106617684D01*
X144588101Y-106639855D01*
X144635752Y-106680647D01*
X144700598Y-106741105D01*
X144766797Y-106805427D01*
X144830614Y-106868812D01*
X144887729Y-106926651D01*
X144934705Y-106975375D01*
X144968103Y-107011410D01*
X144984485Y-107031184D01*
X144985094Y-107032202D01*
X144986905Y-107045772D01*
X144980083Y-107067933D01*
X144962940Y-107101678D01*
X144933793Y-107150000D01*
X144890955Y-107215892D01*
X144833848Y-107300717D01*
X144783166Y-107375377D01*
X144737861Y-107442340D01*
X144700550Y-107497716D01*
X144673852Y-107537620D01*
X144660385Y-107558162D01*
X144659537Y-107559556D01*
X144661181Y-107579238D01*
X144673645Y-107617493D01*
X144694448Y-107667089D01*
X144701862Y-107682928D01*
X144734214Y-107753490D01*
X144768728Y-107833553D01*
X144796765Y-107902829D01*
X144816968Y-107954245D01*
X144833015Y-107993319D01*
X144842288Y-108013741D01*
X144843441Y-108015314D01*
X144860496Y-108017921D01*
X144900698Y-108025063D01*
X144958702Y-108035723D01*
X145029163Y-108048885D01*
X145106735Y-108063533D01*
X145186072Y-108078649D01*
X145261831Y-108093218D01*
X145328664Y-108106222D01*
X145381228Y-108116645D01*
X145414176Y-108123470D01*
X145422257Y-108125399D01*
X145430605Y-108130162D01*
X145436906Y-108140918D01*
X145441445Y-108161298D01*
X145444504Y-108194934D01*
X145446367Y-108245455D01*
X145447318Y-108316492D01*
X145447640Y-108411676D01*
X145447657Y-108450692D01*
X145447657Y-108767999D01*
X145371457Y-108783039D01*
X145329063Y-108791195D01*
X145265800Y-108803099D01*
X145189362Y-108817316D01*
X145107443Y-108832410D01*
X145084800Y-108836555D01*
X145009206Y-108851253D01*
X144943353Y-108865705D01*
X144892766Y-108878575D01*
X144862974Y-108888522D01*
X144858012Y-108891487D01*
X144845826Y-108912483D01*
X144828353Y-108953167D01*
X144808977Y-109005522D01*
X144805134Y-109016800D01*
X144779739Y-109086723D01*
X144748217Y-109165618D01*
X144717369Y-109236466D01*
X144717217Y-109236795D01*
X144665847Y-109347933D01*
X144834799Y-109596453D01*
X145003752Y-109844972D01*
X144786829Y-110062258D01*
X144721219Y-110126926D01*
X144661379Y-110183933D01*
X144610667Y-110230233D01*
X144572446Y-110262784D01*
X144550075Y-110278543D01*
X144546866Y-110279543D01*
X144528026Y-110271669D01*
X144489580Y-110249778D01*
X144435730Y-110216467D01*
X144370676Y-110174331D01*
X144300340Y-110127143D01*
X144228955Y-110079010D01*
X144165308Y-110037128D01*
X144113441Y-110004071D01*
X144077395Y-109982418D01*
X144061267Y-109974743D01*
X144041589Y-109981237D01*
X144004275Y-109998350D01*
X143957021Y-110022526D01*
X143952012Y-110025213D01*
X143888377Y-110057127D01*
X143844741Y-110072779D01*
X143817602Y-110072945D01*
X143803457Y-110058404D01*
X143803375Y-110058200D01*
X143796305Y-110040979D01*
X143779442Y-110000099D01*
X143754095Y-109938725D01*
X143721571Y-109860019D01*
X143683178Y-109767147D01*
X143640222Y-109663272D01*
X143598622Y-109562702D01*
X143552904Y-109451716D01*
X143510926Y-109348903D01*
X143473948Y-109257415D01*
X143443227Y-109180401D01*
X143420022Y-109121015D01*
X143405590Y-109082409D01*
X143401143Y-109068000D01*
X143412296Y-109051472D01*
X143441469Y-109025130D01*
X143480371Y-108996087D01*
X143591157Y-108904239D01*
X143677751Y-108798959D01*
X143739116Y-108682466D01*
X143774215Y-108556976D01*
X143782008Y-108424707D01*
X143776343Y-108363657D01*
X143745478Y-108236995D01*
X143692320Y-108125141D01*
X143620167Y-108029201D01*
X143532317Y-107950276D01*
X143432065Y-107889470D01*
X143322710Y-107847887D01*
X143207547Y-107826628D01*
X143089875Y-107826799D01*
X142972990Y-107849501D01*
X142860189Y-107895838D01*
X142754769Y-107966913D01*
X142710768Y-108007111D01*
X142626379Y-108110329D01*
X142567622Y-108223125D01*
X142534104Y-108342210D01*
X142525435Y-108464295D01*
X142541223Y-108586093D01*
X142581078Y-108704316D01*
X142644607Y-108815675D01*
X142731421Y-108916884D01*
X142828429Y-108996087D01*
X142868837Y-109026362D01*
X142897382Y-109052419D01*
X142907657Y-109068025D01*
X142902277Y-109085043D01*
X142886975Y-109125700D01*
X142863012Y-109186842D01*
X142831644Y-109265319D01*
X142794132Y-109357980D01*
X142751733Y-109461672D01*
X142710063Y-109562726D01*
X142664090Y-109673807D01*
X142621507Y-109776741D01*
X142583621Y-109868365D01*
X142551740Y-109945516D01*
X142527171Y-110005031D01*
X142511220Y-110043744D01*
X142505310Y-110058200D01*
X142491348Y-110072885D01*
X142464340Y-110072842D01*
X142420813Y-110057299D01*
X142357290Y-110025484D01*
X142356788Y-110025213D01*
X142308960Y-110000523D01*
X142270297Y-109982538D01*
X142248495Y-109974814D01*
X142247533Y-109974743D01*
X142231121Y-109982578D01*
X142194887Y-110004365D01*
X142142874Y-110037528D01*
X142079125Y-110079491D01*
X142008460Y-110127143D01*
X141936516Y-110175391D01*
X141871674Y-110217351D01*
X141818135Y-110250427D01*
X141780097Y-110272021D01*
X141761933Y-110279543D01*
X141745208Y-110269657D01*
X141711580Y-110242026D01*
X141664410Y-110199695D01*
X141607058Y-110145705D01*
X141542884Y-110083099D01*
X141521897Y-110062183D01*
X141304899Y-109844823D01*
X141470068Y-109602420D01*
X141520264Y-109527981D01*
X141564319Y-109461172D01*
X141599762Y-109405865D01*
X141624119Y-109365929D01*
X141634922Y-109345236D01*
X141635238Y-109343763D01*
X141629543Y-109324258D01*
X141614226Y-109285022D01*
X141591937Y-109232630D01*
X141576293Y-109197555D01*
X141547041Y-109130401D01*
X141519494Y-109062558D01*
X141498137Y-109005234D01*
X141492335Y-108987772D01*
X141475852Y-108941138D01*
X141459740Y-108905105D01*
X141450890Y-108891487D01*
X141431360Y-108883152D01*
X141388734Y-108871337D01*
X141328545Y-108857381D01*
X141256322Y-108842622D01*
X141224000Y-108836555D01*
X141141922Y-108821473D01*
X141063195Y-108806869D01*
X140995509Y-108794180D01*
X140946560Y-108784842D01*
X140937343Y-108783039D01*
X140861143Y-108767999D01*
X140861143Y-108450692D01*
X140861314Y-108346354D01*
X140862016Y-108267413D01*
X140863534Y-108210238D01*
X140866149Y-108171199D01*
X140870146Y-108146665D01*
X140875809Y-108133005D01*
X140883420Y-108126589D01*
X140886543Y-108125399D01*
X140905378Y-108121180D01*
X140946988Y-108112762D01*
X141006030Y-108101161D01*
X141077157Y-108087395D01*
X141155025Y-108072480D01*
X141234287Y-108057432D01*
X141309598Y-108043269D01*
X141375613Y-108031006D01*
X141426987Y-108021661D01*
X141458375Y-108016250D01*
X141465359Y-108015314D01*
X141471685Y-108002796D01*
X141485690Y-107969446D01*
X141504755Y-107921577D01*
X141512034Y-107902829D01*
X141541396Y-107830395D01*
X141575971Y-107750370D01*
X141606937Y-107682928D01*
X141629723Y-107631359D01*
X141644882Y-107588985D01*
X141649942Y-107563034D01*
X141649136Y-107559556D01*
X141638441Y-107543136D01*
X141614020Y-107506617D01*
X141578495Y-107453887D01*
X141534487Y-107388835D01*
X141484617Y-107315351D01*
X141474756Y-107300845D01*
X141416892Y-107214904D01*
X141374356Y-107149461D01*
X141345454Y-107101504D01*
X141328490Y-107068020D01*
X141321767Y-107045995D01*
X141323590Y-107032417D01*
X141323636Y-107032331D01*
X141337986Y-107014497D01*
X141369723Y-106980017D01*
X141415410Y-106932468D01*
X141471604Y-106875422D01*
X141534868Y-106812455D01*
X141542002Y-106805427D01*
X141621730Y-106728220D01*
X141683257Y-106671530D01*
X141727821Y-106634310D01*
X141756657Y-106615515D01*
X141769358Y-106613089D01*
X141787894Y-106623671D01*
X141826361Y-106648116D01*
X141880786Y-106683812D01*
X141947198Y-106728147D01*
X142021625Y-106778511D01*
X142039001Y-106790360D01*
X142285697Y-106958826D01*
X142397106Y-106908262D01*
X142464857Y-106878795D01*
X142537583Y-106849159D01*
X142600103Y-106825530D01*
X142602857Y-106824558D01*
X142651760Y-106806657D01*
X142689457Y-106791520D01*
X142707825Y-106782410D01*
X142707856Y-106782384D01*
X142713685Y-106765917D01*
X142723592Y-106725419D01*
X142736595Y-106665442D01*
X142751709Y-106590540D01*
X142767952Y-106505264D01*
X142769281Y-106498075D01*
X142785575Y-106410214D01*
X142800533Y-106330460D01*
X142813191Y-106263881D01*
X142822586Y-106215547D01*
X142827754Y-106190525D01*
X142827844Y-106190143D01*
X142830989Y-106179499D01*
X142837104Y-106171462D01*
X142849853Y-106165667D01*
X142872900Y-106161747D01*
X142909909Y-106159335D01*
X142964544Y-106158065D01*
X143040467Y-106157571D01*
X143141344Y-106157486D01*
X143154400Y-106157486D01*
X143258310Y-106157548D01*
X143258310Y-106157548D01*
G37*
X143258310Y-106157548D02*
X143336854Y-106157978D01*
X143393698Y-106159142D01*
X143432505Y-106161407D01*
X143456938Y-106165140D01*
X143470662Y-106170706D01*
X143477340Y-106178473D01*
X143480636Y-106188805D01*
X143480956Y-106190143D01*
X143485962Y-106214279D01*
X143495229Y-106261901D01*
X143507792Y-106327941D01*
X143522687Y-106407328D01*
X143538951Y-106494996D01*
X143539519Y-106498075D01*
X143555810Y-106583989D01*
X143571052Y-106659896D01*
X143584261Y-106721245D01*
X143594454Y-106763482D01*
X143600648Y-106782055D01*
X143600943Y-106782384D01*
X143619188Y-106791453D01*
X143656805Y-106806567D01*
X143705671Y-106824462D01*
X143705943Y-106824558D01*
X143767493Y-106847693D01*
X143840057Y-106877165D01*
X143908457Y-106906797D01*
X143911694Y-106908262D01*
X144023102Y-106958826D01*
X144269799Y-106790360D01*
X144345477Y-106739003D01*
X144414031Y-106693089D01*
X144471488Y-106655230D01*
X144513876Y-106628037D01*
X144537225Y-106614121D01*
X144539442Y-106613089D01*
X144556410Y-106617684D01*
X144588101Y-106639855D01*
X144635752Y-106680647D01*
X144700598Y-106741105D01*
X144766797Y-106805427D01*
X144830614Y-106868812D01*
X144887729Y-106926651D01*
X144934705Y-106975375D01*
X144968103Y-107011410D01*
X144984485Y-107031184D01*
X144985094Y-107032202D01*
X144986905Y-107045772D01*
X144980083Y-107067933D01*
X144962940Y-107101678D01*
X144933793Y-107150000D01*
X144890955Y-107215892D01*
X144833848Y-107300717D01*
X144783166Y-107375377D01*
X144737861Y-107442340D01*
X144700550Y-107497716D01*
X144673852Y-107537620D01*
X144660385Y-107558162D01*
X144659537Y-107559556D01*
X144661181Y-107579238D01*
X144673645Y-107617493D01*
X144694448Y-107667089D01*
X144701862Y-107682928D01*
X144734214Y-107753490D01*
X144768728Y-107833553D01*
X144796765Y-107902829D01*
X144816968Y-107954245D01*
X144833015Y-107993319D01*
X144842288Y-108013741D01*
X144843441Y-108015314D01*
X144860496Y-108017921D01*
X144900698Y-108025063D01*
X144958702Y-108035723D01*
X145029163Y-108048885D01*
X145106735Y-108063533D01*
X145186072Y-108078649D01*
X145261831Y-108093218D01*
X145328664Y-108106222D01*
X145381228Y-108116645D01*
X145414176Y-108123470D01*
X145422257Y-108125399D01*
X145430605Y-108130162D01*
X145436906Y-108140918D01*
X145441445Y-108161298D01*
X145444504Y-108194934D01*
X145446367Y-108245455D01*
X145447318Y-108316492D01*
X145447640Y-108411676D01*
X145447657Y-108450692D01*
X145447657Y-108767999D01*
X145371457Y-108783039D01*
X145329063Y-108791195D01*
X145265800Y-108803099D01*
X145189362Y-108817316D01*
X145107443Y-108832410D01*
X145084800Y-108836555D01*
X145009206Y-108851253D01*
X144943353Y-108865705D01*
X144892766Y-108878575D01*
X144862974Y-108888522D01*
X144858012Y-108891487D01*
X144845826Y-108912483D01*
X144828353Y-108953167D01*
X144808977Y-109005522D01*
X144805134Y-109016800D01*
X144779739Y-109086723D01*
X144748217Y-109165618D01*
X144717369Y-109236466D01*
X144717217Y-109236795D01*
X144665847Y-109347933D01*
X144834799Y-109596453D01*
X145003752Y-109844972D01*
X144786829Y-110062258D01*
X144721219Y-110126926D01*
X144661379Y-110183933D01*
X144610667Y-110230233D01*
X144572446Y-110262784D01*
X144550075Y-110278543D01*
X144546866Y-110279543D01*
X144528026Y-110271669D01*
X144489580Y-110249778D01*
X144435730Y-110216467D01*
X144370676Y-110174331D01*
X144300340Y-110127143D01*
X144228955Y-110079010D01*
X144165308Y-110037128D01*
X144113441Y-110004071D01*
X144077395Y-109982418D01*
X144061267Y-109974743D01*
X144041589Y-109981237D01*
X144004275Y-109998350D01*
X143957021Y-110022526D01*
X143952012Y-110025213D01*
X143888377Y-110057127D01*
X143844741Y-110072779D01*
X143817602Y-110072945D01*
X143803457Y-110058404D01*
X143803375Y-110058200D01*
X143796305Y-110040979D01*
X143779442Y-110000099D01*
X143754095Y-109938725D01*
X143721571Y-109860019D01*
X143683178Y-109767147D01*
X143640222Y-109663272D01*
X143598622Y-109562702D01*
X143552904Y-109451716D01*
X143510926Y-109348903D01*
X143473948Y-109257415D01*
X143443227Y-109180401D01*
X143420022Y-109121015D01*
X143405590Y-109082409D01*
X143401143Y-109068000D01*
X143412296Y-109051472D01*
X143441469Y-109025130D01*
X143480371Y-108996087D01*
X143591157Y-108904239D01*
X143677751Y-108798959D01*
X143739116Y-108682466D01*
X143774215Y-108556976D01*
X143782008Y-108424707D01*
X143776343Y-108363657D01*
X143745478Y-108236995D01*
X143692320Y-108125141D01*
X143620167Y-108029201D01*
X143532317Y-107950276D01*
X143432065Y-107889470D01*
X143322710Y-107847887D01*
X143207547Y-107826628D01*
X143089875Y-107826799D01*
X142972990Y-107849501D01*
X142860189Y-107895838D01*
X142754769Y-107966913D01*
X142710768Y-108007111D01*
X142626379Y-108110329D01*
X142567622Y-108223125D01*
X142534104Y-108342210D01*
X142525435Y-108464295D01*
X142541223Y-108586093D01*
X142581078Y-108704316D01*
X142644607Y-108815675D01*
X142731421Y-108916884D01*
X142828429Y-108996087D01*
X142868837Y-109026362D01*
X142897382Y-109052419D01*
X142907657Y-109068025D01*
X142902277Y-109085043D01*
X142886975Y-109125700D01*
X142863012Y-109186842D01*
X142831644Y-109265319D01*
X142794132Y-109357980D01*
X142751733Y-109461672D01*
X142710063Y-109562726D01*
X142664090Y-109673807D01*
X142621507Y-109776741D01*
X142583621Y-109868365D01*
X142551740Y-109945516D01*
X142527171Y-110005031D01*
X142511220Y-110043744D01*
X142505310Y-110058200D01*
X142491348Y-110072885D01*
X142464340Y-110072842D01*
X142420813Y-110057299D01*
X142357290Y-110025484D01*
X142356788Y-110025213D01*
X142308960Y-110000523D01*
X142270297Y-109982538D01*
X142248495Y-109974814D01*
X142247533Y-109974743D01*
X142231121Y-109982578D01*
X142194887Y-110004365D01*
X142142874Y-110037528D01*
X142079125Y-110079491D01*
X142008460Y-110127143D01*
X141936516Y-110175391D01*
X141871674Y-110217351D01*
X141818135Y-110250427D01*
X141780097Y-110272021D01*
X141761933Y-110279543D01*
X141745208Y-110269657D01*
X141711580Y-110242026D01*
X141664410Y-110199695D01*
X141607058Y-110145705D01*
X141542884Y-110083099D01*
X141521897Y-110062183D01*
X141304899Y-109844823D01*
X141470068Y-109602420D01*
X141520264Y-109527981D01*
X141564319Y-109461172D01*
X141599762Y-109405865D01*
X141624119Y-109365929D01*
X141634922Y-109345236D01*
X141635238Y-109343763D01*
X141629543Y-109324258D01*
X141614226Y-109285022D01*
X141591937Y-109232630D01*
X141576293Y-109197555D01*
X141547041Y-109130401D01*
X141519494Y-109062558D01*
X141498137Y-109005234D01*
X141492335Y-108987772D01*
X141475852Y-108941138D01*
X141459740Y-108905105D01*
X141450890Y-108891487D01*
X141431360Y-108883152D01*
X141388734Y-108871337D01*
X141328545Y-108857381D01*
X141256322Y-108842622D01*
X141224000Y-108836555D01*
X141141922Y-108821473D01*
X141063195Y-108806869D01*
X140995509Y-108794180D01*
X140946560Y-108784842D01*
X140937343Y-108783039D01*
X140861143Y-108767999D01*
X140861143Y-108450692D01*
X140861314Y-108346354D01*
X140862016Y-108267413D01*
X140863534Y-108210238D01*
X140866149Y-108171199D01*
X140870146Y-108146665D01*
X140875809Y-108133005D01*
X140883420Y-108126589D01*
X140886543Y-108125399D01*
X140905378Y-108121180D01*
X140946988Y-108112762D01*
X141006030Y-108101161D01*
X141077157Y-108087395D01*
X141155025Y-108072480D01*
X141234287Y-108057432D01*
X141309598Y-108043269D01*
X141375613Y-108031006D01*
X141426987Y-108021661D01*
X141458375Y-108016250D01*
X141465359Y-108015314D01*
X141471685Y-108002796D01*
X141485690Y-107969446D01*
X141504755Y-107921577D01*
X141512034Y-107902829D01*
X141541396Y-107830395D01*
X141575971Y-107750370D01*
X141606937Y-107682928D01*
X141629723Y-107631359D01*
X141644882Y-107588985D01*
X141649942Y-107563034D01*
X141649136Y-107559556D01*
X141638441Y-107543136D01*
X141614020Y-107506617D01*
X141578495Y-107453887D01*
X141534487Y-107388835D01*
X141484617Y-107315351D01*
X141474756Y-107300845D01*
X141416892Y-107214904D01*
X141374356Y-107149461D01*
X141345454Y-107101504D01*
X141328490Y-107068020D01*
X141321767Y-107045995D01*
X141323590Y-107032417D01*
X141323636Y-107032331D01*
X141337986Y-107014497D01*
X141369723Y-106980017D01*
X141415410Y-106932468D01*
X141471604Y-106875422D01*
X141534868Y-106812455D01*
X141542002Y-106805427D01*
X141621730Y-106728220D01*
X141683257Y-106671530D01*
X141727821Y-106634310D01*
X141756657Y-106615515D01*
X141769358Y-106613089D01*
X141787894Y-106623671D01*
X141826361Y-106648116D01*
X141880786Y-106683812D01*
X141947198Y-106728147D01*
X142021625Y-106778511D01*
X142039001Y-106790360D01*
X142285697Y-106958826D01*
X142397106Y-106908262D01*
X142464857Y-106878795D01*
X142537583Y-106849159D01*
X142600103Y-106825530D01*
X142602857Y-106824558D01*
X142651760Y-106806657D01*
X142689457Y-106791520D01*
X142707825Y-106782410D01*
X142707856Y-106782384D01*
X142713685Y-106765917D01*
X142723592Y-106725419D01*
X142736595Y-106665442D01*
X142751709Y-106590540D01*
X142767952Y-106505264D01*
X142769281Y-106498075D01*
X142785575Y-106410214D01*
X142800533Y-106330460D01*
X142813191Y-106263881D01*
X142822586Y-106215547D01*
X142827754Y-106190525D01*
X142827844Y-106190143D01*
X142830989Y-106179499D01*
X142837104Y-106171462D01*
X142849853Y-106165667D01*
X142872900Y-106161747D01*
X142909909Y-106159335D01*
X142964544Y-106158065D01*
X143040467Y-106157571D01*
X143141344Y-106157486D01*
X143154400Y-106157486D01*
X143258310Y-106157548D01*
G36*
X146307995Y-110882166D02*
G01*
X146365421Y-110919697D01*
X146393119Y-110953296D01*
X146415062Y-111014264D01*
X146416805Y-111062508D01*
X146412857Y-111127016D01*
X146264086Y-111192134D01*
X146191749Y-111225402D01*
X146144484Y-111252164D01*
X146119907Y-111275344D01*
X146115637Y-111297867D01*
X146129289Y-111322655D01*
X146144343Y-111339086D01*
X146188146Y-111365435D01*
X146235789Y-111367281D01*
X146279545Y-111346746D01*
X146311689Y-111305952D01*
X146317438Y-111291547D01*
X146344976Y-111246556D01*
X146376658Y-111227382D01*
X146420114Y-111210979D01*
X146420114Y-111273166D01*
X146416272Y-111315483D01*
X146401223Y-111351169D01*
X146369680Y-111392143D01*
X146364992Y-111397467D01*
X146329906Y-111433920D01*
X146299747Y-111453483D01*
X146262015Y-111462483D01*
X146230735Y-111465430D01*
X146174785Y-111466165D01*
X146134955Y-111456860D01*
X146110108Y-111443046D01*
X146071056Y-111412667D01*
X146044025Y-111379813D01*
X146026917Y-111338494D01*
X146017638Y-111282721D01*
X146014093Y-111206505D01*
X146013810Y-111167822D01*
X146014772Y-111121447D01*
X146102407Y-111121447D01*
X146103423Y-111146326D01*
X146105956Y-111150400D01*
X146122674Y-111144865D01*
X146158649Y-111130217D01*
X146206731Y-111109390D01*
X146216786Y-111104914D01*
X146277552Y-111074014D01*
X146311032Y-111046857D01*
X146318390Y-111021420D01*
X146300791Y-110995681D01*
X146286256Y-110984309D01*
X146233810Y-110961564D01*
X146184722Y-110965322D01*
X146143627Y-110993084D01*
X146115158Y-111042352D01*
X146106031Y-111081457D01*
X146102407Y-111121447D01*
X146014772Y-111121447D01*
X146015685Y-111077449D01*
X146022596Y-111010584D01*
X146036284Y-110961895D01*
X146058496Y-110926049D01*
X146090974Y-110897713D01*
X146105133Y-110888555D01*
X146169453Y-110864707D01*
X146239873Y-110863206D01*
X146307995Y-110882166D01*
X146307995Y-110882166D01*
G37*
X146307995Y-110882166D02*
X146365421Y-110919697D01*
X146393119Y-110953296D01*
X146415062Y-111014264D01*
X146416805Y-111062508D01*
X146412857Y-111127016D01*
X146264086Y-111192134D01*
X146191749Y-111225402D01*
X146144484Y-111252164D01*
X146119907Y-111275344D01*
X146115637Y-111297867D01*
X146129289Y-111322655D01*
X146144343Y-111339086D01*
X146188146Y-111365435D01*
X146235789Y-111367281D01*
X146279545Y-111346746D01*
X146311689Y-111305952D01*
X146317438Y-111291547D01*
X146344976Y-111246556D01*
X146376658Y-111227382D01*
X146420114Y-111210979D01*
X146420114Y-111273166D01*
X146416272Y-111315483D01*
X146401223Y-111351169D01*
X146369680Y-111392143D01*
X146364992Y-111397467D01*
X146329906Y-111433920D01*
X146299747Y-111453483D01*
X146262015Y-111462483D01*
X146230735Y-111465430D01*
X146174785Y-111466165D01*
X146134955Y-111456860D01*
X146110108Y-111443046D01*
X146071056Y-111412667D01*
X146044025Y-111379813D01*
X146026917Y-111338494D01*
X146017638Y-111282721D01*
X146014093Y-111206505D01*
X146013810Y-111167822D01*
X146014772Y-111121447D01*
X146102407Y-111121447D01*
X146103423Y-111146326D01*
X146105956Y-111150400D01*
X146122674Y-111144865D01*
X146158649Y-111130217D01*
X146206731Y-111109390D01*
X146216786Y-111104914D01*
X146277552Y-111074014D01*
X146311032Y-111046857D01*
X146318390Y-111021420D01*
X146300791Y-110995681D01*
X146286256Y-110984309D01*
X146233810Y-110961564D01*
X146184722Y-110965322D01*
X146143627Y-110993084D01*
X146115158Y-111042352D01*
X146106031Y-111081457D01*
X146102407Y-111121447D01*
X146014772Y-111121447D01*
X146015685Y-111077449D01*
X146022596Y-111010584D01*
X146036284Y-110961895D01*
X146058496Y-110926049D01*
X146090974Y-110897713D01*
X146105133Y-110888555D01*
X146169453Y-110864707D01*
X146239873Y-110863206D01*
X146307995Y-110882166D01*
G36*
X145807000Y-110873952D02*
G01*
X145824348Y-110881534D01*
X145865756Y-110914328D01*
X145901165Y-110961747D01*
X145923064Y-111012351D01*
X145926629Y-111037298D01*
X145914679Y-111072127D01*
X145888467Y-111090557D01*
X145860364Y-111101716D01*
X145847495Y-111103772D01*
X145841229Y-111088849D01*
X145828856Y-111056375D01*
X145823428Y-111041702D01*
X145792990Y-110990944D01*
X145748920Y-110965627D01*
X145692410Y-110966406D01*
X145688225Y-110967403D01*
X145658055Y-110981707D01*
X145635876Y-111009593D01*
X145620727Y-111054487D01*
X145611650Y-111119815D01*
X145607686Y-111209004D01*
X145607314Y-111256461D01*
X145607130Y-111331271D01*
X145605922Y-111382269D01*
X145602709Y-111414671D01*
X145596509Y-111433695D01*
X145586340Y-111444556D01*
X145571219Y-111452472D01*
X145570346Y-111452870D01*
X145541228Y-111465181D01*
X145526803Y-111469714D01*
X145524586Y-111456009D01*
X145522689Y-111418125D01*
X145521247Y-111360915D01*
X145520398Y-111289227D01*
X145520229Y-111236765D01*
X145521092Y-111135247D01*
X145524470Y-111058232D01*
X145531542Y-111001223D01*
X145543488Y-110959726D01*
X145561490Y-110929243D01*
X145586727Y-110905280D01*
X145611647Y-110888555D01*
X145671571Y-110866297D01*
X145741311Y-110861276D01*
X145807000Y-110873952D01*
X145807000Y-110873952D01*
G37*
X145807000Y-110873952D02*
X145824348Y-110881534D01*
X145865756Y-110914328D01*
X145901165Y-110961747D01*
X145923064Y-111012351D01*
X145926629Y-111037298D01*
X145914679Y-111072127D01*
X145888467Y-111090557D01*
X145860364Y-111101716D01*
X145847495Y-111103772D01*
X145841229Y-111088849D01*
X145828856Y-111056375D01*
X145823428Y-111041702D01*
X145792990Y-110990944D01*
X145748920Y-110965627D01*
X145692410Y-110966406D01*
X145688225Y-110967403D01*
X145658055Y-110981707D01*
X145635876Y-111009593D01*
X145620727Y-111054487D01*
X145611650Y-111119815D01*
X145607686Y-111209004D01*
X145607314Y-111256461D01*
X145607130Y-111331271D01*
X145605922Y-111382269D01*
X145602709Y-111414671D01*
X145596509Y-111433695D01*
X145586340Y-111444556D01*
X145571219Y-111452472D01*
X145570346Y-111452870D01*
X145541228Y-111465181D01*
X145526803Y-111469714D01*
X145524586Y-111456009D01*
X145522689Y-111418125D01*
X145521247Y-111360915D01*
X145520398Y-111289227D01*
X145520229Y-111236765D01*
X145521092Y-111135247D01*
X145524470Y-111058232D01*
X145531542Y-111001223D01*
X145543488Y-110959726D01*
X145561490Y-110929243D01*
X145586727Y-110905280D01*
X145611647Y-110888555D01*
X145671571Y-110866297D01*
X145741311Y-110861276D01*
X145807000Y-110873952D01*
G36*
X145299276Y-110871535D02*
G01*
X145341067Y-110890544D01*
X145373869Y-110913578D01*
X145397903Y-110939333D01*
X145414497Y-110972558D01*
X145424977Y-111018000D01*
X145430671Y-111080407D01*
X145432907Y-111164527D01*
X145433143Y-111219921D01*
X145433143Y-111436026D01*
X145396174Y-111452870D01*
X145367056Y-111465181D01*
X145352631Y-111469714D01*
X145349872Y-111456225D01*
X145347682Y-111419853D01*
X145346342Y-111366742D01*
X145346057Y-111324572D01*
X145344834Y-111263647D01*
X145341536Y-111215315D01*
X145336721Y-111185718D01*
X145332896Y-111179429D01*
X145307183Y-111185852D01*
X145266818Y-111202325D01*
X145220079Y-111224658D01*
X145175245Y-111248657D01*
X145140593Y-111270130D01*
X145124402Y-111284885D01*
X145124338Y-111285045D01*
X145125730Y-111312352D01*
X145138218Y-111338419D01*
X145160143Y-111359592D01*
X145192143Y-111366674D01*
X145219492Y-111365849D01*
X145258226Y-111365242D01*
X145278558Y-111374316D01*
X145290769Y-111398292D01*
X145292309Y-111402813D01*
X145297603Y-111437006D01*
X145283447Y-111457768D01*
X145246548Y-111467662D01*
X145206689Y-111469492D01*
X145134962Y-111455927D01*
X145097832Y-111436555D01*
X145051976Y-111391045D01*
X145027656Y-111335183D01*
X145025473Y-111276157D01*
X145046029Y-111221153D01*
X145076949Y-111186686D01*
X145107820Y-111167389D01*
X145156342Y-111142959D01*
X145212885Y-111118185D01*
X145222310Y-111114399D01*
X145284419Y-111086991D01*
X145320222Y-111062834D01*
X145331737Y-111038819D01*
X145320980Y-111011835D01*
X145302514Y-110990743D01*
X145258869Y-110964772D01*
X145210846Y-110962824D01*
X145166806Y-110982837D01*
X145135109Y-111022751D01*
X145130949Y-111033048D01*
X145106727Y-111070924D01*
X145071365Y-111099042D01*
X145026743Y-111122117D01*
X145026743Y-111056685D01*
X145029369Y-111016706D01*
X145040630Y-110985197D01*
X145065599Y-110951578D01*
X145089569Y-110925684D01*
X145126841Y-110889017D01*
X145155801Y-110869321D01*
X145186905Y-110861420D01*
X145222113Y-110860114D01*
X145299276Y-110871535D01*
X145299276Y-110871535D01*
G37*
X145299276Y-110871535D02*
X145341067Y-110890544D01*
X145373869Y-110913578D01*
X145397903Y-110939333D01*
X145414497Y-110972558D01*
X145424977Y-111018000D01*
X145430671Y-111080407D01*
X145432907Y-111164527D01*
X145433143Y-111219921D01*
X145433143Y-111436026D01*
X145396174Y-111452870D01*
X145367056Y-111465181D01*
X145352631Y-111469714D01*
X145349872Y-111456225D01*
X145347682Y-111419853D01*
X145346342Y-111366742D01*
X145346057Y-111324572D01*
X145344834Y-111263647D01*
X145341536Y-111215315D01*
X145336721Y-111185718D01*
X145332896Y-111179429D01*
X145307183Y-111185852D01*
X145266818Y-111202325D01*
X145220079Y-111224658D01*
X145175245Y-111248657D01*
X145140593Y-111270130D01*
X145124402Y-111284885D01*
X145124338Y-111285045D01*
X145125730Y-111312352D01*
X145138218Y-111338419D01*
X145160143Y-111359592D01*
X145192143Y-111366674D01*
X145219492Y-111365849D01*
X145258226Y-111365242D01*
X145278558Y-111374316D01*
X145290769Y-111398292D01*
X145292309Y-111402813D01*
X145297603Y-111437006D01*
X145283447Y-111457768D01*
X145246548Y-111467662D01*
X145206689Y-111469492D01*
X145134962Y-111455927D01*
X145097832Y-111436555D01*
X145051976Y-111391045D01*
X145027656Y-111335183D01*
X145025473Y-111276157D01*
X145046029Y-111221153D01*
X145076949Y-111186686D01*
X145107820Y-111167389D01*
X145156342Y-111142959D01*
X145212885Y-111118185D01*
X145222310Y-111114399D01*
X145284419Y-111086991D01*
X145320222Y-111062834D01*
X145331737Y-111038819D01*
X145320980Y-111011835D01*
X145302514Y-110990743D01*
X145258869Y-110964772D01*
X145210846Y-110962824D01*
X145166806Y-110982837D01*
X145135109Y-111022751D01*
X145130949Y-111033048D01*
X145106727Y-111070924D01*
X145071365Y-111099042D01*
X145026743Y-111122117D01*
X145026743Y-111056685D01*
X145029369Y-111016706D01*
X145040630Y-110985197D01*
X145065599Y-110951578D01*
X145089569Y-110925684D01*
X145126841Y-110889017D01*
X145155801Y-110869321D01*
X145186905Y-110861420D01*
X145222113Y-110860114D01*
X145299276Y-110871535D01*
G36*
X144934233Y-110873863D02*
G01*
X144936448Y-110912050D01*
X144938184Y-110970086D01*
X144939299Y-111043380D01*
X144939657Y-111120255D01*
X144939657Y-111380396D01*
X144893726Y-111426327D01*
X144862075Y-111454629D01*
X144834290Y-111466093D01*
X144796315Y-111465368D01*
X144781240Y-111463521D01*
X144734126Y-111458148D01*
X144695156Y-111455069D01*
X144685657Y-111454785D01*
X144653633Y-111456645D01*
X144607832Y-111461314D01*
X144590074Y-111463521D01*
X144546457Y-111466935D01*
X144517145Y-111459520D01*
X144488080Y-111436627D01*
X144477588Y-111426327D01*
X144431657Y-111380396D01*
X144431657Y-110893802D01*
X144468626Y-110876958D01*
X144500459Y-110864482D01*
X144519083Y-110860114D01*
X144523858Y-110873918D01*
X144528321Y-110912486D01*
X144532175Y-110971556D01*
X144535122Y-111046863D01*
X144536543Y-111110486D01*
X144540514Y-111360857D01*
X144575159Y-111365756D01*
X144606668Y-111362331D01*
X144622108Y-111351241D01*
X144626423Y-111330508D01*
X144630108Y-111286345D01*
X144632869Y-111224346D01*
X144634412Y-111150109D01*
X144634635Y-111111906D01*
X144634857Y-110891983D01*
X144680566Y-110876049D01*
X144712918Y-110865215D01*
X144730515Y-110860162D01*
X144731023Y-110860114D01*
X144732788Y-110873848D01*
X144734729Y-110911930D01*
X144736682Y-110969682D01*
X144738484Y-111042427D01*
X144739743Y-111110486D01*
X144743714Y-111360857D01*
X144830800Y-111360857D01*
X144834796Y-111132440D01*
X144838792Y-110904022D01*
X144881247Y-110882068D01*
X144912592Y-110866993D01*
X144931144Y-110860151D01*
X144931679Y-110860114D01*
X144934233Y-110873863D01*
X144934233Y-110873863D01*
G37*
X144934233Y-110873863D02*
X144936448Y-110912050D01*
X144938184Y-110970086D01*
X144939299Y-111043380D01*
X144939657Y-111120255D01*
X144939657Y-111380396D01*
X144893726Y-111426327D01*
X144862075Y-111454629D01*
X144834290Y-111466093D01*
X144796315Y-111465368D01*
X144781240Y-111463521D01*
X144734126Y-111458148D01*
X144695156Y-111455069D01*
X144685657Y-111454785D01*
X144653633Y-111456645D01*
X144607832Y-111461314D01*
X144590074Y-111463521D01*
X144546457Y-111466935D01*
X144517145Y-111459520D01*
X144488080Y-111436627D01*
X144477588Y-111426327D01*
X144431657Y-111380396D01*
X144431657Y-110893802D01*
X144468626Y-110876958D01*
X144500459Y-110864482D01*
X144519083Y-110860114D01*
X144523858Y-110873918D01*
X144528321Y-110912486D01*
X144532175Y-110971556D01*
X144535122Y-111046863D01*
X144536543Y-111110486D01*
X144540514Y-111360857D01*
X144575159Y-111365756D01*
X144606668Y-111362331D01*
X144622108Y-111351241D01*
X144626423Y-111330508D01*
X144630108Y-111286345D01*
X144632869Y-111224346D01*
X144634412Y-111150109D01*
X144634635Y-111111906D01*
X144634857Y-110891983D01*
X144680566Y-110876049D01*
X144712918Y-110865215D01*
X144730515Y-110860162D01*
X144731023Y-110860114D01*
X144732788Y-110873848D01*
X144734729Y-110911930D01*
X144736682Y-110969682D01*
X144738484Y-111042427D01*
X144739743Y-111110486D01*
X144743714Y-111360857D01*
X144830800Y-111360857D01*
X144834796Y-111132440D01*
X144838792Y-110904022D01*
X144881247Y-110882068D01*
X144912592Y-110866993D01*
X144931144Y-110860151D01*
X144931679Y-110860114D01*
X144934233Y-110873863D01*
G36*
X144344517Y-110980558D02*
G01*
X144344333Y-111089037D01*
X144343619Y-111172487D01*
X144342075Y-111234904D01*
X144339401Y-111280285D01*
X144335294Y-111312629D01*
X144329455Y-111335933D01*
X144321582Y-111354195D01*
X144315621Y-111364618D01*
X144266255Y-111421145D01*
X144203664Y-111456577D01*
X144134413Y-111469290D01*
X144065068Y-111457663D01*
X144023775Y-111436768D01*
X143980425Y-111400622D01*
X143950881Y-111356476D01*
X143933055Y-111298662D01*
X143924863Y-111221513D01*
X143923702Y-111164914D01*
X143923858Y-111160847D01*
X144025257Y-111160847D01*
X144025876Y-111225750D01*
X144028714Y-111268714D01*
X144035240Y-111296822D01*
X144046923Y-111317153D01*
X144060883Y-111332488D01*
X144107765Y-111362090D01*
X144158101Y-111364619D01*
X144205676Y-111339905D01*
X144209379Y-111336556D01*
X144225183Y-111319135D01*
X144235093Y-111298409D01*
X144240458Y-111267562D01*
X144242628Y-111219777D01*
X144242971Y-111166948D01*
X144242227Y-111100581D01*
X144239148Y-111056306D01*
X144232461Y-111027209D01*
X144220896Y-111006373D01*
X144211413Y-110995307D01*
X144167360Y-110967398D01*
X144116624Y-110964043D01*
X144068196Y-110985359D01*
X144058850Y-110993273D01*
X144042940Y-111010847D01*
X144033010Y-111031787D01*
X144027678Y-111062982D01*
X144025563Y-111111322D01*
X144025257Y-111160847D01*
X143923858Y-111160847D01*
X143927210Y-111073768D01*
X143939126Y-111005286D01*
X143961535Y-110953800D01*
X143996524Y-110913643D01*
X144023775Y-110893061D01*
X144073307Y-110870825D01*
X144130716Y-110860504D01*
X144184082Y-110863267D01*
X144213943Y-110874412D01*
X144225661Y-110877583D01*
X144233437Y-110865757D01*
X144238865Y-110834066D01*
X144242971Y-110785793D01*
X144247467Y-110732029D01*
X144253713Y-110699682D01*
X144265076Y-110681185D01*
X144284928Y-110668970D01*
X144297400Y-110663562D01*
X144344571Y-110643801D01*
X144344517Y-110980558D01*
X144344517Y-110980558D01*
G37*
X144344517Y-110980558D02*
X144344333Y-111089037D01*
X144343619Y-111172487D01*
X144342075Y-111234904D01*
X144339401Y-111280285D01*
X144335294Y-111312629D01*
X144329455Y-111335933D01*
X144321582Y-111354195D01*
X144315621Y-111364618D01*
X144266255Y-111421145D01*
X144203664Y-111456577D01*
X144134413Y-111469290D01*
X144065068Y-111457663D01*
X144023775Y-111436768D01*
X143980425Y-111400622D01*
X143950881Y-111356476D01*
X143933055Y-111298662D01*
X143924863Y-111221513D01*
X143923702Y-111164914D01*
X143923858Y-111160847D01*
X144025257Y-111160847D01*
X144025876Y-111225750D01*
X144028714Y-111268714D01*
X144035240Y-111296822D01*
X144046923Y-111317153D01*
X144060883Y-111332488D01*
X144107765Y-111362090D01*
X144158101Y-111364619D01*
X144205676Y-111339905D01*
X144209379Y-111336556D01*
X144225183Y-111319135D01*
X144235093Y-111298409D01*
X144240458Y-111267562D01*
X144242628Y-111219777D01*
X144242971Y-111166948D01*
X144242227Y-111100581D01*
X144239148Y-111056306D01*
X144232461Y-111027209D01*
X144220896Y-111006373D01*
X144211413Y-110995307D01*
X144167360Y-110967398D01*
X144116624Y-110964043D01*
X144068196Y-110985359D01*
X144058850Y-110993273D01*
X144042940Y-111010847D01*
X144033010Y-111031787D01*
X144027678Y-111062982D01*
X144025563Y-111111322D01*
X144025257Y-111160847D01*
X143923858Y-111160847D01*
X143927210Y-111073768D01*
X143939126Y-111005286D01*
X143961535Y-110953800D01*
X143996524Y-110913643D01*
X144023775Y-110893061D01*
X144073307Y-110870825D01*
X144130716Y-110860504D01*
X144184082Y-110863267D01*
X144213943Y-110874412D01*
X144225661Y-110877583D01*
X144233437Y-110865757D01*
X144238865Y-110834066D01*
X144242971Y-110785793D01*
X144247467Y-110732029D01*
X144253713Y-110699682D01*
X144265076Y-110681185D01*
X144284928Y-110668970D01*
X144297400Y-110663562D01*
X144344571Y-110643801D01*
X144344517Y-110980558D01*
G36*
X143684326Y-110864955D02*
G01*
X143750258Y-110889284D01*
X143803673Y-110932317D01*
X143824564Y-110962609D01*
X143847339Y-111018194D01*
X143846866Y-111058386D01*
X143822962Y-111085417D01*
X143814117Y-111090013D01*
X143775930Y-111104344D01*
X143756428Y-111100672D01*
X143749822Y-111076607D01*
X143749486Y-111063314D01*
X143737392Y-111014410D01*
X143705871Y-110980199D01*
X143662059Y-110963676D01*
X143613095Y-110967834D01*
X143573294Y-110989427D01*
X143559850Y-111001744D01*
X143550321Y-111016687D01*
X143543885Y-111039275D01*
X143539717Y-111074528D01*
X143536997Y-111127466D01*
X143534902Y-111203107D01*
X143534360Y-111227057D01*
X143532381Y-111308990D01*
X143530131Y-111366655D01*
X143526757Y-111404808D01*
X143521406Y-111428204D01*
X143513224Y-111441598D01*
X143501359Y-111449745D01*
X143493762Y-111453344D01*
X143461502Y-111465652D01*
X143442511Y-111469714D01*
X143436236Y-111456148D01*
X143432406Y-111415134D01*
X143431000Y-111346199D01*
X143431998Y-111248869D01*
X143432308Y-111233857D01*
X143434501Y-111145059D01*
X143437093Y-111080219D01*
X143440782Y-111034267D01*
X143446264Y-111002135D01*
X143454235Y-110978753D01*
X143465393Y-110959052D01*
X143471230Y-110950610D01*
X143504696Y-110913257D01*
X143542127Y-110884203D01*
X143546709Y-110881667D01*
X143613826Y-110861643D01*
X143684326Y-110864955D01*
X143684326Y-110864955D01*
G37*
X143684326Y-110864955D02*
X143750258Y-110889284D01*
X143803673Y-110932317D01*
X143824564Y-110962609D01*
X143847339Y-111018194D01*
X143846866Y-111058386D01*
X143822962Y-111085417D01*
X143814117Y-111090013D01*
X143775930Y-111104344D01*
X143756428Y-111100672D01*
X143749822Y-111076607D01*
X143749486Y-111063314D01*
X143737392Y-111014410D01*
X143705871Y-110980199D01*
X143662059Y-110963676D01*
X143613095Y-110967834D01*
X143573294Y-110989427D01*
X143559850Y-111001744D01*
X143550321Y-111016687D01*
X143543885Y-111039275D01*
X143539717Y-111074528D01*
X143536997Y-111127466D01*
X143534902Y-111203107D01*
X143534360Y-111227057D01*
X143532381Y-111308990D01*
X143530131Y-111366655D01*
X143526757Y-111404808D01*
X143521406Y-111428204D01*
X143513224Y-111441598D01*
X143501359Y-111449745D01*
X143493762Y-111453344D01*
X143461502Y-111465652D01*
X143442511Y-111469714D01*
X143436236Y-111456148D01*
X143432406Y-111415134D01*
X143431000Y-111346199D01*
X143431998Y-111248869D01*
X143432308Y-111233857D01*
X143434501Y-111145059D01*
X143437093Y-111080219D01*
X143440782Y-111034267D01*
X143446264Y-111002135D01*
X143454235Y-110978753D01*
X143465393Y-110959052D01*
X143471230Y-110950610D01*
X143504696Y-110913257D01*
X143542127Y-110884203D01*
X143546709Y-110881667D01*
X143613826Y-110861643D01*
X143684326Y-110864955D01*
G36*
X143194144Y-110866168D02*
G01*
X143251016Y-110887287D01*
X143251667Y-110887693D01*
X143286840Y-110913580D01*
X143312807Y-110943833D01*
X143331070Y-110983258D01*
X143343132Y-111036662D01*
X143350496Y-111108851D01*
X143354664Y-111204632D01*
X143355029Y-111218278D01*
X143360276Y-111424042D01*
X143316116Y-111446878D01*
X143284163Y-111462310D01*
X143264870Y-111469623D01*
X143263978Y-111469714D01*
X143260639Y-111456222D01*
X143257987Y-111419826D01*
X143256356Y-111366652D01*
X143256000Y-111323593D01*
X143255992Y-111253841D01*
X143252803Y-111210037D01*
X143241688Y-111189144D01*
X143217901Y-111188125D01*
X143176696Y-111203941D01*
X143114486Y-111233015D01*
X143068741Y-111257163D01*
X143045213Y-111278113D01*
X143038296Y-111300947D01*
X143038286Y-111302077D01*
X143049699Y-111341412D01*
X143083492Y-111362662D01*
X143135209Y-111365739D01*
X143172461Y-111365206D01*
X143192103Y-111375935D01*
X143204352Y-111401705D01*
X143211402Y-111434537D01*
X143201242Y-111453166D01*
X143197417Y-111455832D01*
X143161401Y-111466540D01*
X143110966Y-111468056D01*
X143059026Y-111460959D01*
X143022222Y-111447988D01*
X142971338Y-111404785D01*
X142942414Y-111344646D01*
X142936686Y-111297662D01*
X142941057Y-111255282D01*
X142956875Y-111220688D01*
X142988197Y-111189963D01*
X143039078Y-111159190D01*
X143113576Y-111124452D01*
X143118114Y-111122488D01*
X143185221Y-111091487D01*
X143226632Y-111066062D01*
X143244381Y-111043214D01*
X143240507Y-111019945D01*
X143217043Y-110993256D01*
X143210027Y-110987114D01*
X143163030Y-110963300D01*
X143114333Y-110964303D01*
X143071922Y-110987651D01*
X143043784Y-111030875D01*
X143041169Y-111039360D01*
X143015708Y-111080508D01*
X142983401Y-111100328D01*
X142936686Y-111119970D01*
X142936686Y-111069150D01*
X142950896Y-110995282D01*
X142993075Y-110927527D01*
X143015024Y-110904861D01*
X143064917Y-110875769D01*
X143128367Y-110862600D01*
X143194144Y-110866168D01*
X143194144Y-110866168D01*
G37*
X143194144Y-110866168D02*
X143251016Y-110887287D01*
X143251667Y-110887693D01*
X143286840Y-110913580D01*
X143312807Y-110943833D01*
X143331070Y-110983258D01*
X143343132Y-111036662D01*
X143350496Y-111108851D01*
X143354664Y-111204632D01*
X143355029Y-111218278D01*
X143360276Y-111424042D01*
X143316116Y-111446878D01*
X143284163Y-111462310D01*
X143264870Y-111469623D01*
X143263978Y-111469714D01*
X143260639Y-111456222D01*
X143257987Y-111419826D01*
X143256356Y-111366652D01*
X143256000Y-111323593D01*
X143255992Y-111253841D01*
X143252803Y-111210037D01*
X143241688Y-111189144D01*
X143217901Y-111188125D01*
X143176696Y-111203941D01*
X143114486Y-111233015D01*
X143068741Y-111257163D01*
X143045213Y-111278113D01*
X143038296Y-111300947D01*
X143038286Y-111302077D01*
X143049699Y-111341412D01*
X143083492Y-111362662D01*
X143135209Y-111365739D01*
X143172461Y-111365206D01*
X143192103Y-111375935D01*
X143204352Y-111401705D01*
X143211402Y-111434537D01*
X143201242Y-111453166D01*
X143197417Y-111455832D01*
X143161401Y-111466540D01*
X143110966Y-111468056D01*
X143059026Y-111460959D01*
X143022222Y-111447988D01*
X142971338Y-111404785D01*
X142942414Y-111344646D01*
X142936686Y-111297662D01*
X142941057Y-111255282D01*
X142956875Y-111220688D01*
X142988197Y-111189963D01*
X143039078Y-111159190D01*
X143113576Y-111124452D01*
X143118114Y-111122488D01*
X143185221Y-111091487D01*
X143226632Y-111066062D01*
X143244381Y-111043214D01*
X143240507Y-111019945D01*
X143217043Y-110993256D01*
X143210027Y-110987114D01*
X143163030Y-110963300D01*
X143114333Y-110964303D01*
X143071922Y-110987651D01*
X143043784Y-111030875D01*
X143041169Y-111039360D01*
X143015708Y-111080508D01*
X142983401Y-111100328D01*
X142936686Y-111119970D01*
X142936686Y-111069150D01*
X142950896Y-110995282D01*
X142993075Y-110927527D01*
X143015024Y-110904861D01*
X143064917Y-110875769D01*
X143128367Y-110862600D01*
X143194144Y-110866168D01*
G36*
X142530286Y-110766489D02*
G01*
X142534539Y-110825813D01*
X142539425Y-110860772D01*
X142546195Y-110876020D01*
X142556102Y-110876215D01*
X142559314Y-110874395D01*
X142602044Y-110861215D01*
X142657627Y-110861985D01*
X142714137Y-110875533D01*
X142749482Y-110893061D01*
X142785721Y-110921061D01*
X142812213Y-110952749D01*
X142830399Y-110993013D01*
X142841722Y-111046743D01*
X142847622Y-111118826D01*
X142849543Y-111214151D01*
X142849577Y-111232437D01*
X142849600Y-111437846D01*
X142803891Y-111453780D01*
X142771427Y-111464620D01*
X142753615Y-111469668D01*
X142753091Y-111469714D01*
X142751337Y-111456028D01*
X142749844Y-111418276D01*
X142748726Y-111361424D01*
X142748097Y-111290434D01*
X142748000Y-111247273D01*
X142747798Y-111162173D01*
X142746758Y-111101181D01*
X142744231Y-111059377D01*
X142739564Y-111031842D01*
X142732107Y-111013656D01*
X142721211Y-110999898D01*
X142714407Y-110993273D01*
X142667672Y-110966575D01*
X142616672Y-110964575D01*
X142570401Y-110987155D01*
X142561844Y-110995307D01*
X142549293Y-111010636D01*
X142540588Y-111028818D01*
X142535031Y-111055109D01*
X142531926Y-111094762D01*
X142530576Y-111153032D01*
X142530286Y-111233373D01*
X142530286Y-111437846D01*
X142484577Y-111453780D01*
X142452113Y-111464620D01*
X142434301Y-111469668D01*
X142433777Y-111469714D01*
X142432437Y-111455823D01*
X142431228Y-111416639D01*
X142430201Y-111355900D01*
X142429402Y-111277341D01*
X142428881Y-111184698D01*
X142428686Y-111081709D01*
X142428686Y-110684542D01*
X142475857Y-110664644D01*
X142523029Y-110644747D01*
X142530286Y-110766489D01*
X142530286Y-110766489D01*
G37*
X142530286Y-110766489D02*
X142534539Y-110825813D01*
X142539425Y-110860772D01*
X142546195Y-110876020D01*
X142556102Y-110876215D01*
X142559314Y-110874395D01*
X142602044Y-110861215D01*
X142657627Y-110861985D01*
X142714137Y-110875533D01*
X142749482Y-110893061D01*
X142785721Y-110921061D01*
X142812213Y-110952749D01*
X142830399Y-110993013D01*
X142841722Y-111046743D01*
X142847622Y-111118826D01*
X142849543Y-111214151D01*
X142849577Y-111232437D01*
X142849600Y-111437846D01*
X142803891Y-111453780D01*
X142771427Y-111464620D01*
X142753615Y-111469668D01*
X142753091Y-111469714D01*
X142751337Y-111456028D01*
X142749844Y-111418276D01*
X142748726Y-111361424D01*
X142748097Y-111290434D01*
X142748000Y-111247273D01*
X142747798Y-111162173D01*
X142746758Y-111101181D01*
X142744231Y-111059377D01*
X142739564Y-111031842D01*
X142732107Y-111013656D01*
X142721211Y-110999898D01*
X142714407Y-110993273D01*
X142667672Y-110966575D01*
X142616672Y-110964575D01*
X142570401Y-110987155D01*
X142561844Y-110995307D01*
X142549293Y-111010636D01*
X142540588Y-111028818D01*
X142535031Y-111055109D01*
X142531926Y-111094762D01*
X142530576Y-111153032D01*
X142530286Y-111233373D01*
X142530286Y-111437846D01*
X142484577Y-111453780D01*
X142452113Y-111464620D01*
X142434301Y-111469668D01*
X142433777Y-111469714D01*
X142432437Y-111455823D01*
X142431228Y-111416639D01*
X142430201Y-111355900D01*
X142429402Y-111277341D01*
X142428881Y-111184698D01*
X142428686Y-111081709D01*
X142428686Y-110684542D01*
X142475857Y-110664644D01*
X142523029Y-110644747D01*
X142530286Y-110766489D01*
G36*
X141322703Y-110846439D02*
G01*
X141379927Y-110884935D01*
X141424149Y-110940535D01*
X141450567Y-111011286D01*
X141455910Y-111063362D01*
X141455303Y-111085093D01*
X141450222Y-111101731D01*
X141436255Y-111116637D01*
X141408989Y-111133173D01*
X141364012Y-111154698D01*
X141296911Y-111184574D01*
X141296571Y-111184724D01*
X141234807Y-111213013D01*
X141184159Y-111238133D01*
X141149804Y-111257379D01*
X141136918Y-111268048D01*
X141136914Y-111268134D01*
X141148272Y-111291366D01*
X141174831Y-111316974D01*
X141205323Y-111335421D01*
X141220770Y-111339086D01*
X141262915Y-111326412D01*
X141299208Y-111294671D01*
X141316917Y-111259772D01*
X141333952Y-111234045D01*
X141367322Y-111204746D01*
X141406549Y-111179435D01*
X141441156Y-111165671D01*
X141448393Y-111164914D01*
X141456539Y-111177360D01*
X141457030Y-111209172D01*
X141451043Y-111252066D01*
X141439757Y-111297758D01*
X141424350Y-111337961D01*
X141423571Y-111339522D01*
X141377204Y-111404262D01*
X141317111Y-111448297D01*
X141248865Y-111469911D01*
X141178038Y-111467385D01*
X141110204Y-111439004D01*
X141107188Y-111437008D01*
X141053827Y-111388648D01*
X141018740Y-111325552D01*
X140999322Y-111242587D01*
X140996716Y-111219278D01*
X140992101Y-111109255D01*
X140997633Y-111057948D01*
X141136914Y-111057948D01*
X141138724Y-111089953D01*
X141148622Y-111099293D01*
X141173298Y-111092305D01*
X141212195Y-111075787D01*
X141255675Y-111055081D01*
X141256756Y-111054533D01*
X141293609Y-111035149D01*
X141308400Y-111022213D01*
X141304753Y-111008651D01*
X141289395Y-110990832D01*
X141250323Y-110965045D01*
X141208246Y-110963150D01*
X141170503Y-110981917D01*
X141144434Y-111018115D01*
X141136914Y-111057948D01*
X140997633Y-111057948D01*
X141001594Y-111021227D01*
X141025950Y-110951412D01*
X141059856Y-110902502D01*
X141121053Y-110853078D01*
X141188463Y-110828559D01*
X141257280Y-110826997D01*
X141322703Y-110846439D01*
X141322703Y-110846439D01*
G37*
X141322703Y-110846439D02*
X141379927Y-110884935D01*
X141424149Y-110940535D01*
X141450567Y-111011286D01*
X141455910Y-111063362D01*
X141455303Y-111085093D01*
X141450222Y-111101731D01*
X141436255Y-111116637D01*
X141408989Y-111133173D01*
X141364012Y-111154698D01*
X141296911Y-111184574D01*
X141296571Y-111184724D01*
X141234807Y-111213013D01*
X141184159Y-111238133D01*
X141149804Y-111257379D01*
X141136918Y-111268048D01*
X141136914Y-111268134D01*
X141148272Y-111291366D01*
X141174831Y-111316974D01*
X141205323Y-111335421D01*
X141220770Y-111339086D01*
X141262915Y-111326412D01*
X141299208Y-111294671D01*
X141316917Y-111259772D01*
X141333952Y-111234045D01*
X141367322Y-111204746D01*
X141406549Y-111179435D01*
X141441156Y-111165671D01*
X141448393Y-111164914D01*
X141456539Y-111177360D01*
X141457030Y-111209172D01*
X141451043Y-111252066D01*
X141439757Y-111297758D01*
X141424350Y-111337961D01*
X141423571Y-111339522D01*
X141377204Y-111404262D01*
X141317111Y-111448297D01*
X141248865Y-111469911D01*
X141178038Y-111467385D01*
X141110204Y-111439004D01*
X141107188Y-111437008D01*
X141053827Y-111388648D01*
X141018740Y-111325552D01*
X140999322Y-111242587D01*
X140996716Y-111219278D01*
X140992101Y-111109255D01*
X140997633Y-111057948D01*
X141136914Y-111057948D01*
X141138724Y-111089953D01*
X141148622Y-111099293D01*
X141173298Y-111092305D01*
X141212195Y-111075787D01*
X141255675Y-111055081D01*
X141256756Y-111054533D01*
X141293609Y-111035149D01*
X141308400Y-111022213D01*
X141304753Y-111008651D01*
X141289395Y-110990832D01*
X141250323Y-110965045D01*
X141208246Y-110963150D01*
X141170503Y-110981917D01*
X141144434Y-111018115D01*
X141136914Y-111057948D01*
X140997633Y-111057948D01*
X141001594Y-111021227D01*
X141025950Y-110951412D01*
X141059856Y-110902502D01*
X141121053Y-110853078D01*
X141188463Y-110828559D01*
X141257280Y-110826997D01*
X141322703Y-110846439D01*
G36*
X140195515Y-110837162D02*
G01*
X140263545Y-110872933D01*
X140313751Y-110930501D01*
X140331585Y-110967512D01*
X140345463Y-111023082D01*
X140352567Y-111093296D01*
X140353240Y-111169927D01*
X140347827Y-111244752D01*
X140336670Y-111309542D01*
X140320114Y-111356073D01*
X140315026Y-111364087D01*
X140254755Y-111423907D01*
X140183169Y-111459735D01*
X140105492Y-111470220D01*
X140026948Y-111454010D01*
X140005089Y-111444292D01*
X139962522Y-111414343D01*
X139925163Y-111374633D01*
X139921632Y-111369597D01*
X139907281Y-111345324D01*
X139897794Y-111319378D01*
X139892190Y-111285222D01*
X139889486Y-111236319D01*
X139888699Y-111166135D01*
X139888686Y-111150400D01*
X139888722Y-111145392D01*
X140033829Y-111145392D01*
X140034673Y-111211630D01*
X140037996Y-111255586D01*
X140044983Y-111283979D01*
X140056816Y-111303525D01*
X140062857Y-111310057D01*
X140097586Y-111334880D01*
X140131303Y-111333748D01*
X140165395Y-111312216D01*
X140185729Y-111289229D01*
X140197771Y-111255678D01*
X140204534Y-111202769D01*
X140204998Y-111196599D01*
X140206152Y-111100713D01*
X140194088Y-111029499D01*
X140168970Y-110983394D01*
X140130960Y-110962835D01*
X140117392Y-110961714D01*
X140081764Y-110967352D01*
X140057394Y-110986886D01*
X140042493Y-111024242D01*
X140035275Y-111083350D01*
X140033829Y-111145392D01*
X139888722Y-111145392D01*
X139889226Y-111075613D01*
X139891496Y-111023359D01*
X139896468Y-110987149D01*
X139905113Y-110960499D01*
X139918405Y-110936922D01*
X139921343Y-110932538D01*
X139970713Y-110873449D01*
X140024509Y-110839147D01*
X140090002Y-110825531D01*
X140112242Y-110824865D01*
X140195515Y-110837162D01*
X140195515Y-110837162D01*
G37*
X140195515Y-110837162D02*
X140263545Y-110872933D01*
X140313751Y-110930501D01*
X140331585Y-110967512D01*
X140345463Y-111023082D01*
X140352567Y-111093296D01*
X140353240Y-111169927D01*
X140347827Y-111244752D01*
X140336670Y-111309542D01*
X140320114Y-111356073D01*
X140315026Y-111364087D01*
X140254755Y-111423907D01*
X140183169Y-111459735D01*
X140105492Y-111470220D01*
X140026948Y-111454010D01*
X140005089Y-111444292D01*
X139962522Y-111414343D01*
X139925163Y-111374633D01*
X139921632Y-111369597D01*
X139907281Y-111345324D01*
X139897794Y-111319378D01*
X139892190Y-111285222D01*
X139889486Y-111236319D01*
X139888699Y-111166135D01*
X139888686Y-111150400D01*
X139888722Y-111145392D01*
X140033829Y-111145392D01*
X140034673Y-111211630D01*
X140037996Y-111255586D01*
X140044983Y-111283979D01*
X140056816Y-111303525D01*
X140062857Y-111310057D01*
X140097586Y-111334880D01*
X140131303Y-111333748D01*
X140165395Y-111312216D01*
X140185729Y-111289229D01*
X140197771Y-111255678D01*
X140204534Y-111202769D01*
X140204998Y-111196599D01*
X140206152Y-111100713D01*
X140194088Y-111029499D01*
X140168970Y-110983394D01*
X140130960Y-110962835D01*
X140117392Y-110961714D01*
X140081764Y-110967352D01*
X140057394Y-110986886D01*
X140042493Y-111024242D01*
X140035275Y-111083350D01*
X140033829Y-111145392D01*
X139888722Y-111145392D01*
X139889226Y-111075613D01*
X139891496Y-111023359D01*
X139896468Y-110987149D01*
X139905113Y-110960499D01*
X139918405Y-110936922D01*
X139921343Y-110932538D01*
X139970713Y-110873449D01*
X140024509Y-110839147D01*
X140090002Y-110825531D01*
X140112242Y-110824865D01*
X140195515Y-110837162D01*
G36*
X141870493Y-110842980D02*
G01*
X141917072Y-110869923D01*
X141949457Y-110896666D01*
X141973142Y-110924684D01*
X141989459Y-110958948D01*
X141999739Y-111004427D01*
X142005314Y-111066092D01*
X142007516Y-111148911D01*
X142007771Y-111208446D01*
X142007771Y-111427591D01*
X141946086Y-111455244D01*
X141884400Y-111482897D01*
X141877143Y-111242870D01*
X141874144Y-111153228D01*
X141870998Y-111088162D01*
X141867101Y-111043226D01*
X141861847Y-111013970D01*
X141854631Y-110995948D01*
X141844850Y-110984711D01*
X141841712Y-110982279D01*
X141794161Y-110963283D01*
X141746097Y-110970800D01*
X141717486Y-110990743D01*
X141705847Y-111004875D01*
X141697791Y-111023420D01*
X141692671Y-111051534D01*
X141689841Y-111094373D01*
X141688656Y-111157095D01*
X141688457Y-111222461D01*
X141688418Y-111304468D01*
X141687014Y-111362516D01*
X141682314Y-111401665D01*
X141672387Y-111426980D01*
X141655303Y-111443523D01*
X141629132Y-111456356D01*
X141594175Y-111469691D01*
X141555996Y-111484207D01*
X141560541Y-111226589D01*
X141562371Y-111133719D01*
X141564512Y-111065089D01*
X141567581Y-111015911D01*
X141572194Y-110981398D01*
X141578968Y-110956762D01*
X141588519Y-110937216D01*
X141600034Y-110919970D01*
X141655590Y-110864880D01*
X141723380Y-110833022D01*
X141797113Y-110825391D01*
X141870493Y-110842980D01*
X141870493Y-110842980D01*
G37*
X141870493Y-110842980D02*
X141917072Y-110869923D01*
X141949457Y-110896666D01*
X141973142Y-110924684D01*
X141989459Y-110958948D01*
X141999739Y-111004427D01*
X142005314Y-111066092D01*
X142007516Y-111148911D01*
X142007771Y-111208446D01*
X142007771Y-111427591D01*
X141946086Y-111455244D01*
X141884400Y-111482897D01*
X141877143Y-111242870D01*
X141874144Y-111153228D01*
X141870998Y-111088162D01*
X141867101Y-111043226D01*
X141861847Y-111013970D01*
X141854631Y-110995948D01*
X141844850Y-110984711D01*
X141841712Y-110982279D01*
X141794161Y-110963283D01*
X141746097Y-110970800D01*
X141717486Y-110990743D01*
X141705847Y-111004875D01*
X141697791Y-111023420D01*
X141692671Y-111051534D01*
X141689841Y-111094373D01*
X141688656Y-111157095D01*
X141688457Y-111222461D01*
X141688418Y-111304468D01*
X141687014Y-111362516D01*
X141682314Y-111401665D01*
X141672387Y-111426980D01*
X141655303Y-111443523D01*
X141629132Y-111456356D01*
X141594175Y-111469691D01*
X141555996Y-111484207D01*
X141560541Y-111226589D01*
X141562371Y-111133719D01*
X141564512Y-111065089D01*
X141567581Y-111015911D01*
X141572194Y-110981398D01*
X141578968Y-110956762D01*
X141588519Y-110937216D01*
X141600034Y-110919970D01*
X141655590Y-110864880D01*
X141723380Y-110833022D01*
X141797113Y-110825391D01*
X141870493Y-110842980D01*
G36*
X140754144Y-110835118D02*
G01*
X140809601Y-110862768D01*
X140858548Y-110913680D01*
X140872029Y-110932538D01*
X140886714Y-110957215D01*
X140896242Y-110984016D01*
X140901693Y-111019787D01*
X140904147Y-111071369D01*
X140904686Y-111139467D01*
X140902252Y-111232788D01*
X140893794Y-111302857D01*
X140877574Y-111355131D01*
X140851854Y-111395069D01*
X140814897Y-111428129D01*
X140812182Y-111430086D01*
X140775760Y-111450108D01*
X140731902Y-111460015D01*
X140676124Y-111462457D01*
X140585448Y-111462457D01*
X140585410Y-111550483D01*
X140584566Y-111599508D01*
X140579424Y-111628265D01*
X140565987Y-111645511D01*
X140540258Y-111660008D01*
X140534079Y-111662969D01*
X140505164Y-111676848D01*
X140482776Y-111685614D01*
X140466129Y-111686371D01*
X140454436Y-111676223D01*
X140446910Y-111652273D01*
X140442766Y-111611626D01*
X140441215Y-111551386D01*
X140441471Y-111468655D01*
X140442749Y-111360539D01*
X140443148Y-111328200D01*
X140444585Y-111216724D01*
X140445872Y-111143803D01*
X140585371Y-111143803D01*
X140586155Y-111205699D01*
X140589640Y-111246197D01*
X140597524Y-111272908D01*
X140611505Y-111293444D01*
X140620997Y-111303460D01*
X140659804Y-111332767D01*
X140694163Y-111335152D01*
X140729616Y-111310950D01*
X140730514Y-111310057D01*
X140744939Y-111291353D01*
X140753713Y-111265932D01*
X140758139Y-111226784D01*
X140759518Y-111166897D01*
X140759543Y-111153630D01*
X140756212Y-111071101D01*
X140745369Y-111013891D01*
X140725740Y-110978966D01*
X140696050Y-110963294D01*
X140678891Y-110961714D01*
X140638166Y-110969126D01*
X140610232Y-110993530D01*
X140593417Y-111038180D01*
X140586050Y-111106330D01*
X140585371Y-111143803D01*
X140445872Y-111143803D01*
X140446108Y-111130445D01*
X140448077Y-111065533D01*
X140450850Y-111018158D01*
X140454788Y-110984490D01*
X140460249Y-110960698D01*
X140467592Y-110942953D01*
X140477177Y-110927424D01*
X140481287Y-110921581D01*
X140535805Y-110866385D01*
X140604736Y-110835090D01*
X140684472Y-110826365D01*
X140754144Y-110835118D01*
X140754144Y-110835118D01*
G37*
X140754144Y-110835118D02*
X140809601Y-110862768D01*
X140858548Y-110913680D01*
X140872029Y-110932538D01*
X140886714Y-110957215D01*
X140896242Y-110984016D01*
X140901693Y-111019787D01*
X140904147Y-111071369D01*
X140904686Y-111139467D01*
X140902252Y-111232788D01*
X140893794Y-111302857D01*
X140877574Y-111355131D01*
X140851854Y-111395069D01*
X140814897Y-111428129D01*
X140812182Y-111430086D01*
X140775760Y-111450108D01*
X140731902Y-111460015D01*
X140676124Y-111462457D01*
X140585448Y-111462457D01*
X140585410Y-111550483D01*
X140584566Y-111599508D01*
X140579424Y-111628265D01*
X140565987Y-111645511D01*
X140540258Y-111660008D01*
X140534079Y-111662969D01*
X140505164Y-111676848D01*
X140482776Y-111685614D01*
X140466129Y-111686371D01*
X140454436Y-111676223D01*
X140446910Y-111652273D01*
X140442766Y-111611626D01*
X140441215Y-111551386D01*
X140441471Y-111468655D01*
X140442749Y-111360539D01*
X140443148Y-111328200D01*
X140444585Y-111216724D01*
X140445872Y-111143803D01*
X140585371Y-111143803D01*
X140586155Y-111205699D01*
X140589640Y-111246197D01*
X140597524Y-111272908D01*
X140611505Y-111293444D01*
X140620997Y-111303460D01*
X140659804Y-111332767D01*
X140694163Y-111335152D01*
X140729616Y-111310950D01*
X140730514Y-111310057D01*
X140744939Y-111291353D01*
X140753713Y-111265932D01*
X140758139Y-111226784D01*
X140759518Y-111166897D01*
X140759543Y-111153630D01*
X140756212Y-111071101D01*
X140745369Y-111013891D01*
X140725740Y-110978966D01*
X140696050Y-110963294D01*
X140678891Y-110961714D01*
X140638166Y-110969126D01*
X140610232Y-110993530D01*
X140593417Y-111038180D01*
X140586050Y-111106330D01*
X140585371Y-111143803D01*
X140445872Y-111143803D01*
X140446108Y-111130445D01*
X140448077Y-111065533D01*
X140450850Y-111018158D01*
X140454788Y-110984490D01*
X140460249Y-110960698D01*
X140467592Y-110942953D01*
X140477177Y-110927424D01*
X140481287Y-110921581D01*
X140535805Y-110866385D01*
X140604736Y-110835090D01*
X140684472Y-110826365D01*
X140754144Y-110835118D01*
D12*
X123735000Y-110988000D02*
X111135000Y-110988000D01*
X123735000Y-116088000D02*
X123735000Y-110988000D01*
X111135000Y-116088000D02*
X123735000Y-116088000D01*
X108580464Y-106320000D02*
X107376336Y-106320000D01*
X108580464Y-104500000D02*
X107376336Y-104500000D01*
X117002936Y-110257000D02*
X118207064Y-110257000D01*
X117002936Y-108437000D02*
X118207064Y-108437000D01*
X111922936Y-108437000D02*
X113127064Y-108437000D01*
X111922936Y-110257000D02*
X113127064Y-110257000D01*
X103602064Y-110003000D02*
X102397936Y-110003000D01*
X103602064Y-108183000D02*
X102397936Y-108183000D01*
X126767000Y-115667064D02*
X126767000Y-114462936D01*
X124947000Y-115667064D02*
X124947000Y-114462936D01*
X148836000Y-116919000D02*
X148836000Y-113034000D01*
X148836000Y-113034000D02*
X146566000Y-113034000D01*
X146566000Y-113034000D02*
X146566000Y-116919000D01*
X168850000Y-115630000D02*
X171510000Y-115630000D01*
X168850000Y-107950000D02*
X168850000Y-115630000D01*
X171510000Y-107950000D02*
X171510000Y-115630000D01*
X168850000Y-107950000D02*
X171510000Y-107950000D01*
X168850000Y-106680000D02*
X168850000Y-105350000D01*
X168850000Y-105350000D02*
X170180000Y-105350000D01*
X158348000Y-111730064D02*
X158348000Y-110525936D01*
X160168000Y-111730064D02*
X160168000Y-110525936D01*
X145944000Y-114713936D02*
X145944000Y-115918064D01*
X144124000Y-114713936D02*
X144124000Y-115918064D01*
X161833936Y-107844000D02*
X163038064Y-107844000D01*
X161833936Y-106024000D02*
X163038064Y-106024000D01*
X150495000Y-117447000D02*
X150495000Y-115647000D01*
X158695000Y-117447000D02*
X150495000Y-117447000D01*
X158695000Y-113947000D02*
X158695000Y-117447000D01*
X150495000Y-113947000D02*
X158695000Y-113947000D01*
X150495000Y-115697000D02*
X150495000Y-113947000D01*
X147828000Y-110744000D02*
X147828000Y-108994000D01*
X147828000Y-108994000D02*
X156028000Y-108994000D01*
X156028000Y-108994000D02*
X156028000Y-112494000D01*
X156028000Y-112494000D02*
X147828000Y-112494000D01*
X147828000Y-112494000D02*
X147828000Y-110694000D01*
X138878179Y-110829132D02*
X139090311Y-110617000D01*
X139090311Y-110617000D02*
X138878179Y-110404868D01*
X134197132Y-115510179D02*
X133985000Y-115722311D01*
X133985000Y-115722311D02*
X133772868Y-115510179D01*
X133772868Y-105723821D02*
X133985000Y-105511689D01*
X133985000Y-105511689D02*
X134197132Y-105723821D01*
X129091821Y-110404868D02*
X128879689Y-110617000D01*
X128879689Y-110617000D02*
X129091821Y-110829132D01*
X129091821Y-110829132D02*
X128161976Y-111758977D01*
X105933600Y-108574000D02*
X105933600Y-110374000D01*
X109153600Y-110374000D02*
X109153600Y-107924000D01*
D10*
X100254404Y-106918880D02*
X100254404Y-106334680D01*
X100393500Y-106334680D01*
X100476957Y-106362500D01*
X100532595Y-106418138D01*
X100560414Y-106473776D01*
X100588233Y-106585052D01*
X100588233Y-106668509D01*
X100560414Y-106779785D01*
X100532595Y-106835423D01*
X100476957Y-106891061D01*
X100393500Y-106918880D01*
X100254404Y-106918880D01*
X100810785Y-106390319D02*
X100838604Y-106362500D01*
X100894242Y-106334680D01*
X101033338Y-106334680D01*
X101088976Y-106362500D01*
X101116795Y-106390319D01*
X101144614Y-106445957D01*
X101144614Y-106501595D01*
X101116795Y-106585052D01*
X100782966Y-106918880D01*
X101144614Y-106918880D01*
X170876080Y-104334733D02*
X171293366Y-104334733D01*
X171376823Y-104362552D01*
X171432461Y-104418190D01*
X171460280Y-104501647D01*
X171460280Y-104557285D01*
X170931719Y-104084361D02*
X170903900Y-104056542D01*
X170876080Y-104000904D01*
X170876080Y-103861809D01*
X170903900Y-103806171D01*
X170931719Y-103778352D01*
X170987357Y-103750533D01*
X171042995Y-103750533D01*
X171126452Y-103778352D01*
X171460280Y-104112180D01*
X171460280Y-103750533D01*
X159981295Y-114361080D02*
X159981295Y-113776880D01*
X159981295Y-114055071D02*
X160315123Y-114055071D01*
X160315123Y-114361080D02*
X160315123Y-113776880D01*
X160565495Y-113832519D02*
X160593314Y-113804700D01*
X160648952Y-113776880D01*
X160788047Y-113776880D01*
X160843685Y-113804700D01*
X160871504Y-113832519D01*
X160899323Y-113888157D01*
X160899323Y-113943795D01*
X160871504Y-114027252D01*
X160537676Y-114361080D01*
X160899323Y-114361080D01*
X100291295Y-117510680D02*
X100291295Y-116926480D01*
X100291295Y-117204671D02*
X100625123Y-117204671D01*
X100625123Y-117510680D02*
X100625123Y-116926480D01*
X101209323Y-117510680D02*
X100875495Y-117510680D01*
X101042409Y-117510680D02*
X101042409Y-116926480D01*
X100986771Y-117009938D01*
X100931133Y-117065576D01*
X100875495Y-117093395D01*
X110567409Y-116724490D02*
X110567409Y-117002680D01*
X110372676Y-116418480D02*
X110567409Y-116724490D01*
X110762142Y-116418480D01*
X111262885Y-117002680D02*
X110929057Y-117002680D01*
X111095971Y-117002680D02*
X111095971Y-116418480D01*
X111040333Y-116501938D01*
X110984695Y-116557576D01*
X110929057Y-116585395D01*
X109913033Y-107269642D02*
X109885214Y-107297461D01*
X109801757Y-107325280D01*
X109746119Y-107325280D01*
X109662661Y-107297461D01*
X109607023Y-107241823D01*
X109579204Y-107186185D01*
X109551385Y-107074909D01*
X109551385Y-106991452D01*
X109579204Y-106880176D01*
X109607023Y-106824538D01*
X109662661Y-106768900D01*
X109746119Y-106741080D01*
X109801757Y-106741080D01*
X109885214Y-106768900D01*
X109913033Y-106796719D01*
X110469414Y-107325280D02*
X110135585Y-107325280D01*
X110302500Y-107325280D02*
X110302500Y-106741080D01*
X110246861Y-106824538D01*
X110191223Y-106880176D01*
X110135585Y-106907995D01*
X116234633Y-108057042D02*
X116206814Y-108084861D01*
X116123357Y-108112680D01*
X116067719Y-108112680D01*
X115984261Y-108084861D01*
X115928623Y-108029223D01*
X115900804Y-107973585D01*
X115872985Y-107862309D01*
X115872985Y-107778852D01*
X115900804Y-107667576D01*
X115928623Y-107611938D01*
X115984261Y-107556300D01*
X116067719Y-107528480D01*
X116123357Y-107528480D01*
X116206814Y-107556300D01*
X116234633Y-107584119D01*
X116457185Y-107584119D02*
X116485004Y-107556300D01*
X116540642Y-107528480D01*
X116679738Y-107528480D01*
X116735376Y-107556300D01*
X116763195Y-107584119D01*
X116791014Y-107639757D01*
X116791014Y-107695395D01*
X116763195Y-107778852D01*
X116429366Y-108112680D01*
X116791014Y-108112680D01*
X112427633Y-108006242D02*
X112399814Y-108034061D01*
X112316357Y-108061880D01*
X112260719Y-108061880D01*
X112177261Y-108034061D01*
X112121623Y-107978423D01*
X112093804Y-107922785D01*
X112065985Y-107811509D01*
X112065985Y-107728052D01*
X112093804Y-107616776D01*
X112121623Y-107561138D01*
X112177261Y-107505500D01*
X112260719Y-107477680D01*
X112316357Y-107477680D01*
X112399814Y-107505500D01*
X112427633Y-107533319D01*
X112622366Y-107477680D02*
X112984014Y-107477680D01*
X112789280Y-107700233D01*
X112872738Y-107700233D01*
X112928376Y-107728052D01*
X112956195Y-107755871D01*
X112984014Y-107811509D01*
X112984014Y-107950604D01*
X112956195Y-108006242D01*
X112928376Y-108034061D01*
X112872738Y-108061880D01*
X112705823Y-108061880D01*
X112650185Y-108034061D01*
X112622366Y-108006242D01*
X102823433Y-107676042D02*
X102795614Y-107703861D01*
X102712157Y-107731680D01*
X102656519Y-107731680D01*
X102573061Y-107703861D01*
X102517423Y-107648223D01*
X102489604Y-107592585D01*
X102461785Y-107481309D01*
X102461785Y-107397852D01*
X102489604Y-107286576D01*
X102517423Y-107230938D01*
X102573061Y-107175300D01*
X102656519Y-107147480D01*
X102712157Y-107147480D01*
X102795614Y-107175300D01*
X102823433Y-107203119D01*
X103324176Y-107342214D02*
X103324176Y-107731680D01*
X103185080Y-107119661D02*
X103045985Y-107536947D01*
X103407633Y-107536947D01*
X127615042Y-114041766D02*
X127642861Y-114069585D01*
X127670680Y-114153042D01*
X127670680Y-114208680D01*
X127642861Y-114292138D01*
X127587223Y-114347776D01*
X127531585Y-114375595D01*
X127420309Y-114403414D01*
X127336852Y-114403414D01*
X127225576Y-114375595D01*
X127169938Y-114347776D01*
X127114300Y-114292138D01*
X127086480Y-114208680D01*
X127086480Y-114153042D01*
X127114300Y-114069585D01*
X127142119Y-114041766D01*
X127086480Y-113513204D02*
X127086480Y-113791395D01*
X127364671Y-113819214D01*
X127336852Y-113791395D01*
X127309033Y-113735757D01*
X127309033Y-113596661D01*
X127336852Y-113541023D01*
X127364671Y-113513204D01*
X127420309Y-113485385D01*
X127559404Y-113485385D01*
X127615042Y-113513204D01*
X127642861Y-113541023D01*
X127670680Y-113596661D01*
X127670680Y-113735757D01*
X127642861Y-113791395D01*
X127615042Y-113819214D01*
X149667080Y-113969195D02*
X149082880Y-113969195D01*
X149082880Y-113830100D01*
X149110700Y-113746642D01*
X149166338Y-113691004D01*
X149221976Y-113663185D01*
X149333252Y-113635366D01*
X149416709Y-113635366D01*
X149527985Y-113663185D01*
X149583623Y-113691004D01*
X149639261Y-113746642D01*
X149667080Y-113830100D01*
X149667080Y-113969195D01*
X149667080Y-113078985D02*
X149667080Y-113412814D01*
X149667080Y-113245900D02*
X149082880Y-113245900D01*
X149166338Y-113301538D01*
X149221976Y-113357176D01*
X149249795Y-113412814D01*
X170848866Y-116062880D02*
X170848866Y-116480166D01*
X170821047Y-116563623D01*
X170765409Y-116619261D01*
X170681952Y-116647080D01*
X170626314Y-116647080D01*
X171433066Y-116647080D02*
X171099238Y-116647080D01*
X171266152Y-116647080D02*
X171266152Y-116062880D01*
X171210514Y-116146338D01*
X171154876Y-116201976D01*
X171099238Y-116229795D01*
X157744280Y-112619366D02*
X157466090Y-112814100D01*
X157744280Y-112953195D02*
X157160080Y-112953195D01*
X157160080Y-112730642D01*
X157187900Y-112675004D01*
X157215719Y-112647185D01*
X157271357Y-112619366D01*
X157354814Y-112619366D01*
X157410452Y-112647185D01*
X157438271Y-112675004D01*
X157466090Y-112730642D01*
X157466090Y-112953195D01*
X157744280Y-112062985D02*
X157744280Y-112396814D01*
X157744280Y-112229900D02*
X157160080Y-112229900D01*
X157243538Y-112285538D01*
X157299176Y-112341176D01*
X157326995Y-112396814D01*
X143672680Y-113686166D02*
X143394490Y-113880900D01*
X143672680Y-114019995D02*
X143088480Y-114019995D01*
X143088480Y-113797442D01*
X143116300Y-113741804D01*
X143144119Y-113713985D01*
X143199757Y-113686166D01*
X143283214Y-113686166D01*
X143338852Y-113713985D01*
X143366671Y-113741804D01*
X143394490Y-113797442D01*
X143394490Y-114019995D01*
X143144119Y-113463614D02*
X143116300Y-113435795D01*
X143088480Y-113380157D01*
X143088480Y-113241061D01*
X143116300Y-113185423D01*
X143144119Y-113157604D01*
X143199757Y-113129785D01*
X143255395Y-113129785D01*
X143338852Y-113157604D01*
X143672680Y-113491433D01*
X143672680Y-113129785D01*
X161319633Y-105674280D02*
X161124900Y-105396090D01*
X160985804Y-105674280D02*
X160985804Y-105090080D01*
X161208357Y-105090080D01*
X161263995Y-105117900D01*
X161291814Y-105145719D01*
X161319633Y-105201357D01*
X161319633Y-105284814D01*
X161291814Y-105340452D01*
X161263995Y-105368271D01*
X161208357Y-105396090D01*
X160985804Y-105396090D01*
X161514366Y-105090080D02*
X161876014Y-105090080D01*
X161681280Y-105312633D01*
X161764738Y-105312633D01*
X161820376Y-105340452D01*
X161848195Y-105368271D01*
X161876014Y-105423909D01*
X161876014Y-105563004D01*
X161848195Y-105618642D01*
X161820376Y-105646461D01*
X161764738Y-105674280D01*
X161597823Y-105674280D01*
X161542185Y-105646461D01*
X161514366Y-105618642D01*
X153703866Y-113672861D02*
X153787323Y-113700680D01*
X153926419Y-113700680D01*
X153982057Y-113672861D01*
X154009876Y-113645042D01*
X154037695Y-113589404D01*
X154037695Y-113533766D01*
X154009876Y-113478128D01*
X153982057Y-113450309D01*
X153926419Y-113422490D01*
X153815142Y-113394671D01*
X153759504Y-113366852D01*
X153731685Y-113339033D01*
X153703866Y-113283395D01*
X153703866Y-113227757D01*
X153731685Y-113172119D01*
X153759504Y-113144300D01*
X153815142Y-113116480D01*
X153954238Y-113116480D01*
X154037695Y-113144300D01*
X154232428Y-113116480D02*
X154371523Y-113700680D01*
X154482800Y-113283395D01*
X154594076Y-113700680D01*
X154733171Y-113116480D01*
X155261733Y-113700680D02*
X154927904Y-113700680D01*
X155094819Y-113700680D02*
X155094819Y-113116480D01*
X155039180Y-113199938D01*
X154983542Y-113255576D01*
X154927904Y-113283395D01*
X149233466Y-108694461D02*
X149316923Y-108722280D01*
X149456019Y-108722280D01*
X149511657Y-108694461D01*
X149539476Y-108666642D01*
X149567295Y-108611004D01*
X149567295Y-108555366D01*
X149539476Y-108499728D01*
X149511657Y-108471909D01*
X149456019Y-108444090D01*
X149344742Y-108416271D01*
X149289104Y-108388452D01*
X149261285Y-108360633D01*
X149233466Y-108304995D01*
X149233466Y-108249357D01*
X149261285Y-108193719D01*
X149289104Y-108165900D01*
X149344742Y-108138080D01*
X149483838Y-108138080D01*
X149567295Y-108165900D01*
X149762028Y-108138080D02*
X149901123Y-108722280D01*
X150012400Y-108304995D01*
X150123676Y-108722280D01*
X150262771Y-108138080D01*
X150457504Y-108193719D02*
X150485323Y-108165900D01*
X150540961Y-108138080D01*
X150680057Y-108138080D01*
X150735695Y-108165900D01*
X150763514Y-108193719D01*
X150791333Y-108249357D01*
X150791333Y-108304995D01*
X150763514Y-108388452D01*
X150429685Y-108722280D01*
X150791333Y-108722280D01*
X127602046Y-108038519D02*
X127936454Y-108372927D01*
X127995467Y-108392598D01*
X128034809Y-108392598D01*
X128093822Y-108372927D01*
X128172506Y-108294243D01*
X128192177Y-108235230D01*
X128192177Y-108195887D01*
X128172506Y-108136874D01*
X127838098Y-107802467D01*
X128664282Y-107802467D02*
X128428230Y-108038519D01*
X128546256Y-107920493D02*
X128133164Y-107507401D01*
X128152835Y-107605756D01*
X128152835Y-107684440D01*
X128133164Y-107743454D01*
X105852080Y-112484504D02*
X106325004Y-112484504D01*
X106380642Y-112456685D01*
X106408461Y-112428866D01*
X106436280Y-112373228D01*
X106436280Y-112261952D01*
X106408461Y-112206314D01*
X106380642Y-112178495D01*
X106325004Y-112150676D01*
X105852080Y-112150676D01*
X105907719Y-111900304D02*
X105879900Y-111872485D01*
X105852080Y-111816847D01*
X105852080Y-111677752D01*
X105879900Y-111622114D01*
X105907719Y-111594295D01*
X105963357Y-111566476D01*
X106018995Y-111566476D01*
X106102452Y-111594295D01*
X106436280Y-111928123D01*
X106436280Y-111566476D01*
M02*
