G04 #@! TF.GenerationSoftware,KiCad,Pcbnew,5.1.2-f72e74a~84~ubuntu18.04.1*
G04 #@! TF.CreationDate,2019-07-20T11:54:10-04:00*
G04 #@! TF.ProjectId,stm32G0_basic,73746d33-3247-4305-9f62-617369632e6b,rev?*
G04 #@! TF.SameCoordinates,Original*
G04 #@! TF.FileFunction,Soldermask,Bot*
G04 #@! TF.FilePolarity,Negative*
%FSLAX46Y46*%
G04 Gerber Fmt 4.6, Leading zero omitted, Abs format (unit mm)*
G04 Created by KiCad (PCBNEW 5.1.2-f72e74a~84~ubuntu18.04.1) date 2019-07-20 11:54:10*
%MOMM*%
%LPD*%
G04 APERTURE LIST*
%ADD10C,0.100000*%
G04 APERTURE END LIST*
D10*
G36*
X164840256Y-112691298D02*
G01*
X164946579Y-112712447D01*
X165247042Y-112836903D01*
X165517451Y-113017585D01*
X165747415Y-113247549D01*
X165928097Y-113517958D01*
X166052553Y-113818421D01*
X166116000Y-114137391D01*
X166116000Y-114462609D01*
X166052553Y-114781579D01*
X165928097Y-115082042D01*
X165747415Y-115352451D01*
X165517451Y-115582415D01*
X165247042Y-115763097D01*
X164946579Y-115887553D01*
X164840256Y-115908702D01*
X164627611Y-115951000D01*
X164302389Y-115951000D01*
X164089744Y-115908702D01*
X163983421Y-115887553D01*
X163682958Y-115763097D01*
X163412549Y-115582415D01*
X163182585Y-115352451D01*
X163001903Y-115082042D01*
X162877447Y-114781579D01*
X162814000Y-114462609D01*
X162814000Y-114137391D01*
X162877447Y-113818421D01*
X163001903Y-113517958D01*
X163182585Y-113247549D01*
X163412549Y-113017585D01*
X163682958Y-112836903D01*
X163983421Y-112712447D01*
X164089744Y-112691298D01*
X164302389Y-112649000D01*
X164627611Y-112649000D01*
X164840256Y-112691298D01*
X164840256Y-112691298D01*
G37*
G36*
X104007256Y-112691298D02*
G01*
X104113579Y-112712447D01*
X104414042Y-112836903D01*
X104684451Y-113017585D01*
X104914415Y-113247549D01*
X105095097Y-113517958D01*
X105219553Y-113818421D01*
X105283000Y-114137391D01*
X105283000Y-114462609D01*
X105219553Y-114781579D01*
X105095097Y-115082042D01*
X104914415Y-115352451D01*
X104684451Y-115582415D01*
X104414042Y-115763097D01*
X104113579Y-115887553D01*
X104007256Y-115908702D01*
X103794611Y-115951000D01*
X103469389Y-115951000D01*
X103256744Y-115908702D01*
X103150421Y-115887553D01*
X102849958Y-115763097D01*
X102579549Y-115582415D01*
X102349585Y-115352451D01*
X102168903Y-115082042D01*
X102044447Y-114781579D01*
X101981000Y-114462609D01*
X101981000Y-114137391D01*
X102044447Y-113818421D01*
X102168903Y-113517958D01*
X102349585Y-113247549D01*
X102579549Y-113017585D01*
X102849958Y-112836903D01*
X103150421Y-112712447D01*
X103256744Y-112691298D01*
X103469389Y-112649000D01*
X103794611Y-112649000D01*
X104007256Y-112691298D01*
X104007256Y-112691298D01*
G37*
G36*
X170290443Y-113405519D02*
G01*
X170356627Y-113412037D01*
X170526466Y-113463557D01*
X170682991Y-113547222D01*
X170718729Y-113576552D01*
X170820186Y-113659814D01*
X170903448Y-113761271D01*
X170932778Y-113797009D01*
X171016443Y-113953534D01*
X171067963Y-114123373D01*
X171085359Y-114300000D01*
X171067963Y-114476627D01*
X171016443Y-114646466D01*
X170932778Y-114802991D01*
X170903448Y-114838729D01*
X170820186Y-114940186D01*
X170718729Y-115023448D01*
X170682991Y-115052778D01*
X170526466Y-115136443D01*
X170356627Y-115187963D01*
X170290442Y-115194482D01*
X170224260Y-115201000D01*
X170135740Y-115201000D01*
X170069558Y-115194482D01*
X170003373Y-115187963D01*
X169833534Y-115136443D01*
X169677009Y-115052778D01*
X169641271Y-115023448D01*
X169539814Y-114940186D01*
X169456552Y-114838729D01*
X169427222Y-114802991D01*
X169343557Y-114646466D01*
X169292037Y-114476627D01*
X169274641Y-114300000D01*
X169292037Y-114123373D01*
X169343557Y-113953534D01*
X169427222Y-113797009D01*
X169456552Y-113761271D01*
X169539814Y-113659814D01*
X169641271Y-113576552D01*
X169677009Y-113547222D01*
X169833534Y-113463557D01*
X170003373Y-113412037D01*
X170069557Y-113405519D01*
X170135740Y-113399000D01*
X170224260Y-113399000D01*
X170290443Y-113405519D01*
X170290443Y-113405519D01*
G37*
G36*
X170290442Y-110865518D02*
G01*
X170356627Y-110872037D01*
X170526466Y-110923557D01*
X170682991Y-111007222D01*
X170718729Y-111036552D01*
X170820186Y-111119814D01*
X170903448Y-111221271D01*
X170932778Y-111257009D01*
X171016443Y-111413534D01*
X171067963Y-111583373D01*
X171085359Y-111760000D01*
X171067963Y-111936627D01*
X171016443Y-112106466D01*
X170932778Y-112262991D01*
X170903448Y-112298729D01*
X170820186Y-112400186D01*
X170718729Y-112483448D01*
X170682991Y-112512778D01*
X170526466Y-112596443D01*
X170356627Y-112647963D01*
X170290442Y-112654482D01*
X170224260Y-112661000D01*
X170135740Y-112661000D01*
X170069558Y-112654482D01*
X170003373Y-112647963D01*
X169833534Y-112596443D01*
X169677009Y-112512778D01*
X169641271Y-112483448D01*
X169539814Y-112400186D01*
X169456552Y-112298729D01*
X169427222Y-112262991D01*
X169343557Y-112106466D01*
X169292037Y-111936627D01*
X169274641Y-111760000D01*
X169292037Y-111583373D01*
X169343557Y-111413534D01*
X169427222Y-111257009D01*
X169456552Y-111221271D01*
X169539814Y-111119814D01*
X169641271Y-111036552D01*
X169677009Y-111007222D01*
X169833534Y-110923557D01*
X170003373Y-110872037D01*
X170069558Y-110865518D01*
X170135740Y-110859000D01*
X170224260Y-110859000D01*
X170290442Y-110865518D01*
X170290442Y-110865518D01*
G37*
G36*
X170290443Y-108325519D02*
G01*
X170356627Y-108332037D01*
X170526466Y-108383557D01*
X170682991Y-108467222D01*
X170718729Y-108496552D01*
X170820186Y-108579814D01*
X170903448Y-108681271D01*
X170932778Y-108717009D01*
X171016443Y-108873534D01*
X171067963Y-109043373D01*
X171085359Y-109220000D01*
X171067963Y-109396627D01*
X171016443Y-109566466D01*
X170932778Y-109722991D01*
X170903448Y-109758729D01*
X170820186Y-109860186D01*
X170718729Y-109943448D01*
X170682991Y-109972778D01*
X170526466Y-110056443D01*
X170356627Y-110107963D01*
X170290443Y-110114481D01*
X170224260Y-110121000D01*
X170135740Y-110121000D01*
X170069557Y-110114481D01*
X170003373Y-110107963D01*
X169833534Y-110056443D01*
X169677009Y-109972778D01*
X169641271Y-109943448D01*
X169539814Y-109860186D01*
X169456552Y-109758729D01*
X169427222Y-109722991D01*
X169343557Y-109566466D01*
X169292037Y-109396627D01*
X169274641Y-109220000D01*
X169292037Y-109043373D01*
X169343557Y-108873534D01*
X169427222Y-108717009D01*
X169456552Y-108681271D01*
X169539814Y-108579814D01*
X169641271Y-108496552D01*
X169677009Y-108467222D01*
X169833534Y-108383557D01*
X170003373Y-108332037D01*
X170069557Y-108325519D01*
X170135740Y-108319000D01*
X170224260Y-108319000D01*
X170290443Y-108325519D01*
X170290443Y-108325519D01*
G37*
G36*
X171081000Y-107581000D02*
G01*
X169279000Y-107581000D01*
X169279000Y-105779000D01*
X171081000Y-105779000D01*
X171081000Y-107581000D01*
X171081000Y-107581000D01*
G37*
G36*
X144890443Y-100705519D02*
G01*
X144956627Y-100712037D01*
X145126466Y-100763557D01*
X145282991Y-100847222D01*
X145318729Y-100876552D01*
X145420186Y-100959814D01*
X145503448Y-101061271D01*
X145532778Y-101097009D01*
X145616443Y-101253534D01*
X145667963Y-101423373D01*
X145685359Y-101600000D01*
X145667963Y-101776627D01*
X145616443Y-101946466D01*
X145532778Y-102102991D01*
X145503448Y-102138729D01*
X145420186Y-102240186D01*
X145318729Y-102323448D01*
X145282991Y-102352778D01*
X145126466Y-102436443D01*
X144956627Y-102487963D01*
X144890442Y-102494482D01*
X144824260Y-102501000D01*
X144735740Y-102501000D01*
X144669558Y-102494482D01*
X144603373Y-102487963D01*
X144433534Y-102436443D01*
X144277009Y-102352778D01*
X144241271Y-102323448D01*
X144139814Y-102240186D01*
X144056552Y-102138729D01*
X144027222Y-102102991D01*
X143943557Y-101946466D01*
X143892037Y-101776627D01*
X143874641Y-101600000D01*
X143892037Y-101423373D01*
X143943557Y-101253534D01*
X144027222Y-101097009D01*
X144056552Y-101061271D01*
X144139814Y-100959814D01*
X144241271Y-100876552D01*
X144277009Y-100847222D01*
X144433534Y-100763557D01*
X144603373Y-100712037D01*
X144669557Y-100705519D01*
X144735740Y-100699000D01*
X144824260Y-100699000D01*
X144890443Y-100705519D01*
X144890443Y-100705519D01*
G37*
G36*
X102501000Y-102501000D02*
G01*
X100699000Y-102501000D01*
X100699000Y-100699000D01*
X102501000Y-100699000D01*
X102501000Y-102501000D01*
X102501000Y-102501000D01*
G37*
G36*
X147430443Y-100705519D02*
G01*
X147496627Y-100712037D01*
X147666466Y-100763557D01*
X147822991Y-100847222D01*
X147858729Y-100876552D01*
X147960186Y-100959814D01*
X148043448Y-101061271D01*
X148072778Y-101097009D01*
X148156443Y-101253534D01*
X148207963Y-101423373D01*
X148225359Y-101600000D01*
X148207963Y-101776627D01*
X148156443Y-101946466D01*
X148072778Y-102102991D01*
X148043448Y-102138729D01*
X147960186Y-102240186D01*
X147858729Y-102323448D01*
X147822991Y-102352778D01*
X147666466Y-102436443D01*
X147496627Y-102487963D01*
X147430442Y-102494482D01*
X147364260Y-102501000D01*
X147275740Y-102501000D01*
X147209558Y-102494482D01*
X147143373Y-102487963D01*
X146973534Y-102436443D01*
X146817009Y-102352778D01*
X146781271Y-102323448D01*
X146679814Y-102240186D01*
X146596552Y-102138729D01*
X146567222Y-102102991D01*
X146483557Y-101946466D01*
X146432037Y-101776627D01*
X146414641Y-101600000D01*
X146432037Y-101423373D01*
X146483557Y-101253534D01*
X146567222Y-101097009D01*
X146596552Y-101061271D01*
X146679814Y-100959814D01*
X146781271Y-100876552D01*
X146817009Y-100847222D01*
X146973534Y-100763557D01*
X147143373Y-100712037D01*
X147209557Y-100705519D01*
X147275740Y-100699000D01*
X147364260Y-100699000D01*
X147430443Y-100705519D01*
X147430443Y-100705519D01*
G37*
G36*
X149970443Y-100705519D02*
G01*
X150036627Y-100712037D01*
X150206466Y-100763557D01*
X150362991Y-100847222D01*
X150398729Y-100876552D01*
X150500186Y-100959814D01*
X150583448Y-101061271D01*
X150612778Y-101097009D01*
X150696443Y-101253534D01*
X150747963Y-101423373D01*
X150765359Y-101600000D01*
X150747963Y-101776627D01*
X150696443Y-101946466D01*
X150612778Y-102102991D01*
X150583448Y-102138729D01*
X150500186Y-102240186D01*
X150398729Y-102323448D01*
X150362991Y-102352778D01*
X150206466Y-102436443D01*
X150036627Y-102487963D01*
X149970442Y-102494482D01*
X149904260Y-102501000D01*
X149815740Y-102501000D01*
X149749558Y-102494482D01*
X149683373Y-102487963D01*
X149513534Y-102436443D01*
X149357009Y-102352778D01*
X149321271Y-102323448D01*
X149219814Y-102240186D01*
X149136552Y-102138729D01*
X149107222Y-102102991D01*
X149023557Y-101946466D01*
X148972037Y-101776627D01*
X148954641Y-101600000D01*
X148972037Y-101423373D01*
X149023557Y-101253534D01*
X149107222Y-101097009D01*
X149136552Y-101061271D01*
X149219814Y-100959814D01*
X149321271Y-100876552D01*
X149357009Y-100847222D01*
X149513534Y-100763557D01*
X149683373Y-100712037D01*
X149749557Y-100705519D01*
X149815740Y-100699000D01*
X149904260Y-100699000D01*
X149970443Y-100705519D01*
X149970443Y-100705519D01*
G37*
G36*
X152510443Y-100705519D02*
G01*
X152576627Y-100712037D01*
X152746466Y-100763557D01*
X152902991Y-100847222D01*
X152938729Y-100876552D01*
X153040186Y-100959814D01*
X153123448Y-101061271D01*
X153152778Y-101097009D01*
X153236443Y-101253534D01*
X153287963Y-101423373D01*
X153305359Y-101600000D01*
X153287963Y-101776627D01*
X153236443Y-101946466D01*
X153152778Y-102102991D01*
X153123448Y-102138729D01*
X153040186Y-102240186D01*
X152938729Y-102323448D01*
X152902991Y-102352778D01*
X152746466Y-102436443D01*
X152576627Y-102487963D01*
X152510442Y-102494482D01*
X152444260Y-102501000D01*
X152355740Y-102501000D01*
X152289558Y-102494482D01*
X152223373Y-102487963D01*
X152053534Y-102436443D01*
X151897009Y-102352778D01*
X151861271Y-102323448D01*
X151759814Y-102240186D01*
X151676552Y-102138729D01*
X151647222Y-102102991D01*
X151563557Y-101946466D01*
X151512037Y-101776627D01*
X151494641Y-101600000D01*
X151512037Y-101423373D01*
X151563557Y-101253534D01*
X151647222Y-101097009D01*
X151676552Y-101061271D01*
X151759814Y-100959814D01*
X151861271Y-100876552D01*
X151897009Y-100847222D01*
X152053534Y-100763557D01*
X152223373Y-100712037D01*
X152289557Y-100705519D01*
X152355740Y-100699000D01*
X152444260Y-100699000D01*
X152510443Y-100705519D01*
X152510443Y-100705519D01*
G37*
G36*
X155050443Y-100705519D02*
G01*
X155116627Y-100712037D01*
X155286466Y-100763557D01*
X155442991Y-100847222D01*
X155478729Y-100876552D01*
X155580186Y-100959814D01*
X155663448Y-101061271D01*
X155692778Y-101097009D01*
X155776443Y-101253534D01*
X155827963Y-101423373D01*
X155845359Y-101600000D01*
X155827963Y-101776627D01*
X155776443Y-101946466D01*
X155692778Y-102102991D01*
X155663448Y-102138729D01*
X155580186Y-102240186D01*
X155478729Y-102323448D01*
X155442991Y-102352778D01*
X155286466Y-102436443D01*
X155116627Y-102487963D01*
X155050442Y-102494482D01*
X154984260Y-102501000D01*
X154895740Y-102501000D01*
X154829558Y-102494482D01*
X154763373Y-102487963D01*
X154593534Y-102436443D01*
X154437009Y-102352778D01*
X154401271Y-102323448D01*
X154299814Y-102240186D01*
X154216552Y-102138729D01*
X154187222Y-102102991D01*
X154103557Y-101946466D01*
X154052037Y-101776627D01*
X154034641Y-101600000D01*
X154052037Y-101423373D01*
X154103557Y-101253534D01*
X154187222Y-101097009D01*
X154216552Y-101061271D01*
X154299814Y-100959814D01*
X154401271Y-100876552D01*
X154437009Y-100847222D01*
X154593534Y-100763557D01*
X154763373Y-100712037D01*
X154829557Y-100705519D01*
X154895740Y-100699000D01*
X154984260Y-100699000D01*
X155050443Y-100705519D01*
X155050443Y-100705519D01*
G37*
G36*
X157590443Y-100705519D02*
G01*
X157656627Y-100712037D01*
X157826466Y-100763557D01*
X157982991Y-100847222D01*
X158018729Y-100876552D01*
X158120186Y-100959814D01*
X158203448Y-101061271D01*
X158232778Y-101097009D01*
X158316443Y-101253534D01*
X158367963Y-101423373D01*
X158385359Y-101600000D01*
X158367963Y-101776627D01*
X158316443Y-101946466D01*
X158232778Y-102102991D01*
X158203448Y-102138729D01*
X158120186Y-102240186D01*
X158018729Y-102323448D01*
X157982991Y-102352778D01*
X157826466Y-102436443D01*
X157656627Y-102487963D01*
X157590442Y-102494482D01*
X157524260Y-102501000D01*
X157435740Y-102501000D01*
X157369558Y-102494482D01*
X157303373Y-102487963D01*
X157133534Y-102436443D01*
X156977009Y-102352778D01*
X156941271Y-102323448D01*
X156839814Y-102240186D01*
X156756552Y-102138729D01*
X156727222Y-102102991D01*
X156643557Y-101946466D01*
X156592037Y-101776627D01*
X156574641Y-101600000D01*
X156592037Y-101423373D01*
X156643557Y-101253534D01*
X156727222Y-101097009D01*
X156756552Y-101061271D01*
X156839814Y-100959814D01*
X156941271Y-100876552D01*
X156977009Y-100847222D01*
X157133534Y-100763557D01*
X157303373Y-100712037D01*
X157369557Y-100705519D01*
X157435740Y-100699000D01*
X157524260Y-100699000D01*
X157590443Y-100705519D01*
X157590443Y-100705519D01*
G37*
G36*
X160130443Y-100705519D02*
G01*
X160196627Y-100712037D01*
X160366466Y-100763557D01*
X160522991Y-100847222D01*
X160558729Y-100876552D01*
X160660186Y-100959814D01*
X160743448Y-101061271D01*
X160772778Y-101097009D01*
X160856443Y-101253534D01*
X160907963Y-101423373D01*
X160925359Y-101600000D01*
X160907963Y-101776627D01*
X160856443Y-101946466D01*
X160772778Y-102102991D01*
X160743448Y-102138729D01*
X160660186Y-102240186D01*
X160558729Y-102323448D01*
X160522991Y-102352778D01*
X160366466Y-102436443D01*
X160196627Y-102487963D01*
X160130442Y-102494482D01*
X160064260Y-102501000D01*
X159975740Y-102501000D01*
X159909558Y-102494482D01*
X159843373Y-102487963D01*
X159673534Y-102436443D01*
X159517009Y-102352778D01*
X159481271Y-102323448D01*
X159379814Y-102240186D01*
X159296552Y-102138729D01*
X159267222Y-102102991D01*
X159183557Y-101946466D01*
X159132037Y-101776627D01*
X159114641Y-101600000D01*
X159132037Y-101423373D01*
X159183557Y-101253534D01*
X159267222Y-101097009D01*
X159296552Y-101061271D01*
X159379814Y-100959814D01*
X159481271Y-100876552D01*
X159517009Y-100847222D01*
X159673534Y-100763557D01*
X159843373Y-100712037D01*
X159909557Y-100705519D01*
X159975740Y-100699000D01*
X160064260Y-100699000D01*
X160130443Y-100705519D01*
X160130443Y-100705519D01*
G37*
G36*
X162670443Y-100705519D02*
G01*
X162736627Y-100712037D01*
X162906466Y-100763557D01*
X163062991Y-100847222D01*
X163098729Y-100876552D01*
X163200186Y-100959814D01*
X163283448Y-101061271D01*
X163312778Y-101097009D01*
X163396443Y-101253534D01*
X163447963Y-101423373D01*
X163465359Y-101600000D01*
X163447963Y-101776627D01*
X163396443Y-101946466D01*
X163312778Y-102102991D01*
X163283448Y-102138729D01*
X163200186Y-102240186D01*
X163098729Y-102323448D01*
X163062991Y-102352778D01*
X162906466Y-102436443D01*
X162736627Y-102487963D01*
X162670442Y-102494482D01*
X162604260Y-102501000D01*
X162515740Y-102501000D01*
X162449558Y-102494482D01*
X162383373Y-102487963D01*
X162213534Y-102436443D01*
X162057009Y-102352778D01*
X162021271Y-102323448D01*
X161919814Y-102240186D01*
X161836552Y-102138729D01*
X161807222Y-102102991D01*
X161723557Y-101946466D01*
X161672037Y-101776627D01*
X161654641Y-101600000D01*
X161672037Y-101423373D01*
X161723557Y-101253534D01*
X161807222Y-101097009D01*
X161836552Y-101061271D01*
X161919814Y-100959814D01*
X162021271Y-100876552D01*
X162057009Y-100847222D01*
X162213534Y-100763557D01*
X162383373Y-100712037D01*
X162449557Y-100705519D01*
X162515740Y-100699000D01*
X162604260Y-100699000D01*
X162670443Y-100705519D01*
X162670443Y-100705519D01*
G37*
G36*
X165210443Y-100705519D02*
G01*
X165276627Y-100712037D01*
X165446466Y-100763557D01*
X165602991Y-100847222D01*
X165638729Y-100876552D01*
X165740186Y-100959814D01*
X165823448Y-101061271D01*
X165852778Y-101097009D01*
X165936443Y-101253534D01*
X165987963Y-101423373D01*
X166005359Y-101600000D01*
X165987963Y-101776627D01*
X165936443Y-101946466D01*
X165852778Y-102102991D01*
X165823448Y-102138729D01*
X165740186Y-102240186D01*
X165638729Y-102323448D01*
X165602991Y-102352778D01*
X165446466Y-102436443D01*
X165276627Y-102487963D01*
X165210442Y-102494482D01*
X165144260Y-102501000D01*
X165055740Y-102501000D01*
X164989558Y-102494482D01*
X164923373Y-102487963D01*
X164753534Y-102436443D01*
X164597009Y-102352778D01*
X164561271Y-102323448D01*
X164459814Y-102240186D01*
X164376552Y-102138729D01*
X164347222Y-102102991D01*
X164263557Y-101946466D01*
X164212037Y-101776627D01*
X164194641Y-101600000D01*
X164212037Y-101423373D01*
X164263557Y-101253534D01*
X164347222Y-101097009D01*
X164376552Y-101061271D01*
X164459814Y-100959814D01*
X164561271Y-100876552D01*
X164597009Y-100847222D01*
X164753534Y-100763557D01*
X164923373Y-100712037D01*
X164989557Y-100705519D01*
X165055740Y-100699000D01*
X165144260Y-100699000D01*
X165210443Y-100705519D01*
X165210443Y-100705519D01*
G37*
G36*
X167750443Y-100705519D02*
G01*
X167816627Y-100712037D01*
X167986466Y-100763557D01*
X168142991Y-100847222D01*
X168178729Y-100876552D01*
X168280186Y-100959814D01*
X168363448Y-101061271D01*
X168392778Y-101097009D01*
X168476443Y-101253534D01*
X168527963Y-101423373D01*
X168545359Y-101600000D01*
X168527963Y-101776627D01*
X168476443Y-101946466D01*
X168392778Y-102102991D01*
X168363448Y-102138729D01*
X168280186Y-102240186D01*
X168178729Y-102323448D01*
X168142991Y-102352778D01*
X167986466Y-102436443D01*
X167816627Y-102487963D01*
X167750442Y-102494482D01*
X167684260Y-102501000D01*
X167595740Y-102501000D01*
X167529558Y-102494482D01*
X167463373Y-102487963D01*
X167293534Y-102436443D01*
X167137009Y-102352778D01*
X167101271Y-102323448D01*
X166999814Y-102240186D01*
X166916552Y-102138729D01*
X166887222Y-102102991D01*
X166803557Y-101946466D01*
X166752037Y-101776627D01*
X166734641Y-101600000D01*
X166752037Y-101423373D01*
X166803557Y-101253534D01*
X166887222Y-101097009D01*
X166916552Y-101061271D01*
X166999814Y-100959814D01*
X167101271Y-100876552D01*
X167137009Y-100847222D01*
X167293534Y-100763557D01*
X167463373Y-100712037D01*
X167529557Y-100705519D01*
X167595740Y-100699000D01*
X167684260Y-100699000D01*
X167750443Y-100705519D01*
X167750443Y-100705519D01*
G37*
G36*
X170290443Y-100705519D02*
G01*
X170356627Y-100712037D01*
X170526466Y-100763557D01*
X170682991Y-100847222D01*
X170718729Y-100876552D01*
X170820186Y-100959814D01*
X170903448Y-101061271D01*
X170932778Y-101097009D01*
X171016443Y-101253534D01*
X171067963Y-101423373D01*
X171085359Y-101600000D01*
X171067963Y-101776627D01*
X171016443Y-101946466D01*
X170932778Y-102102991D01*
X170903448Y-102138729D01*
X170820186Y-102240186D01*
X170718729Y-102323448D01*
X170682991Y-102352778D01*
X170526466Y-102436443D01*
X170356627Y-102487963D01*
X170290442Y-102494482D01*
X170224260Y-102501000D01*
X170135740Y-102501000D01*
X170069558Y-102494482D01*
X170003373Y-102487963D01*
X169833534Y-102436443D01*
X169677009Y-102352778D01*
X169641271Y-102323448D01*
X169539814Y-102240186D01*
X169456552Y-102138729D01*
X169427222Y-102102991D01*
X169343557Y-101946466D01*
X169292037Y-101776627D01*
X169274641Y-101600000D01*
X169292037Y-101423373D01*
X169343557Y-101253534D01*
X169427222Y-101097009D01*
X169456552Y-101061271D01*
X169539814Y-100959814D01*
X169641271Y-100876552D01*
X169677009Y-100847222D01*
X169833534Y-100763557D01*
X170003373Y-100712037D01*
X170069557Y-100705519D01*
X170135740Y-100699000D01*
X170224260Y-100699000D01*
X170290443Y-100705519D01*
X170290443Y-100705519D01*
G37*
G36*
X109330443Y-100705519D02*
G01*
X109396627Y-100712037D01*
X109566466Y-100763557D01*
X109722991Y-100847222D01*
X109758729Y-100876552D01*
X109860186Y-100959814D01*
X109943448Y-101061271D01*
X109972778Y-101097009D01*
X110056443Y-101253534D01*
X110107963Y-101423373D01*
X110125359Y-101600000D01*
X110107963Y-101776627D01*
X110056443Y-101946466D01*
X109972778Y-102102991D01*
X109943448Y-102138729D01*
X109860186Y-102240186D01*
X109758729Y-102323448D01*
X109722991Y-102352778D01*
X109566466Y-102436443D01*
X109396627Y-102487963D01*
X109330442Y-102494482D01*
X109264260Y-102501000D01*
X109175740Y-102501000D01*
X109109558Y-102494482D01*
X109043373Y-102487963D01*
X108873534Y-102436443D01*
X108717009Y-102352778D01*
X108681271Y-102323448D01*
X108579814Y-102240186D01*
X108496552Y-102138729D01*
X108467222Y-102102991D01*
X108383557Y-101946466D01*
X108332037Y-101776627D01*
X108314641Y-101600000D01*
X108332037Y-101423373D01*
X108383557Y-101253534D01*
X108467222Y-101097009D01*
X108496552Y-101061271D01*
X108579814Y-100959814D01*
X108681271Y-100876552D01*
X108717009Y-100847222D01*
X108873534Y-100763557D01*
X109043373Y-100712037D01*
X109109557Y-100705519D01*
X109175740Y-100699000D01*
X109264260Y-100699000D01*
X109330443Y-100705519D01*
X109330443Y-100705519D01*
G37*
G36*
X104250443Y-100705519D02*
G01*
X104316627Y-100712037D01*
X104486466Y-100763557D01*
X104642991Y-100847222D01*
X104678729Y-100876552D01*
X104780186Y-100959814D01*
X104863448Y-101061271D01*
X104892778Y-101097009D01*
X104976443Y-101253534D01*
X105027963Y-101423373D01*
X105045359Y-101600000D01*
X105027963Y-101776627D01*
X104976443Y-101946466D01*
X104892778Y-102102991D01*
X104863448Y-102138729D01*
X104780186Y-102240186D01*
X104678729Y-102323448D01*
X104642991Y-102352778D01*
X104486466Y-102436443D01*
X104316627Y-102487963D01*
X104250442Y-102494482D01*
X104184260Y-102501000D01*
X104095740Y-102501000D01*
X104029558Y-102494482D01*
X103963373Y-102487963D01*
X103793534Y-102436443D01*
X103637009Y-102352778D01*
X103601271Y-102323448D01*
X103499814Y-102240186D01*
X103416552Y-102138729D01*
X103387222Y-102102991D01*
X103303557Y-101946466D01*
X103252037Y-101776627D01*
X103234641Y-101600000D01*
X103252037Y-101423373D01*
X103303557Y-101253534D01*
X103387222Y-101097009D01*
X103416552Y-101061271D01*
X103499814Y-100959814D01*
X103601271Y-100876552D01*
X103637009Y-100847222D01*
X103793534Y-100763557D01*
X103963373Y-100712037D01*
X104029557Y-100705519D01*
X104095740Y-100699000D01*
X104184260Y-100699000D01*
X104250443Y-100705519D01*
X104250443Y-100705519D01*
G37*
G36*
X142350443Y-100705519D02*
G01*
X142416627Y-100712037D01*
X142586466Y-100763557D01*
X142742991Y-100847222D01*
X142778729Y-100876552D01*
X142880186Y-100959814D01*
X142963448Y-101061271D01*
X142992778Y-101097009D01*
X143076443Y-101253534D01*
X143127963Y-101423373D01*
X143145359Y-101600000D01*
X143127963Y-101776627D01*
X143076443Y-101946466D01*
X142992778Y-102102991D01*
X142963448Y-102138729D01*
X142880186Y-102240186D01*
X142778729Y-102323448D01*
X142742991Y-102352778D01*
X142586466Y-102436443D01*
X142416627Y-102487963D01*
X142350442Y-102494482D01*
X142284260Y-102501000D01*
X142195740Y-102501000D01*
X142129558Y-102494482D01*
X142063373Y-102487963D01*
X141893534Y-102436443D01*
X141737009Y-102352778D01*
X141701271Y-102323448D01*
X141599814Y-102240186D01*
X141516552Y-102138729D01*
X141487222Y-102102991D01*
X141403557Y-101946466D01*
X141352037Y-101776627D01*
X141334641Y-101600000D01*
X141352037Y-101423373D01*
X141403557Y-101253534D01*
X141487222Y-101097009D01*
X141516552Y-101061271D01*
X141599814Y-100959814D01*
X141701271Y-100876552D01*
X141737009Y-100847222D01*
X141893534Y-100763557D01*
X142063373Y-100712037D01*
X142129557Y-100705519D01*
X142195740Y-100699000D01*
X142284260Y-100699000D01*
X142350443Y-100705519D01*
X142350443Y-100705519D01*
G37*
G36*
X137270443Y-100705519D02*
G01*
X137336627Y-100712037D01*
X137506466Y-100763557D01*
X137662991Y-100847222D01*
X137698729Y-100876552D01*
X137800186Y-100959814D01*
X137883448Y-101061271D01*
X137912778Y-101097009D01*
X137996443Y-101253534D01*
X138047963Y-101423373D01*
X138065359Y-101600000D01*
X138047963Y-101776627D01*
X137996443Y-101946466D01*
X137912778Y-102102991D01*
X137883448Y-102138729D01*
X137800186Y-102240186D01*
X137698729Y-102323448D01*
X137662991Y-102352778D01*
X137506466Y-102436443D01*
X137336627Y-102487963D01*
X137270442Y-102494482D01*
X137204260Y-102501000D01*
X137115740Y-102501000D01*
X137049558Y-102494482D01*
X136983373Y-102487963D01*
X136813534Y-102436443D01*
X136657009Y-102352778D01*
X136621271Y-102323448D01*
X136519814Y-102240186D01*
X136436552Y-102138729D01*
X136407222Y-102102991D01*
X136323557Y-101946466D01*
X136272037Y-101776627D01*
X136254641Y-101600000D01*
X136272037Y-101423373D01*
X136323557Y-101253534D01*
X136407222Y-101097009D01*
X136436552Y-101061271D01*
X136519814Y-100959814D01*
X136621271Y-100876552D01*
X136657009Y-100847222D01*
X136813534Y-100763557D01*
X136983373Y-100712037D01*
X137049557Y-100705519D01*
X137115740Y-100699000D01*
X137204260Y-100699000D01*
X137270443Y-100705519D01*
X137270443Y-100705519D01*
G37*
G36*
X134730443Y-100705519D02*
G01*
X134796627Y-100712037D01*
X134966466Y-100763557D01*
X135122991Y-100847222D01*
X135158729Y-100876552D01*
X135260186Y-100959814D01*
X135343448Y-101061271D01*
X135372778Y-101097009D01*
X135456443Y-101253534D01*
X135507963Y-101423373D01*
X135525359Y-101600000D01*
X135507963Y-101776627D01*
X135456443Y-101946466D01*
X135372778Y-102102991D01*
X135343448Y-102138729D01*
X135260186Y-102240186D01*
X135158729Y-102323448D01*
X135122991Y-102352778D01*
X134966466Y-102436443D01*
X134796627Y-102487963D01*
X134730442Y-102494482D01*
X134664260Y-102501000D01*
X134575740Y-102501000D01*
X134509558Y-102494482D01*
X134443373Y-102487963D01*
X134273534Y-102436443D01*
X134117009Y-102352778D01*
X134081271Y-102323448D01*
X133979814Y-102240186D01*
X133896552Y-102138729D01*
X133867222Y-102102991D01*
X133783557Y-101946466D01*
X133732037Y-101776627D01*
X133714641Y-101600000D01*
X133732037Y-101423373D01*
X133783557Y-101253534D01*
X133867222Y-101097009D01*
X133896552Y-101061271D01*
X133979814Y-100959814D01*
X134081271Y-100876552D01*
X134117009Y-100847222D01*
X134273534Y-100763557D01*
X134443373Y-100712037D01*
X134509557Y-100705519D01*
X134575740Y-100699000D01*
X134664260Y-100699000D01*
X134730443Y-100705519D01*
X134730443Y-100705519D01*
G37*
G36*
X132190443Y-100705519D02*
G01*
X132256627Y-100712037D01*
X132426466Y-100763557D01*
X132582991Y-100847222D01*
X132618729Y-100876552D01*
X132720186Y-100959814D01*
X132803448Y-101061271D01*
X132832778Y-101097009D01*
X132916443Y-101253534D01*
X132967963Y-101423373D01*
X132985359Y-101600000D01*
X132967963Y-101776627D01*
X132916443Y-101946466D01*
X132832778Y-102102991D01*
X132803448Y-102138729D01*
X132720186Y-102240186D01*
X132618729Y-102323448D01*
X132582991Y-102352778D01*
X132426466Y-102436443D01*
X132256627Y-102487963D01*
X132190442Y-102494482D01*
X132124260Y-102501000D01*
X132035740Y-102501000D01*
X131969558Y-102494482D01*
X131903373Y-102487963D01*
X131733534Y-102436443D01*
X131577009Y-102352778D01*
X131541271Y-102323448D01*
X131439814Y-102240186D01*
X131356552Y-102138729D01*
X131327222Y-102102991D01*
X131243557Y-101946466D01*
X131192037Y-101776627D01*
X131174641Y-101600000D01*
X131192037Y-101423373D01*
X131243557Y-101253534D01*
X131327222Y-101097009D01*
X131356552Y-101061271D01*
X131439814Y-100959814D01*
X131541271Y-100876552D01*
X131577009Y-100847222D01*
X131733534Y-100763557D01*
X131903373Y-100712037D01*
X131969557Y-100705519D01*
X132035740Y-100699000D01*
X132124260Y-100699000D01*
X132190443Y-100705519D01*
X132190443Y-100705519D01*
G37*
G36*
X129650443Y-100705519D02*
G01*
X129716627Y-100712037D01*
X129886466Y-100763557D01*
X130042991Y-100847222D01*
X130078729Y-100876552D01*
X130180186Y-100959814D01*
X130263448Y-101061271D01*
X130292778Y-101097009D01*
X130376443Y-101253534D01*
X130427963Y-101423373D01*
X130445359Y-101600000D01*
X130427963Y-101776627D01*
X130376443Y-101946466D01*
X130292778Y-102102991D01*
X130263448Y-102138729D01*
X130180186Y-102240186D01*
X130078729Y-102323448D01*
X130042991Y-102352778D01*
X129886466Y-102436443D01*
X129716627Y-102487963D01*
X129650442Y-102494482D01*
X129584260Y-102501000D01*
X129495740Y-102501000D01*
X129429558Y-102494482D01*
X129363373Y-102487963D01*
X129193534Y-102436443D01*
X129037009Y-102352778D01*
X129001271Y-102323448D01*
X128899814Y-102240186D01*
X128816552Y-102138729D01*
X128787222Y-102102991D01*
X128703557Y-101946466D01*
X128652037Y-101776627D01*
X128634641Y-101600000D01*
X128652037Y-101423373D01*
X128703557Y-101253534D01*
X128787222Y-101097009D01*
X128816552Y-101061271D01*
X128899814Y-100959814D01*
X129001271Y-100876552D01*
X129037009Y-100847222D01*
X129193534Y-100763557D01*
X129363373Y-100712037D01*
X129429557Y-100705519D01*
X129495740Y-100699000D01*
X129584260Y-100699000D01*
X129650443Y-100705519D01*
X129650443Y-100705519D01*
G37*
G36*
X127110443Y-100705519D02*
G01*
X127176627Y-100712037D01*
X127346466Y-100763557D01*
X127502991Y-100847222D01*
X127538729Y-100876552D01*
X127640186Y-100959814D01*
X127723448Y-101061271D01*
X127752778Y-101097009D01*
X127836443Y-101253534D01*
X127887963Y-101423373D01*
X127905359Y-101600000D01*
X127887963Y-101776627D01*
X127836443Y-101946466D01*
X127752778Y-102102991D01*
X127723448Y-102138729D01*
X127640186Y-102240186D01*
X127538729Y-102323448D01*
X127502991Y-102352778D01*
X127346466Y-102436443D01*
X127176627Y-102487963D01*
X127110442Y-102494482D01*
X127044260Y-102501000D01*
X126955740Y-102501000D01*
X126889558Y-102494482D01*
X126823373Y-102487963D01*
X126653534Y-102436443D01*
X126497009Y-102352778D01*
X126461271Y-102323448D01*
X126359814Y-102240186D01*
X126276552Y-102138729D01*
X126247222Y-102102991D01*
X126163557Y-101946466D01*
X126112037Y-101776627D01*
X126094641Y-101600000D01*
X126112037Y-101423373D01*
X126163557Y-101253534D01*
X126247222Y-101097009D01*
X126276552Y-101061271D01*
X126359814Y-100959814D01*
X126461271Y-100876552D01*
X126497009Y-100847222D01*
X126653534Y-100763557D01*
X126823373Y-100712037D01*
X126889557Y-100705519D01*
X126955740Y-100699000D01*
X127044260Y-100699000D01*
X127110443Y-100705519D01*
X127110443Y-100705519D01*
G37*
G36*
X124570443Y-100705519D02*
G01*
X124636627Y-100712037D01*
X124806466Y-100763557D01*
X124962991Y-100847222D01*
X124998729Y-100876552D01*
X125100186Y-100959814D01*
X125183448Y-101061271D01*
X125212778Y-101097009D01*
X125296443Y-101253534D01*
X125347963Y-101423373D01*
X125365359Y-101600000D01*
X125347963Y-101776627D01*
X125296443Y-101946466D01*
X125212778Y-102102991D01*
X125183448Y-102138729D01*
X125100186Y-102240186D01*
X124998729Y-102323448D01*
X124962991Y-102352778D01*
X124806466Y-102436443D01*
X124636627Y-102487963D01*
X124570442Y-102494482D01*
X124504260Y-102501000D01*
X124415740Y-102501000D01*
X124349558Y-102494482D01*
X124283373Y-102487963D01*
X124113534Y-102436443D01*
X123957009Y-102352778D01*
X123921271Y-102323448D01*
X123819814Y-102240186D01*
X123736552Y-102138729D01*
X123707222Y-102102991D01*
X123623557Y-101946466D01*
X123572037Y-101776627D01*
X123554641Y-101600000D01*
X123572037Y-101423373D01*
X123623557Y-101253534D01*
X123707222Y-101097009D01*
X123736552Y-101061271D01*
X123819814Y-100959814D01*
X123921271Y-100876552D01*
X123957009Y-100847222D01*
X124113534Y-100763557D01*
X124283373Y-100712037D01*
X124349557Y-100705519D01*
X124415740Y-100699000D01*
X124504260Y-100699000D01*
X124570443Y-100705519D01*
X124570443Y-100705519D01*
G37*
G36*
X122030443Y-100705519D02*
G01*
X122096627Y-100712037D01*
X122266466Y-100763557D01*
X122422991Y-100847222D01*
X122458729Y-100876552D01*
X122560186Y-100959814D01*
X122643448Y-101061271D01*
X122672778Y-101097009D01*
X122756443Y-101253534D01*
X122807963Y-101423373D01*
X122825359Y-101600000D01*
X122807963Y-101776627D01*
X122756443Y-101946466D01*
X122672778Y-102102991D01*
X122643448Y-102138729D01*
X122560186Y-102240186D01*
X122458729Y-102323448D01*
X122422991Y-102352778D01*
X122266466Y-102436443D01*
X122096627Y-102487963D01*
X122030442Y-102494482D01*
X121964260Y-102501000D01*
X121875740Y-102501000D01*
X121809558Y-102494482D01*
X121743373Y-102487963D01*
X121573534Y-102436443D01*
X121417009Y-102352778D01*
X121381271Y-102323448D01*
X121279814Y-102240186D01*
X121196552Y-102138729D01*
X121167222Y-102102991D01*
X121083557Y-101946466D01*
X121032037Y-101776627D01*
X121014641Y-101600000D01*
X121032037Y-101423373D01*
X121083557Y-101253534D01*
X121167222Y-101097009D01*
X121196552Y-101061271D01*
X121279814Y-100959814D01*
X121381271Y-100876552D01*
X121417009Y-100847222D01*
X121573534Y-100763557D01*
X121743373Y-100712037D01*
X121809557Y-100705519D01*
X121875740Y-100699000D01*
X121964260Y-100699000D01*
X122030443Y-100705519D01*
X122030443Y-100705519D01*
G37*
G36*
X119490443Y-100705519D02*
G01*
X119556627Y-100712037D01*
X119726466Y-100763557D01*
X119882991Y-100847222D01*
X119918729Y-100876552D01*
X120020186Y-100959814D01*
X120103448Y-101061271D01*
X120132778Y-101097009D01*
X120216443Y-101253534D01*
X120267963Y-101423373D01*
X120285359Y-101600000D01*
X120267963Y-101776627D01*
X120216443Y-101946466D01*
X120132778Y-102102991D01*
X120103448Y-102138729D01*
X120020186Y-102240186D01*
X119918729Y-102323448D01*
X119882991Y-102352778D01*
X119726466Y-102436443D01*
X119556627Y-102487963D01*
X119490442Y-102494482D01*
X119424260Y-102501000D01*
X119335740Y-102501000D01*
X119269558Y-102494482D01*
X119203373Y-102487963D01*
X119033534Y-102436443D01*
X118877009Y-102352778D01*
X118841271Y-102323448D01*
X118739814Y-102240186D01*
X118656552Y-102138729D01*
X118627222Y-102102991D01*
X118543557Y-101946466D01*
X118492037Y-101776627D01*
X118474641Y-101600000D01*
X118492037Y-101423373D01*
X118543557Y-101253534D01*
X118627222Y-101097009D01*
X118656552Y-101061271D01*
X118739814Y-100959814D01*
X118841271Y-100876552D01*
X118877009Y-100847222D01*
X119033534Y-100763557D01*
X119203373Y-100712037D01*
X119269557Y-100705519D01*
X119335740Y-100699000D01*
X119424260Y-100699000D01*
X119490443Y-100705519D01*
X119490443Y-100705519D01*
G37*
G36*
X116950443Y-100705519D02*
G01*
X117016627Y-100712037D01*
X117186466Y-100763557D01*
X117342991Y-100847222D01*
X117378729Y-100876552D01*
X117480186Y-100959814D01*
X117563448Y-101061271D01*
X117592778Y-101097009D01*
X117676443Y-101253534D01*
X117727963Y-101423373D01*
X117745359Y-101600000D01*
X117727963Y-101776627D01*
X117676443Y-101946466D01*
X117592778Y-102102991D01*
X117563448Y-102138729D01*
X117480186Y-102240186D01*
X117378729Y-102323448D01*
X117342991Y-102352778D01*
X117186466Y-102436443D01*
X117016627Y-102487963D01*
X116950442Y-102494482D01*
X116884260Y-102501000D01*
X116795740Y-102501000D01*
X116729558Y-102494482D01*
X116663373Y-102487963D01*
X116493534Y-102436443D01*
X116337009Y-102352778D01*
X116301271Y-102323448D01*
X116199814Y-102240186D01*
X116116552Y-102138729D01*
X116087222Y-102102991D01*
X116003557Y-101946466D01*
X115952037Y-101776627D01*
X115934641Y-101600000D01*
X115952037Y-101423373D01*
X116003557Y-101253534D01*
X116087222Y-101097009D01*
X116116552Y-101061271D01*
X116199814Y-100959814D01*
X116301271Y-100876552D01*
X116337009Y-100847222D01*
X116493534Y-100763557D01*
X116663373Y-100712037D01*
X116729557Y-100705519D01*
X116795740Y-100699000D01*
X116884260Y-100699000D01*
X116950443Y-100705519D01*
X116950443Y-100705519D01*
G37*
G36*
X114410443Y-100705519D02*
G01*
X114476627Y-100712037D01*
X114646466Y-100763557D01*
X114802991Y-100847222D01*
X114838729Y-100876552D01*
X114940186Y-100959814D01*
X115023448Y-101061271D01*
X115052778Y-101097009D01*
X115136443Y-101253534D01*
X115187963Y-101423373D01*
X115205359Y-101600000D01*
X115187963Y-101776627D01*
X115136443Y-101946466D01*
X115052778Y-102102991D01*
X115023448Y-102138729D01*
X114940186Y-102240186D01*
X114838729Y-102323448D01*
X114802991Y-102352778D01*
X114646466Y-102436443D01*
X114476627Y-102487963D01*
X114410442Y-102494482D01*
X114344260Y-102501000D01*
X114255740Y-102501000D01*
X114189558Y-102494482D01*
X114123373Y-102487963D01*
X113953534Y-102436443D01*
X113797009Y-102352778D01*
X113761271Y-102323448D01*
X113659814Y-102240186D01*
X113576552Y-102138729D01*
X113547222Y-102102991D01*
X113463557Y-101946466D01*
X113412037Y-101776627D01*
X113394641Y-101600000D01*
X113412037Y-101423373D01*
X113463557Y-101253534D01*
X113547222Y-101097009D01*
X113576552Y-101061271D01*
X113659814Y-100959814D01*
X113761271Y-100876552D01*
X113797009Y-100847222D01*
X113953534Y-100763557D01*
X114123373Y-100712037D01*
X114189557Y-100705519D01*
X114255740Y-100699000D01*
X114344260Y-100699000D01*
X114410443Y-100705519D01*
X114410443Y-100705519D01*
G37*
G36*
X111870443Y-100705519D02*
G01*
X111936627Y-100712037D01*
X112106466Y-100763557D01*
X112262991Y-100847222D01*
X112298729Y-100876552D01*
X112400186Y-100959814D01*
X112483448Y-101061271D01*
X112512778Y-101097009D01*
X112596443Y-101253534D01*
X112647963Y-101423373D01*
X112665359Y-101600000D01*
X112647963Y-101776627D01*
X112596443Y-101946466D01*
X112512778Y-102102991D01*
X112483448Y-102138729D01*
X112400186Y-102240186D01*
X112298729Y-102323448D01*
X112262991Y-102352778D01*
X112106466Y-102436443D01*
X111936627Y-102487963D01*
X111870442Y-102494482D01*
X111804260Y-102501000D01*
X111715740Y-102501000D01*
X111649558Y-102494482D01*
X111583373Y-102487963D01*
X111413534Y-102436443D01*
X111257009Y-102352778D01*
X111221271Y-102323448D01*
X111119814Y-102240186D01*
X111036552Y-102138729D01*
X111007222Y-102102991D01*
X110923557Y-101946466D01*
X110872037Y-101776627D01*
X110854641Y-101600000D01*
X110872037Y-101423373D01*
X110923557Y-101253534D01*
X111007222Y-101097009D01*
X111036552Y-101061271D01*
X111119814Y-100959814D01*
X111221271Y-100876552D01*
X111257009Y-100847222D01*
X111413534Y-100763557D01*
X111583373Y-100712037D01*
X111649557Y-100705519D01*
X111715740Y-100699000D01*
X111804260Y-100699000D01*
X111870443Y-100705519D01*
X111870443Y-100705519D01*
G37*
G36*
X106790443Y-100705519D02*
G01*
X106856627Y-100712037D01*
X107026466Y-100763557D01*
X107182991Y-100847222D01*
X107218729Y-100876552D01*
X107320186Y-100959814D01*
X107403448Y-101061271D01*
X107432778Y-101097009D01*
X107516443Y-101253534D01*
X107567963Y-101423373D01*
X107585359Y-101600000D01*
X107567963Y-101776627D01*
X107516443Y-101946466D01*
X107432778Y-102102991D01*
X107403448Y-102138729D01*
X107320186Y-102240186D01*
X107218729Y-102323448D01*
X107182991Y-102352778D01*
X107026466Y-102436443D01*
X106856627Y-102487963D01*
X106790442Y-102494482D01*
X106724260Y-102501000D01*
X106635740Y-102501000D01*
X106569558Y-102494482D01*
X106503373Y-102487963D01*
X106333534Y-102436443D01*
X106177009Y-102352778D01*
X106141271Y-102323448D01*
X106039814Y-102240186D01*
X105956552Y-102138729D01*
X105927222Y-102102991D01*
X105843557Y-101946466D01*
X105792037Y-101776627D01*
X105774641Y-101600000D01*
X105792037Y-101423373D01*
X105843557Y-101253534D01*
X105927222Y-101097009D01*
X105956552Y-101061271D01*
X106039814Y-100959814D01*
X106141271Y-100876552D01*
X106177009Y-100847222D01*
X106333534Y-100763557D01*
X106503373Y-100712037D01*
X106569557Y-100705519D01*
X106635740Y-100699000D01*
X106724260Y-100699000D01*
X106790443Y-100705519D01*
X106790443Y-100705519D01*
G37*
G36*
X139810443Y-100705519D02*
G01*
X139876627Y-100712037D01*
X140046466Y-100763557D01*
X140202991Y-100847222D01*
X140238729Y-100876552D01*
X140340186Y-100959814D01*
X140423448Y-101061271D01*
X140452778Y-101097009D01*
X140536443Y-101253534D01*
X140587963Y-101423373D01*
X140605359Y-101600000D01*
X140587963Y-101776627D01*
X140536443Y-101946466D01*
X140452778Y-102102991D01*
X140423448Y-102138729D01*
X140340186Y-102240186D01*
X140238729Y-102323448D01*
X140202991Y-102352778D01*
X140046466Y-102436443D01*
X139876627Y-102487963D01*
X139810442Y-102494482D01*
X139744260Y-102501000D01*
X139655740Y-102501000D01*
X139589558Y-102494482D01*
X139523373Y-102487963D01*
X139353534Y-102436443D01*
X139197009Y-102352778D01*
X139161271Y-102323448D01*
X139059814Y-102240186D01*
X138976552Y-102138729D01*
X138947222Y-102102991D01*
X138863557Y-101946466D01*
X138812037Y-101776627D01*
X138794641Y-101600000D01*
X138812037Y-101423373D01*
X138863557Y-101253534D01*
X138947222Y-101097009D01*
X138976552Y-101061271D01*
X139059814Y-100959814D01*
X139161271Y-100876552D01*
X139197009Y-100847222D01*
X139353534Y-100763557D01*
X139523373Y-100712037D01*
X139589557Y-100705519D01*
X139655740Y-100699000D01*
X139744260Y-100699000D01*
X139810443Y-100705519D01*
X139810443Y-100705519D01*
G37*
M02*
