G04 #@! TF.GenerationSoftware,KiCad,Pcbnew,5.1.2-f72e74a~84~ubuntu18.04.1*
G04 #@! TF.CreationDate,2019-07-20T11:54:10-04:00*
G04 #@! TF.ProjectId,stm32G0_basic,73746d33-3247-4305-9f62-617369632e6b,rev?*
G04 #@! TF.SameCoordinates,Original*
G04 #@! TF.FileFunction,Soldermask,Top*
G04 #@! TF.FilePolarity,Negative*
%FSLAX46Y46*%
G04 Gerber Fmt 4.6, Leading zero omitted, Abs format (unit mm)*
G04 Created by KiCad (PCBNEW 5.1.2-f72e74a~84~ubuntu18.04.1) date 2019-07-20 11:54:10*
%MOMM*%
%LPD*%
G04 APERTURE LIST*
%ADD10C,0.100000*%
G04 APERTURE END LIST*
D10*
G36*
X148469604Y-116047347D02*
G01*
X148506144Y-116058432D01*
X148539821Y-116076433D01*
X148569341Y-116100659D01*
X148593567Y-116130179D01*
X148611568Y-116163856D01*
X148622653Y-116200396D01*
X148627000Y-116244538D01*
X148627000Y-117193462D01*
X148622653Y-117237604D01*
X148611568Y-117274144D01*
X148593567Y-117307821D01*
X148569341Y-117337341D01*
X148539821Y-117361567D01*
X148506144Y-117379568D01*
X148469604Y-117390653D01*
X148425462Y-117395000D01*
X146976538Y-117395000D01*
X146932396Y-117390653D01*
X146895856Y-117379568D01*
X146862179Y-117361567D01*
X146832659Y-117337341D01*
X146808433Y-117307821D01*
X146790432Y-117274144D01*
X146779347Y-117237604D01*
X146775000Y-117193462D01*
X146775000Y-116244538D01*
X146779347Y-116200396D01*
X146790432Y-116163856D01*
X146808433Y-116130179D01*
X146832659Y-116100659D01*
X146862179Y-116076433D01*
X146895856Y-116058432D01*
X146932396Y-116047347D01*
X146976538Y-116043000D01*
X148425462Y-116043000D01*
X148469604Y-116047347D01*
X148469604Y-116047347D01*
G37*
G36*
X145802604Y-116044347D02*
G01*
X145839144Y-116055432D01*
X145872821Y-116073433D01*
X145902341Y-116097659D01*
X145926567Y-116127179D01*
X145944568Y-116160856D01*
X145955653Y-116197396D01*
X145960000Y-116241538D01*
X145960000Y-117190462D01*
X145955653Y-117234604D01*
X145944568Y-117271144D01*
X145926567Y-117304821D01*
X145902341Y-117334341D01*
X145872821Y-117358567D01*
X145839144Y-117376568D01*
X145802604Y-117387653D01*
X145758462Y-117392000D01*
X144309538Y-117392000D01*
X144265396Y-117387653D01*
X144228856Y-117376568D01*
X144195179Y-117358567D01*
X144165659Y-117334341D01*
X144141433Y-117304821D01*
X144123432Y-117271144D01*
X144112347Y-117234604D01*
X144108000Y-117190462D01*
X144108000Y-116241538D01*
X144112347Y-116197396D01*
X144123432Y-116160856D01*
X144141433Y-116127179D01*
X144165659Y-116097659D01*
X144195179Y-116073433D01*
X144228856Y-116055432D01*
X144265396Y-116044347D01*
X144309538Y-116040000D01*
X145758462Y-116040000D01*
X145802604Y-116044347D01*
X145802604Y-116044347D01*
G37*
G36*
X126625604Y-115793347D02*
G01*
X126662144Y-115804432D01*
X126695821Y-115822433D01*
X126725341Y-115846659D01*
X126749567Y-115876179D01*
X126767568Y-115909856D01*
X126778653Y-115946396D01*
X126783000Y-115990538D01*
X126783000Y-116939462D01*
X126778653Y-116983604D01*
X126767568Y-117020144D01*
X126749567Y-117053821D01*
X126725341Y-117083341D01*
X126695821Y-117107567D01*
X126662144Y-117125568D01*
X126625604Y-117136653D01*
X126581462Y-117141000D01*
X125132538Y-117141000D01*
X125088396Y-117136653D01*
X125051856Y-117125568D01*
X125018179Y-117107567D01*
X124988659Y-117083341D01*
X124964433Y-117053821D01*
X124946432Y-117020144D01*
X124935347Y-116983604D01*
X124931000Y-116939462D01*
X124931000Y-115990538D01*
X124935347Y-115946396D01*
X124946432Y-115909856D01*
X124964433Y-115876179D01*
X124988659Y-115846659D01*
X125018179Y-115822433D01*
X125051856Y-115804432D01*
X125088396Y-115793347D01*
X125132538Y-115789000D01*
X126581462Y-115789000D01*
X126625604Y-115793347D01*
X126625604Y-115793347D01*
G37*
G36*
X159746000Y-116498000D02*
G01*
X157644000Y-116498000D01*
X157644000Y-114896000D01*
X159746000Y-114896000D01*
X159746000Y-116498000D01*
X159746000Y-116498000D01*
G37*
G36*
X151546000Y-116498000D02*
G01*
X149444000Y-116498000D01*
X149444000Y-114896000D01*
X151546000Y-114896000D01*
X151546000Y-116498000D01*
X151546000Y-116498000D01*
G37*
G36*
X138580568Y-110848775D02*
G01*
X138596960Y-110853748D01*
X138612072Y-110861825D01*
X138630081Y-110876605D01*
X138669926Y-110916450D01*
X138669937Y-110916459D01*
X139589883Y-111836405D01*
X139589892Y-111836416D01*
X139629737Y-111876261D01*
X139644517Y-111894270D01*
X139652594Y-111909382D01*
X139657567Y-111925774D01*
X139659246Y-111942825D01*
X139657567Y-111959876D01*
X139652594Y-111976268D01*
X139644517Y-111991380D01*
X139629737Y-112009389D01*
X139589892Y-112049234D01*
X139589883Y-112049245D01*
X139377043Y-112262085D01*
X139377032Y-112262094D01*
X139337187Y-112301939D01*
X139319178Y-112316719D01*
X139304066Y-112324796D01*
X139287674Y-112329769D01*
X139270623Y-112331448D01*
X139253575Y-112329769D01*
X139245261Y-112327247D01*
X139221227Y-112322467D01*
X139196723Y-112322467D01*
X139172690Y-112327248D01*
X139150051Y-112336625D01*
X139129677Y-112350239D01*
X139112350Y-112367566D01*
X139098736Y-112387941D01*
X139089359Y-112410579D01*
X139084579Y-112434613D01*
X139084579Y-112459117D01*
X139089360Y-112483150D01*
X139091881Y-112491459D01*
X139093560Y-112508510D01*
X139091881Y-112525561D01*
X139086908Y-112541953D01*
X139078831Y-112557065D01*
X139064051Y-112575074D01*
X139024206Y-112614919D01*
X139024197Y-112614930D01*
X138811357Y-112827770D01*
X138811346Y-112827779D01*
X138771501Y-112867624D01*
X138753492Y-112882404D01*
X138738380Y-112890481D01*
X138721988Y-112895454D01*
X138704937Y-112897133D01*
X138687886Y-112895454D01*
X138679577Y-112892933D01*
X138655544Y-112888152D01*
X138631040Y-112888152D01*
X138607007Y-112892932D01*
X138584368Y-112902309D01*
X138563993Y-112915923D01*
X138546666Y-112933250D01*
X138533052Y-112953624D01*
X138523675Y-112976263D01*
X138518894Y-113000296D01*
X138518894Y-113024800D01*
X138523674Y-113048834D01*
X138526196Y-113057148D01*
X138527875Y-113074196D01*
X138526196Y-113091247D01*
X138521223Y-113107639D01*
X138513146Y-113122751D01*
X138498366Y-113140760D01*
X138458521Y-113180605D01*
X138458512Y-113180616D01*
X138245672Y-113393456D01*
X138245661Y-113393465D01*
X138205816Y-113433310D01*
X138187807Y-113448090D01*
X138172695Y-113456167D01*
X138156303Y-113461140D01*
X138139252Y-113462819D01*
X138122201Y-113461140D01*
X138113892Y-113458619D01*
X138089859Y-113453838D01*
X138065355Y-113453838D01*
X138041322Y-113458618D01*
X138018683Y-113467995D01*
X137998308Y-113481609D01*
X137980981Y-113498936D01*
X137967367Y-113519310D01*
X137957990Y-113541949D01*
X137953209Y-113565982D01*
X137953209Y-113590486D01*
X137957990Y-113614521D01*
X137960511Y-113622830D01*
X137962190Y-113639881D01*
X137960511Y-113656932D01*
X137955538Y-113673324D01*
X137947461Y-113688436D01*
X137932681Y-113706445D01*
X137892836Y-113746290D01*
X137892827Y-113746301D01*
X137679987Y-113959141D01*
X137679976Y-113959150D01*
X137640131Y-113998995D01*
X137622122Y-114013775D01*
X137607010Y-114021852D01*
X137590618Y-114026825D01*
X137573567Y-114028504D01*
X137556519Y-114026825D01*
X137548205Y-114024303D01*
X137524171Y-114019523D01*
X137499667Y-114019523D01*
X137475634Y-114024304D01*
X137452995Y-114033681D01*
X137432621Y-114047295D01*
X137415294Y-114064622D01*
X137401680Y-114084997D01*
X137392303Y-114107635D01*
X137387523Y-114131669D01*
X137387523Y-114156173D01*
X137392303Y-114180205D01*
X137394825Y-114188519D01*
X137396504Y-114205567D01*
X137394825Y-114222618D01*
X137389852Y-114239010D01*
X137381775Y-114254122D01*
X137366995Y-114272131D01*
X137327150Y-114311976D01*
X137327141Y-114311987D01*
X137114301Y-114524827D01*
X137114290Y-114524836D01*
X137074445Y-114564681D01*
X137056436Y-114579461D01*
X137041324Y-114587538D01*
X137024932Y-114592511D01*
X137007881Y-114594190D01*
X136990830Y-114592511D01*
X136982521Y-114589990D01*
X136958488Y-114585209D01*
X136933984Y-114585209D01*
X136909951Y-114589989D01*
X136887312Y-114599366D01*
X136866937Y-114612980D01*
X136849610Y-114630307D01*
X136835996Y-114650681D01*
X136826619Y-114673320D01*
X136821838Y-114697353D01*
X136821838Y-114721857D01*
X136826619Y-114745892D01*
X136829140Y-114754201D01*
X136830819Y-114771252D01*
X136829140Y-114788303D01*
X136824167Y-114804695D01*
X136816090Y-114819807D01*
X136801310Y-114837816D01*
X136761465Y-114877661D01*
X136761456Y-114877672D01*
X136548616Y-115090512D01*
X136548605Y-115090521D01*
X136508760Y-115130366D01*
X136490751Y-115145146D01*
X136475639Y-115153223D01*
X136459247Y-115158196D01*
X136442196Y-115159875D01*
X136425148Y-115158196D01*
X136416834Y-115155674D01*
X136392800Y-115150894D01*
X136368296Y-115150894D01*
X136344263Y-115155675D01*
X136321624Y-115165052D01*
X136301250Y-115178666D01*
X136283923Y-115195993D01*
X136270309Y-115216368D01*
X136260932Y-115239006D01*
X136256152Y-115263040D01*
X136256152Y-115287544D01*
X136260933Y-115311577D01*
X136263454Y-115319886D01*
X136265133Y-115336937D01*
X136263454Y-115353988D01*
X136258481Y-115370380D01*
X136250404Y-115385492D01*
X136235624Y-115403501D01*
X136195779Y-115443346D01*
X136195770Y-115443357D01*
X135982930Y-115656197D01*
X135982919Y-115656206D01*
X135943074Y-115696051D01*
X135925065Y-115710831D01*
X135909953Y-115718908D01*
X135893561Y-115723881D01*
X135876510Y-115725560D01*
X135859459Y-115723881D01*
X135851150Y-115721360D01*
X135827117Y-115716579D01*
X135802613Y-115716579D01*
X135778580Y-115721359D01*
X135755941Y-115730736D01*
X135735566Y-115744350D01*
X135718239Y-115761677D01*
X135704625Y-115782051D01*
X135695248Y-115804690D01*
X135690467Y-115828723D01*
X135690467Y-115853227D01*
X135695247Y-115877261D01*
X135697769Y-115885575D01*
X135699448Y-115902623D01*
X135697769Y-115919674D01*
X135692796Y-115936066D01*
X135684719Y-115951178D01*
X135669939Y-115969187D01*
X135630094Y-116009032D01*
X135630085Y-116009043D01*
X135417245Y-116221883D01*
X135417234Y-116221892D01*
X135377389Y-116261737D01*
X135359380Y-116276517D01*
X135344268Y-116284594D01*
X135327876Y-116289567D01*
X135310825Y-116291246D01*
X135293774Y-116289567D01*
X135277382Y-116284594D01*
X135262270Y-116276517D01*
X135244261Y-116261737D01*
X135204416Y-116221892D01*
X135204405Y-116221883D01*
X134284459Y-115301937D01*
X134284450Y-115301926D01*
X134244605Y-115262081D01*
X134229825Y-115244072D01*
X134221748Y-115228960D01*
X134216775Y-115212568D01*
X134215096Y-115195517D01*
X134216775Y-115178466D01*
X134221748Y-115162074D01*
X134229825Y-115146962D01*
X134244605Y-115128953D01*
X134284450Y-115089108D01*
X134284459Y-115089097D01*
X134497299Y-114876257D01*
X134497310Y-114876248D01*
X134537155Y-114836403D01*
X134555164Y-114821623D01*
X134570276Y-114813546D01*
X134586668Y-114808573D01*
X134603719Y-114806894D01*
X134620770Y-114808573D01*
X134629079Y-114811094D01*
X134653112Y-114815875D01*
X134677616Y-114815875D01*
X134701649Y-114811095D01*
X134724288Y-114801718D01*
X134744663Y-114788104D01*
X134761990Y-114770777D01*
X134775604Y-114750403D01*
X134784981Y-114727764D01*
X134789762Y-114703731D01*
X134789762Y-114679227D01*
X134784982Y-114655193D01*
X134782460Y-114646879D01*
X134780781Y-114629831D01*
X134782460Y-114612780D01*
X134787433Y-114596388D01*
X134795510Y-114581276D01*
X134810290Y-114563267D01*
X134850135Y-114523422D01*
X134850144Y-114523411D01*
X135062984Y-114310571D01*
X135062995Y-114310562D01*
X135102840Y-114270717D01*
X135120849Y-114255937D01*
X135135961Y-114247860D01*
X135152353Y-114242887D01*
X135169404Y-114241208D01*
X135186452Y-114242887D01*
X135194766Y-114245409D01*
X135218800Y-114250189D01*
X135243304Y-114250189D01*
X135267337Y-114245408D01*
X135289976Y-114236031D01*
X135310350Y-114222417D01*
X135327677Y-114205090D01*
X135341291Y-114184715D01*
X135350668Y-114162077D01*
X135355448Y-114138043D01*
X135355448Y-114113539D01*
X135350667Y-114089506D01*
X135348146Y-114081197D01*
X135346467Y-114064146D01*
X135348146Y-114047095D01*
X135353119Y-114030703D01*
X135361196Y-114015591D01*
X135375976Y-113997582D01*
X135415821Y-113957737D01*
X135415830Y-113957726D01*
X135628670Y-113744886D01*
X135628681Y-113744877D01*
X135668526Y-113705032D01*
X135686535Y-113690252D01*
X135701647Y-113682175D01*
X135718039Y-113677202D01*
X135735090Y-113675523D01*
X135752141Y-113677202D01*
X135760450Y-113679723D01*
X135784483Y-113684504D01*
X135808987Y-113684504D01*
X135833020Y-113679724D01*
X135855659Y-113670347D01*
X135876034Y-113656733D01*
X135893361Y-113639406D01*
X135906975Y-113619032D01*
X135916352Y-113596393D01*
X135921133Y-113572360D01*
X135921133Y-113547856D01*
X135916352Y-113523821D01*
X135913831Y-113515512D01*
X135912152Y-113498461D01*
X135913831Y-113481410D01*
X135918804Y-113465018D01*
X135926881Y-113449906D01*
X135941661Y-113431897D01*
X135981506Y-113392052D01*
X135981515Y-113392041D01*
X136194355Y-113179201D01*
X136194366Y-113179192D01*
X136234211Y-113139347D01*
X136252220Y-113124567D01*
X136267332Y-113116490D01*
X136283724Y-113111517D01*
X136300775Y-113109838D01*
X136317823Y-113111517D01*
X136326137Y-113114039D01*
X136350171Y-113118819D01*
X136374675Y-113118819D01*
X136398708Y-113114038D01*
X136421347Y-113104661D01*
X136441721Y-113091047D01*
X136459048Y-113073720D01*
X136472662Y-113053345D01*
X136482039Y-113030707D01*
X136486819Y-113006673D01*
X136486819Y-112982169D01*
X136482039Y-112958137D01*
X136479517Y-112949823D01*
X136477838Y-112932775D01*
X136479517Y-112915724D01*
X136484490Y-112899332D01*
X136492567Y-112884220D01*
X136507347Y-112866211D01*
X136547192Y-112826366D01*
X136547201Y-112826355D01*
X136760041Y-112613515D01*
X136760052Y-112613506D01*
X136799897Y-112573661D01*
X136817906Y-112558881D01*
X136833018Y-112550804D01*
X136849410Y-112545831D01*
X136866461Y-112544152D01*
X136883512Y-112545831D01*
X136891821Y-112548352D01*
X136915854Y-112553133D01*
X136940358Y-112553133D01*
X136964391Y-112548353D01*
X136987030Y-112538976D01*
X137007405Y-112525362D01*
X137024732Y-112508035D01*
X137038346Y-112487661D01*
X137047723Y-112465022D01*
X137052504Y-112440989D01*
X137052504Y-112416485D01*
X137047723Y-112392450D01*
X137045202Y-112384141D01*
X137043523Y-112367090D01*
X137045202Y-112350039D01*
X137050175Y-112333647D01*
X137058252Y-112318535D01*
X137073032Y-112300526D01*
X137112877Y-112260681D01*
X137112886Y-112260670D01*
X137325726Y-112047830D01*
X137325737Y-112047821D01*
X137365582Y-112007976D01*
X137383591Y-111993196D01*
X137398703Y-111985119D01*
X137415095Y-111980146D01*
X137432146Y-111978467D01*
X137449197Y-111980146D01*
X137457506Y-111982667D01*
X137481539Y-111987448D01*
X137506043Y-111987448D01*
X137530076Y-111982668D01*
X137552715Y-111973291D01*
X137573090Y-111959677D01*
X137590417Y-111942350D01*
X137604031Y-111921976D01*
X137613408Y-111899337D01*
X137618189Y-111875304D01*
X137618189Y-111850800D01*
X137613409Y-111826766D01*
X137610887Y-111818452D01*
X137609208Y-111801404D01*
X137610887Y-111784353D01*
X137615860Y-111767961D01*
X137623937Y-111752849D01*
X137638717Y-111734840D01*
X137678562Y-111694995D01*
X137678571Y-111694984D01*
X137891411Y-111482144D01*
X137891422Y-111482135D01*
X137931267Y-111442290D01*
X137949276Y-111427510D01*
X137964388Y-111419433D01*
X137980780Y-111414460D01*
X137997831Y-111412781D01*
X138014879Y-111414460D01*
X138023193Y-111416982D01*
X138047227Y-111421762D01*
X138071731Y-111421762D01*
X138095764Y-111416981D01*
X138118403Y-111407604D01*
X138138777Y-111393990D01*
X138156104Y-111376663D01*
X138169718Y-111356288D01*
X138179095Y-111333650D01*
X138183875Y-111309616D01*
X138183875Y-111285112D01*
X138179094Y-111261079D01*
X138176573Y-111252770D01*
X138174894Y-111235719D01*
X138176573Y-111218668D01*
X138181546Y-111202276D01*
X138189623Y-111187164D01*
X138204403Y-111169155D01*
X138244248Y-111129310D01*
X138244257Y-111129299D01*
X138457097Y-110916459D01*
X138457108Y-110916450D01*
X138496953Y-110876605D01*
X138514962Y-110861825D01*
X138530074Y-110853748D01*
X138546466Y-110848775D01*
X138563517Y-110847096D01*
X138580568Y-110848775D01*
X138580568Y-110848775D01*
G37*
G36*
X129423534Y-110848775D02*
G01*
X129439926Y-110853748D01*
X129455038Y-110861825D01*
X129473047Y-110876605D01*
X129512892Y-110916450D01*
X129512903Y-110916459D01*
X129725743Y-111129299D01*
X129725752Y-111129310D01*
X129765597Y-111169155D01*
X129780377Y-111187164D01*
X129788454Y-111202276D01*
X129793427Y-111218668D01*
X129795106Y-111235719D01*
X129793427Y-111252770D01*
X129790906Y-111261079D01*
X129786125Y-111285112D01*
X129786125Y-111309616D01*
X129790905Y-111333649D01*
X129800282Y-111356288D01*
X129813896Y-111376663D01*
X129831223Y-111393990D01*
X129851597Y-111407604D01*
X129874236Y-111416981D01*
X129898269Y-111421762D01*
X129922773Y-111421762D01*
X129946807Y-111416982D01*
X129955121Y-111414460D01*
X129972169Y-111412781D01*
X129989220Y-111414460D01*
X130005612Y-111419433D01*
X130020724Y-111427510D01*
X130038733Y-111442290D01*
X130078578Y-111482135D01*
X130078589Y-111482144D01*
X130291429Y-111694984D01*
X130291438Y-111694995D01*
X130331283Y-111734840D01*
X130346063Y-111752849D01*
X130354140Y-111767961D01*
X130359113Y-111784353D01*
X130360792Y-111801404D01*
X130359113Y-111818452D01*
X130356591Y-111826766D01*
X130351811Y-111850800D01*
X130351811Y-111875304D01*
X130356592Y-111899337D01*
X130365969Y-111921976D01*
X130379583Y-111942350D01*
X130396910Y-111959677D01*
X130417285Y-111973291D01*
X130439923Y-111982668D01*
X130463957Y-111987448D01*
X130488461Y-111987448D01*
X130512494Y-111982667D01*
X130520803Y-111980146D01*
X130537854Y-111978467D01*
X130554905Y-111980146D01*
X130571297Y-111985119D01*
X130586409Y-111993196D01*
X130604418Y-112007976D01*
X130644263Y-112047821D01*
X130644274Y-112047830D01*
X130857114Y-112260670D01*
X130857123Y-112260681D01*
X130896968Y-112300526D01*
X130911748Y-112318535D01*
X130919825Y-112333647D01*
X130924798Y-112350039D01*
X130926477Y-112367090D01*
X130924798Y-112384141D01*
X130922277Y-112392450D01*
X130917496Y-112416483D01*
X130917496Y-112440987D01*
X130922276Y-112465020D01*
X130931653Y-112487659D01*
X130945267Y-112508034D01*
X130962594Y-112525361D01*
X130982968Y-112538975D01*
X131005607Y-112548352D01*
X131029640Y-112553133D01*
X131054144Y-112553133D01*
X131078179Y-112548352D01*
X131086488Y-112545831D01*
X131103539Y-112544152D01*
X131120590Y-112545831D01*
X131136982Y-112550804D01*
X131152094Y-112558881D01*
X131170103Y-112573661D01*
X131209948Y-112613506D01*
X131209959Y-112613515D01*
X131422799Y-112826355D01*
X131422808Y-112826366D01*
X131462653Y-112866211D01*
X131477433Y-112884220D01*
X131485510Y-112899332D01*
X131490483Y-112915724D01*
X131492162Y-112932775D01*
X131490483Y-112949823D01*
X131487961Y-112958137D01*
X131483181Y-112982171D01*
X131483181Y-113006675D01*
X131487962Y-113030708D01*
X131497339Y-113053347D01*
X131510953Y-113073721D01*
X131528280Y-113091048D01*
X131548655Y-113104662D01*
X131571293Y-113114039D01*
X131595327Y-113118819D01*
X131619831Y-113118819D01*
X131643863Y-113114039D01*
X131652177Y-113111517D01*
X131669225Y-113109838D01*
X131686276Y-113111517D01*
X131702668Y-113116490D01*
X131717780Y-113124567D01*
X131735789Y-113139347D01*
X131775634Y-113179192D01*
X131775645Y-113179201D01*
X131988485Y-113392041D01*
X131988494Y-113392052D01*
X132028339Y-113431897D01*
X132043119Y-113449906D01*
X132051196Y-113465018D01*
X132056169Y-113481410D01*
X132057848Y-113498461D01*
X132056169Y-113515512D01*
X132053648Y-113523821D01*
X132048867Y-113547854D01*
X132048867Y-113572358D01*
X132053647Y-113596391D01*
X132063024Y-113619030D01*
X132076638Y-113639405D01*
X132093965Y-113656732D01*
X132114339Y-113670346D01*
X132136978Y-113679723D01*
X132161011Y-113684504D01*
X132185515Y-113684504D01*
X132209550Y-113679723D01*
X132217859Y-113677202D01*
X132234910Y-113675523D01*
X132251961Y-113677202D01*
X132268353Y-113682175D01*
X132283465Y-113690252D01*
X132301474Y-113705032D01*
X132341319Y-113744877D01*
X132341330Y-113744886D01*
X132554170Y-113957726D01*
X132554179Y-113957737D01*
X132594024Y-113997582D01*
X132608804Y-114015591D01*
X132616881Y-114030703D01*
X132621854Y-114047095D01*
X132623533Y-114064146D01*
X132621854Y-114081197D01*
X132619333Y-114089506D01*
X132614552Y-114113539D01*
X132614552Y-114138043D01*
X132619332Y-114162076D01*
X132628709Y-114184715D01*
X132642323Y-114205090D01*
X132659650Y-114222417D01*
X132680024Y-114236031D01*
X132702663Y-114245408D01*
X132726696Y-114250189D01*
X132751200Y-114250189D01*
X132775234Y-114245409D01*
X132783548Y-114242887D01*
X132800596Y-114241208D01*
X132817647Y-114242887D01*
X132834039Y-114247860D01*
X132849151Y-114255937D01*
X132867160Y-114270717D01*
X132907005Y-114310562D01*
X132907016Y-114310571D01*
X133119856Y-114523411D01*
X133119865Y-114523422D01*
X133159710Y-114563267D01*
X133174490Y-114581276D01*
X133182567Y-114596388D01*
X133187540Y-114612780D01*
X133189219Y-114629831D01*
X133187540Y-114646879D01*
X133185018Y-114655193D01*
X133180238Y-114679227D01*
X133180238Y-114703731D01*
X133185019Y-114727764D01*
X133194396Y-114750403D01*
X133208010Y-114770777D01*
X133225337Y-114788104D01*
X133245712Y-114801718D01*
X133268350Y-114811095D01*
X133292384Y-114815875D01*
X133316888Y-114815875D01*
X133340921Y-114811094D01*
X133349230Y-114808573D01*
X133366281Y-114806894D01*
X133383332Y-114808573D01*
X133399724Y-114813546D01*
X133414836Y-114821623D01*
X133432845Y-114836403D01*
X133472690Y-114876248D01*
X133472701Y-114876257D01*
X133685541Y-115089097D01*
X133685550Y-115089108D01*
X133725395Y-115128953D01*
X133740175Y-115146962D01*
X133748252Y-115162074D01*
X133753225Y-115178466D01*
X133754904Y-115195517D01*
X133753225Y-115212568D01*
X133748252Y-115228960D01*
X133740175Y-115244072D01*
X133725395Y-115262081D01*
X133685550Y-115301926D01*
X133685541Y-115301937D01*
X132765595Y-116221883D01*
X132765584Y-116221892D01*
X132725739Y-116261737D01*
X132707730Y-116276517D01*
X132692618Y-116284594D01*
X132676226Y-116289567D01*
X132659175Y-116291246D01*
X132642124Y-116289567D01*
X132625732Y-116284594D01*
X132610620Y-116276517D01*
X132592611Y-116261737D01*
X132552766Y-116221892D01*
X132552755Y-116221883D01*
X132339915Y-116009043D01*
X132339906Y-116009032D01*
X132300061Y-115969187D01*
X132285281Y-115951178D01*
X132277204Y-115936066D01*
X132272231Y-115919674D01*
X132270552Y-115902623D01*
X132272231Y-115885575D01*
X132274753Y-115877261D01*
X132279533Y-115853227D01*
X132279533Y-115828723D01*
X132274752Y-115804690D01*
X132265375Y-115782051D01*
X132251761Y-115761677D01*
X132234434Y-115744350D01*
X132214059Y-115730736D01*
X132191421Y-115721359D01*
X132167387Y-115716579D01*
X132142883Y-115716579D01*
X132118850Y-115721360D01*
X132110541Y-115723881D01*
X132093490Y-115725560D01*
X132076439Y-115723881D01*
X132060047Y-115718908D01*
X132044935Y-115710831D01*
X132026926Y-115696051D01*
X131987081Y-115656206D01*
X131987070Y-115656197D01*
X131774230Y-115443357D01*
X131774221Y-115443346D01*
X131734376Y-115403501D01*
X131719596Y-115385492D01*
X131711519Y-115370380D01*
X131706546Y-115353988D01*
X131704867Y-115336937D01*
X131706546Y-115319886D01*
X131709067Y-115311577D01*
X131713848Y-115287544D01*
X131713848Y-115263040D01*
X131709068Y-115239007D01*
X131699691Y-115216368D01*
X131686077Y-115195993D01*
X131668750Y-115178666D01*
X131648376Y-115165052D01*
X131625737Y-115155675D01*
X131601704Y-115150894D01*
X131577200Y-115150894D01*
X131553166Y-115155674D01*
X131544852Y-115158196D01*
X131527804Y-115159875D01*
X131510753Y-115158196D01*
X131494361Y-115153223D01*
X131479249Y-115145146D01*
X131461240Y-115130366D01*
X131421395Y-115090521D01*
X131421384Y-115090512D01*
X131208544Y-114877672D01*
X131208535Y-114877661D01*
X131168690Y-114837816D01*
X131153910Y-114819807D01*
X131145833Y-114804695D01*
X131140860Y-114788303D01*
X131139181Y-114771252D01*
X131140860Y-114754201D01*
X131143381Y-114745892D01*
X131148162Y-114721859D01*
X131148162Y-114697355D01*
X131143382Y-114673322D01*
X131134005Y-114650683D01*
X131120391Y-114630308D01*
X131103064Y-114612981D01*
X131082690Y-114599367D01*
X131060051Y-114589990D01*
X131036018Y-114585209D01*
X131011514Y-114585209D01*
X130987479Y-114589990D01*
X130979170Y-114592511D01*
X130962119Y-114594190D01*
X130945068Y-114592511D01*
X130928676Y-114587538D01*
X130913564Y-114579461D01*
X130895555Y-114564681D01*
X130855710Y-114524836D01*
X130855699Y-114524827D01*
X130642859Y-114311987D01*
X130642850Y-114311976D01*
X130603005Y-114272131D01*
X130588225Y-114254122D01*
X130580148Y-114239010D01*
X130575175Y-114222618D01*
X130573496Y-114205567D01*
X130575175Y-114188519D01*
X130577697Y-114180205D01*
X130582477Y-114156171D01*
X130582477Y-114131667D01*
X130577696Y-114107634D01*
X130568319Y-114084995D01*
X130554705Y-114064621D01*
X130537378Y-114047294D01*
X130517003Y-114033680D01*
X130494365Y-114024303D01*
X130470331Y-114019523D01*
X130445827Y-114019523D01*
X130421795Y-114024303D01*
X130413481Y-114026825D01*
X130396433Y-114028504D01*
X130379382Y-114026825D01*
X130362990Y-114021852D01*
X130347878Y-114013775D01*
X130329869Y-113998995D01*
X130290024Y-113959150D01*
X130290013Y-113959141D01*
X130077173Y-113746301D01*
X130077164Y-113746290D01*
X130037319Y-113706445D01*
X130022539Y-113688436D01*
X130014462Y-113673324D01*
X130009489Y-113656932D01*
X130007810Y-113639881D01*
X130009489Y-113622830D01*
X130012010Y-113614521D01*
X130016791Y-113590488D01*
X130016791Y-113565984D01*
X130012011Y-113541951D01*
X130002634Y-113519312D01*
X129989020Y-113498937D01*
X129971693Y-113481610D01*
X129951319Y-113467996D01*
X129928680Y-113458619D01*
X129904647Y-113453838D01*
X129880143Y-113453838D01*
X129856108Y-113458619D01*
X129847799Y-113461140D01*
X129830748Y-113462819D01*
X129813697Y-113461140D01*
X129797305Y-113456167D01*
X129782193Y-113448090D01*
X129764184Y-113433310D01*
X129724339Y-113393465D01*
X129724328Y-113393456D01*
X129511488Y-113180616D01*
X129511479Y-113180605D01*
X129471634Y-113140760D01*
X129456854Y-113122751D01*
X129448777Y-113107639D01*
X129443804Y-113091247D01*
X129442125Y-113074196D01*
X129443804Y-113057148D01*
X129446326Y-113048834D01*
X129451106Y-113024800D01*
X129451106Y-113000296D01*
X129446325Y-112976263D01*
X129436948Y-112953624D01*
X129423334Y-112933250D01*
X129406007Y-112915923D01*
X129385632Y-112902309D01*
X129362994Y-112892932D01*
X129338960Y-112888152D01*
X129314456Y-112888152D01*
X129290423Y-112892933D01*
X129282114Y-112895454D01*
X129265063Y-112897133D01*
X129248012Y-112895454D01*
X129231620Y-112890481D01*
X129216508Y-112882404D01*
X129198499Y-112867624D01*
X129158654Y-112827779D01*
X129158643Y-112827770D01*
X128945803Y-112614930D01*
X128945794Y-112614919D01*
X128905949Y-112575074D01*
X128891169Y-112557065D01*
X128883092Y-112541953D01*
X128878119Y-112525561D01*
X128876440Y-112508510D01*
X128878119Y-112491459D01*
X128880640Y-112483150D01*
X128885421Y-112459117D01*
X128885421Y-112434613D01*
X128880641Y-112410580D01*
X128871264Y-112387941D01*
X128857650Y-112367566D01*
X128840323Y-112350239D01*
X128819949Y-112336625D01*
X128797310Y-112327248D01*
X128773277Y-112322467D01*
X128748773Y-112322467D01*
X128724739Y-112327247D01*
X128716425Y-112329769D01*
X128699377Y-112331448D01*
X128682326Y-112329769D01*
X128665934Y-112324796D01*
X128650822Y-112316719D01*
X128632813Y-112301939D01*
X128592968Y-112262094D01*
X128592957Y-112262085D01*
X128380117Y-112049245D01*
X128380108Y-112049234D01*
X128340263Y-112009389D01*
X128325483Y-111991380D01*
X128317406Y-111976268D01*
X128312433Y-111959876D01*
X128310754Y-111942825D01*
X128312433Y-111925774D01*
X128317406Y-111909382D01*
X128325483Y-111894270D01*
X128340263Y-111876261D01*
X128380108Y-111836416D01*
X128380117Y-111836405D01*
X129300063Y-110916459D01*
X129300074Y-110916450D01*
X129339919Y-110876605D01*
X129357928Y-110861825D01*
X129373040Y-110853748D01*
X129389432Y-110848775D01*
X129406483Y-110847096D01*
X129423534Y-110848775D01*
X129423534Y-110848775D01*
G37*
G36*
X164840256Y-112691298D02*
G01*
X164946579Y-112712447D01*
X165247042Y-112836903D01*
X165517451Y-113017585D01*
X165747415Y-113247549D01*
X165928097Y-113517958D01*
X165928098Y-113517960D01*
X165938035Y-113541951D01*
X166043685Y-113797011D01*
X166052553Y-113818422D01*
X166116000Y-114137389D01*
X166116000Y-114462611D01*
X166078590Y-114650681D01*
X166052553Y-114781579D01*
X165928097Y-115082042D01*
X165747415Y-115352451D01*
X165517451Y-115582415D01*
X165247042Y-115763097D01*
X165247041Y-115763098D01*
X165247040Y-115763098D01*
X165167117Y-115796203D01*
X164946579Y-115887553D01*
X164870817Y-115902623D01*
X164627611Y-115951000D01*
X164302389Y-115951000D01*
X164059183Y-115902623D01*
X163983421Y-115887553D01*
X163762883Y-115796203D01*
X163682960Y-115763098D01*
X163682959Y-115763098D01*
X163682958Y-115763097D01*
X163412549Y-115582415D01*
X163182585Y-115352451D01*
X163001903Y-115082042D01*
X162877447Y-114781579D01*
X162851410Y-114650681D01*
X162814000Y-114462611D01*
X162814000Y-114137389D01*
X162877447Y-113818422D01*
X162886316Y-113797011D01*
X162991965Y-113541951D01*
X163001902Y-113517960D01*
X163001903Y-113517958D01*
X163182585Y-113247549D01*
X163412549Y-113017585D01*
X163682958Y-112836903D01*
X163983421Y-112712447D01*
X164089744Y-112691298D01*
X164302389Y-112649000D01*
X164627611Y-112649000D01*
X164840256Y-112691298D01*
X164840256Y-112691298D01*
G37*
G36*
X104007256Y-112691298D02*
G01*
X104113579Y-112712447D01*
X104414042Y-112836903D01*
X104684451Y-113017585D01*
X104914415Y-113247549D01*
X105095097Y-113517958D01*
X105095098Y-113517960D01*
X105105035Y-113541951D01*
X105210685Y-113797011D01*
X105219553Y-113818422D01*
X105283000Y-114137389D01*
X105283000Y-114462611D01*
X105245590Y-114650681D01*
X105219553Y-114781579D01*
X105095097Y-115082042D01*
X104914415Y-115352451D01*
X104684451Y-115582415D01*
X104414042Y-115763097D01*
X104414041Y-115763098D01*
X104414040Y-115763098D01*
X104334117Y-115796203D01*
X104113579Y-115887553D01*
X104037817Y-115902623D01*
X103794611Y-115951000D01*
X103469389Y-115951000D01*
X103226183Y-115902623D01*
X103150421Y-115887553D01*
X102929883Y-115796203D01*
X102849960Y-115763098D01*
X102849959Y-115763098D01*
X102849958Y-115763097D01*
X102579549Y-115582415D01*
X102349585Y-115352451D01*
X102168903Y-115082042D01*
X102044447Y-114781579D01*
X102018410Y-114650681D01*
X101981000Y-114462611D01*
X101981000Y-114137389D01*
X102044447Y-113818422D01*
X102053316Y-113797011D01*
X102158965Y-113541951D01*
X102168902Y-113517960D01*
X102168903Y-113517958D01*
X102349585Y-113247549D01*
X102579549Y-113017585D01*
X102849958Y-112836903D01*
X103150421Y-112712447D01*
X103256744Y-112691298D01*
X103469389Y-112649000D01*
X103794611Y-112649000D01*
X104007256Y-112691298D01*
X104007256Y-112691298D01*
G37*
G36*
X170290443Y-113405519D02*
G01*
X170356627Y-113412037D01*
X170526466Y-113463557D01*
X170682991Y-113547222D01*
X170718729Y-113576552D01*
X170820186Y-113659814D01*
X170891163Y-113746301D01*
X170932778Y-113797009D01*
X171016443Y-113953534D01*
X171067963Y-114123373D01*
X171085359Y-114300000D01*
X171067963Y-114476627D01*
X171016443Y-114646466D01*
X170932778Y-114802991D01*
X170922204Y-114815875D01*
X170820186Y-114940186D01*
X170718729Y-115023448D01*
X170682991Y-115052778D01*
X170682989Y-115052779D01*
X170535340Y-115131700D01*
X170526466Y-115136443D01*
X170356627Y-115187963D01*
X170290442Y-115194482D01*
X170224260Y-115201000D01*
X170135740Y-115201000D01*
X170069558Y-115194482D01*
X170003373Y-115187963D01*
X169833534Y-115136443D01*
X169824661Y-115131700D01*
X169677011Y-115052779D01*
X169677009Y-115052778D01*
X169641271Y-115023448D01*
X169539814Y-114940186D01*
X169437796Y-114815875D01*
X169427222Y-114802991D01*
X169343557Y-114646466D01*
X169292037Y-114476627D01*
X169274641Y-114300000D01*
X169292037Y-114123373D01*
X169343557Y-113953534D01*
X169427222Y-113797009D01*
X169468837Y-113746301D01*
X169539814Y-113659814D01*
X169641271Y-113576552D01*
X169677009Y-113547222D01*
X169833534Y-113463557D01*
X170003373Y-113412037D01*
X170069557Y-113405519D01*
X170135740Y-113399000D01*
X170224260Y-113399000D01*
X170290443Y-113405519D01*
X170290443Y-113405519D01*
G37*
G36*
X148469604Y-113247347D02*
G01*
X148506144Y-113258432D01*
X148539821Y-113276433D01*
X148569341Y-113300659D01*
X148593567Y-113330179D01*
X148611568Y-113363856D01*
X148622653Y-113400396D01*
X148627000Y-113444538D01*
X148627000Y-114393462D01*
X148622653Y-114437604D01*
X148611568Y-114474144D01*
X148593567Y-114507821D01*
X148569341Y-114537341D01*
X148539821Y-114561567D01*
X148506144Y-114579568D01*
X148469604Y-114590653D01*
X148425462Y-114595000D01*
X146976538Y-114595000D01*
X146932396Y-114590653D01*
X146895856Y-114579568D01*
X146862179Y-114561567D01*
X146832659Y-114537341D01*
X146808433Y-114507821D01*
X146790432Y-114474144D01*
X146779347Y-114437604D01*
X146775000Y-114393462D01*
X146775000Y-113444538D01*
X146779347Y-113400396D01*
X146790432Y-113363856D01*
X146808433Y-113330179D01*
X146832659Y-113300659D01*
X146862179Y-113276433D01*
X146895856Y-113258432D01*
X146932396Y-113247347D01*
X146976538Y-113243000D01*
X148425462Y-113243000D01*
X148469604Y-113247347D01*
X148469604Y-113247347D01*
G37*
G36*
X145802604Y-113244347D02*
G01*
X145839144Y-113255432D01*
X145872821Y-113273433D01*
X145902341Y-113297659D01*
X145926567Y-113327179D01*
X145944568Y-113360856D01*
X145955653Y-113397396D01*
X145960000Y-113441538D01*
X145960000Y-114390462D01*
X145955653Y-114434604D01*
X145944568Y-114471144D01*
X145926567Y-114504821D01*
X145902341Y-114534341D01*
X145872821Y-114558567D01*
X145839144Y-114576568D01*
X145802604Y-114587653D01*
X145758462Y-114592000D01*
X144309538Y-114592000D01*
X144265396Y-114587653D01*
X144228856Y-114576568D01*
X144195179Y-114558567D01*
X144165659Y-114534341D01*
X144141433Y-114504821D01*
X144123432Y-114471144D01*
X144112347Y-114434604D01*
X144108000Y-114390462D01*
X144108000Y-113441538D01*
X144112347Y-113397396D01*
X144123432Y-113360856D01*
X144141433Y-113327179D01*
X144165659Y-113297659D01*
X144195179Y-113273433D01*
X144228856Y-113255432D01*
X144265396Y-113244347D01*
X144309538Y-113240000D01*
X145758462Y-113240000D01*
X145802604Y-113244347D01*
X145802604Y-113244347D01*
G37*
G36*
X123586000Y-114589000D02*
G01*
X118984000Y-114589000D01*
X118984000Y-112487000D01*
X123586000Y-112487000D01*
X123586000Y-114589000D01*
X123586000Y-114589000D01*
G37*
G36*
X115086000Y-114589000D02*
G01*
X110484000Y-114589000D01*
X110484000Y-112487000D01*
X115086000Y-112487000D01*
X115086000Y-114589000D01*
X115086000Y-114589000D01*
G37*
G36*
X126625604Y-112993347D02*
G01*
X126662144Y-113004432D01*
X126695821Y-113022433D01*
X126725341Y-113046659D01*
X126749567Y-113076179D01*
X126767568Y-113109856D01*
X126778653Y-113146396D01*
X126783000Y-113190538D01*
X126783000Y-114139462D01*
X126778653Y-114183604D01*
X126767568Y-114220144D01*
X126749567Y-114253821D01*
X126725341Y-114283341D01*
X126695821Y-114307567D01*
X126662144Y-114325568D01*
X126625604Y-114336653D01*
X126581462Y-114341000D01*
X125132538Y-114341000D01*
X125088396Y-114336653D01*
X125051856Y-114325568D01*
X125018179Y-114307567D01*
X124988659Y-114283341D01*
X124964433Y-114253821D01*
X124946432Y-114220144D01*
X124935347Y-114183604D01*
X124931000Y-114139462D01*
X124931000Y-113190538D01*
X124935347Y-113146396D01*
X124946432Y-113109856D01*
X124964433Y-113076179D01*
X124988659Y-113046659D01*
X125018179Y-113022433D01*
X125051856Y-113004432D01*
X125088396Y-112993347D01*
X125132538Y-112989000D01*
X126581462Y-112989000D01*
X126625604Y-112993347D01*
X126625604Y-112993347D01*
G37*
G36*
X160026604Y-111856347D02*
G01*
X160063144Y-111867432D01*
X160096821Y-111885433D01*
X160126341Y-111909659D01*
X160150567Y-111939179D01*
X160168568Y-111972856D01*
X160179653Y-112009396D01*
X160184000Y-112053538D01*
X160184000Y-113002462D01*
X160179653Y-113046604D01*
X160168568Y-113083144D01*
X160150567Y-113116821D01*
X160126341Y-113146341D01*
X160096821Y-113170567D01*
X160063144Y-113188568D01*
X160026604Y-113199653D01*
X159982462Y-113204000D01*
X158533538Y-113204000D01*
X158489396Y-113199653D01*
X158452856Y-113188568D01*
X158419179Y-113170567D01*
X158389659Y-113146341D01*
X158365433Y-113116821D01*
X158347432Y-113083144D01*
X158336347Y-113046604D01*
X158332000Y-113002462D01*
X158332000Y-112053538D01*
X158336347Y-112009396D01*
X158347432Y-111972856D01*
X158365433Y-111939179D01*
X158389659Y-111909659D01*
X158419179Y-111885433D01*
X158452856Y-111867432D01*
X158489396Y-111856347D01*
X158533538Y-111852000D01*
X159982462Y-111852000D01*
X160026604Y-111856347D01*
X160026604Y-111856347D01*
G37*
G36*
X170290442Y-110865518D02*
G01*
X170356627Y-110872037D01*
X170526466Y-110923557D01*
X170682991Y-111007222D01*
X170718729Y-111036552D01*
X170820186Y-111119814D01*
X170891210Y-111206358D01*
X170932778Y-111257009D01*
X171016443Y-111413534D01*
X171067963Y-111583373D01*
X171085359Y-111760000D01*
X171067963Y-111936627D01*
X171016443Y-112106466D01*
X170932778Y-112262991D01*
X170903448Y-112298729D01*
X170820186Y-112400186D01*
X170730839Y-112473510D01*
X170682991Y-112512778D01*
X170526466Y-112596443D01*
X170356627Y-112647963D01*
X170290442Y-112654482D01*
X170224260Y-112661000D01*
X170135740Y-112661000D01*
X170069558Y-112654482D01*
X170003373Y-112647963D01*
X169833534Y-112596443D01*
X169677009Y-112512778D01*
X169629161Y-112473510D01*
X169539814Y-112400186D01*
X169456552Y-112298729D01*
X169427222Y-112262991D01*
X169343557Y-112106466D01*
X169292037Y-111936627D01*
X169274641Y-111760000D01*
X169292037Y-111583373D01*
X169343557Y-111413534D01*
X169427222Y-111257009D01*
X169468790Y-111206358D01*
X169539814Y-111119814D01*
X169641271Y-111036552D01*
X169677009Y-111007222D01*
X169833534Y-110923557D01*
X170003373Y-110872037D01*
X170069558Y-110865518D01*
X170135740Y-110859000D01*
X170224260Y-110859000D01*
X170290442Y-110865518D01*
X170290442Y-110865518D01*
G37*
G36*
X148879000Y-111545000D02*
G01*
X146777000Y-111545000D01*
X146777000Y-109943000D01*
X148879000Y-109943000D01*
X148879000Y-111545000D01*
X148879000Y-111545000D01*
G37*
G36*
X157079000Y-111545000D02*
G01*
X154977000Y-111545000D01*
X154977000Y-109943000D01*
X157079000Y-109943000D01*
X157079000Y-111545000D01*
X157079000Y-111545000D01*
G37*
G36*
X106969600Y-111155000D02*
G01*
X106217600Y-111155000D01*
X106217600Y-109993000D01*
X106969600Y-109993000D01*
X106969600Y-111155000D01*
X106969600Y-111155000D01*
G37*
G36*
X108869600Y-111155000D02*
G01*
X108117600Y-111155000D01*
X108117600Y-109993000D01*
X108869600Y-109993000D01*
X108869600Y-111155000D01*
X108869600Y-111155000D01*
G37*
G36*
X160026604Y-109056347D02*
G01*
X160063144Y-109067432D01*
X160096821Y-109085433D01*
X160126341Y-109109659D01*
X160150567Y-109139179D01*
X160168568Y-109172856D01*
X160179653Y-109209396D01*
X160184000Y-109253538D01*
X160184000Y-110202462D01*
X160179653Y-110246604D01*
X160168568Y-110283144D01*
X160150567Y-110316821D01*
X160126341Y-110346341D01*
X160096821Y-110370567D01*
X160063144Y-110388568D01*
X160026604Y-110399653D01*
X159982462Y-110404000D01*
X158533538Y-110404000D01*
X158489396Y-110399653D01*
X158452856Y-110388568D01*
X158419179Y-110370567D01*
X158389659Y-110346341D01*
X158365433Y-110316821D01*
X158347432Y-110283144D01*
X158336347Y-110246604D01*
X158332000Y-110202462D01*
X158332000Y-109253538D01*
X158336347Y-109209396D01*
X158347432Y-109172856D01*
X158365433Y-109139179D01*
X158389659Y-109109659D01*
X158419179Y-109085433D01*
X158452856Y-109067432D01*
X158489396Y-109056347D01*
X158533538Y-109052000D01*
X159982462Y-109052000D01*
X160026604Y-109056347D01*
X160026604Y-109056347D01*
G37*
G36*
X132676226Y-104944433D02*
G01*
X132692618Y-104949406D01*
X132707730Y-104957483D01*
X132725739Y-104972263D01*
X132765584Y-105012108D01*
X132765595Y-105012117D01*
X133685541Y-105932063D01*
X133685550Y-105932074D01*
X133725395Y-105971919D01*
X133740175Y-105989928D01*
X133748252Y-106005040D01*
X133753225Y-106021432D01*
X133754904Y-106038483D01*
X133753225Y-106055534D01*
X133748252Y-106071926D01*
X133740175Y-106087038D01*
X133725395Y-106105047D01*
X133685550Y-106144892D01*
X133685541Y-106144903D01*
X133472701Y-106357743D01*
X133472690Y-106357752D01*
X133432845Y-106397597D01*
X133414836Y-106412377D01*
X133399724Y-106420454D01*
X133383332Y-106425427D01*
X133366281Y-106427106D01*
X133349230Y-106425427D01*
X133340921Y-106422906D01*
X133316888Y-106418125D01*
X133292384Y-106418125D01*
X133268351Y-106422905D01*
X133245712Y-106432282D01*
X133225337Y-106445896D01*
X133208010Y-106463223D01*
X133194396Y-106483597D01*
X133185019Y-106506236D01*
X133180238Y-106530269D01*
X133180238Y-106554773D01*
X133185018Y-106578807D01*
X133187540Y-106587121D01*
X133189219Y-106604169D01*
X133187540Y-106621220D01*
X133182567Y-106637612D01*
X133174490Y-106652724D01*
X133159710Y-106670733D01*
X133119865Y-106710578D01*
X133119856Y-106710589D01*
X132907016Y-106923429D01*
X132907005Y-106923438D01*
X132867160Y-106963283D01*
X132849151Y-106978063D01*
X132834039Y-106986140D01*
X132817647Y-106991113D01*
X132800596Y-106992792D01*
X132783548Y-106991113D01*
X132775234Y-106988591D01*
X132751200Y-106983811D01*
X132726696Y-106983811D01*
X132702663Y-106988592D01*
X132680024Y-106997969D01*
X132659650Y-107011583D01*
X132642323Y-107028910D01*
X132628709Y-107049285D01*
X132619332Y-107071923D01*
X132614552Y-107095957D01*
X132614552Y-107120461D01*
X132619333Y-107144494D01*
X132621854Y-107152803D01*
X132623533Y-107169854D01*
X132621854Y-107186905D01*
X132616881Y-107203297D01*
X132608804Y-107218409D01*
X132594024Y-107236418D01*
X132554179Y-107276263D01*
X132554170Y-107276274D01*
X132341330Y-107489114D01*
X132341319Y-107489123D01*
X132301474Y-107528968D01*
X132283465Y-107543748D01*
X132268353Y-107551825D01*
X132251961Y-107556798D01*
X132234910Y-107558477D01*
X132217859Y-107556798D01*
X132209550Y-107554277D01*
X132185517Y-107549496D01*
X132161013Y-107549496D01*
X132136980Y-107554276D01*
X132114341Y-107563653D01*
X132093966Y-107577267D01*
X132076639Y-107594594D01*
X132063025Y-107614968D01*
X132053648Y-107637607D01*
X132048867Y-107661640D01*
X132048867Y-107686144D01*
X132053648Y-107710179D01*
X132056169Y-107718488D01*
X132057848Y-107735539D01*
X132056169Y-107752590D01*
X132051196Y-107768982D01*
X132043119Y-107784094D01*
X132028339Y-107802103D01*
X131988494Y-107841948D01*
X131988485Y-107841959D01*
X131775645Y-108054799D01*
X131775634Y-108054808D01*
X131735789Y-108094653D01*
X131717780Y-108109433D01*
X131702668Y-108117510D01*
X131686276Y-108122483D01*
X131669225Y-108124162D01*
X131652177Y-108122483D01*
X131643863Y-108119961D01*
X131619829Y-108115181D01*
X131595325Y-108115181D01*
X131571292Y-108119962D01*
X131548653Y-108129339D01*
X131528279Y-108142953D01*
X131510952Y-108160280D01*
X131497338Y-108180655D01*
X131487961Y-108203293D01*
X131483181Y-108227327D01*
X131483181Y-108251831D01*
X131487961Y-108275863D01*
X131490483Y-108284177D01*
X131492162Y-108301225D01*
X131490483Y-108318276D01*
X131485510Y-108334668D01*
X131477433Y-108349780D01*
X131462653Y-108367789D01*
X131422808Y-108407634D01*
X131422799Y-108407645D01*
X131209959Y-108620485D01*
X131209948Y-108620494D01*
X131170103Y-108660339D01*
X131152094Y-108675119D01*
X131136982Y-108683196D01*
X131120590Y-108688169D01*
X131103539Y-108689848D01*
X131086488Y-108688169D01*
X131078179Y-108685648D01*
X131054146Y-108680867D01*
X131029642Y-108680867D01*
X131005609Y-108685647D01*
X130982970Y-108695024D01*
X130962595Y-108708638D01*
X130945268Y-108725965D01*
X130931654Y-108746339D01*
X130922277Y-108768978D01*
X130917496Y-108793011D01*
X130917496Y-108817515D01*
X130922277Y-108841550D01*
X130924798Y-108849859D01*
X130926477Y-108866910D01*
X130924798Y-108883961D01*
X130919825Y-108900353D01*
X130911748Y-108915465D01*
X130896968Y-108933474D01*
X130857123Y-108973319D01*
X130857114Y-108973330D01*
X130644274Y-109186170D01*
X130644263Y-109186179D01*
X130604418Y-109226024D01*
X130586409Y-109240804D01*
X130571297Y-109248881D01*
X130554905Y-109253854D01*
X130537854Y-109255533D01*
X130520803Y-109253854D01*
X130512494Y-109251333D01*
X130488461Y-109246552D01*
X130463957Y-109246552D01*
X130439924Y-109251332D01*
X130417285Y-109260709D01*
X130396910Y-109274323D01*
X130379583Y-109291650D01*
X130365969Y-109312024D01*
X130356592Y-109334663D01*
X130351811Y-109358696D01*
X130351811Y-109383200D01*
X130356591Y-109407234D01*
X130359113Y-109415548D01*
X130360792Y-109432596D01*
X130359113Y-109449647D01*
X130354140Y-109466039D01*
X130346063Y-109481151D01*
X130331283Y-109499160D01*
X130291438Y-109539005D01*
X130291429Y-109539016D01*
X130078589Y-109751856D01*
X130078578Y-109751865D01*
X130038733Y-109791710D01*
X130020724Y-109806490D01*
X130005612Y-109814567D01*
X129989220Y-109819540D01*
X129972169Y-109821219D01*
X129955121Y-109819540D01*
X129946807Y-109817018D01*
X129922773Y-109812238D01*
X129898269Y-109812238D01*
X129874236Y-109817019D01*
X129851597Y-109826396D01*
X129831223Y-109840010D01*
X129813896Y-109857337D01*
X129800282Y-109877712D01*
X129790905Y-109900350D01*
X129786125Y-109924384D01*
X129786125Y-109948888D01*
X129790906Y-109972921D01*
X129793427Y-109981230D01*
X129795106Y-109998281D01*
X129793427Y-110015332D01*
X129788454Y-110031724D01*
X129780377Y-110046836D01*
X129765597Y-110064845D01*
X129725752Y-110104690D01*
X129725743Y-110104701D01*
X129512903Y-110317541D01*
X129512892Y-110317550D01*
X129473047Y-110357395D01*
X129455038Y-110372175D01*
X129439926Y-110380252D01*
X129423534Y-110385225D01*
X129406483Y-110386904D01*
X129389432Y-110385225D01*
X129373040Y-110380252D01*
X129357928Y-110372175D01*
X129339919Y-110357395D01*
X129300074Y-110317550D01*
X129300063Y-110317541D01*
X128380117Y-109397595D01*
X128380108Y-109397584D01*
X128340263Y-109357739D01*
X128325483Y-109339730D01*
X128317406Y-109324618D01*
X128312433Y-109308226D01*
X128310754Y-109291175D01*
X128312433Y-109274124D01*
X128317406Y-109257732D01*
X128325483Y-109242620D01*
X128340263Y-109224611D01*
X128380108Y-109184766D01*
X128380117Y-109184755D01*
X128592957Y-108971915D01*
X128592968Y-108971906D01*
X128632813Y-108932061D01*
X128650822Y-108917281D01*
X128665934Y-108909204D01*
X128682326Y-108904231D01*
X128699377Y-108902552D01*
X128716425Y-108904231D01*
X128724739Y-108906753D01*
X128748773Y-108911533D01*
X128773277Y-108911533D01*
X128797310Y-108906752D01*
X128819949Y-108897375D01*
X128840323Y-108883761D01*
X128857650Y-108866434D01*
X128871264Y-108846059D01*
X128880641Y-108823421D01*
X128885421Y-108799387D01*
X128885421Y-108774883D01*
X128880640Y-108750850D01*
X128878119Y-108742541D01*
X128876440Y-108725490D01*
X128878119Y-108708439D01*
X128883092Y-108692047D01*
X128891169Y-108676935D01*
X128905949Y-108658926D01*
X128945794Y-108619081D01*
X128945803Y-108619070D01*
X129158643Y-108406230D01*
X129158654Y-108406221D01*
X129198499Y-108366376D01*
X129216508Y-108351596D01*
X129231620Y-108343519D01*
X129248012Y-108338546D01*
X129265063Y-108336867D01*
X129282114Y-108338546D01*
X129290423Y-108341067D01*
X129314456Y-108345848D01*
X129338960Y-108345848D01*
X129362993Y-108341068D01*
X129385632Y-108331691D01*
X129406007Y-108318077D01*
X129423334Y-108300750D01*
X129436948Y-108280376D01*
X129446325Y-108257737D01*
X129451106Y-108233704D01*
X129451106Y-108209200D01*
X129446326Y-108185166D01*
X129443804Y-108176852D01*
X129442125Y-108159804D01*
X129443804Y-108142753D01*
X129448777Y-108126361D01*
X129456854Y-108111249D01*
X129471634Y-108093240D01*
X129511479Y-108053395D01*
X129511488Y-108053384D01*
X129724328Y-107840544D01*
X129724339Y-107840535D01*
X129764184Y-107800690D01*
X129782193Y-107785910D01*
X129797305Y-107777833D01*
X129813697Y-107772860D01*
X129830748Y-107771181D01*
X129847799Y-107772860D01*
X129856108Y-107775381D01*
X129880141Y-107780162D01*
X129904645Y-107780162D01*
X129928678Y-107775382D01*
X129951317Y-107766005D01*
X129971692Y-107752391D01*
X129989019Y-107735064D01*
X130002633Y-107714690D01*
X130012010Y-107692051D01*
X130016791Y-107668018D01*
X130016791Y-107643514D01*
X130012010Y-107619479D01*
X130009489Y-107611170D01*
X130007810Y-107594119D01*
X130009489Y-107577068D01*
X130014462Y-107560676D01*
X130022539Y-107545564D01*
X130037319Y-107527555D01*
X130077164Y-107487710D01*
X130077173Y-107487699D01*
X130290013Y-107274859D01*
X130290024Y-107274850D01*
X130329869Y-107235005D01*
X130347878Y-107220225D01*
X130362990Y-107212148D01*
X130379382Y-107207175D01*
X130396433Y-107205496D01*
X130413481Y-107207175D01*
X130421795Y-107209697D01*
X130445829Y-107214477D01*
X130470333Y-107214477D01*
X130494366Y-107209696D01*
X130517005Y-107200319D01*
X130537379Y-107186705D01*
X130554706Y-107169378D01*
X130568320Y-107149003D01*
X130577697Y-107126365D01*
X130582477Y-107102331D01*
X130582477Y-107077827D01*
X130577697Y-107053795D01*
X130575175Y-107045481D01*
X130573496Y-107028433D01*
X130575175Y-107011382D01*
X130580148Y-106994990D01*
X130588225Y-106979878D01*
X130603005Y-106961869D01*
X130642850Y-106922024D01*
X130642859Y-106922013D01*
X130855699Y-106709173D01*
X130855710Y-106709164D01*
X130895555Y-106669319D01*
X130913564Y-106654539D01*
X130928676Y-106646462D01*
X130945068Y-106641489D01*
X130962119Y-106639810D01*
X130979170Y-106641489D01*
X130987479Y-106644010D01*
X131011512Y-106648791D01*
X131036016Y-106648791D01*
X131060049Y-106644011D01*
X131082688Y-106634634D01*
X131103063Y-106621020D01*
X131120390Y-106603693D01*
X131134004Y-106583319D01*
X131143381Y-106560680D01*
X131148162Y-106536647D01*
X131148162Y-106512143D01*
X131143381Y-106488108D01*
X131140860Y-106479799D01*
X131139181Y-106462748D01*
X131140860Y-106445697D01*
X131145833Y-106429305D01*
X131153910Y-106414193D01*
X131168690Y-106396184D01*
X131208535Y-106356339D01*
X131208544Y-106356328D01*
X131421384Y-106143488D01*
X131421395Y-106143479D01*
X131461240Y-106103634D01*
X131479249Y-106088854D01*
X131494361Y-106080777D01*
X131510753Y-106075804D01*
X131527804Y-106074125D01*
X131544852Y-106075804D01*
X131553166Y-106078326D01*
X131577200Y-106083106D01*
X131601704Y-106083106D01*
X131625737Y-106078325D01*
X131648376Y-106068948D01*
X131668750Y-106055334D01*
X131686077Y-106038007D01*
X131699691Y-106017632D01*
X131709068Y-105994994D01*
X131713848Y-105970960D01*
X131713848Y-105946456D01*
X131709067Y-105922423D01*
X131706546Y-105914114D01*
X131704867Y-105897063D01*
X131706546Y-105880012D01*
X131711519Y-105863620D01*
X131719596Y-105848508D01*
X131734376Y-105830499D01*
X131774221Y-105790654D01*
X131774230Y-105790643D01*
X131987070Y-105577803D01*
X131987081Y-105577794D01*
X132026926Y-105537949D01*
X132044935Y-105523169D01*
X132060047Y-105515092D01*
X132076439Y-105510119D01*
X132093490Y-105508440D01*
X132110541Y-105510119D01*
X132118850Y-105512640D01*
X132142883Y-105517421D01*
X132167387Y-105517421D01*
X132191420Y-105512641D01*
X132214059Y-105503264D01*
X132234434Y-105489650D01*
X132251761Y-105472323D01*
X132265375Y-105451949D01*
X132274752Y-105429310D01*
X132279533Y-105405277D01*
X132279533Y-105380773D01*
X132274753Y-105356739D01*
X132272231Y-105348425D01*
X132270552Y-105331377D01*
X132272231Y-105314326D01*
X132277204Y-105297934D01*
X132285281Y-105282822D01*
X132300061Y-105264813D01*
X132339906Y-105224968D01*
X132339915Y-105224957D01*
X132552755Y-105012117D01*
X132552766Y-105012108D01*
X132592611Y-104972263D01*
X132610620Y-104957483D01*
X132625732Y-104949406D01*
X132642124Y-104944433D01*
X132659175Y-104942754D01*
X132676226Y-104944433D01*
X132676226Y-104944433D01*
G37*
G36*
X135327876Y-104944433D02*
G01*
X135344268Y-104949406D01*
X135359380Y-104957483D01*
X135377389Y-104972263D01*
X135417234Y-105012108D01*
X135417245Y-105012117D01*
X135630085Y-105224957D01*
X135630094Y-105224968D01*
X135669939Y-105264813D01*
X135684719Y-105282822D01*
X135692796Y-105297934D01*
X135697769Y-105314326D01*
X135699448Y-105331377D01*
X135697769Y-105348425D01*
X135695247Y-105356739D01*
X135690467Y-105380773D01*
X135690467Y-105405277D01*
X135695248Y-105429310D01*
X135704625Y-105451949D01*
X135718239Y-105472323D01*
X135735566Y-105489650D01*
X135755941Y-105503264D01*
X135778579Y-105512641D01*
X135802613Y-105517421D01*
X135827117Y-105517421D01*
X135851150Y-105512640D01*
X135859459Y-105510119D01*
X135876510Y-105508440D01*
X135893561Y-105510119D01*
X135909953Y-105515092D01*
X135925065Y-105523169D01*
X135943074Y-105537949D01*
X135982919Y-105577794D01*
X135982930Y-105577803D01*
X136195770Y-105790643D01*
X136195779Y-105790654D01*
X136235624Y-105830499D01*
X136250404Y-105848508D01*
X136258481Y-105863620D01*
X136263454Y-105880012D01*
X136265133Y-105897063D01*
X136263454Y-105914114D01*
X136260933Y-105922423D01*
X136256152Y-105946456D01*
X136256152Y-105970960D01*
X136260932Y-105994993D01*
X136270309Y-106017632D01*
X136283923Y-106038007D01*
X136301250Y-106055334D01*
X136321624Y-106068948D01*
X136344263Y-106078325D01*
X136368296Y-106083106D01*
X136392800Y-106083106D01*
X136416834Y-106078326D01*
X136425148Y-106075804D01*
X136442196Y-106074125D01*
X136459247Y-106075804D01*
X136475639Y-106080777D01*
X136490751Y-106088854D01*
X136508760Y-106103634D01*
X136548605Y-106143479D01*
X136548616Y-106143488D01*
X136761456Y-106356328D01*
X136761465Y-106356339D01*
X136801310Y-106396184D01*
X136816090Y-106414193D01*
X136824167Y-106429305D01*
X136829140Y-106445697D01*
X136830819Y-106462748D01*
X136829140Y-106479799D01*
X136826619Y-106488108D01*
X136821838Y-106512141D01*
X136821838Y-106536645D01*
X136826618Y-106560678D01*
X136835995Y-106583317D01*
X136849609Y-106603692D01*
X136866936Y-106621019D01*
X136887310Y-106634633D01*
X136909949Y-106644010D01*
X136933982Y-106648791D01*
X136958486Y-106648791D01*
X136982521Y-106644010D01*
X136990830Y-106641489D01*
X137007881Y-106639810D01*
X137024932Y-106641489D01*
X137041324Y-106646462D01*
X137056436Y-106654539D01*
X137074445Y-106669319D01*
X137114290Y-106709164D01*
X137114301Y-106709173D01*
X137327141Y-106922013D01*
X137327150Y-106922024D01*
X137366995Y-106961869D01*
X137381775Y-106979878D01*
X137389852Y-106994990D01*
X137394825Y-107011382D01*
X137396504Y-107028433D01*
X137394825Y-107045481D01*
X137392303Y-107053795D01*
X137387523Y-107077829D01*
X137387523Y-107102333D01*
X137392304Y-107126366D01*
X137401681Y-107149005D01*
X137415295Y-107169379D01*
X137432622Y-107186706D01*
X137452997Y-107200320D01*
X137475635Y-107209697D01*
X137499669Y-107214477D01*
X137524173Y-107214477D01*
X137548205Y-107209697D01*
X137556519Y-107207175D01*
X137573567Y-107205496D01*
X137590618Y-107207175D01*
X137607010Y-107212148D01*
X137622122Y-107220225D01*
X137640131Y-107235005D01*
X137679976Y-107274850D01*
X137679987Y-107274859D01*
X137892827Y-107487699D01*
X137892836Y-107487710D01*
X137932681Y-107527555D01*
X137947461Y-107545564D01*
X137955538Y-107560676D01*
X137960511Y-107577068D01*
X137962190Y-107594119D01*
X137960511Y-107611170D01*
X137957990Y-107619479D01*
X137953209Y-107643512D01*
X137953209Y-107668016D01*
X137957989Y-107692049D01*
X137967366Y-107714688D01*
X137980980Y-107735063D01*
X137998307Y-107752390D01*
X138018681Y-107766004D01*
X138041320Y-107775381D01*
X138065353Y-107780162D01*
X138089857Y-107780162D01*
X138113892Y-107775381D01*
X138122201Y-107772860D01*
X138139252Y-107771181D01*
X138156303Y-107772860D01*
X138172695Y-107777833D01*
X138187807Y-107785910D01*
X138205816Y-107800690D01*
X138245661Y-107840535D01*
X138245672Y-107840544D01*
X138458512Y-108053384D01*
X138458521Y-108053395D01*
X138498366Y-108093240D01*
X138513146Y-108111249D01*
X138521223Y-108126361D01*
X138526196Y-108142753D01*
X138527875Y-108159804D01*
X138526196Y-108176852D01*
X138523674Y-108185166D01*
X138518894Y-108209200D01*
X138518894Y-108233704D01*
X138523675Y-108257737D01*
X138533052Y-108280376D01*
X138546666Y-108300750D01*
X138563993Y-108318077D01*
X138584368Y-108331691D01*
X138607006Y-108341068D01*
X138631040Y-108345848D01*
X138655544Y-108345848D01*
X138679577Y-108341067D01*
X138687886Y-108338546D01*
X138704937Y-108336867D01*
X138721988Y-108338546D01*
X138738380Y-108343519D01*
X138753492Y-108351596D01*
X138771501Y-108366376D01*
X138811346Y-108406221D01*
X138811357Y-108406230D01*
X139024197Y-108619070D01*
X139024206Y-108619081D01*
X139064051Y-108658926D01*
X139078831Y-108676935D01*
X139086908Y-108692047D01*
X139091881Y-108708439D01*
X139093560Y-108725490D01*
X139091881Y-108742541D01*
X139089360Y-108750850D01*
X139084579Y-108774883D01*
X139084579Y-108799387D01*
X139089359Y-108823420D01*
X139098736Y-108846059D01*
X139112350Y-108866434D01*
X139129677Y-108883761D01*
X139150051Y-108897375D01*
X139172690Y-108906752D01*
X139196723Y-108911533D01*
X139221227Y-108911533D01*
X139245261Y-108906753D01*
X139253575Y-108904231D01*
X139270623Y-108902552D01*
X139287674Y-108904231D01*
X139304066Y-108909204D01*
X139319178Y-108917281D01*
X139337187Y-108932061D01*
X139377032Y-108971906D01*
X139377043Y-108971915D01*
X139589883Y-109184755D01*
X139589892Y-109184766D01*
X139629737Y-109224611D01*
X139644517Y-109242620D01*
X139652594Y-109257732D01*
X139657567Y-109274124D01*
X139659246Y-109291175D01*
X139657567Y-109308226D01*
X139652594Y-109324618D01*
X139644517Y-109339730D01*
X139629737Y-109357739D01*
X139589892Y-109397584D01*
X139589883Y-109397595D01*
X138669937Y-110317541D01*
X138669926Y-110317550D01*
X138630081Y-110357395D01*
X138612072Y-110372175D01*
X138596960Y-110380252D01*
X138580568Y-110385225D01*
X138563517Y-110386904D01*
X138546466Y-110385225D01*
X138530074Y-110380252D01*
X138514962Y-110372175D01*
X138496953Y-110357395D01*
X138457108Y-110317550D01*
X138457097Y-110317541D01*
X138244257Y-110104701D01*
X138244248Y-110104690D01*
X138204403Y-110064845D01*
X138189623Y-110046836D01*
X138181546Y-110031724D01*
X138176573Y-110015332D01*
X138174894Y-109998281D01*
X138176573Y-109981230D01*
X138179094Y-109972921D01*
X138183875Y-109948888D01*
X138183875Y-109924384D01*
X138179095Y-109900351D01*
X138169718Y-109877712D01*
X138156104Y-109857337D01*
X138138777Y-109840010D01*
X138118403Y-109826396D01*
X138095764Y-109817019D01*
X138071731Y-109812238D01*
X138047227Y-109812238D01*
X138023193Y-109817018D01*
X138014879Y-109819540D01*
X137997831Y-109821219D01*
X137980780Y-109819540D01*
X137964388Y-109814567D01*
X137949276Y-109806490D01*
X137931267Y-109791710D01*
X137891422Y-109751865D01*
X137891411Y-109751856D01*
X137678571Y-109539016D01*
X137678562Y-109539005D01*
X137638717Y-109499160D01*
X137623937Y-109481151D01*
X137615860Y-109466039D01*
X137610887Y-109449647D01*
X137609208Y-109432596D01*
X137610887Y-109415548D01*
X137613409Y-109407234D01*
X137618189Y-109383200D01*
X137618189Y-109358696D01*
X137613408Y-109334663D01*
X137604031Y-109312024D01*
X137590417Y-109291650D01*
X137573090Y-109274323D01*
X137552715Y-109260709D01*
X137530077Y-109251332D01*
X137506043Y-109246552D01*
X137481539Y-109246552D01*
X137457506Y-109251333D01*
X137449197Y-109253854D01*
X137432146Y-109255533D01*
X137415095Y-109253854D01*
X137398703Y-109248881D01*
X137383591Y-109240804D01*
X137365582Y-109226024D01*
X137325737Y-109186179D01*
X137325726Y-109186170D01*
X137112886Y-108973330D01*
X137112877Y-108973319D01*
X137073032Y-108933474D01*
X137058252Y-108915465D01*
X137050175Y-108900353D01*
X137045202Y-108883961D01*
X137043523Y-108866910D01*
X137045202Y-108849859D01*
X137047723Y-108841550D01*
X137052504Y-108817517D01*
X137052504Y-108793013D01*
X137047724Y-108768980D01*
X137038347Y-108746341D01*
X137024733Y-108725966D01*
X137007406Y-108708639D01*
X136987032Y-108695025D01*
X136964393Y-108685648D01*
X136940360Y-108680867D01*
X136915856Y-108680867D01*
X136891821Y-108685648D01*
X136883512Y-108688169D01*
X136866461Y-108689848D01*
X136849410Y-108688169D01*
X136833018Y-108683196D01*
X136817906Y-108675119D01*
X136799897Y-108660339D01*
X136760052Y-108620494D01*
X136760041Y-108620485D01*
X136547201Y-108407645D01*
X136547192Y-108407634D01*
X136507347Y-108367789D01*
X136492567Y-108349780D01*
X136484490Y-108334668D01*
X136479517Y-108318276D01*
X136477838Y-108301225D01*
X136479517Y-108284177D01*
X136482039Y-108275863D01*
X136486819Y-108251829D01*
X136486819Y-108227325D01*
X136482038Y-108203292D01*
X136472661Y-108180653D01*
X136459047Y-108160279D01*
X136441720Y-108142952D01*
X136421345Y-108129338D01*
X136398707Y-108119961D01*
X136374673Y-108115181D01*
X136350169Y-108115181D01*
X136326137Y-108119961D01*
X136317823Y-108122483D01*
X136300775Y-108124162D01*
X136283724Y-108122483D01*
X136267332Y-108117510D01*
X136252220Y-108109433D01*
X136234211Y-108094653D01*
X136194366Y-108054808D01*
X136194355Y-108054799D01*
X135981515Y-107841959D01*
X135981506Y-107841948D01*
X135941661Y-107802103D01*
X135926881Y-107784094D01*
X135918804Y-107768982D01*
X135913831Y-107752590D01*
X135912152Y-107735539D01*
X135913831Y-107718488D01*
X135916352Y-107710179D01*
X135921133Y-107686146D01*
X135921133Y-107661642D01*
X135916353Y-107637609D01*
X135906976Y-107614970D01*
X135893362Y-107594595D01*
X135876035Y-107577268D01*
X135855661Y-107563654D01*
X135833022Y-107554277D01*
X135808989Y-107549496D01*
X135784485Y-107549496D01*
X135760450Y-107554277D01*
X135752141Y-107556798D01*
X135735090Y-107558477D01*
X135718039Y-107556798D01*
X135701647Y-107551825D01*
X135686535Y-107543748D01*
X135668526Y-107528968D01*
X135628681Y-107489123D01*
X135628670Y-107489114D01*
X135415830Y-107276274D01*
X135415821Y-107276263D01*
X135375976Y-107236418D01*
X135361196Y-107218409D01*
X135353119Y-107203297D01*
X135348146Y-107186905D01*
X135346467Y-107169854D01*
X135348146Y-107152803D01*
X135350667Y-107144494D01*
X135355448Y-107120461D01*
X135355448Y-107095957D01*
X135350668Y-107071924D01*
X135341291Y-107049285D01*
X135327677Y-107028910D01*
X135310350Y-107011583D01*
X135289976Y-106997969D01*
X135267337Y-106988592D01*
X135243304Y-106983811D01*
X135218800Y-106983811D01*
X135194766Y-106988591D01*
X135186452Y-106991113D01*
X135169404Y-106992792D01*
X135152353Y-106991113D01*
X135135961Y-106986140D01*
X135120849Y-106978063D01*
X135102840Y-106963283D01*
X135062995Y-106923438D01*
X135062984Y-106923429D01*
X134850144Y-106710589D01*
X134850135Y-106710578D01*
X134810290Y-106670733D01*
X134795510Y-106652724D01*
X134787433Y-106637612D01*
X134782460Y-106621220D01*
X134780781Y-106604169D01*
X134782460Y-106587121D01*
X134784982Y-106578807D01*
X134789762Y-106554773D01*
X134789762Y-106530269D01*
X134784981Y-106506236D01*
X134775604Y-106483597D01*
X134761990Y-106463223D01*
X134744663Y-106445896D01*
X134724288Y-106432282D01*
X134701650Y-106422905D01*
X134677616Y-106418125D01*
X134653112Y-106418125D01*
X134629079Y-106422906D01*
X134620770Y-106425427D01*
X134603719Y-106427106D01*
X134586668Y-106425427D01*
X134570276Y-106420454D01*
X134555164Y-106412377D01*
X134537155Y-106397597D01*
X134497310Y-106357752D01*
X134497299Y-106357743D01*
X134284459Y-106144903D01*
X134284450Y-106144892D01*
X134244605Y-106105047D01*
X134229825Y-106087038D01*
X134221748Y-106071926D01*
X134216775Y-106055534D01*
X134215096Y-106038483D01*
X134216775Y-106021432D01*
X134221748Y-106005040D01*
X134229825Y-105989928D01*
X134244605Y-105971919D01*
X134284450Y-105932074D01*
X134284459Y-105932063D01*
X135204405Y-105012117D01*
X135204416Y-105012108D01*
X135244261Y-104972263D01*
X135262270Y-104957483D01*
X135277382Y-104949406D01*
X135293774Y-104944433D01*
X135310825Y-104942754D01*
X135327876Y-104944433D01*
X135327876Y-104944433D01*
G37*
G36*
X116723604Y-108425347D02*
G01*
X116760144Y-108436432D01*
X116793821Y-108454433D01*
X116823341Y-108478659D01*
X116847567Y-108508179D01*
X116865568Y-108541856D01*
X116876653Y-108578396D01*
X116881000Y-108622538D01*
X116881000Y-110071462D01*
X116876653Y-110115604D01*
X116865568Y-110152144D01*
X116847567Y-110185821D01*
X116823341Y-110215341D01*
X116793821Y-110239567D01*
X116760144Y-110257568D01*
X116723604Y-110268653D01*
X116679462Y-110273000D01*
X115730538Y-110273000D01*
X115686396Y-110268653D01*
X115649856Y-110257568D01*
X115616179Y-110239567D01*
X115586659Y-110215341D01*
X115562433Y-110185821D01*
X115544432Y-110152144D01*
X115533347Y-110115604D01*
X115529000Y-110071462D01*
X115529000Y-108622538D01*
X115533347Y-108578396D01*
X115544432Y-108541856D01*
X115562433Y-108508179D01*
X115586659Y-108478659D01*
X115616179Y-108454433D01*
X115649856Y-108436432D01*
X115686396Y-108425347D01*
X115730538Y-108421000D01*
X116679462Y-108421000D01*
X116723604Y-108425347D01*
X116723604Y-108425347D01*
G37*
G36*
X119523604Y-108425347D02*
G01*
X119560144Y-108436432D01*
X119593821Y-108454433D01*
X119623341Y-108478659D01*
X119647567Y-108508179D01*
X119665568Y-108541856D01*
X119676653Y-108578396D01*
X119681000Y-108622538D01*
X119681000Y-110071462D01*
X119676653Y-110115604D01*
X119665568Y-110152144D01*
X119647567Y-110185821D01*
X119623341Y-110215341D01*
X119593821Y-110239567D01*
X119560144Y-110257568D01*
X119523604Y-110268653D01*
X119479462Y-110273000D01*
X118530538Y-110273000D01*
X118486396Y-110268653D01*
X118449856Y-110257568D01*
X118416179Y-110239567D01*
X118386659Y-110215341D01*
X118362433Y-110185821D01*
X118344432Y-110152144D01*
X118333347Y-110115604D01*
X118329000Y-110071462D01*
X118329000Y-108622538D01*
X118333347Y-108578396D01*
X118344432Y-108541856D01*
X118362433Y-108508179D01*
X118386659Y-108478659D01*
X118416179Y-108454433D01*
X118449856Y-108436432D01*
X118486396Y-108425347D01*
X118530538Y-108421000D01*
X119479462Y-108421000D01*
X119523604Y-108425347D01*
X119523604Y-108425347D01*
G37*
G36*
X114443604Y-108425347D02*
G01*
X114480144Y-108436432D01*
X114513821Y-108454433D01*
X114543341Y-108478659D01*
X114567567Y-108508179D01*
X114585568Y-108541856D01*
X114596653Y-108578396D01*
X114601000Y-108622538D01*
X114601000Y-110071462D01*
X114596653Y-110115604D01*
X114585568Y-110152144D01*
X114567567Y-110185821D01*
X114543341Y-110215341D01*
X114513821Y-110239567D01*
X114480144Y-110257568D01*
X114443604Y-110268653D01*
X114399462Y-110273000D01*
X113450538Y-110273000D01*
X113406396Y-110268653D01*
X113369856Y-110257568D01*
X113336179Y-110239567D01*
X113306659Y-110215341D01*
X113282433Y-110185821D01*
X113264432Y-110152144D01*
X113253347Y-110115604D01*
X113249000Y-110071462D01*
X113249000Y-108622538D01*
X113253347Y-108578396D01*
X113264432Y-108541856D01*
X113282433Y-108508179D01*
X113306659Y-108478659D01*
X113336179Y-108454433D01*
X113369856Y-108436432D01*
X113406396Y-108425347D01*
X113450538Y-108421000D01*
X114399462Y-108421000D01*
X114443604Y-108425347D01*
X114443604Y-108425347D01*
G37*
G36*
X111643604Y-108425347D02*
G01*
X111680144Y-108436432D01*
X111713821Y-108454433D01*
X111743341Y-108478659D01*
X111767567Y-108508179D01*
X111785568Y-108541856D01*
X111796653Y-108578396D01*
X111801000Y-108622538D01*
X111801000Y-110071462D01*
X111796653Y-110115604D01*
X111785568Y-110152144D01*
X111767567Y-110185821D01*
X111743341Y-110215341D01*
X111713821Y-110239567D01*
X111680144Y-110257568D01*
X111643604Y-110268653D01*
X111599462Y-110273000D01*
X110650538Y-110273000D01*
X110606396Y-110268653D01*
X110569856Y-110257568D01*
X110536179Y-110239567D01*
X110506659Y-110215341D01*
X110482433Y-110185821D01*
X110464432Y-110152144D01*
X110453347Y-110115604D01*
X110449000Y-110071462D01*
X110449000Y-108622538D01*
X110453347Y-108578396D01*
X110464432Y-108541856D01*
X110482433Y-108508179D01*
X110506659Y-108478659D01*
X110536179Y-108454433D01*
X110569856Y-108436432D01*
X110606396Y-108425347D01*
X110650538Y-108421000D01*
X111599462Y-108421000D01*
X111643604Y-108425347D01*
X111643604Y-108425347D01*
G37*
G36*
X170290443Y-108325519D02*
G01*
X170356627Y-108332037D01*
X170526466Y-108383557D01*
X170682991Y-108467222D01*
X170718729Y-108496552D01*
X170820186Y-108579814D01*
X170886270Y-108660339D01*
X170932778Y-108717009D01*
X170953005Y-108754851D01*
X170997209Y-108837549D01*
X171016443Y-108873534D01*
X171067963Y-109043373D01*
X171085359Y-109220000D01*
X171067963Y-109396627D01*
X171016443Y-109566466D01*
X170932778Y-109722991D01*
X170911761Y-109748600D01*
X170820186Y-109860186D01*
X170741959Y-109924384D01*
X170682991Y-109972778D01*
X170659065Y-109985567D01*
X170580349Y-110027642D01*
X170526466Y-110056443D01*
X170356627Y-110107963D01*
X170290443Y-110114481D01*
X170224260Y-110121000D01*
X170135740Y-110121000D01*
X170069557Y-110114481D01*
X170003373Y-110107963D01*
X169833534Y-110056443D01*
X169779652Y-110027642D01*
X169700935Y-109985567D01*
X169677009Y-109972778D01*
X169618041Y-109924384D01*
X169539814Y-109860186D01*
X169448239Y-109748600D01*
X169427222Y-109722991D01*
X169343557Y-109566466D01*
X169292037Y-109396627D01*
X169274641Y-109220000D01*
X169292037Y-109043373D01*
X169343557Y-108873534D01*
X169362792Y-108837549D01*
X169406995Y-108754851D01*
X169427222Y-108717009D01*
X169473730Y-108660339D01*
X169539814Y-108579814D01*
X169641271Y-108496552D01*
X169677009Y-108467222D01*
X169833534Y-108383557D01*
X170003373Y-108332037D01*
X170069557Y-108325519D01*
X170135740Y-108319000D01*
X170224260Y-108319000D01*
X170290443Y-108325519D01*
X170290443Y-108325519D01*
G37*
G36*
X102118604Y-108171347D02*
G01*
X102155144Y-108182432D01*
X102188821Y-108200433D01*
X102218341Y-108224659D01*
X102242567Y-108254179D01*
X102260568Y-108287856D01*
X102271653Y-108324396D01*
X102276000Y-108368538D01*
X102276000Y-109817462D01*
X102271653Y-109861604D01*
X102260568Y-109898144D01*
X102242567Y-109931821D01*
X102218341Y-109961341D01*
X102188821Y-109985567D01*
X102155144Y-110003568D01*
X102118604Y-110014653D01*
X102074462Y-110019000D01*
X101125538Y-110019000D01*
X101081396Y-110014653D01*
X101044856Y-110003568D01*
X101011179Y-109985567D01*
X100981659Y-109961341D01*
X100957433Y-109931821D01*
X100939432Y-109898144D01*
X100928347Y-109861604D01*
X100924000Y-109817462D01*
X100924000Y-108368538D01*
X100928347Y-108324396D01*
X100939432Y-108287856D01*
X100957433Y-108254179D01*
X100981659Y-108224659D01*
X101011179Y-108200433D01*
X101044856Y-108182432D01*
X101081396Y-108171347D01*
X101125538Y-108167000D01*
X102074462Y-108167000D01*
X102118604Y-108171347D01*
X102118604Y-108171347D01*
G37*
G36*
X104918604Y-108171347D02*
G01*
X104955144Y-108182432D01*
X104988821Y-108200433D01*
X105018341Y-108224659D01*
X105042567Y-108254179D01*
X105060568Y-108287856D01*
X105071653Y-108324396D01*
X105076000Y-108368538D01*
X105076000Y-109817462D01*
X105071653Y-109861604D01*
X105060568Y-109898144D01*
X105042567Y-109931821D01*
X105018341Y-109961341D01*
X104988821Y-109985567D01*
X104955144Y-110003568D01*
X104918604Y-110014653D01*
X104874462Y-110019000D01*
X103925538Y-110019000D01*
X103881396Y-110014653D01*
X103844856Y-110003568D01*
X103811179Y-109985567D01*
X103781659Y-109961341D01*
X103757433Y-109931821D01*
X103739432Y-109898144D01*
X103728347Y-109861604D01*
X103724000Y-109817462D01*
X103724000Y-108368538D01*
X103728347Y-108324396D01*
X103739432Y-108287856D01*
X103757433Y-108254179D01*
X103781659Y-108224659D01*
X103811179Y-108200433D01*
X103844856Y-108182432D01*
X103881396Y-108171347D01*
X103925538Y-108167000D01*
X104874462Y-108167000D01*
X104918604Y-108171347D01*
X104918604Y-108171347D01*
G37*
G36*
X108869600Y-108955000D02*
G01*
X106217600Y-108955000D01*
X106217600Y-107793000D01*
X108869600Y-107793000D01*
X108869600Y-108955000D01*
X108869600Y-108955000D01*
G37*
G36*
X161554604Y-106012347D02*
G01*
X161591144Y-106023432D01*
X161624821Y-106041433D01*
X161654341Y-106065659D01*
X161678567Y-106095179D01*
X161696568Y-106128856D01*
X161707653Y-106165396D01*
X161712000Y-106209538D01*
X161712000Y-107658462D01*
X161707653Y-107702604D01*
X161696568Y-107739144D01*
X161678567Y-107772821D01*
X161654341Y-107802341D01*
X161624821Y-107826567D01*
X161591144Y-107844568D01*
X161554604Y-107855653D01*
X161510462Y-107860000D01*
X160561538Y-107860000D01*
X160517396Y-107855653D01*
X160480856Y-107844568D01*
X160447179Y-107826567D01*
X160417659Y-107802341D01*
X160393433Y-107772821D01*
X160375432Y-107739144D01*
X160364347Y-107702604D01*
X160360000Y-107658462D01*
X160360000Y-106209538D01*
X160364347Y-106165396D01*
X160375432Y-106128856D01*
X160393433Y-106095179D01*
X160417659Y-106065659D01*
X160447179Y-106041433D01*
X160480856Y-106023432D01*
X160517396Y-106012347D01*
X160561538Y-106008000D01*
X161510462Y-106008000D01*
X161554604Y-106012347D01*
X161554604Y-106012347D01*
G37*
G36*
X164354604Y-106012347D02*
G01*
X164391144Y-106023432D01*
X164424821Y-106041433D01*
X164454341Y-106065659D01*
X164478567Y-106095179D01*
X164496568Y-106128856D01*
X164507653Y-106165396D01*
X164512000Y-106209538D01*
X164512000Y-107658462D01*
X164507653Y-107702604D01*
X164496568Y-107739144D01*
X164478567Y-107772821D01*
X164454341Y-107802341D01*
X164424821Y-107826567D01*
X164391144Y-107844568D01*
X164354604Y-107855653D01*
X164310462Y-107860000D01*
X163361538Y-107860000D01*
X163317396Y-107855653D01*
X163280856Y-107844568D01*
X163247179Y-107826567D01*
X163217659Y-107802341D01*
X163193433Y-107772821D01*
X163175432Y-107739144D01*
X163164347Y-107702604D01*
X163160000Y-107658462D01*
X163160000Y-106209538D01*
X163164347Y-106165396D01*
X163175432Y-106128856D01*
X163193433Y-106095179D01*
X163217659Y-106065659D01*
X163247179Y-106041433D01*
X163280856Y-106023432D01*
X163317396Y-106012347D01*
X163361538Y-106008000D01*
X164310462Y-106008000D01*
X164354604Y-106012347D01*
X164354604Y-106012347D01*
G37*
G36*
X171081000Y-107581000D02*
G01*
X169279000Y-107581000D01*
X169279000Y-105779000D01*
X171081000Y-105779000D01*
X171081000Y-107581000D01*
X171081000Y-107581000D01*
G37*
G36*
X107097004Y-104488347D02*
G01*
X107133544Y-104499432D01*
X107167221Y-104517433D01*
X107196741Y-104541659D01*
X107220967Y-104571179D01*
X107238968Y-104604856D01*
X107250053Y-104641396D01*
X107254400Y-104685538D01*
X107254400Y-106134462D01*
X107250053Y-106178604D01*
X107238968Y-106215144D01*
X107220967Y-106248821D01*
X107196741Y-106278341D01*
X107167221Y-106302567D01*
X107133544Y-106320568D01*
X107097004Y-106331653D01*
X107052862Y-106336000D01*
X106103938Y-106336000D01*
X106059796Y-106331653D01*
X106023256Y-106320568D01*
X105989579Y-106302567D01*
X105960059Y-106278341D01*
X105935833Y-106248821D01*
X105917832Y-106215144D01*
X105906747Y-106178604D01*
X105902400Y-106134462D01*
X105902400Y-104685538D01*
X105906747Y-104641396D01*
X105917832Y-104604856D01*
X105935833Y-104571179D01*
X105960059Y-104541659D01*
X105989579Y-104517433D01*
X106023256Y-104499432D01*
X106059796Y-104488347D01*
X106103938Y-104484000D01*
X107052862Y-104484000D01*
X107097004Y-104488347D01*
X107097004Y-104488347D01*
G37*
G36*
X109897004Y-104488347D02*
G01*
X109933544Y-104499432D01*
X109967221Y-104517433D01*
X109996741Y-104541659D01*
X110020967Y-104571179D01*
X110038968Y-104604856D01*
X110050053Y-104641396D01*
X110054400Y-104685538D01*
X110054400Y-106134462D01*
X110050053Y-106178604D01*
X110038968Y-106215144D01*
X110020967Y-106248821D01*
X109996741Y-106278341D01*
X109967221Y-106302567D01*
X109933544Y-106320568D01*
X109897004Y-106331653D01*
X109852862Y-106336000D01*
X108903938Y-106336000D01*
X108859796Y-106331653D01*
X108823256Y-106320568D01*
X108789579Y-106302567D01*
X108760059Y-106278341D01*
X108735833Y-106248821D01*
X108717832Y-106215144D01*
X108706747Y-106178604D01*
X108702400Y-106134462D01*
X108702400Y-104685538D01*
X108706747Y-104641396D01*
X108717832Y-104604856D01*
X108735833Y-104571179D01*
X108760059Y-104541659D01*
X108789579Y-104517433D01*
X108823256Y-104499432D01*
X108859796Y-104488347D01*
X108903938Y-104484000D01*
X109852862Y-104484000D01*
X109897004Y-104488347D01*
X109897004Y-104488347D01*
G37*
G36*
X104442400Y-105783200D02*
G01*
X103340400Y-105783200D01*
X103340400Y-104681200D01*
X104442400Y-104681200D01*
X104442400Y-105783200D01*
X104442400Y-105783200D01*
G37*
G36*
X101942400Y-105783200D02*
G01*
X100840400Y-105783200D01*
X100840400Y-104681200D01*
X101942400Y-104681200D01*
X101942400Y-105783200D01*
X101942400Y-105783200D01*
G37*
G36*
X170290443Y-100705519D02*
G01*
X170356627Y-100712037D01*
X170526466Y-100763557D01*
X170682991Y-100847222D01*
X170718729Y-100876552D01*
X170820186Y-100959814D01*
X170903448Y-101061271D01*
X170932778Y-101097009D01*
X171016443Y-101253534D01*
X171067963Y-101423373D01*
X171085359Y-101600000D01*
X171067963Y-101776627D01*
X171016443Y-101946466D01*
X170932778Y-102102991D01*
X170903448Y-102138729D01*
X170820186Y-102240186D01*
X170718729Y-102323448D01*
X170682991Y-102352778D01*
X170526466Y-102436443D01*
X170356627Y-102487963D01*
X170290442Y-102494482D01*
X170224260Y-102501000D01*
X170135740Y-102501000D01*
X170069558Y-102494482D01*
X170003373Y-102487963D01*
X169833534Y-102436443D01*
X169677009Y-102352778D01*
X169641271Y-102323448D01*
X169539814Y-102240186D01*
X169456552Y-102138729D01*
X169427222Y-102102991D01*
X169343557Y-101946466D01*
X169292037Y-101776627D01*
X169274641Y-101600000D01*
X169292037Y-101423373D01*
X169343557Y-101253534D01*
X169427222Y-101097009D01*
X169456552Y-101061271D01*
X169539814Y-100959814D01*
X169641271Y-100876552D01*
X169677009Y-100847222D01*
X169833534Y-100763557D01*
X170003373Y-100712037D01*
X170069557Y-100705519D01*
X170135740Y-100699000D01*
X170224260Y-100699000D01*
X170290443Y-100705519D01*
X170290443Y-100705519D01*
G37*
G36*
X165210443Y-100705519D02*
G01*
X165276627Y-100712037D01*
X165446466Y-100763557D01*
X165602991Y-100847222D01*
X165638729Y-100876552D01*
X165740186Y-100959814D01*
X165823448Y-101061271D01*
X165852778Y-101097009D01*
X165936443Y-101253534D01*
X165987963Y-101423373D01*
X166005359Y-101600000D01*
X165987963Y-101776627D01*
X165936443Y-101946466D01*
X165852778Y-102102991D01*
X165823448Y-102138729D01*
X165740186Y-102240186D01*
X165638729Y-102323448D01*
X165602991Y-102352778D01*
X165446466Y-102436443D01*
X165276627Y-102487963D01*
X165210442Y-102494482D01*
X165144260Y-102501000D01*
X165055740Y-102501000D01*
X164989558Y-102494482D01*
X164923373Y-102487963D01*
X164753534Y-102436443D01*
X164597009Y-102352778D01*
X164561271Y-102323448D01*
X164459814Y-102240186D01*
X164376552Y-102138729D01*
X164347222Y-102102991D01*
X164263557Y-101946466D01*
X164212037Y-101776627D01*
X164194641Y-101600000D01*
X164212037Y-101423373D01*
X164263557Y-101253534D01*
X164347222Y-101097009D01*
X164376552Y-101061271D01*
X164459814Y-100959814D01*
X164561271Y-100876552D01*
X164597009Y-100847222D01*
X164753534Y-100763557D01*
X164923373Y-100712037D01*
X164989557Y-100705519D01*
X165055740Y-100699000D01*
X165144260Y-100699000D01*
X165210443Y-100705519D01*
X165210443Y-100705519D01*
G37*
G36*
X167750443Y-100705519D02*
G01*
X167816627Y-100712037D01*
X167986466Y-100763557D01*
X168142991Y-100847222D01*
X168178729Y-100876552D01*
X168280186Y-100959814D01*
X168363448Y-101061271D01*
X168392778Y-101097009D01*
X168476443Y-101253534D01*
X168527963Y-101423373D01*
X168545359Y-101600000D01*
X168527963Y-101776627D01*
X168476443Y-101946466D01*
X168392778Y-102102991D01*
X168363448Y-102138729D01*
X168280186Y-102240186D01*
X168178729Y-102323448D01*
X168142991Y-102352778D01*
X167986466Y-102436443D01*
X167816627Y-102487963D01*
X167750442Y-102494482D01*
X167684260Y-102501000D01*
X167595740Y-102501000D01*
X167529558Y-102494482D01*
X167463373Y-102487963D01*
X167293534Y-102436443D01*
X167137009Y-102352778D01*
X167101271Y-102323448D01*
X166999814Y-102240186D01*
X166916552Y-102138729D01*
X166887222Y-102102991D01*
X166803557Y-101946466D01*
X166752037Y-101776627D01*
X166734641Y-101600000D01*
X166752037Y-101423373D01*
X166803557Y-101253534D01*
X166887222Y-101097009D01*
X166916552Y-101061271D01*
X166999814Y-100959814D01*
X167101271Y-100876552D01*
X167137009Y-100847222D01*
X167293534Y-100763557D01*
X167463373Y-100712037D01*
X167529557Y-100705519D01*
X167595740Y-100699000D01*
X167684260Y-100699000D01*
X167750443Y-100705519D01*
X167750443Y-100705519D01*
G37*
G36*
X162670443Y-100705519D02*
G01*
X162736627Y-100712037D01*
X162906466Y-100763557D01*
X163062991Y-100847222D01*
X163098729Y-100876552D01*
X163200186Y-100959814D01*
X163283448Y-101061271D01*
X163312778Y-101097009D01*
X163396443Y-101253534D01*
X163447963Y-101423373D01*
X163465359Y-101600000D01*
X163447963Y-101776627D01*
X163396443Y-101946466D01*
X163312778Y-102102991D01*
X163283448Y-102138729D01*
X163200186Y-102240186D01*
X163098729Y-102323448D01*
X163062991Y-102352778D01*
X162906466Y-102436443D01*
X162736627Y-102487963D01*
X162670442Y-102494482D01*
X162604260Y-102501000D01*
X162515740Y-102501000D01*
X162449558Y-102494482D01*
X162383373Y-102487963D01*
X162213534Y-102436443D01*
X162057009Y-102352778D01*
X162021271Y-102323448D01*
X161919814Y-102240186D01*
X161836552Y-102138729D01*
X161807222Y-102102991D01*
X161723557Y-101946466D01*
X161672037Y-101776627D01*
X161654641Y-101600000D01*
X161672037Y-101423373D01*
X161723557Y-101253534D01*
X161807222Y-101097009D01*
X161836552Y-101061271D01*
X161919814Y-100959814D01*
X162021271Y-100876552D01*
X162057009Y-100847222D01*
X162213534Y-100763557D01*
X162383373Y-100712037D01*
X162449557Y-100705519D01*
X162515740Y-100699000D01*
X162604260Y-100699000D01*
X162670443Y-100705519D01*
X162670443Y-100705519D01*
G37*
G36*
X160130443Y-100705519D02*
G01*
X160196627Y-100712037D01*
X160366466Y-100763557D01*
X160522991Y-100847222D01*
X160558729Y-100876552D01*
X160660186Y-100959814D01*
X160743448Y-101061271D01*
X160772778Y-101097009D01*
X160856443Y-101253534D01*
X160907963Y-101423373D01*
X160925359Y-101600000D01*
X160907963Y-101776627D01*
X160856443Y-101946466D01*
X160772778Y-102102991D01*
X160743448Y-102138729D01*
X160660186Y-102240186D01*
X160558729Y-102323448D01*
X160522991Y-102352778D01*
X160366466Y-102436443D01*
X160196627Y-102487963D01*
X160130442Y-102494482D01*
X160064260Y-102501000D01*
X159975740Y-102501000D01*
X159909558Y-102494482D01*
X159843373Y-102487963D01*
X159673534Y-102436443D01*
X159517009Y-102352778D01*
X159481271Y-102323448D01*
X159379814Y-102240186D01*
X159296552Y-102138729D01*
X159267222Y-102102991D01*
X159183557Y-101946466D01*
X159132037Y-101776627D01*
X159114641Y-101600000D01*
X159132037Y-101423373D01*
X159183557Y-101253534D01*
X159267222Y-101097009D01*
X159296552Y-101061271D01*
X159379814Y-100959814D01*
X159481271Y-100876552D01*
X159517009Y-100847222D01*
X159673534Y-100763557D01*
X159843373Y-100712037D01*
X159909557Y-100705519D01*
X159975740Y-100699000D01*
X160064260Y-100699000D01*
X160130443Y-100705519D01*
X160130443Y-100705519D01*
G37*
G36*
X157590443Y-100705519D02*
G01*
X157656627Y-100712037D01*
X157826466Y-100763557D01*
X157982991Y-100847222D01*
X158018729Y-100876552D01*
X158120186Y-100959814D01*
X158203448Y-101061271D01*
X158232778Y-101097009D01*
X158316443Y-101253534D01*
X158367963Y-101423373D01*
X158385359Y-101600000D01*
X158367963Y-101776627D01*
X158316443Y-101946466D01*
X158232778Y-102102991D01*
X158203448Y-102138729D01*
X158120186Y-102240186D01*
X158018729Y-102323448D01*
X157982991Y-102352778D01*
X157826466Y-102436443D01*
X157656627Y-102487963D01*
X157590442Y-102494482D01*
X157524260Y-102501000D01*
X157435740Y-102501000D01*
X157369558Y-102494482D01*
X157303373Y-102487963D01*
X157133534Y-102436443D01*
X156977009Y-102352778D01*
X156941271Y-102323448D01*
X156839814Y-102240186D01*
X156756552Y-102138729D01*
X156727222Y-102102991D01*
X156643557Y-101946466D01*
X156592037Y-101776627D01*
X156574641Y-101600000D01*
X156592037Y-101423373D01*
X156643557Y-101253534D01*
X156727222Y-101097009D01*
X156756552Y-101061271D01*
X156839814Y-100959814D01*
X156941271Y-100876552D01*
X156977009Y-100847222D01*
X157133534Y-100763557D01*
X157303373Y-100712037D01*
X157369557Y-100705519D01*
X157435740Y-100699000D01*
X157524260Y-100699000D01*
X157590443Y-100705519D01*
X157590443Y-100705519D01*
G37*
G36*
X155050443Y-100705519D02*
G01*
X155116627Y-100712037D01*
X155286466Y-100763557D01*
X155442991Y-100847222D01*
X155478729Y-100876552D01*
X155580186Y-100959814D01*
X155663448Y-101061271D01*
X155692778Y-101097009D01*
X155776443Y-101253534D01*
X155827963Y-101423373D01*
X155845359Y-101600000D01*
X155827963Y-101776627D01*
X155776443Y-101946466D01*
X155692778Y-102102991D01*
X155663448Y-102138729D01*
X155580186Y-102240186D01*
X155478729Y-102323448D01*
X155442991Y-102352778D01*
X155286466Y-102436443D01*
X155116627Y-102487963D01*
X155050442Y-102494482D01*
X154984260Y-102501000D01*
X154895740Y-102501000D01*
X154829558Y-102494482D01*
X154763373Y-102487963D01*
X154593534Y-102436443D01*
X154437009Y-102352778D01*
X154401271Y-102323448D01*
X154299814Y-102240186D01*
X154216552Y-102138729D01*
X154187222Y-102102991D01*
X154103557Y-101946466D01*
X154052037Y-101776627D01*
X154034641Y-101600000D01*
X154052037Y-101423373D01*
X154103557Y-101253534D01*
X154187222Y-101097009D01*
X154216552Y-101061271D01*
X154299814Y-100959814D01*
X154401271Y-100876552D01*
X154437009Y-100847222D01*
X154593534Y-100763557D01*
X154763373Y-100712037D01*
X154829557Y-100705519D01*
X154895740Y-100699000D01*
X154984260Y-100699000D01*
X155050443Y-100705519D01*
X155050443Y-100705519D01*
G37*
G36*
X152510443Y-100705519D02*
G01*
X152576627Y-100712037D01*
X152746466Y-100763557D01*
X152902991Y-100847222D01*
X152938729Y-100876552D01*
X153040186Y-100959814D01*
X153123448Y-101061271D01*
X153152778Y-101097009D01*
X153236443Y-101253534D01*
X153287963Y-101423373D01*
X153305359Y-101600000D01*
X153287963Y-101776627D01*
X153236443Y-101946466D01*
X153152778Y-102102991D01*
X153123448Y-102138729D01*
X153040186Y-102240186D01*
X152938729Y-102323448D01*
X152902991Y-102352778D01*
X152746466Y-102436443D01*
X152576627Y-102487963D01*
X152510442Y-102494482D01*
X152444260Y-102501000D01*
X152355740Y-102501000D01*
X152289558Y-102494482D01*
X152223373Y-102487963D01*
X152053534Y-102436443D01*
X151897009Y-102352778D01*
X151861271Y-102323448D01*
X151759814Y-102240186D01*
X151676552Y-102138729D01*
X151647222Y-102102991D01*
X151563557Y-101946466D01*
X151512037Y-101776627D01*
X151494641Y-101600000D01*
X151512037Y-101423373D01*
X151563557Y-101253534D01*
X151647222Y-101097009D01*
X151676552Y-101061271D01*
X151759814Y-100959814D01*
X151861271Y-100876552D01*
X151897009Y-100847222D01*
X152053534Y-100763557D01*
X152223373Y-100712037D01*
X152289557Y-100705519D01*
X152355740Y-100699000D01*
X152444260Y-100699000D01*
X152510443Y-100705519D01*
X152510443Y-100705519D01*
G37*
G36*
X149970443Y-100705519D02*
G01*
X150036627Y-100712037D01*
X150206466Y-100763557D01*
X150362991Y-100847222D01*
X150398729Y-100876552D01*
X150500186Y-100959814D01*
X150583448Y-101061271D01*
X150612778Y-101097009D01*
X150696443Y-101253534D01*
X150747963Y-101423373D01*
X150765359Y-101600000D01*
X150747963Y-101776627D01*
X150696443Y-101946466D01*
X150612778Y-102102991D01*
X150583448Y-102138729D01*
X150500186Y-102240186D01*
X150398729Y-102323448D01*
X150362991Y-102352778D01*
X150206466Y-102436443D01*
X150036627Y-102487963D01*
X149970442Y-102494482D01*
X149904260Y-102501000D01*
X149815740Y-102501000D01*
X149749558Y-102494482D01*
X149683373Y-102487963D01*
X149513534Y-102436443D01*
X149357009Y-102352778D01*
X149321271Y-102323448D01*
X149219814Y-102240186D01*
X149136552Y-102138729D01*
X149107222Y-102102991D01*
X149023557Y-101946466D01*
X148972037Y-101776627D01*
X148954641Y-101600000D01*
X148972037Y-101423373D01*
X149023557Y-101253534D01*
X149107222Y-101097009D01*
X149136552Y-101061271D01*
X149219814Y-100959814D01*
X149321271Y-100876552D01*
X149357009Y-100847222D01*
X149513534Y-100763557D01*
X149683373Y-100712037D01*
X149749557Y-100705519D01*
X149815740Y-100699000D01*
X149904260Y-100699000D01*
X149970443Y-100705519D01*
X149970443Y-100705519D01*
G37*
G36*
X147430443Y-100705519D02*
G01*
X147496627Y-100712037D01*
X147666466Y-100763557D01*
X147822991Y-100847222D01*
X147858729Y-100876552D01*
X147960186Y-100959814D01*
X148043448Y-101061271D01*
X148072778Y-101097009D01*
X148156443Y-101253534D01*
X148207963Y-101423373D01*
X148225359Y-101600000D01*
X148207963Y-101776627D01*
X148156443Y-101946466D01*
X148072778Y-102102991D01*
X148043448Y-102138729D01*
X147960186Y-102240186D01*
X147858729Y-102323448D01*
X147822991Y-102352778D01*
X147666466Y-102436443D01*
X147496627Y-102487963D01*
X147430442Y-102494482D01*
X147364260Y-102501000D01*
X147275740Y-102501000D01*
X147209558Y-102494482D01*
X147143373Y-102487963D01*
X146973534Y-102436443D01*
X146817009Y-102352778D01*
X146781271Y-102323448D01*
X146679814Y-102240186D01*
X146596552Y-102138729D01*
X146567222Y-102102991D01*
X146483557Y-101946466D01*
X146432037Y-101776627D01*
X146414641Y-101600000D01*
X146432037Y-101423373D01*
X146483557Y-101253534D01*
X146567222Y-101097009D01*
X146596552Y-101061271D01*
X146679814Y-100959814D01*
X146781271Y-100876552D01*
X146817009Y-100847222D01*
X146973534Y-100763557D01*
X147143373Y-100712037D01*
X147209557Y-100705519D01*
X147275740Y-100699000D01*
X147364260Y-100699000D01*
X147430443Y-100705519D01*
X147430443Y-100705519D01*
G37*
G36*
X144890443Y-100705519D02*
G01*
X144956627Y-100712037D01*
X145126466Y-100763557D01*
X145282991Y-100847222D01*
X145318729Y-100876552D01*
X145420186Y-100959814D01*
X145503448Y-101061271D01*
X145532778Y-101097009D01*
X145616443Y-101253534D01*
X145667963Y-101423373D01*
X145685359Y-101600000D01*
X145667963Y-101776627D01*
X145616443Y-101946466D01*
X145532778Y-102102991D01*
X145503448Y-102138729D01*
X145420186Y-102240186D01*
X145318729Y-102323448D01*
X145282991Y-102352778D01*
X145126466Y-102436443D01*
X144956627Y-102487963D01*
X144890442Y-102494482D01*
X144824260Y-102501000D01*
X144735740Y-102501000D01*
X144669558Y-102494482D01*
X144603373Y-102487963D01*
X144433534Y-102436443D01*
X144277009Y-102352778D01*
X144241271Y-102323448D01*
X144139814Y-102240186D01*
X144056552Y-102138729D01*
X144027222Y-102102991D01*
X143943557Y-101946466D01*
X143892037Y-101776627D01*
X143874641Y-101600000D01*
X143892037Y-101423373D01*
X143943557Y-101253534D01*
X144027222Y-101097009D01*
X144056552Y-101061271D01*
X144139814Y-100959814D01*
X144241271Y-100876552D01*
X144277009Y-100847222D01*
X144433534Y-100763557D01*
X144603373Y-100712037D01*
X144669557Y-100705519D01*
X144735740Y-100699000D01*
X144824260Y-100699000D01*
X144890443Y-100705519D01*
X144890443Y-100705519D01*
G37*
G36*
X142350443Y-100705519D02*
G01*
X142416627Y-100712037D01*
X142586466Y-100763557D01*
X142742991Y-100847222D01*
X142778729Y-100876552D01*
X142880186Y-100959814D01*
X142963448Y-101061271D01*
X142992778Y-101097009D01*
X143076443Y-101253534D01*
X143127963Y-101423373D01*
X143145359Y-101600000D01*
X143127963Y-101776627D01*
X143076443Y-101946466D01*
X142992778Y-102102991D01*
X142963448Y-102138729D01*
X142880186Y-102240186D01*
X142778729Y-102323448D01*
X142742991Y-102352778D01*
X142586466Y-102436443D01*
X142416627Y-102487963D01*
X142350442Y-102494482D01*
X142284260Y-102501000D01*
X142195740Y-102501000D01*
X142129558Y-102494482D01*
X142063373Y-102487963D01*
X141893534Y-102436443D01*
X141737009Y-102352778D01*
X141701271Y-102323448D01*
X141599814Y-102240186D01*
X141516552Y-102138729D01*
X141487222Y-102102991D01*
X141403557Y-101946466D01*
X141352037Y-101776627D01*
X141334641Y-101600000D01*
X141352037Y-101423373D01*
X141403557Y-101253534D01*
X141487222Y-101097009D01*
X141516552Y-101061271D01*
X141599814Y-100959814D01*
X141701271Y-100876552D01*
X141737009Y-100847222D01*
X141893534Y-100763557D01*
X142063373Y-100712037D01*
X142129557Y-100705519D01*
X142195740Y-100699000D01*
X142284260Y-100699000D01*
X142350443Y-100705519D01*
X142350443Y-100705519D01*
G37*
G36*
X139810443Y-100705519D02*
G01*
X139876627Y-100712037D01*
X140046466Y-100763557D01*
X140202991Y-100847222D01*
X140238729Y-100876552D01*
X140340186Y-100959814D01*
X140423448Y-101061271D01*
X140452778Y-101097009D01*
X140536443Y-101253534D01*
X140587963Y-101423373D01*
X140605359Y-101600000D01*
X140587963Y-101776627D01*
X140536443Y-101946466D01*
X140452778Y-102102991D01*
X140423448Y-102138729D01*
X140340186Y-102240186D01*
X140238729Y-102323448D01*
X140202991Y-102352778D01*
X140046466Y-102436443D01*
X139876627Y-102487963D01*
X139810442Y-102494482D01*
X139744260Y-102501000D01*
X139655740Y-102501000D01*
X139589558Y-102494482D01*
X139523373Y-102487963D01*
X139353534Y-102436443D01*
X139197009Y-102352778D01*
X139161271Y-102323448D01*
X139059814Y-102240186D01*
X138976552Y-102138729D01*
X138947222Y-102102991D01*
X138863557Y-101946466D01*
X138812037Y-101776627D01*
X138794641Y-101600000D01*
X138812037Y-101423373D01*
X138863557Y-101253534D01*
X138947222Y-101097009D01*
X138976552Y-101061271D01*
X139059814Y-100959814D01*
X139161271Y-100876552D01*
X139197009Y-100847222D01*
X139353534Y-100763557D01*
X139523373Y-100712037D01*
X139589557Y-100705519D01*
X139655740Y-100699000D01*
X139744260Y-100699000D01*
X139810443Y-100705519D01*
X139810443Y-100705519D01*
G37*
G36*
X137270443Y-100705519D02*
G01*
X137336627Y-100712037D01*
X137506466Y-100763557D01*
X137662991Y-100847222D01*
X137698729Y-100876552D01*
X137800186Y-100959814D01*
X137883448Y-101061271D01*
X137912778Y-101097009D01*
X137996443Y-101253534D01*
X138047963Y-101423373D01*
X138065359Y-101600000D01*
X138047963Y-101776627D01*
X137996443Y-101946466D01*
X137912778Y-102102991D01*
X137883448Y-102138729D01*
X137800186Y-102240186D01*
X137698729Y-102323448D01*
X137662991Y-102352778D01*
X137506466Y-102436443D01*
X137336627Y-102487963D01*
X137270442Y-102494482D01*
X137204260Y-102501000D01*
X137115740Y-102501000D01*
X137049558Y-102494482D01*
X136983373Y-102487963D01*
X136813534Y-102436443D01*
X136657009Y-102352778D01*
X136621271Y-102323448D01*
X136519814Y-102240186D01*
X136436552Y-102138729D01*
X136407222Y-102102991D01*
X136323557Y-101946466D01*
X136272037Y-101776627D01*
X136254641Y-101600000D01*
X136272037Y-101423373D01*
X136323557Y-101253534D01*
X136407222Y-101097009D01*
X136436552Y-101061271D01*
X136519814Y-100959814D01*
X136621271Y-100876552D01*
X136657009Y-100847222D01*
X136813534Y-100763557D01*
X136983373Y-100712037D01*
X137049557Y-100705519D01*
X137115740Y-100699000D01*
X137204260Y-100699000D01*
X137270443Y-100705519D01*
X137270443Y-100705519D01*
G37*
G36*
X134730443Y-100705519D02*
G01*
X134796627Y-100712037D01*
X134966466Y-100763557D01*
X135122991Y-100847222D01*
X135158729Y-100876552D01*
X135260186Y-100959814D01*
X135343448Y-101061271D01*
X135372778Y-101097009D01*
X135456443Y-101253534D01*
X135507963Y-101423373D01*
X135525359Y-101600000D01*
X135507963Y-101776627D01*
X135456443Y-101946466D01*
X135372778Y-102102991D01*
X135343448Y-102138729D01*
X135260186Y-102240186D01*
X135158729Y-102323448D01*
X135122991Y-102352778D01*
X134966466Y-102436443D01*
X134796627Y-102487963D01*
X134730442Y-102494482D01*
X134664260Y-102501000D01*
X134575740Y-102501000D01*
X134509558Y-102494482D01*
X134443373Y-102487963D01*
X134273534Y-102436443D01*
X134117009Y-102352778D01*
X134081271Y-102323448D01*
X133979814Y-102240186D01*
X133896552Y-102138729D01*
X133867222Y-102102991D01*
X133783557Y-101946466D01*
X133732037Y-101776627D01*
X133714641Y-101600000D01*
X133732037Y-101423373D01*
X133783557Y-101253534D01*
X133867222Y-101097009D01*
X133896552Y-101061271D01*
X133979814Y-100959814D01*
X134081271Y-100876552D01*
X134117009Y-100847222D01*
X134273534Y-100763557D01*
X134443373Y-100712037D01*
X134509557Y-100705519D01*
X134575740Y-100699000D01*
X134664260Y-100699000D01*
X134730443Y-100705519D01*
X134730443Y-100705519D01*
G37*
G36*
X132190443Y-100705519D02*
G01*
X132256627Y-100712037D01*
X132426466Y-100763557D01*
X132582991Y-100847222D01*
X132618729Y-100876552D01*
X132720186Y-100959814D01*
X132803448Y-101061271D01*
X132832778Y-101097009D01*
X132916443Y-101253534D01*
X132967963Y-101423373D01*
X132985359Y-101600000D01*
X132967963Y-101776627D01*
X132916443Y-101946466D01*
X132832778Y-102102991D01*
X132803448Y-102138729D01*
X132720186Y-102240186D01*
X132618729Y-102323448D01*
X132582991Y-102352778D01*
X132426466Y-102436443D01*
X132256627Y-102487963D01*
X132190442Y-102494482D01*
X132124260Y-102501000D01*
X132035740Y-102501000D01*
X131969558Y-102494482D01*
X131903373Y-102487963D01*
X131733534Y-102436443D01*
X131577009Y-102352778D01*
X131541271Y-102323448D01*
X131439814Y-102240186D01*
X131356552Y-102138729D01*
X131327222Y-102102991D01*
X131243557Y-101946466D01*
X131192037Y-101776627D01*
X131174641Y-101600000D01*
X131192037Y-101423373D01*
X131243557Y-101253534D01*
X131327222Y-101097009D01*
X131356552Y-101061271D01*
X131439814Y-100959814D01*
X131541271Y-100876552D01*
X131577009Y-100847222D01*
X131733534Y-100763557D01*
X131903373Y-100712037D01*
X131969557Y-100705519D01*
X132035740Y-100699000D01*
X132124260Y-100699000D01*
X132190443Y-100705519D01*
X132190443Y-100705519D01*
G37*
G36*
X129650443Y-100705519D02*
G01*
X129716627Y-100712037D01*
X129886466Y-100763557D01*
X130042991Y-100847222D01*
X130078729Y-100876552D01*
X130180186Y-100959814D01*
X130263448Y-101061271D01*
X130292778Y-101097009D01*
X130376443Y-101253534D01*
X130427963Y-101423373D01*
X130445359Y-101600000D01*
X130427963Y-101776627D01*
X130376443Y-101946466D01*
X130292778Y-102102991D01*
X130263448Y-102138729D01*
X130180186Y-102240186D01*
X130078729Y-102323448D01*
X130042991Y-102352778D01*
X129886466Y-102436443D01*
X129716627Y-102487963D01*
X129650442Y-102494482D01*
X129584260Y-102501000D01*
X129495740Y-102501000D01*
X129429558Y-102494482D01*
X129363373Y-102487963D01*
X129193534Y-102436443D01*
X129037009Y-102352778D01*
X129001271Y-102323448D01*
X128899814Y-102240186D01*
X128816552Y-102138729D01*
X128787222Y-102102991D01*
X128703557Y-101946466D01*
X128652037Y-101776627D01*
X128634641Y-101600000D01*
X128652037Y-101423373D01*
X128703557Y-101253534D01*
X128787222Y-101097009D01*
X128816552Y-101061271D01*
X128899814Y-100959814D01*
X129001271Y-100876552D01*
X129037009Y-100847222D01*
X129193534Y-100763557D01*
X129363373Y-100712037D01*
X129429557Y-100705519D01*
X129495740Y-100699000D01*
X129584260Y-100699000D01*
X129650443Y-100705519D01*
X129650443Y-100705519D01*
G37*
G36*
X124570443Y-100705519D02*
G01*
X124636627Y-100712037D01*
X124806466Y-100763557D01*
X124962991Y-100847222D01*
X124998729Y-100876552D01*
X125100186Y-100959814D01*
X125183448Y-101061271D01*
X125212778Y-101097009D01*
X125296443Y-101253534D01*
X125347963Y-101423373D01*
X125365359Y-101600000D01*
X125347963Y-101776627D01*
X125296443Y-101946466D01*
X125212778Y-102102991D01*
X125183448Y-102138729D01*
X125100186Y-102240186D01*
X124998729Y-102323448D01*
X124962991Y-102352778D01*
X124806466Y-102436443D01*
X124636627Y-102487963D01*
X124570442Y-102494482D01*
X124504260Y-102501000D01*
X124415740Y-102501000D01*
X124349558Y-102494482D01*
X124283373Y-102487963D01*
X124113534Y-102436443D01*
X123957009Y-102352778D01*
X123921271Y-102323448D01*
X123819814Y-102240186D01*
X123736552Y-102138729D01*
X123707222Y-102102991D01*
X123623557Y-101946466D01*
X123572037Y-101776627D01*
X123554641Y-101600000D01*
X123572037Y-101423373D01*
X123623557Y-101253534D01*
X123707222Y-101097009D01*
X123736552Y-101061271D01*
X123819814Y-100959814D01*
X123921271Y-100876552D01*
X123957009Y-100847222D01*
X124113534Y-100763557D01*
X124283373Y-100712037D01*
X124349557Y-100705519D01*
X124415740Y-100699000D01*
X124504260Y-100699000D01*
X124570443Y-100705519D01*
X124570443Y-100705519D01*
G37*
G36*
X102501000Y-102501000D02*
G01*
X100699000Y-102501000D01*
X100699000Y-100699000D01*
X102501000Y-100699000D01*
X102501000Y-102501000D01*
X102501000Y-102501000D01*
G37*
G36*
X104250443Y-100705519D02*
G01*
X104316627Y-100712037D01*
X104486466Y-100763557D01*
X104642991Y-100847222D01*
X104678729Y-100876552D01*
X104780186Y-100959814D01*
X104863448Y-101061271D01*
X104892778Y-101097009D01*
X104976443Y-101253534D01*
X105027963Y-101423373D01*
X105045359Y-101600000D01*
X105027963Y-101776627D01*
X104976443Y-101946466D01*
X104892778Y-102102991D01*
X104863448Y-102138729D01*
X104780186Y-102240186D01*
X104678729Y-102323448D01*
X104642991Y-102352778D01*
X104486466Y-102436443D01*
X104316627Y-102487963D01*
X104250442Y-102494482D01*
X104184260Y-102501000D01*
X104095740Y-102501000D01*
X104029558Y-102494482D01*
X103963373Y-102487963D01*
X103793534Y-102436443D01*
X103637009Y-102352778D01*
X103601271Y-102323448D01*
X103499814Y-102240186D01*
X103416552Y-102138729D01*
X103387222Y-102102991D01*
X103303557Y-101946466D01*
X103252037Y-101776627D01*
X103234641Y-101600000D01*
X103252037Y-101423373D01*
X103303557Y-101253534D01*
X103387222Y-101097009D01*
X103416552Y-101061271D01*
X103499814Y-100959814D01*
X103601271Y-100876552D01*
X103637009Y-100847222D01*
X103793534Y-100763557D01*
X103963373Y-100712037D01*
X104029557Y-100705519D01*
X104095740Y-100699000D01*
X104184260Y-100699000D01*
X104250443Y-100705519D01*
X104250443Y-100705519D01*
G37*
G36*
X106790443Y-100705519D02*
G01*
X106856627Y-100712037D01*
X107026466Y-100763557D01*
X107182991Y-100847222D01*
X107218729Y-100876552D01*
X107320186Y-100959814D01*
X107403448Y-101061271D01*
X107432778Y-101097009D01*
X107516443Y-101253534D01*
X107567963Y-101423373D01*
X107585359Y-101600000D01*
X107567963Y-101776627D01*
X107516443Y-101946466D01*
X107432778Y-102102991D01*
X107403448Y-102138729D01*
X107320186Y-102240186D01*
X107218729Y-102323448D01*
X107182991Y-102352778D01*
X107026466Y-102436443D01*
X106856627Y-102487963D01*
X106790442Y-102494482D01*
X106724260Y-102501000D01*
X106635740Y-102501000D01*
X106569558Y-102494482D01*
X106503373Y-102487963D01*
X106333534Y-102436443D01*
X106177009Y-102352778D01*
X106141271Y-102323448D01*
X106039814Y-102240186D01*
X105956552Y-102138729D01*
X105927222Y-102102991D01*
X105843557Y-101946466D01*
X105792037Y-101776627D01*
X105774641Y-101600000D01*
X105792037Y-101423373D01*
X105843557Y-101253534D01*
X105927222Y-101097009D01*
X105956552Y-101061271D01*
X106039814Y-100959814D01*
X106141271Y-100876552D01*
X106177009Y-100847222D01*
X106333534Y-100763557D01*
X106503373Y-100712037D01*
X106569557Y-100705519D01*
X106635740Y-100699000D01*
X106724260Y-100699000D01*
X106790443Y-100705519D01*
X106790443Y-100705519D01*
G37*
G36*
X109330443Y-100705519D02*
G01*
X109396627Y-100712037D01*
X109566466Y-100763557D01*
X109722991Y-100847222D01*
X109758729Y-100876552D01*
X109860186Y-100959814D01*
X109943448Y-101061271D01*
X109972778Y-101097009D01*
X110056443Y-101253534D01*
X110107963Y-101423373D01*
X110125359Y-101600000D01*
X110107963Y-101776627D01*
X110056443Y-101946466D01*
X109972778Y-102102991D01*
X109943448Y-102138729D01*
X109860186Y-102240186D01*
X109758729Y-102323448D01*
X109722991Y-102352778D01*
X109566466Y-102436443D01*
X109396627Y-102487963D01*
X109330442Y-102494482D01*
X109264260Y-102501000D01*
X109175740Y-102501000D01*
X109109558Y-102494482D01*
X109043373Y-102487963D01*
X108873534Y-102436443D01*
X108717009Y-102352778D01*
X108681271Y-102323448D01*
X108579814Y-102240186D01*
X108496552Y-102138729D01*
X108467222Y-102102991D01*
X108383557Y-101946466D01*
X108332037Y-101776627D01*
X108314641Y-101600000D01*
X108332037Y-101423373D01*
X108383557Y-101253534D01*
X108467222Y-101097009D01*
X108496552Y-101061271D01*
X108579814Y-100959814D01*
X108681271Y-100876552D01*
X108717009Y-100847222D01*
X108873534Y-100763557D01*
X109043373Y-100712037D01*
X109109557Y-100705519D01*
X109175740Y-100699000D01*
X109264260Y-100699000D01*
X109330443Y-100705519D01*
X109330443Y-100705519D01*
G37*
G36*
X111870443Y-100705519D02*
G01*
X111936627Y-100712037D01*
X112106466Y-100763557D01*
X112262991Y-100847222D01*
X112298729Y-100876552D01*
X112400186Y-100959814D01*
X112483448Y-101061271D01*
X112512778Y-101097009D01*
X112596443Y-101253534D01*
X112647963Y-101423373D01*
X112665359Y-101600000D01*
X112647963Y-101776627D01*
X112596443Y-101946466D01*
X112512778Y-102102991D01*
X112483448Y-102138729D01*
X112400186Y-102240186D01*
X112298729Y-102323448D01*
X112262991Y-102352778D01*
X112106466Y-102436443D01*
X111936627Y-102487963D01*
X111870442Y-102494482D01*
X111804260Y-102501000D01*
X111715740Y-102501000D01*
X111649558Y-102494482D01*
X111583373Y-102487963D01*
X111413534Y-102436443D01*
X111257009Y-102352778D01*
X111221271Y-102323448D01*
X111119814Y-102240186D01*
X111036552Y-102138729D01*
X111007222Y-102102991D01*
X110923557Y-101946466D01*
X110872037Y-101776627D01*
X110854641Y-101600000D01*
X110872037Y-101423373D01*
X110923557Y-101253534D01*
X111007222Y-101097009D01*
X111036552Y-101061271D01*
X111119814Y-100959814D01*
X111221271Y-100876552D01*
X111257009Y-100847222D01*
X111413534Y-100763557D01*
X111583373Y-100712037D01*
X111649557Y-100705519D01*
X111715740Y-100699000D01*
X111804260Y-100699000D01*
X111870443Y-100705519D01*
X111870443Y-100705519D01*
G37*
G36*
X114410443Y-100705519D02*
G01*
X114476627Y-100712037D01*
X114646466Y-100763557D01*
X114802991Y-100847222D01*
X114838729Y-100876552D01*
X114940186Y-100959814D01*
X115023448Y-101061271D01*
X115052778Y-101097009D01*
X115136443Y-101253534D01*
X115187963Y-101423373D01*
X115205359Y-101600000D01*
X115187963Y-101776627D01*
X115136443Y-101946466D01*
X115052778Y-102102991D01*
X115023448Y-102138729D01*
X114940186Y-102240186D01*
X114838729Y-102323448D01*
X114802991Y-102352778D01*
X114646466Y-102436443D01*
X114476627Y-102487963D01*
X114410442Y-102494482D01*
X114344260Y-102501000D01*
X114255740Y-102501000D01*
X114189558Y-102494482D01*
X114123373Y-102487963D01*
X113953534Y-102436443D01*
X113797009Y-102352778D01*
X113761271Y-102323448D01*
X113659814Y-102240186D01*
X113576552Y-102138729D01*
X113547222Y-102102991D01*
X113463557Y-101946466D01*
X113412037Y-101776627D01*
X113394641Y-101600000D01*
X113412037Y-101423373D01*
X113463557Y-101253534D01*
X113547222Y-101097009D01*
X113576552Y-101061271D01*
X113659814Y-100959814D01*
X113761271Y-100876552D01*
X113797009Y-100847222D01*
X113953534Y-100763557D01*
X114123373Y-100712037D01*
X114189557Y-100705519D01*
X114255740Y-100699000D01*
X114344260Y-100699000D01*
X114410443Y-100705519D01*
X114410443Y-100705519D01*
G37*
G36*
X116950443Y-100705519D02*
G01*
X117016627Y-100712037D01*
X117186466Y-100763557D01*
X117342991Y-100847222D01*
X117378729Y-100876552D01*
X117480186Y-100959814D01*
X117563448Y-101061271D01*
X117592778Y-101097009D01*
X117676443Y-101253534D01*
X117727963Y-101423373D01*
X117745359Y-101600000D01*
X117727963Y-101776627D01*
X117676443Y-101946466D01*
X117592778Y-102102991D01*
X117563448Y-102138729D01*
X117480186Y-102240186D01*
X117378729Y-102323448D01*
X117342991Y-102352778D01*
X117186466Y-102436443D01*
X117016627Y-102487963D01*
X116950442Y-102494482D01*
X116884260Y-102501000D01*
X116795740Y-102501000D01*
X116729558Y-102494482D01*
X116663373Y-102487963D01*
X116493534Y-102436443D01*
X116337009Y-102352778D01*
X116301271Y-102323448D01*
X116199814Y-102240186D01*
X116116552Y-102138729D01*
X116087222Y-102102991D01*
X116003557Y-101946466D01*
X115952037Y-101776627D01*
X115934641Y-101600000D01*
X115952037Y-101423373D01*
X116003557Y-101253534D01*
X116087222Y-101097009D01*
X116116552Y-101061271D01*
X116199814Y-100959814D01*
X116301271Y-100876552D01*
X116337009Y-100847222D01*
X116493534Y-100763557D01*
X116663373Y-100712037D01*
X116729557Y-100705519D01*
X116795740Y-100699000D01*
X116884260Y-100699000D01*
X116950443Y-100705519D01*
X116950443Y-100705519D01*
G37*
G36*
X119490443Y-100705519D02*
G01*
X119556627Y-100712037D01*
X119726466Y-100763557D01*
X119882991Y-100847222D01*
X119918729Y-100876552D01*
X120020186Y-100959814D01*
X120103448Y-101061271D01*
X120132778Y-101097009D01*
X120216443Y-101253534D01*
X120267963Y-101423373D01*
X120285359Y-101600000D01*
X120267963Y-101776627D01*
X120216443Y-101946466D01*
X120132778Y-102102991D01*
X120103448Y-102138729D01*
X120020186Y-102240186D01*
X119918729Y-102323448D01*
X119882991Y-102352778D01*
X119726466Y-102436443D01*
X119556627Y-102487963D01*
X119490442Y-102494482D01*
X119424260Y-102501000D01*
X119335740Y-102501000D01*
X119269558Y-102494482D01*
X119203373Y-102487963D01*
X119033534Y-102436443D01*
X118877009Y-102352778D01*
X118841271Y-102323448D01*
X118739814Y-102240186D01*
X118656552Y-102138729D01*
X118627222Y-102102991D01*
X118543557Y-101946466D01*
X118492037Y-101776627D01*
X118474641Y-101600000D01*
X118492037Y-101423373D01*
X118543557Y-101253534D01*
X118627222Y-101097009D01*
X118656552Y-101061271D01*
X118739814Y-100959814D01*
X118841271Y-100876552D01*
X118877009Y-100847222D01*
X119033534Y-100763557D01*
X119203373Y-100712037D01*
X119269557Y-100705519D01*
X119335740Y-100699000D01*
X119424260Y-100699000D01*
X119490443Y-100705519D01*
X119490443Y-100705519D01*
G37*
G36*
X127110443Y-100705519D02*
G01*
X127176627Y-100712037D01*
X127346466Y-100763557D01*
X127502991Y-100847222D01*
X127538729Y-100876552D01*
X127640186Y-100959814D01*
X127723448Y-101061271D01*
X127752778Y-101097009D01*
X127836443Y-101253534D01*
X127887963Y-101423373D01*
X127905359Y-101600000D01*
X127887963Y-101776627D01*
X127836443Y-101946466D01*
X127752778Y-102102991D01*
X127723448Y-102138729D01*
X127640186Y-102240186D01*
X127538729Y-102323448D01*
X127502991Y-102352778D01*
X127346466Y-102436443D01*
X127176627Y-102487963D01*
X127110442Y-102494482D01*
X127044260Y-102501000D01*
X126955740Y-102501000D01*
X126889558Y-102494482D01*
X126823373Y-102487963D01*
X126653534Y-102436443D01*
X126497009Y-102352778D01*
X126461271Y-102323448D01*
X126359814Y-102240186D01*
X126276552Y-102138729D01*
X126247222Y-102102991D01*
X126163557Y-101946466D01*
X126112037Y-101776627D01*
X126094641Y-101600000D01*
X126112037Y-101423373D01*
X126163557Y-101253534D01*
X126247222Y-101097009D01*
X126276552Y-101061271D01*
X126359814Y-100959814D01*
X126461271Y-100876552D01*
X126497009Y-100847222D01*
X126653534Y-100763557D01*
X126823373Y-100712037D01*
X126889557Y-100705519D01*
X126955740Y-100699000D01*
X127044260Y-100699000D01*
X127110443Y-100705519D01*
X127110443Y-100705519D01*
G37*
G36*
X122030443Y-100705519D02*
G01*
X122096627Y-100712037D01*
X122266466Y-100763557D01*
X122422991Y-100847222D01*
X122458729Y-100876552D01*
X122560186Y-100959814D01*
X122643448Y-101061271D01*
X122672778Y-101097009D01*
X122756443Y-101253534D01*
X122807963Y-101423373D01*
X122825359Y-101600000D01*
X122807963Y-101776627D01*
X122756443Y-101946466D01*
X122672778Y-102102991D01*
X122643448Y-102138729D01*
X122560186Y-102240186D01*
X122458729Y-102323448D01*
X122422991Y-102352778D01*
X122266466Y-102436443D01*
X122096627Y-102487963D01*
X122030442Y-102494482D01*
X121964260Y-102501000D01*
X121875740Y-102501000D01*
X121809558Y-102494482D01*
X121743373Y-102487963D01*
X121573534Y-102436443D01*
X121417009Y-102352778D01*
X121381271Y-102323448D01*
X121279814Y-102240186D01*
X121196552Y-102138729D01*
X121167222Y-102102991D01*
X121083557Y-101946466D01*
X121032037Y-101776627D01*
X121014641Y-101600000D01*
X121032037Y-101423373D01*
X121083557Y-101253534D01*
X121167222Y-101097009D01*
X121196552Y-101061271D01*
X121279814Y-100959814D01*
X121381271Y-100876552D01*
X121417009Y-100847222D01*
X121573534Y-100763557D01*
X121743373Y-100712037D01*
X121809557Y-100705519D01*
X121875740Y-100699000D01*
X121964260Y-100699000D01*
X122030443Y-100705519D01*
X122030443Y-100705519D01*
G37*
M02*
