M48
; DRILL file {KiCad 5.1.2-f72e74a~84~ubuntu18.04.1} date Sat 20 Jul 2019 11:54:12 AM EDT
; FORMAT={-:-/ absolute / inch / decimal}
; #@! TF.CreationDate,2019-07-20T11:54:12-04:00
; #@! TF.GenerationSoftware,Kicad,Pcbnew,5.1.2-f72e74a~84~ubuntu18.04.1
FMAT,2
INCH
T1C0.0157
T2C0.0394
T3C0.1260
%
G90
G05
T1
X3.98Y-4.46
X3.98Y-4.56
X3.998Y-4.211
X3.999Y-4.384
X4.04Y-4.6
X4.043Y-4.211
X4.05Y-4.08
X4.0902Y-4.1952
X4.1Y-4.4
X4.1265Y-4.3565
X4.136Y-4.207
X4.14Y-4.6
X4.22Y-4.42
X4.22Y-4.5
X4.22Y-4.58
X4.26Y-4.21
X4.28Y-4.42
X4.28Y-4.5
X4.28Y-4.58
X4.37Y-4.14
X4.4Y-4.2
X4.45Y-4.2
X4.5Y-4.2
X4.5584Y-4.2035
X4.63Y-4.235
X4.685Y-4.23
X4.75Y-4.25
X4.785Y-4.28
X4.83Y-4.325
X4.885Y-4.285
X4.905Y-4.33
X4.975Y-4.32
X5.03Y-4.59
X5.035Y-4.52
X5.1Y-4.555
X5.135Y-4.58
X5.17Y-4.375
X5.22Y-4.09
X5.225Y-4.275
X5.23Y-4.415
X5.25Y-4.06
X5.275Y-4.1
X5.3Y-4.36
X5.31Y-4.44
X5.325Y-4.29
X5.365Y-4.365
X5.6Y-4.55
X5.745Y-4.42
X5.815Y-4.425
X5.875Y-4.425
X5.89Y-4.49
X5.915Y-4.385
X5.96Y-4.475
X5.97Y-4.34
X5.97Y-4.39
X6.0Y-4.44
X6.05Y-4.34
X6.05Y-4.39
X6.05Y-4.44
X6.14Y-4.45
X6.15Y-4.555
X6.15Y-4.605
X6.2Y-4.45
X6.28Y-4.26
X6.31Y-4.5
X6.33Y-4.55
X6.35Y-4.44
X6.36Y-4.6
X6.38Y-4.54
X6.4Y-4.39
X6.42Y-4.6
X6.46Y-4.35
X6.48Y-4.6
X6.52Y-4.2
X6.53Y-4.35
X6.57Y-4.155
X6.57Y-4.54
X6.57Y-4.6
X6.58Y-4.4
X6.615Y-4.2
X6.62Y-4.25
X6.63Y-4.44
X6.63Y-4.54
X6.63Y-4.6
X6.645Y-4.12
X6.7Y-4.6
X6.705Y-4.1
T2
X6.7Y-4.2
X6.7Y-4.3
X6.7Y-4.4
X6.7Y-4.5
X4.0Y-4.0
X4.1Y-4.0
X4.2Y-4.0
X4.3Y-4.0
X4.4Y-4.0
X4.5Y-4.0
X4.6Y-4.0
X4.7Y-4.0
X4.8Y-4.0
X4.9Y-4.0
X5.0Y-4.0
X5.1Y-4.0
X5.2Y-4.0
X5.3Y-4.0
X5.4Y-4.0
X5.5Y-4.0
X5.6Y-4.0
X5.7Y-4.0
X5.8Y-4.0
X5.9Y-4.0
X6.0Y-4.0
X6.1Y-4.0
X6.2Y-4.0
X6.3Y-4.0
X6.4Y-4.0
X6.5Y-4.0
X6.6Y-4.0
X6.7Y-4.0
T3
X6.475Y-4.5
X4.08Y-4.5
T0
M30
