G04 #@! TF.GenerationSoftware,KiCad,Pcbnew,5.1.2-f72e74a~84~ubuntu18.04.1*
G04 #@! TF.CreationDate,2019-07-20T11:54:10-04:00*
G04 #@! TF.ProjectId,stm32G0_basic,73746d33-3247-4305-9f62-617369632e6b,rev?*
G04 #@! TF.SameCoordinates,Original*
G04 #@! TF.FileFunction,Copper,L1,Top*
G04 #@! TF.FilePolarity,Positive*
%FSLAX46Y46*%
G04 Gerber Fmt 4.6, Leading zero omitted, Abs format (unit mm)*
G04 Created by KiCad (PCBNEW 5.1.2-f72e74a~84~ubuntu18.04.1) date 2019-07-20 11:54:10*
%MOMM*%
%LPD*%
G04 APERTURE LIST*
%ADD10R,1.000000X1.000000*%
%ADD11R,1.700000X1.700000*%
%ADD12O,1.700000X1.700000*%
%ADD13R,4.500000X2.000000*%
%ADD14C,0.100000*%
%ADD15C,1.250000*%
%ADD16R,2.000000X1.500000*%
%ADD17C,0.500000*%
%ADD18R,0.650000X1.060000*%
%ADD19C,0.800000*%
%ADD20C,0.250000*%
%ADD21C,0.254000*%
G04 APERTURE END LIST*
D10*
X103891400Y-105232200D03*
X101391400Y-105232200D03*
D11*
X101600000Y-101600000D03*
D12*
X104140000Y-101600000D03*
X106680000Y-101600000D03*
X109220000Y-101600000D03*
X111760000Y-101600000D03*
X114300000Y-101600000D03*
X116840000Y-101600000D03*
X119380000Y-101600000D03*
X121920000Y-101600000D03*
X124460000Y-101600000D03*
X127000000Y-101600000D03*
X129540000Y-101600000D03*
X132080000Y-101600000D03*
X134620000Y-101600000D03*
X137160000Y-101600000D03*
X139700000Y-101600000D03*
X142240000Y-101600000D03*
X144780000Y-101600000D03*
X147320000Y-101600000D03*
X149860000Y-101600000D03*
X152400000Y-101600000D03*
X154940000Y-101600000D03*
X157480000Y-101600000D03*
X160020000Y-101600000D03*
X162560000Y-101600000D03*
X165100000Y-101600000D03*
X167640000Y-101600000D03*
X170180000Y-101600000D03*
D13*
X112785000Y-113538000D03*
X121285000Y-113538000D03*
D14*
G36*
X109777904Y-104536204D02*
G01*
X109802173Y-104539804D01*
X109825971Y-104545765D01*
X109849071Y-104554030D01*
X109871249Y-104564520D01*
X109892293Y-104577133D01*
X109911998Y-104591747D01*
X109930177Y-104608223D01*
X109946653Y-104626402D01*
X109961267Y-104646107D01*
X109973880Y-104667151D01*
X109984370Y-104689329D01*
X109992635Y-104712429D01*
X109998596Y-104736227D01*
X110002196Y-104760496D01*
X110003400Y-104785000D01*
X110003400Y-106035000D01*
X110002196Y-106059504D01*
X109998596Y-106083773D01*
X109992635Y-106107571D01*
X109984370Y-106130671D01*
X109973880Y-106152849D01*
X109961267Y-106173893D01*
X109946653Y-106193598D01*
X109930177Y-106211777D01*
X109911998Y-106228253D01*
X109892293Y-106242867D01*
X109871249Y-106255480D01*
X109849071Y-106265970D01*
X109825971Y-106274235D01*
X109802173Y-106280196D01*
X109777904Y-106283796D01*
X109753400Y-106285000D01*
X109003400Y-106285000D01*
X108978896Y-106283796D01*
X108954627Y-106280196D01*
X108930829Y-106274235D01*
X108907729Y-106265970D01*
X108885551Y-106255480D01*
X108864507Y-106242867D01*
X108844802Y-106228253D01*
X108826623Y-106211777D01*
X108810147Y-106193598D01*
X108795533Y-106173893D01*
X108782920Y-106152849D01*
X108772430Y-106130671D01*
X108764165Y-106107571D01*
X108758204Y-106083773D01*
X108754604Y-106059504D01*
X108753400Y-106035000D01*
X108753400Y-104785000D01*
X108754604Y-104760496D01*
X108758204Y-104736227D01*
X108764165Y-104712429D01*
X108772430Y-104689329D01*
X108782920Y-104667151D01*
X108795533Y-104646107D01*
X108810147Y-104626402D01*
X108826623Y-104608223D01*
X108844802Y-104591747D01*
X108864507Y-104577133D01*
X108885551Y-104564520D01*
X108907729Y-104554030D01*
X108930829Y-104545765D01*
X108954627Y-104539804D01*
X108978896Y-104536204D01*
X109003400Y-104535000D01*
X109753400Y-104535000D01*
X109777904Y-104536204D01*
X109777904Y-104536204D01*
G37*
D15*
X109378400Y-105410000D03*
D14*
G36*
X106977904Y-104536204D02*
G01*
X107002173Y-104539804D01*
X107025971Y-104545765D01*
X107049071Y-104554030D01*
X107071249Y-104564520D01*
X107092293Y-104577133D01*
X107111998Y-104591747D01*
X107130177Y-104608223D01*
X107146653Y-104626402D01*
X107161267Y-104646107D01*
X107173880Y-104667151D01*
X107184370Y-104689329D01*
X107192635Y-104712429D01*
X107198596Y-104736227D01*
X107202196Y-104760496D01*
X107203400Y-104785000D01*
X107203400Y-106035000D01*
X107202196Y-106059504D01*
X107198596Y-106083773D01*
X107192635Y-106107571D01*
X107184370Y-106130671D01*
X107173880Y-106152849D01*
X107161267Y-106173893D01*
X107146653Y-106193598D01*
X107130177Y-106211777D01*
X107111998Y-106228253D01*
X107092293Y-106242867D01*
X107071249Y-106255480D01*
X107049071Y-106265970D01*
X107025971Y-106274235D01*
X107002173Y-106280196D01*
X106977904Y-106283796D01*
X106953400Y-106285000D01*
X106203400Y-106285000D01*
X106178896Y-106283796D01*
X106154627Y-106280196D01*
X106130829Y-106274235D01*
X106107729Y-106265970D01*
X106085551Y-106255480D01*
X106064507Y-106242867D01*
X106044802Y-106228253D01*
X106026623Y-106211777D01*
X106010147Y-106193598D01*
X105995533Y-106173893D01*
X105982920Y-106152849D01*
X105972430Y-106130671D01*
X105964165Y-106107571D01*
X105958204Y-106083773D01*
X105954604Y-106059504D01*
X105953400Y-106035000D01*
X105953400Y-104785000D01*
X105954604Y-104760496D01*
X105958204Y-104736227D01*
X105964165Y-104712429D01*
X105972430Y-104689329D01*
X105982920Y-104667151D01*
X105995533Y-104646107D01*
X106010147Y-104626402D01*
X106026623Y-104608223D01*
X106044802Y-104591747D01*
X106064507Y-104577133D01*
X106085551Y-104564520D01*
X106107729Y-104554030D01*
X106130829Y-104545765D01*
X106154627Y-104539804D01*
X106178896Y-104536204D01*
X106203400Y-104535000D01*
X106953400Y-104535000D01*
X106977904Y-104536204D01*
X106977904Y-104536204D01*
G37*
D15*
X106578400Y-105410000D03*
D14*
G36*
X119404504Y-108473204D02*
G01*
X119428773Y-108476804D01*
X119452571Y-108482765D01*
X119475671Y-108491030D01*
X119497849Y-108501520D01*
X119518893Y-108514133D01*
X119538598Y-108528747D01*
X119556777Y-108545223D01*
X119573253Y-108563402D01*
X119587867Y-108583107D01*
X119600480Y-108604151D01*
X119610970Y-108626329D01*
X119619235Y-108649429D01*
X119625196Y-108673227D01*
X119628796Y-108697496D01*
X119630000Y-108722000D01*
X119630000Y-109972000D01*
X119628796Y-109996504D01*
X119625196Y-110020773D01*
X119619235Y-110044571D01*
X119610970Y-110067671D01*
X119600480Y-110089849D01*
X119587867Y-110110893D01*
X119573253Y-110130598D01*
X119556777Y-110148777D01*
X119538598Y-110165253D01*
X119518893Y-110179867D01*
X119497849Y-110192480D01*
X119475671Y-110202970D01*
X119452571Y-110211235D01*
X119428773Y-110217196D01*
X119404504Y-110220796D01*
X119380000Y-110222000D01*
X118630000Y-110222000D01*
X118605496Y-110220796D01*
X118581227Y-110217196D01*
X118557429Y-110211235D01*
X118534329Y-110202970D01*
X118512151Y-110192480D01*
X118491107Y-110179867D01*
X118471402Y-110165253D01*
X118453223Y-110148777D01*
X118436747Y-110130598D01*
X118422133Y-110110893D01*
X118409520Y-110089849D01*
X118399030Y-110067671D01*
X118390765Y-110044571D01*
X118384804Y-110020773D01*
X118381204Y-109996504D01*
X118380000Y-109972000D01*
X118380000Y-108722000D01*
X118381204Y-108697496D01*
X118384804Y-108673227D01*
X118390765Y-108649429D01*
X118399030Y-108626329D01*
X118409520Y-108604151D01*
X118422133Y-108583107D01*
X118436747Y-108563402D01*
X118453223Y-108545223D01*
X118471402Y-108528747D01*
X118491107Y-108514133D01*
X118512151Y-108501520D01*
X118534329Y-108491030D01*
X118557429Y-108482765D01*
X118581227Y-108476804D01*
X118605496Y-108473204D01*
X118630000Y-108472000D01*
X119380000Y-108472000D01*
X119404504Y-108473204D01*
X119404504Y-108473204D01*
G37*
D15*
X119005000Y-109347000D03*
D14*
G36*
X116604504Y-108473204D02*
G01*
X116628773Y-108476804D01*
X116652571Y-108482765D01*
X116675671Y-108491030D01*
X116697849Y-108501520D01*
X116718893Y-108514133D01*
X116738598Y-108528747D01*
X116756777Y-108545223D01*
X116773253Y-108563402D01*
X116787867Y-108583107D01*
X116800480Y-108604151D01*
X116810970Y-108626329D01*
X116819235Y-108649429D01*
X116825196Y-108673227D01*
X116828796Y-108697496D01*
X116830000Y-108722000D01*
X116830000Y-109972000D01*
X116828796Y-109996504D01*
X116825196Y-110020773D01*
X116819235Y-110044571D01*
X116810970Y-110067671D01*
X116800480Y-110089849D01*
X116787867Y-110110893D01*
X116773253Y-110130598D01*
X116756777Y-110148777D01*
X116738598Y-110165253D01*
X116718893Y-110179867D01*
X116697849Y-110192480D01*
X116675671Y-110202970D01*
X116652571Y-110211235D01*
X116628773Y-110217196D01*
X116604504Y-110220796D01*
X116580000Y-110222000D01*
X115830000Y-110222000D01*
X115805496Y-110220796D01*
X115781227Y-110217196D01*
X115757429Y-110211235D01*
X115734329Y-110202970D01*
X115712151Y-110192480D01*
X115691107Y-110179867D01*
X115671402Y-110165253D01*
X115653223Y-110148777D01*
X115636747Y-110130598D01*
X115622133Y-110110893D01*
X115609520Y-110089849D01*
X115599030Y-110067671D01*
X115590765Y-110044571D01*
X115584804Y-110020773D01*
X115581204Y-109996504D01*
X115580000Y-109972000D01*
X115580000Y-108722000D01*
X115581204Y-108697496D01*
X115584804Y-108673227D01*
X115590765Y-108649429D01*
X115599030Y-108626329D01*
X115609520Y-108604151D01*
X115622133Y-108583107D01*
X115636747Y-108563402D01*
X115653223Y-108545223D01*
X115671402Y-108528747D01*
X115691107Y-108514133D01*
X115712151Y-108501520D01*
X115734329Y-108491030D01*
X115757429Y-108482765D01*
X115781227Y-108476804D01*
X115805496Y-108473204D01*
X115830000Y-108472000D01*
X116580000Y-108472000D01*
X116604504Y-108473204D01*
X116604504Y-108473204D01*
G37*
D15*
X116205000Y-109347000D03*
D14*
G36*
X111524504Y-108473204D02*
G01*
X111548773Y-108476804D01*
X111572571Y-108482765D01*
X111595671Y-108491030D01*
X111617849Y-108501520D01*
X111638893Y-108514133D01*
X111658598Y-108528747D01*
X111676777Y-108545223D01*
X111693253Y-108563402D01*
X111707867Y-108583107D01*
X111720480Y-108604151D01*
X111730970Y-108626329D01*
X111739235Y-108649429D01*
X111745196Y-108673227D01*
X111748796Y-108697496D01*
X111750000Y-108722000D01*
X111750000Y-109972000D01*
X111748796Y-109996504D01*
X111745196Y-110020773D01*
X111739235Y-110044571D01*
X111730970Y-110067671D01*
X111720480Y-110089849D01*
X111707867Y-110110893D01*
X111693253Y-110130598D01*
X111676777Y-110148777D01*
X111658598Y-110165253D01*
X111638893Y-110179867D01*
X111617849Y-110192480D01*
X111595671Y-110202970D01*
X111572571Y-110211235D01*
X111548773Y-110217196D01*
X111524504Y-110220796D01*
X111500000Y-110222000D01*
X110750000Y-110222000D01*
X110725496Y-110220796D01*
X110701227Y-110217196D01*
X110677429Y-110211235D01*
X110654329Y-110202970D01*
X110632151Y-110192480D01*
X110611107Y-110179867D01*
X110591402Y-110165253D01*
X110573223Y-110148777D01*
X110556747Y-110130598D01*
X110542133Y-110110893D01*
X110529520Y-110089849D01*
X110519030Y-110067671D01*
X110510765Y-110044571D01*
X110504804Y-110020773D01*
X110501204Y-109996504D01*
X110500000Y-109972000D01*
X110500000Y-108722000D01*
X110501204Y-108697496D01*
X110504804Y-108673227D01*
X110510765Y-108649429D01*
X110519030Y-108626329D01*
X110529520Y-108604151D01*
X110542133Y-108583107D01*
X110556747Y-108563402D01*
X110573223Y-108545223D01*
X110591402Y-108528747D01*
X110611107Y-108514133D01*
X110632151Y-108501520D01*
X110654329Y-108491030D01*
X110677429Y-108482765D01*
X110701227Y-108476804D01*
X110725496Y-108473204D01*
X110750000Y-108472000D01*
X111500000Y-108472000D01*
X111524504Y-108473204D01*
X111524504Y-108473204D01*
G37*
D15*
X111125000Y-109347000D03*
D14*
G36*
X114324504Y-108473204D02*
G01*
X114348773Y-108476804D01*
X114372571Y-108482765D01*
X114395671Y-108491030D01*
X114417849Y-108501520D01*
X114438893Y-108514133D01*
X114458598Y-108528747D01*
X114476777Y-108545223D01*
X114493253Y-108563402D01*
X114507867Y-108583107D01*
X114520480Y-108604151D01*
X114530970Y-108626329D01*
X114539235Y-108649429D01*
X114545196Y-108673227D01*
X114548796Y-108697496D01*
X114550000Y-108722000D01*
X114550000Y-109972000D01*
X114548796Y-109996504D01*
X114545196Y-110020773D01*
X114539235Y-110044571D01*
X114530970Y-110067671D01*
X114520480Y-110089849D01*
X114507867Y-110110893D01*
X114493253Y-110130598D01*
X114476777Y-110148777D01*
X114458598Y-110165253D01*
X114438893Y-110179867D01*
X114417849Y-110192480D01*
X114395671Y-110202970D01*
X114372571Y-110211235D01*
X114348773Y-110217196D01*
X114324504Y-110220796D01*
X114300000Y-110222000D01*
X113550000Y-110222000D01*
X113525496Y-110220796D01*
X113501227Y-110217196D01*
X113477429Y-110211235D01*
X113454329Y-110202970D01*
X113432151Y-110192480D01*
X113411107Y-110179867D01*
X113391402Y-110165253D01*
X113373223Y-110148777D01*
X113356747Y-110130598D01*
X113342133Y-110110893D01*
X113329520Y-110089849D01*
X113319030Y-110067671D01*
X113310765Y-110044571D01*
X113304804Y-110020773D01*
X113301204Y-109996504D01*
X113300000Y-109972000D01*
X113300000Y-108722000D01*
X113301204Y-108697496D01*
X113304804Y-108673227D01*
X113310765Y-108649429D01*
X113319030Y-108626329D01*
X113329520Y-108604151D01*
X113342133Y-108583107D01*
X113356747Y-108563402D01*
X113373223Y-108545223D01*
X113391402Y-108528747D01*
X113411107Y-108514133D01*
X113432151Y-108501520D01*
X113454329Y-108491030D01*
X113477429Y-108482765D01*
X113501227Y-108476804D01*
X113525496Y-108473204D01*
X113550000Y-108472000D01*
X114300000Y-108472000D01*
X114324504Y-108473204D01*
X114324504Y-108473204D01*
G37*
D15*
X113925000Y-109347000D03*
D14*
G36*
X104799504Y-108219204D02*
G01*
X104823773Y-108222804D01*
X104847571Y-108228765D01*
X104870671Y-108237030D01*
X104892849Y-108247520D01*
X104913893Y-108260133D01*
X104933598Y-108274747D01*
X104951777Y-108291223D01*
X104968253Y-108309402D01*
X104982867Y-108329107D01*
X104995480Y-108350151D01*
X105005970Y-108372329D01*
X105014235Y-108395429D01*
X105020196Y-108419227D01*
X105023796Y-108443496D01*
X105025000Y-108468000D01*
X105025000Y-109718000D01*
X105023796Y-109742504D01*
X105020196Y-109766773D01*
X105014235Y-109790571D01*
X105005970Y-109813671D01*
X104995480Y-109835849D01*
X104982867Y-109856893D01*
X104968253Y-109876598D01*
X104951777Y-109894777D01*
X104933598Y-109911253D01*
X104913893Y-109925867D01*
X104892849Y-109938480D01*
X104870671Y-109948970D01*
X104847571Y-109957235D01*
X104823773Y-109963196D01*
X104799504Y-109966796D01*
X104775000Y-109968000D01*
X104025000Y-109968000D01*
X104000496Y-109966796D01*
X103976227Y-109963196D01*
X103952429Y-109957235D01*
X103929329Y-109948970D01*
X103907151Y-109938480D01*
X103886107Y-109925867D01*
X103866402Y-109911253D01*
X103848223Y-109894777D01*
X103831747Y-109876598D01*
X103817133Y-109856893D01*
X103804520Y-109835849D01*
X103794030Y-109813671D01*
X103785765Y-109790571D01*
X103779804Y-109766773D01*
X103776204Y-109742504D01*
X103775000Y-109718000D01*
X103775000Y-108468000D01*
X103776204Y-108443496D01*
X103779804Y-108419227D01*
X103785765Y-108395429D01*
X103794030Y-108372329D01*
X103804520Y-108350151D01*
X103817133Y-108329107D01*
X103831747Y-108309402D01*
X103848223Y-108291223D01*
X103866402Y-108274747D01*
X103886107Y-108260133D01*
X103907151Y-108247520D01*
X103929329Y-108237030D01*
X103952429Y-108228765D01*
X103976227Y-108222804D01*
X104000496Y-108219204D01*
X104025000Y-108218000D01*
X104775000Y-108218000D01*
X104799504Y-108219204D01*
X104799504Y-108219204D01*
G37*
D15*
X104400000Y-109093000D03*
D14*
G36*
X101999504Y-108219204D02*
G01*
X102023773Y-108222804D01*
X102047571Y-108228765D01*
X102070671Y-108237030D01*
X102092849Y-108247520D01*
X102113893Y-108260133D01*
X102133598Y-108274747D01*
X102151777Y-108291223D01*
X102168253Y-108309402D01*
X102182867Y-108329107D01*
X102195480Y-108350151D01*
X102205970Y-108372329D01*
X102214235Y-108395429D01*
X102220196Y-108419227D01*
X102223796Y-108443496D01*
X102225000Y-108468000D01*
X102225000Y-109718000D01*
X102223796Y-109742504D01*
X102220196Y-109766773D01*
X102214235Y-109790571D01*
X102205970Y-109813671D01*
X102195480Y-109835849D01*
X102182867Y-109856893D01*
X102168253Y-109876598D01*
X102151777Y-109894777D01*
X102133598Y-109911253D01*
X102113893Y-109925867D01*
X102092849Y-109938480D01*
X102070671Y-109948970D01*
X102047571Y-109957235D01*
X102023773Y-109963196D01*
X101999504Y-109966796D01*
X101975000Y-109968000D01*
X101225000Y-109968000D01*
X101200496Y-109966796D01*
X101176227Y-109963196D01*
X101152429Y-109957235D01*
X101129329Y-109948970D01*
X101107151Y-109938480D01*
X101086107Y-109925867D01*
X101066402Y-109911253D01*
X101048223Y-109894777D01*
X101031747Y-109876598D01*
X101017133Y-109856893D01*
X101004520Y-109835849D01*
X100994030Y-109813671D01*
X100985765Y-109790571D01*
X100979804Y-109766773D01*
X100976204Y-109742504D01*
X100975000Y-109718000D01*
X100975000Y-108468000D01*
X100976204Y-108443496D01*
X100979804Y-108419227D01*
X100985765Y-108395429D01*
X100994030Y-108372329D01*
X101004520Y-108350151D01*
X101017133Y-108329107D01*
X101031747Y-108309402D01*
X101048223Y-108291223D01*
X101066402Y-108274747D01*
X101086107Y-108260133D01*
X101107151Y-108247520D01*
X101129329Y-108237030D01*
X101152429Y-108228765D01*
X101176227Y-108222804D01*
X101200496Y-108219204D01*
X101225000Y-108218000D01*
X101975000Y-108218000D01*
X101999504Y-108219204D01*
X101999504Y-108219204D01*
G37*
D15*
X101600000Y-109093000D03*
D14*
G36*
X126506504Y-113041204D02*
G01*
X126530773Y-113044804D01*
X126554571Y-113050765D01*
X126577671Y-113059030D01*
X126599849Y-113069520D01*
X126620893Y-113082133D01*
X126640598Y-113096747D01*
X126658777Y-113113223D01*
X126675253Y-113131402D01*
X126689867Y-113151107D01*
X126702480Y-113172151D01*
X126712970Y-113194329D01*
X126721235Y-113217429D01*
X126727196Y-113241227D01*
X126730796Y-113265496D01*
X126732000Y-113290000D01*
X126732000Y-114040000D01*
X126730796Y-114064504D01*
X126727196Y-114088773D01*
X126721235Y-114112571D01*
X126712970Y-114135671D01*
X126702480Y-114157849D01*
X126689867Y-114178893D01*
X126675253Y-114198598D01*
X126658777Y-114216777D01*
X126640598Y-114233253D01*
X126620893Y-114247867D01*
X126599849Y-114260480D01*
X126577671Y-114270970D01*
X126554571Y-114279235D01*
X126530773Y-114285196D01*
X126506504Y-114288796D01*
X126482000Y-114290000D01*
X125232000Y-114290000D01*
X125207496Y-114288796D01*
X125183227Y-114285196D01*
X125159429Y-114279235D01*
X125136329Y-114270970D01*
X125114151Y-114260480D01*
X125093107Y-114247867D01*
X125073402Y-114233253D01*
X125055223Y-114216777D01*
X125038747Y-114198598D01*
X125024133Y-114178893D01*
X125011520Y-114157849D01*
X125001030Y-114135671D01*
X124992765Y-114112571D01*
X124986804Y-114088773D01*
X124983204Y-114064504D01*
X124982000Y-114040000D01*
X124982000Y-113290000D01*
X124983204Y-113265496D01*
X124986804Y-113241227D01*
X124992765Y-113217429D01*
X125001030Y-113194329D01*
X125011520Y-113172151D01*
X125024133Y-113151107D01*
X125038747Y-113131402D01*
X125055223Y-113113223D01*
X125073402Y-113096747D01*
X125093107Y-113082133D01*
X125114151Y-113069520D01*
X125136329Y-113059030D01*
X125159429Y-113050765D01*
X125183227Y-113044804D01*
X125207496Y-113041204D01*
X125232000Y-113040000D01*
X126482000Y-113040000D01*
X126506504Y-113041204D01*
X126506504Y-113041204D01*
G37*
D15*
X125857000Y-113665000D03*
D14*
G36*
X126506504Y-115841204D02*
G01*
X126530773Y-115844804D01*
X126554571Y-115850765D01*
X126577671Y-115859030D01*
X126599849Y-115869520D01*
X126620893Y-115882133D01*
X126640598Y-115896747D01*
X126658777Y-115913223D01*
X126675253Y-115931402D01*
X126689867Y-115951107D01*
X126702480Y-115972151D01*
X126712970Y-115994329D01*
X126721235Y-116017429D01*
X126727196Y-116041227D01*
X126730796Y-116065496D01*
X126732000Y-116090000D01*
X126732000Y-116840000D01*
X126730796Y-116864504D01*
X126727196Y-116888773D01*
X126721235Y-116912571D01*
X126712970Y-116935671D01*
X126702480Y-116957849D01*
X126689867Y-116978893D01*
X126675253Y-116998598D01*
X126658777Y-117016777D01*
X126640598Y-117033253D01*
X126620893Y-117047867D01*
X126599849Y-117060480D01*
X126577671Y-117070970D01*
X126554571Y-117079235D01*
X126530773Y-117085196D01*
X126506504Y-117088796D01*
X126482000Y-117090000D01*
X125232000Y-117090000D01*
X125207496Y-117088796D01*
X125183227Y-117085196D01*
X125159429Y-117079235D01*
X125136329Y-117070970D01*
X125114151Y-117060480D01*
X125093107Y-117047867D01*
X125073402Y-117033253D01*
X125055223Y-117016777D01*
X125038747Y-116998598D01*
X125024133Y-116978893D01*
X125011520Y-116957849D01*
X125001030Y-116935671D01*
X124992765Y-116912571D01*
X124986804Y-116888773D01*
X124983204Y-116864504D01*
X124982000Y-116840000D01*
X124982000Y-116090000D01*
X124983204Y-116065496D01*
X124986804Y-116041227D01*
X124992765Y-116017429D01*
X125001030Y-115994329D01*
X125011520Y-115972151D01*
X125024133Y-115951107D01*
X125038747Y-115931402D01*
X125055223Y-115913223D01*
X125073402Y-115896747D01*
X125093107Y-115882133D01*
X125114151Y-115869520D01*
X125136329Y-115859030D01*
X125159429Y-115850765D01*
X125183227Y-115844804D01*
X125207496Y-115841204D01*
X125232000Y-115840000D01*
X126482000Y-115840000D01*
X126506504Y-115841204D01*
X126506504Y-115841204D01*
G37*
D15*
X125857000Y-116465000D03*
D14*
G36*
X148350504Y-113295204D02*
G01*
X148374773Y-113298804D01*
X148398571Y-113304765D01*
X148421671Y-113313030D01*
X148443849Y-113323520D01*
X148464893Y-113336133D01*
X148484598Y-113350747D01*
X148502777Y-113367223D01*
X148519253Y-113385402D01*
X148533867Y-113405107D01*
X148546480Y-113426151D01*
X148556970Y-113448329D01*
X148565235Y-113471429D01*
X148571196Y-113495227D01*
X148574796Y-113519496D01*
X148576000Y-113544000D01*
X148576000Y-114294000D01*
X148574796Y-114318504D01*
X148571196Y-114342773D01*
X148565235Y-114366571D01*
X148556970Y-114389671D01*
X148546480Y-114411849D01*
X148533867Y-114432893D01*
X148519253Y-114452598D01*
X148502777Y-114470777D01*
X148484598Y-114487253D01*
X148464893Y-114501867D01*
X148443849Y-114514480D01*
X148421671Y-114524970D01*
X148398571Y-114533235D01*
X148374773Y-114539196D01*
X148350504Y-114542796D01*
X148326000Y-114544000D01*
X147076000Y-114544000D01*
X147051496Y-114542796D01*
X147027227Y-114539196D01*
X147003429Y-114533235D01*
X146980329Y-114524970D01*
X146958151Y-114514480D01*
X146937107Y-114501867D01*
X146917402Y-114487253D01*
X146899223Y-114470777D01*
X146882747Y-114452598D01*
X146868133Y-114432893D01*
X146855520Y-114411849D01*
X146845030Y-114389671D01*
X146836765Y-114366571D01*
X146830804Y-114342773D01*
X146827204Y-114318504D01*
X146826000Y-114294000D01*
X146826000Y-113544000D01*
X146827204Y-113519496D01*
X146830804Y-113495227D01*
X146836765Y-113471429D01*
X146845030Y-113448329D01*
X146855520Y-113426151D01*
X146868133Y-113405107D01*
X146882747Y-113385402D01*
X146899223Y-113367223D01*
X146917402Y-113350747D01*
X146937107Y-113336133D01*
X146958151Y-113323520D01*
X146980329Y-113313030D01*
X147003429Y-113304765D01*
X147027227Y-113298804D01*
X147051496Y-113295204D01*
X147076000Y-113294000D01*
X148326000Y-113294000D01*
X148350504Y-113295204D01*
X148350504Y-113295204D01*
G37*
D15*
X147701000Y-113919000D03*
D14*
G36*
X148350504Y-116095204D02*
G01*
X148374773Y-116098804D01*
X148398571Y-116104765D01*
X148421671Y-116113030D01*
X148443849Y-116123520D01*
X148464893Y-116136133D01*
X148484598Y-116150747D01*
X148502777Y-116167223D01*
X148519253Y-116185402D01*
X148533867Y-116205107D01*
X148546480Y-116226151D01*
X148556970Y-116248329D01*
X148565235Y-116271429D01*
X148571196Y-116295227D01*
X148574796Y-116319496D01*
X148576000Y-116344000D01*
X148576000Y-117094000D01*
X148574796Y-117118504D01*
X148571196Y-117142773D01*
X148565235Y-117166571D01*
X148556970Y-117189671D01*
X148546480Y-117211849D01*
X148533867Y-117232893D01*
X148519253Y-117252598D01*
X148502777Y-117270777D01*
X148484598Y-117287253D01*
X148464893Y-117301867D01*
X148443849Y-117314480D01*
X148421671Y-117324970D01*
X148398571Y-117333235D01*
X148374773Y-117339196D01*
X148350504Y-117342796D01*
X148326000Y-117344000D01*
X147076000Y-117344000D01*
X147051496Y-117342796D01*
X147027227Y-117339196D01*
X147003429Y-117333235D01*
X146980329Y-117324970D01*
X146958151Y-117314480D01*
X146937107Y-117301867D01*
X146917402Y-117287253D01*
X146899223Y-117270777D01*
X146882747Y-117252598D01*
X146868133Y-117232893D01*
X146855520Y-117211849D01*
X146845030Y-117189671D01*
X146836765Y-117166571D01*
X146830804Y-117142773D01*
X146827204Y-117118504D01*
X146826000Y-117094000D01*
X146826000Y-116344000D01*
X146827204Y-116319496D01*
X146830804Y-116295227D01*
X146836765Y-116271429D01*
X146845030Y-116248329D01*
X146855520Y-116226151D01*
X146868133Y-116205107D01*
X146882747Y-116185402D01*
X146899223Y-116167223D01*
X146917402Y-116150747D01*
X146937107Y-116136133D01*
X146958151Y-116123520D01*
X146980329Y-116113030D01*
X147003429Y-116104765D01*
X147027227Y-116098804D01*
X147051496Y-116095204D01*
X147076000Y-116094000D01*
X148326000Y-116094000D01*
X148350504Y-116095204D01*
X148350504Y-116095204D01*
G37*
D15*
X147701000Y-116719000D03*
D11*
X170180000Y-106680000D03*
D12*
X170180000Y-109220000D03*
X170180000Y-111760000D03*
X170180000Y-114300000D03*
D14*
G36*
X159907504Y-111904204D02*
G01*
X159931773Y-111907804D01*
X159955571Y-111913765D01*
X159978671Y-111922030D01*
X160000849Y-111932520D01*
X160021893Y-111945133D01*
X160041598Y-111959747D01*
X160059777Y-111976223D01*
X160076253Y-111994402D01*
X160090867Y-112014107D01*
X160103480Y-112035151D01*
X160113970Y-112057329D01*
X160122235Y-112080429D01*
X160128196Y-112104227D01*
X160131796Y-112128496D01*
X160133000Y-112153000D01*
X160133000Y-112903000D01*
X160131796Y-112927504D01*
X160128196Y-112951773D01*
X160122235Y-112975571D01*
X160113970Y-112998671D01*
X160103480Y-113020849D01*
X160090867Y-113041893D01*
X160076253Y-113061598D01*
X160059777Y-113079777D01*
X160041598Y-113096253D01*
X160021893Y-113110867D01*
X160000849Y-113123480D01*
X159978671Y-113133970D01*
X159955571Y-113142235D01*
X159931773Y-113148196D01*
X159907504Y-113151796D01*
X159883000Y-113153000D01*
X158633000Y-113153000D01*
X158608496Y-113151796D01*
X158584227Y-113148196D01*
X158560429Y-113142235D01*
X158537329Y-113133970D01*
X158515151Y-113123480D01*
X158494107Y-113110867D01*
X158474402Y-113096253D01*
X158456223Y-113079777D01*
X158439747Y-113061598D01*
X158425133Y-113041893D01*
X158412520Y-113020849D01*
X158402030Y-112998671D01*
X158393765Y-112975571D01*
X158387804Y-112951773D01*
X158384204Y-112927504D01*
X158383000Y-112903000D01*
X158383000Y-112153000D01*
X158384204Y-112128496D01*
X158387804Y-112104227D01*
X158393765Y-112080429D01*
X158402030Y-112057329D01*
X158412520Y-112035151D01*
X158425133Y-112014107D01*
X158439747Y-111994402D01*
X158456223Y-111976223D01*
X158474402Y-111959747D01*
X158494107Y-111945133D01*
X158515151Y-111932520D01*
X158537329Y-111922030D01*
X158560429Y-111913765D01*
X158584227Y-111907804D01*
X158608496Y-111904204D01*
X158633000Y-111903000D01*
X159883000Y-111903000D01*
X159907504Y-111904204D01*
X159907504Y-111904204D01*
G37*
D15*
X159258000Y-112528000D03*
D14*
G36*
X159907504Y-109104204D02*
G01*
X159931773Y-109107804D01*
X159955571Y-109113765D01*
X159978671Y-109122030D01*
X160000849Y-109132520D01*
X160021893Y-109145133D01*
X160041598Y-109159747D01*
X160059777Y-109176223D01*
X160076253Y-109194402D01*
X160090867Y-109214107D01*
X160103480Y-109235151D01*
X160113970Y-109257329D01*
X160122235Y-109280429D01*
X160128196Y-109304227D01*
X160131796Y-109328496D01*
X160133000Y-109353000D01*
X160133000Y-110103000D01*
X160131796Y-110127504D01*
X160128196Y-110151773D01*
X160122235Y-110175571D01*
X160113970Y-110198671D01*
X160103480Y-110220849D01*
X160090867Y-110241893D01*
X160076253Y-110261598D01*
X160059777Y-110279777D01*
X160041598Y-110296253D01*
X160021893Y-110310867D01*
X160000849Y-110323480D01*
X159978671Y-110333970D01*
X159955571Y-110342235D01*
X159931773Y-110348196D01*
X159907504Y-110351796D01*
X159883000Y-110353000D01*
X158633000Y-110353000D01*
X158608496Y-110351796D01*
X158584227Y-110348196D01*
X158560429Y-110342235D01*
X158537329Y-110333970D01*
X158515151Y-110323480D01*
X158494107Y-110310867D01*
X158474402Y-110296253D01*
X158456223Y-110279777D01*
X158439747Y-110261598D01*
X158425133Y-110241893D01*
X158412520Y-110220849D01*
X158402030Y-110198671D01*
X158393765Y-110175571D01*
X158387804Y-110151773D01*
X158384204Y-110127504D01*
X158383000Y-110103000D01*
X158383000Y-109353000D01*
X158384204Y-109328496D01*
X158387804Y-109304227D01*
X158393765Y-109280429D01*
X158402030Y-109257329D01*
X158412520Y-109235151D01*
X158425133Y-109214107D01*
X158439747Y-109194402D01*
X158456223Y-109176223D01*
X158474402Y-109159747D01*
X158494107Y-109145133D01*
X158515151Y-109132520D01*
X158537329Y-109122030D01*
X158560429Y-109113765D01*
X158584227Y-109107804D01*
X158608496Y-109104204D01*
X158633000Y-109103000D01*
X159883000Y-109103000D01*
X159907504Y-109104204D01*
X159907504Y-109104204D01*
G37*
D15*
X159258000Y-109728000D03*
D14*
G36*
X145683504Y-113292204D02*
G01*
X145707773Y-113295804D01*
X145731571Y-113301765D01*
X145754671Y-113310030D01*
X145776849Y-113320520D01*
X145797893Y-113333133D01*
X145817598Y-113347747D01*
X145835777Y-113364223D01*
X145852253Y-113382402D01*
X145866867Y-113402107D01*
X145879480Y-113423151D01*
X145889970Y-113445329D01*
X145898235Y-113468429D01*
X145904196Y-113492227D01*
X145907796Y-113516496D01*
X145909000Y-113541000D01*
X145909000Y-114291000D01*
X145907796Y-114315504D01*
X145904196Y-114339773D01*
X145898235Y-114363571D01*
X145889970Y-114386671D01*
X145879480Y-114408849D01*
X145866867Y-114429893D01*
X145852253Y-114449598D01*
X145835777Y-114467777D01*
X145817598Y-114484253D01*
X145797893Y-114498867D01*
X145776849Y-114511480D01*
X145754671Y-114521970D01*
X145731571Y-114530235D01*
X145707773Y-114536196D01*
X145683504Y-114539796D01*
X145659000Y-114541000D01*
X144409000Y-114541000D01*
X144384496Y-114539796D01*
X144360227Y-114536196D01*
X144336429Y-114530235D01*
X144313329Y-114521970D01*
X144291151Y-114511480D01*
X144270107Y-114498867D01*
X144250402Y-114484253D01*
X144232223Y-114467777D01*
X144215747Y-114449598D01*
X144201133Y-114429893D01*
X144188520Y-114408849D01*
X144178030Y-114386671D01*
X144169765Y-114363571D01*
X144163804Y-114339773D01*
X144160204Y-114315504D01*
X144159000Y-114291000D01*
X144159000Y-113541000D01*
X144160204Y-113516496D01*
X144163804Y-113492227D01*
X144169765Y-113468429D01*
X144178030Y-113445329D01*
X144188520Y-113423151D01*
X144201133Y-113402107D01*
X144215747Y-113382402D01*
X144232223Y-113364223D01*
X144250402Y-113347747D01*
X144270107Y-113333133D01*
X144291151Y-113320520D01*
X144313329Y-113310030D01*
X144336429Y-113301765D01*
X144360227Y-113295804D01*
X144384496Y-113292204D01*
X144409000Y-113291000D01*
X145659000Y-113291000D01*
X145683504Y-113292204D01*
X145683504Y-113292204D01*
G37*
D15*
X145034000Y-113916000D03*
D14*
G36*
X145683504Y-116092204D02*
G01*
X145707773Y-116095804D01*
X145731571Y-116101765D01*
X145754671Y-116110030D01*
X145776849Y-116120520D01*
X145797893Y-116133133D01*
X145817598Y-116147747D01*
X145835777Y-116164223D01*
X145852253Y-116182402D01*
X145866867Y-116202107D01*
X145879480Y-116223151D01*
X145889970Y-116245329D01*
X145898235Y-116268429D01*
X145904196Y-116292227D01*
X145907796Y-116316496D01*
X145909000Y-116341000D01*
X145909000Y-117091000D01*
X145907796Y-117115504D01*
X145904196Y-117139773D01*
X145898235Y-117163571D01*
X145889970Y-117186671D01*
X145879480Y-117208849D01*
X145866867Y-117229893D01*
X145852253Y-117249598D01*
X145835777Y-117267777D01*
X145817598Y-117284253D01*
X145797893Y-117298867D01*
X145776849Y-117311480D01*
X145754671Y-117321970D01*
X145731571Y-117330235D01*
X145707773Y-117336196D01*
X145683504Y-117339796D01*
X145659000Y-117341000D01*
X144409000Y-117341000D01*
X144384496Y-117339796D01*
X144360227Y-117336196D01*
X144336429Y-117330235D01*
X144313329Y-117321970D01*
X144291151Y-117311480D01*
X144270107Y-117298867D01*
X144250402Y-117284253D01*
X144232223Y-117267777D01*
X144215747Y-117249598D01*
X144201133Y-117229893D01*
X144188520Y-117208849D01*
X144178030Y-117186671D01*
X144169765Y-117163571D01*
X144163804Y-117139773D01*
X144160204Y-117115504D01*
X144159000Y-117091000D01*
X144159000Y-116341000D01*
X144160204Y-116316496D01*
X144163804Y-116292227D01*
X144169765Y-116268429D01*
X144178030Y-116245329D01*
X144188520Y-116223151D01*
X144201133Y-116202107D01*
X144215747Y-116182402D01*
X144232223Y-116164223D01*
X144250402Y-116147747D01*
X144270107Y-116133133D01*
X144291151Y-116120520D01*
X144313329Y-116110030D01*
X144336429Y-116101765D01*
X144360227Y-116095804D01*
X144384496Y-116092204D01*
X144409000Y-116091000D01*
X145659000Y-116091000D01*
X145683504Y-116092204D01*
X145683504Y-116092204D01*
G37*
D15*
X145034000Y-116716000D03*
D14*
G36*
X164235504Y-106060204D02*
G01*
X164259773Y-106063804D01*
X164283571Y-106069765D01*
X164306671Y-106078030D01*
X164328849Y-106088520D01*
X164349893Y-106101133D01*
X164369598Y-106115747D01*
X164387777Y-106132223D01*
X164404253Y-106150402D01*
X164418867Y-106170107D01*
X164431480Y-106191151D01*
X164441970Y-106213329D01*
X164450235Y-106236429D01*
X164456196Y-106260227D01*
X164459796Y-106284496D01*
X164461000Y-106309000D01*
X164461000Y-107559000D01*
X164459796Y-107583504D01*
X164456196Y-107607773D01*
X164450235Y-107631571D01*
X164441970Y-107654671D01*
X164431480Y-107676849D01*
X164418867Y-107697893D01*
X164404253Y-107717598D01*
X164387777Y-107735777D01*
X164369598Y-107752253D01*
X164349893Y-107766867D01*
X164328849Y-107779480D01*
X164306671Y-107789970D01*
X164283571Y-107798235D01*
X164259773Y-107804196D01*
X164235504Y-107807796D01*
X164211000Y-107809000D01*
X163461000Y-107809000D01*
X163436496Y-107807796D01*
X163412227Y-107804196D01*
X163388429Y-107798235D01*
X163365329Y-107789970D01*
X163343151Y-107779480D01*
X163322107Y-107766867D01*
X163302402Y-107752253D01*
X163284223Y-107735777D01*
X163267747Y-107717598D01*
X163253133Y-107697893D01*
X163240520Y-107676849D01*
X163230030Y-107654671D01*
X163221765Y-107631571D01*
X163215804Y-107607773D01*
X163212204Y-107583504D01*
X163211000Y-107559000D01*
X163211000Y-106309000D01*
X163212204Y-106284496D01*
X163215804Y-106260227D01*
X163221765Y-106236429D01*
X163230030Y-106213329D01*
X163240520Y-106191151D01*
X163253133Y-106170107D01*
X163267747Y-106150402D01*
X163284223Y-106132223D01*
X163302402Y-106115747D01*
X163322107Y-106101133D01*
X163343151Y-106088520D01*
X163365329Y-106078030D01*
X163388429Y-106069765D01*
X163412227Y-106063804D01*
X163436496Y-106060204D01*
X163461000Y-106059000D01*
X164211000Y-106059000D01*
X164235504Y-106060204D01*
X164235504Y-106060204D01*
G37*
D15*
X163836000Y-106934000D03*
D14*
G36*
X161435504Y-106060204D02*
G01*
X161459773Y-106063804D01*
X161483571Y-106069765D01*
X161506671Y-106078030D01*
X161528849Y-106088520D01*
X161549893Y-106101133D01*
X161569598Y-106115747D01*
X161587777Y-106132223D01*
X161604253Y-106150402D01*
X161618867Y-106170107D01*
X161631480Y-106191151D01*
X161641970Y-106213329D01*
X161650235Y-106236429D01*
X161656196Y-106260227D01*
X161659796Y-106284496D01*
X161661000Y-106309000D01*
X161661000Y-107559000D01*
X161659796Y-107583504D01*
X161656196Y-107607773D01*
X161650235Y-107631571D01*
X161641970Y-107654671D01*
X161631480Y-107676849D01*
X161618867Y-107697893D01*
X161604253Y-107717598D01*
X161587777Y-107735777D01*
X161569598Y-107752253D01*
X161549893Y-107766867D01*
X161528849Y-107779480D01*
X161506671Y-107789970D01*
X161483571Y-107798235D01*
X161459773Y-107804196D01*
X161435504Y-107807796D01*
X161411000Y-107809000D01*
X160661000Y-107809000D01*
X160636496Y-107807796D01*
X160612227Y-107804196D01*
X160588429Y-107798235D01*
X160565329Y-107789970D01*
X160543151Y-107779480D01*
X160522107Y-107766867D01*
X160502402Y-107752253D01*
X160484223Y-107735777D01*
X160467747Y-107717598D01*
X160453133Y-107697893D01*
X160440520Y-107676849D01*
X160430030Y-107654671D01*
X160421765Y-107631571D01*
X160415804Y-107607773D01*
X160412204Y-107583504D01*
X160411000Y-107559000D01*
X160411000Y-106309000D01*
X160412204Y-106284496D01*
X160415804Y-106260227D01*
X160421765Y-106236429D01*
X160430030Y-106213329D01*
X160440520Y-106191151D01*
X160453133Y-106170107D01*
X160467747Y-106150402D01*
X160484223Y-106132223D01*
X160502402Y-106115747D01*
X160522107Y-106101133D01*
X160543151Y-106088520D01*
X160565329Y-106078030D01*
X160588429Y-106069765D01*
X160612227Y-106063804D01*
X160636496Y-106060204D01*
X160661000Y-106059000D01*
X161411000Y-106059000D01*
X161435504Y-106060204D01*
X161435504Y-106060204D01*
G37*
D15*
X161036000Y-106934000D03*
D16*
X158695000Y-115697000D03*
X150495000Y-115697000D03*
X147828000Y-110744000D03*
X156028000Y-110744000D03*
D14*
G36*
X129418735Y-110934544D02*
G01*
X129430869Y-110936344D01*
X129442769Y-110939324D01*
X129454318Y-110943457D01*
X129465408Y-110948702D01*
X129475929Y-110955008D01*
X129485782Y-110962316D01*
X129494871Y-110970554D01*
X129671648Y-111147331D01*
X129679886Y-111156420D01*
X129687194Y-111166273D01*
X129693500Y-111176794D01*
X129698745Y-111187884D01*
X129702878Y-111199433D01*
X129705858Y-111211333D01*
X129707658Y-111223467D01*
X129708260Y-111235719D01*
X129707658Y-111247971D01*
X129705858Y-111260105D01*
X129702878Y-111272005D01*
X129698745Y-111283554D01*
X129693500Y-111294644D01*
X129687194Y-111305165D01*
X129679886Y-111315018D01*
X129671648Y-111324107D01*
X128787765Y-112207990D01*
X128778676Y-112216228D01*
X128768823Y-112223536D01*
X128758302Y-112229842D01*
X128747212Y-112235087D01*
X128735663Y-112239220D01*
X128723763Y-112242200D01*
X128711629Y-112244000D01*
X128699377Y-112244602D01*
X128687125Y-112244000D01*
X128674991Y-112242200D01*
X128663091Y-112239220D01*
X128651542Y-112235087D01*
X128640452Y-112229842D01*
X128629931Y-112223536D01*
X128620078Y-112216228D01*
X128610989Y-112207990D01*
X128434212Y-112031213D01*
X128425974Y-112022124D01*
X128418666Y-112012271D01*
X128412360Y-112001750D01*
X128407115Y-111990660D01*
X128402982Y-111979111D01*
X128400002Y-111967211D01*
X128398202Y-111955077D01*
X128397600Y-111942825D01*
X128398202Y-111930573D01*
X128400002Y-111918439D01*
X128402982Y-111906539D01*
X128407115Y-111894990D01*
X128412360Y-111883900D01*
X128418666Y-111873379D01*
X128425974Y-111863526D01*
X128434212Y-111854437D01*
X129318095Y-110970554D01*
X129327184Y-110962316D01*
X129337037Y-110955008D01*
X129347558Y-110948702D01*
X129358648Y-110943457D01*
X129370197Y-110939324D01*
X129382097Y-110936344D01*
X129394231Y-110934544D01*
X129406483Y-110933942D01*
X129418735Y-110934544D01*
X129418735Y-110934544D01*
G37*
D17*
X129052930Y-111589272D03*
D14*
G36*
X129984421Y-111500229D02*
G01*
X129996555Y-111502029D01*
X130008455Y-111505009D01*
X130020004Y-111509142D01*
X130031094Y-111514387D01*
X130041615Y-111520693D01*
X130051468Y-111528001D01*
X130060557Y-111536239D01*
X130237334Y-111713016D01*
X130245572Y-111722105D01*
X130252880Y-111731958D01*
X130259186Y-111742479D01*
X130264431Y-111753569D01*
X130268564Y-111765118D01*
X130271544Y-111777018D01*
X130273344Y-111789152D01*
X130273946Y-111801404D01*
X130273344Y-111813656D01*
X130271544Y-111825790D01*
X130268564Y-111837690D01*
X130264431Y-111849239D01*
X130259186Y-111860329D01*
X130252880Y-111870850D01*
X130245572Y-111880703D01*
X130237334Y-111889792D01*
X129353451Y-112773675D01*
X129344362Y-112781913D01*
X129334509Y-112789221D01*
X129323988Y-112795527D01*
X129312898Y-112800772D01*
X129301349Y-112804905D01*
X129289449Y-112807885D01*
X129277315Y-112809685D01*
X129265063Y-112810287D01*
X129252811Y-112809685D01*
X129240677Y-112807885D01*
X129228777Y-112804905D01*
X129217228Y-112800772D01*
X129206138Y-112795527D01*
X129195617Y-112789221D01*
X129185764Y-112781913D01*
X129176675Y-112773675D01*
X128999898Y-112596898D01*
X128991660Y-112587809D01*
X128984352Y-112577956D01*
X128978046Y-112567435D01*
X128972801Y-112556345D01*
X128968668Y-112544796D01*
X128965688Y-112532896D01*
X128963888Y-112520762D01*
X128963286Y-112508510D01*
X128963888Y-112496258D01*
X128965688Y-112484124D01*
X128968668Y-112472224D01*
X128972801Y-112460675D01*
X128978046Y-112449585D01*
X128984352Y-112439064D01*
X128991660Y-112429211D01*
X128999898Y-112420122D01*
X129883781Y-111536239D01*
X129892870Y-111528001D01*
X129902723Y-111520693D01*
X129913244Y-111514387D01*
X129924334Y-111509142D01*
X129935883Y-111505009D01*
X129947783Y-111502029D01*
X129959917Y-111500229D01*
X129972169Y-111499627D01*
X129984421Y-111500229D01*
X129984421Y-111500229D01*
G37*
D17*
X129618616Y-112154957D03*
D14*
G36*
X130550106Y-112065915D02*
G01*
X130562240Y-112067715D01*
X130574140Y-112070695D01*
X130585689Y-112074828D01*
X130596779Y-112080073D01*
X130607300Y-112086379D01*
X130617153Y-112093687D01*
X130626242Y-112101925D01*
X130803019Y-112278702D01*
X130811257Y-112287791D01*
X130818565Y-112297644D01*
X130824871Y-112308165D01*
X130830116Y-112319255D01*
X130834249Y-112330804D01*
X130837229Y-112342704D01*
X130839029Y-112354838D01*
X130839631Y-112367090D01*
X130839029Y-112379342D01*
X130837229Y-112391476D01*
X130834249Y-112403376D01*
X130830116Y-112414925D01*
X130824871Y-112426015D01*
X130818565Y-112436536D01*
X130811257Y-112446389D01*
X130803019Y-112455478D01*
X129919136Y-113339361D01*
X129910047Y-113347599D01*
X129900194Y-113354907D01*
X129889673Y-113361213D01*
X129878583Y-113366458D01*
X129867034Y-113370591D01*
X129855134Y-113373571D01*
X129843000Y-113375371D01*
X129830748Y-113375973D01*
X129818496Y-113375371D01*
X129806362Y-113373571D01*
X129794462Y-113370591D01*
X129782913Y-113366458D01*
X129771823Y-113361213D01*
X129761302Y-113354907D01*
X129751449Y-113347599D01*
X129742360Y-113339361D01*
X129565583Y-113162584D01*
X129557345Y-113153495D01*
X129550037Y-113143642D01*
X129543731Y-113133121D01*
X129538486Y-113122031D01*
X129534353Y-113110482D01*
X129531373Y-113098582D01*
X129529573Y-113086448D01*
X129528971Y-113074196D01*
X129529573Y-113061944D01*
X129531373Y-113049810D01*
X129534353Y-113037910D01*
X129538486Y-113026361D01*
X129543731Y-113015271D01*
X129550037Y-113004750D01*
X129557345Y-112994897D01*
X129565583Y-112985808D01*
X130449466Y-112101925D01*
X130458555Y-112093687D01*
X130468408Y-112086379D01*
X130478929Y-112080073D01*
X130490019Y-112074828D01*
X130501568Y-112070695D01*
X130513468Y-112067715D01*
X130525602Y-112065915D01*
X130537854Y-112065313D01*
X130550106Y-112065915D01*
X130550106Y-112065915D01*
G37*
D17*
X130184301Y-112720643D03*
D14*
G36*
X131115791Y-112631600D02*
G01*
X131127925Y-112633400D01*
X131139825Y-112636380D01*
X131151374Y-112640513D01*
X131162464Y-112645758D01*
X131172985Y-112652064D01*
X131182838Y-112659372D01*
X131191927Y-112667610D01*
X131368704Y-112844387D01*
X131376942Y-112853476D01*
X131384250Y-112863329D01*
X131390556Y-112873850D01*
X131395801Y-112884940D01*
X131399934Y-112896489D01*
X131402914Y-112908389D01*
X131404714Y-112920523D01*
X131405316Y-112932775D01*
X131404714Y-112945027D01*
X131402914Y-112957161D01*
X131399934Y-112969061D01*
X131395801Y-112980610D01*
X131390556Y-112991700D01*
X131384250Y-113002221D01*
X131376942Y-113012074D01*
X131368704Y-113021163D01*
X130484821Y-113905046D01*
X130475732Y-113913284D01*
X130465879Y-113920592D01*
X130455358Y-113926898D01*
X130444268Y-113932143D01*
X130432719Y-113936276D01*
X130420819Y-113939256D01*
X130408685Y-113941056D01*
X130396433Y-113941658D01*
X130384181Y-113941056D01*
X130372047Y-113939256D01*
X130360147Y-113936276D01*
X130348598Y-113932143D01*
X130337508Y-113926898D01*
X130326987Y-113920592D01*
X130317134Y-113913284D01*
X130308045Y-113905046D01*
X130131268Y-113728269D01*
X130123030Y-113719180D01*
X130115722Y-113709327D01*
X130109416Y-113698806D01*
X130104171Y-113687716D01*
X130100038Y-113676167D01*
X130097058Y-113664267D01*
X130095258Y-113652133D01*
X130094656Y-113639881D01*
X130095258Y-113627629D01*
X130097058Y-113615495D01*
X130100038Y-113603595D01*
X130104171Y-113592046D01*
X130109416Y-113580956D01*
X130115722Y-113570435D01*
X130123030Y-113560582D01*
X130131268Y-113551493D01*
X131015151Y-112667610D01*
X131024240Y-112659372D01*
X131034093Y-112652064D01*
X131044614Y-112645758D01*
X131055704Y-112640513D01*
X131067253Y-112636380D01*
X131079153Y-112633400D01*
X131091287Y-112631600D01*
X131103539Y-112630998D01*
X131115791Y-112631600D01*
X131115791Y-112631600D01*
G37*
D17*
X130749986Y-113286328D03*
D14*
G36*
X131681477Y-113197286D02*
G01*
X131693611Y-113199086D01*
X131705511Y-113202066D01*
X131717060Y-113206199D01*
X131728150Y-113211444D01*
X131738671Y-113217750D01*
X131748524Y-113225058D01*
X131757613Y-113233296D01*
X131934390Y-113410073D01*
X131942628Y-113419162D01*
X131949936Y-113429015D01*
X131956242Y-113439536D01*
X131961487Y-113450626D01*
X131965620Y-113462175D01*
X131968600Y-113474075D01*
X131970400Y-113486209D01*
X131971002Y-113498461D01*
X131970400Y-113510713D01*
X131968600Y-113522847D01*
X131965620Y-113534747D01*
X131961487Y-113546296D01*
X131956242Y-113557386D01*
X131949936Y-113567907D01*
X131942628Y-113577760D01*
X131934390Y-113586849D01*
X131050507Y-114470732D01*
X131041418Y-114478970D01*
X131031565Y-114486278D01*
X131021044Y-114492584D01*
X131009954Y-114497829D01*
X130998405Y-114501962D01*
X130986505Y-114504942D01*
X130974371Y-114506742D01*
X130962119Y-114507344D01*
X130949867Y-114506742D01*
X130937733Y-114504942D01*
X130925833Y-114501962D01*
X130914284Y-114497829D01*
X130903194Y-114492584D01*
X130892673Y-114486278D01*
X130882820Y-114478970D01*
X130873731Y-114470732D01*
X130696954Y-114293955D01*
X130688716Y-114284866D01*
X130681408Y-114275013D01*
X130675102Y-114264492D01*
X130669857Y-114253402D01*
X130665724Y-114241853D01*
X130662744Y-114229953D01*
X130660944Y-114217819D01*
X130660342Y-114205567D01*
X130660944Y-114193315D01*
X130662744Y-114181181D01*
X130665724Y-114169281D01*
X130669857Y-114157732D01*
X130675102Y-114146642D01*
X130681408Y-114136121D01*
X130688716Y-114126268D01*
X130696954Y-114117179D01*
X131580837Y-113233296D01*
X131589926Y-113225058D01*
X131599779Y-113217750D01*
X131610300Y-113211444D01*
X131621390Y-113206199D01*
X131632939Y-113202066D01*
X131644839Y-113199086D01*
X131656973Y-113197286D01*
X131669225Y-113196684D01*
X131681477Y-113197286D01*
X131681477Y-113197286D01*
G37*
D17*
X131315672Y-113852014D03*
D14*
G36*
X132247162Y-113762971D02*
G01*
X132259296Y-113764771D01*
X132271196Y-113767751D01*
X132282745Y-113771884D01*
X132293835Y-113777129D01*
X132304356Y-113783435D01*
X132314209Y-113790743D01*
X132323298Y-113798981D01*
X132500075Y-113975758D01*
X132508313Y-113984847D01*
X132515621Y-113994700D01*
X132521927Y-114005221D01*
X132527172Y-114016311D01*
X132531305Y-114027860D01*
X132534285Y-114039760D01*
X132536085Y-114051894D01*
X132536687Y-114064146D01*
X132536085Y-114076398D01*
X132534285Y-114088532D01*
X132531305Y-114100432D01*
X132527172Y-114111981D01*
X132521927Y-114123071D01*
X132515621Y-114133592D01*
X132508313Y-114143445D01*
X132500075Y-114152534D01*
X131616192Y-115036417D01*
X131607103Y-115044655D01*
X131597250Y-115051963D01*
X131586729Y-115058269D01*
X131575639Y-115063514D01*
X131564090Y-115067647D01*
X131552190Y-115070627D01*
X131540056Y-115072427D01*
X131527804Y-115073029D01*
X131515552Y-115072427D01*
X131503418Y-115070627D01*
X131491518Y-115067647D01*
X131479969Y-115063514D01*
X131468879Y-115058269D01*
X131458358Y-115051963D01*
X131448505Y-115044655D01*
X131439416Y-115036417D01*
X131262639Y-114859640D01*
X131254401Y-114850551D01*
X131247093Y-114840698D01*
X131240787Y-114830177D01*
X131235542Y-114819087D01*
X131231409Y-114807538D01*
X131228429Y-114795638D01*
X131226629Y-114783504D01*
X131226027Y-114771252D01*
X131226629Y-114759000D01*
X131228429Y-114746866D01*
X131231409Y-114734966D01*
X131235542Y-114723417D01*
X131240787Y-114712327D01*
X131247093Y-114701806D01*
X131254401Y-114691953D01*
X131262639Y-114682864D01*
X132146522Y-113798981D01*
X132155611Y-113790743D01*
X132165464Y-113783435D01*
X132175985Y-113777129D01*
X132187075Y-113771884D01*
X132198624Y-113767751D01*
X132210524Y-113764771D01*
X132222658Y-113762971D01*
X132234910Y-113762369D01*
X132247162Y-113762971D01*
X132247162Y-113762971D01*
G37*
D17*
X131881357Y-114417699D03*
D14*
G36*
X132812848Y-114328656D02*
G01*
X132824982Y-114330456D01*
X132836882Y-114333436D01*
X132848431Y-114337569D01*
X132859521Y-114342814D01*
X132870042Y-114349120D01*
X132879895Y-114356428D01*
X132888984Y-114364666D01*
X133065761Y-114541443D01*
X133073999Y-114550532D01*
X133081307Y-114560385D01*
X133087613Y-114570906D01*
X133092858Y-114581996D01*
X133096991Y-114593545D01*
X133099971Y-114605445D01*
X133101771Y-114617579D01*
X133102373Y-114629831D01*
X133101771Y-114642083D01*
X133099971Y-114654217D01*
X133096991Y-114666117D01*
X133092858Y-114677666D01*
X133087613Y-114688756D01*
X133081307Y-114699277D01*
X133073999Y-114709130D01*
X133065761Y-114718219D01*
X132181878Y-115602102D01*
X132172789Y-115610340D01*
X132162936Y-115617648D01*
X132152415Y-115623954D01*
X132141325Y-115629199D01*
X132129776Y-115633332D01*
X132117876Y-115636312D01*
X132105742Y-115638112D01*
X132093490Y-115638714D01*
X132081238Y-115638112D01*
X132069104Y-115636312D01*
X132057204Y-115633332D01*
X132045655Y-115629199D01*
X132034565Y-115623954D01*
X132024044Y-115617648D01*
X132014191Y-115610340D01*
X132005102Y-115602102D01*
X131828325Y-115425325D01*
X131820087Y-115416236D01*
X131812779Y-115406383D01*
X131806473Y-115395862D01*
X131801228Y-115384772D01*
X131797095Y-115373223D01*
X131794115Y-115361323D01*
X131792315Y-115349189D01*
X131791713Y-115336937D01*
X131792315Y-115324685D01*
X131794115Y-115312551D01*
X131797095Y-115300651D01*
X131801228Y-115289102D01*
X131806473Y-115278012D01*
X131812779Y-115267491D01*
X131820087Y-115257638D01*
X131828325Y-115248549D01*
X132712208Y-114364666D01*
X132721297Y-114356428D01*
X132731150Y-114349120D01*
X132741671Y-114342814D01*
X132752761Y-114337569D01*
X132764310Y-114333436D01*
X132776210Y-114330456D01*
X132788344Y-114328656D01*
X132800596Y-114328054D01*
X132812848Y-114328656D01*
X132812848Y-114328656D01*
G37*
D17*
X132447043Y-114983384D03*
D14*
G36*
X133378533Y-114894342D02*
G01*
X133390667Y-114896142D01*
X133402567Y-114899122D01*
X133414116Y-114903255D01*
X133425206Y-114908500D01*
X133435727Y-114914806D01*
X133445580Y-114922114D01*
X133454669Y-114930352D01*
X133631446Y-115107129D01*
X133639684Y-115116218D01*
X133646992Y-115126071D01*
X133653298Y-115136592D01*
X133658543Y-115147682D01*
X133662676Y-115159231D01*
X133665656Y-115171131D01*
X133667456Y-115183265D01*
X133668058Y-115195517D01*
X133667456Y-115207769D01*
X133665656Y-115219903D01*
X133662676Y-115231803D01*
X133658543Y-115243352D01*
X133653298Y-115254442D01*
X133646992Y-115264963D01*
X133639684Y-115274816D01*
X133631446Y-115283905D01*
X132747563Y-116167788D01*
X132738474Y-116176026D01*
X132728621Y-116183334D01*
X132718100Y-116189640D01*
X132707010Y-116194885D01*
X132695461Y-116199018D01*
X132683561Y-116201998D01*
X132671427Y-116203798D01*
X132659175Y-116204400D01*
X132646923Y-116203798D01*
X132634789Y-116201998D01*
X132622889Y-116199018D01*
X132611340Y-116194885D01*
X132600250Y-116189640D01*
X132589729Y-116183334D01*
X132579876Y-116176026D01*
X132570787Y-116167788D01*
X132394010Y-115991011D01*
X132385772Y-115981922D01*
X132378464Y-115972069D01*
X132372158Y-115961548D01*
X132366913Y-115950458D01*
X132362780Y-115938909D01*
X132359800Y-115927009D01*
X132358000Y-115914875D01*
X132357398Y-115902623D01*
X132358000Y-115890371D01*
X132359800Y-115878237D01*
X132362780Y-115866337D01*
X132366913Y-115854788D01*
X132372158Y-115843698D01*
X132378464Y-115833177D01*
X132385772Y-115823324D01*
X132394010Y-115814235D01*
X133277893Y-114930352D01*
X133286982Y-114922114D01*
X133296835Y-114914806D01*
X133307356Y-114908500D01*
X133318446Y-114903255D01*
X133329995Y-114899122D01*
X133341895Y-114896142D01*
X133354029Y-114894342D01*
X133366281Y-114893740D01*
X133378533Y-114894342D01*
X133378533Y-114894342D01*
G37*
D17*
X133012728Y-115549070D03*
D14*
G36*
X134615971Y-114894342D02*
G01*
X134628105Y-114896142D01*
X134640005Y-114899122D01*
X134651554Y-114903255D01*
X134662644Y-114908500D01*
X134673165Y-114914806D01*
X134683018Y-114922114D01*
X134692107Y-114930352D01*
X135575990Y-115814235D01*
X135584228Y-115823324D01*
X135591536Y-115833177D01*
X135597842Y-115843698D01*
X135603087Y-115854788D01*
X135607220Y-115866337D01*
X135610200Y-115878237D01*
X135612000Y-115890371D01*
X135612602Y-115902623D01*
X135612000Y-115914875D01*
X135610200Y-115927009D01*
X135607220Y-115938909D01*
X135603087Y-115950458D01*
X135597842Y-115961548D01*
X135591536Y-115972069D01*
X135584228Y-115981922D01*
X135575990Y-115991011D01*
X135399213Y-116167788D01*
X135390124Y-116176026D01*
X135380271Y-116183334D01*
X135369750Y-116189640D01*
X135358660Y-116194885D01*
X135347111Y-116199018D01*
X135335211Y-116201998D01*
X135323077Y-116203798D01*
X135310825Y-116204400D01*
X135298573Y-116203798D01*
X135286439Y-116201998D01*
X135274539Y-116199018D01*
X135262990Y-116194885D01*
X135251900Y-116189640D01*
X135241379Y-116183334D01*
X135231526Y-116176026D01*
X135222437Y-116167788D01*
X134338554Y-115283905D01*
X134330316Y-115274816D01*
X134323008Y-115264963D01*
X134316702Y-115254442D01*
X134311457Y-115243352D01*
X134307324Y-115231803D01*
X134304344Y-115219903D01*
X134302544Y-115207769D01*
X134301942Y-115195517D01*
X134302544Y-115183265D01*
X134304344Y-115171131D01*
X134307324Y-115159231D01*
X134311457Y-115147682D01*
X134316702Y-115136592D01*
X134323008Y-115126071D01*
X134330316Y-115116218D01*
X134338554Y-115107129D01*
X134515331Y-114930352D01*
X134524420Y-114922114D01*
X134534273Y-114914806D01*
X134544794Y-114908500D01*
X134555884Y-114903255D01*
X134567433Y-114899122D01*
X134579333Y-114896142D01*
X134591467Y-114894342D01*
X134603719Y-114893740D01*
X134615971Y-114894342D01*
X134615971Y-114894342D01*
G37*
D17*
X134957272Y-115549070D03*
D14*
G36*
X135181656Y-114328656D02*
G01*
X135193790Y-114330456D01*
X135205690Y-114333436D01*
X135217239Y-114337569D01*
X135228329Y-114342814D01*
X135238850Y-114349120D01*
X135248703Y-114356428D01*
X135257792Y-114364666D01*
X136141675Y-115248549D01*
X136149913Y-115257638D01*
X136157221Y-115267491D01*
X136163527Y-115278012D01*
X136168772Y-115289102D01*
X136172905Y-115300651D01*
X136175885Y-115312551D01*
X136177685Y-115324685D01*
X136178287Y-115336937D01*
X136177685Y-115349189D01*
X136175885Y-115361323D01*
X136172905Y-115373223D01*
X136168772Y-115384772D01*
X136163527Y-115395862D01*
X136157221Y-115406383D01*
X136149913Y-115416236D01*
X136141675Y-115425325D01*
X135964898Y-115602102D01*
X135955809Y-115610340D01*
X135945956Y-115617648D01*
X135935435Y-115623954D01*
X135924345Y-115629199D01*
X135912796Y-115633332D01*
X135900896Y-115636312D01*
X135888762Y-115638112D01*
X135876510Y-115638714D01*
X135864258Y-115638112D01*
X135852124Y-115636312D01*
X135840224Y-115633332D01*
X135828675Y-115629199D01*
X135817585Y-115623954D01*
X135807064Y-115617648D01*
X135797211Y-115610340D01*
X135788122Y-115602102D01*
X134904239Y-114718219D01*
X134896001Y-114709130D01*
X134888693Y-114699277D01*
X134882387Y-114688756D01*
X134877142Y-114677666D01*
X134873009Y-114666117D01*
X134870029Y-114654217D01*
X134868229Y-114642083D01*
X134867627Y-114629831D01*
X134868229Y-114617579D01*
X134870029Y-114605445D01*
X134873009Y-114593545D01*
X134877142Y-114581996D01*
X134882387Y-114570906D01*
X134888693Y-114560385D01*
X134896001Y-114550532D01*
X134904239Y-114541443D01*
X135081016Y-114364666D01*
X135090105Y-114356428D01*
X135099958Y-114349120D01*
X135110479Y-114342814D01*
X135121569Y-114337569D01*
X135133118Y-114333436D01*
X135145018Y-114330456D01*
X135157152Y-114328656D01*
X135169404Y-114328054D01*
X135181656Y-114328656D01*
X135181656Y-114328656D01*
G37*
D17*
X135522957Y-114983384D03*
D14*
G36*
X135747342Y-113762971D02*
G01*
X135759476Y-113764771D01*
X135771376Y-113767751D01*
X135782925Y-113771884D01*
X135794015Y-113777129D01*
X135804536Y-113783435D01*
X135814389Y-113790743D01*
X135823478Y-113798981D01*
X136707361Y-114682864D01*
X136715599Y-114691953D01*
X136722907Y-114701806D01*
X136729213Y-114712327D01*
X136734458Y-114723417D01*
X136738591Y-114734966D01*
X136741571Y-114746866D01*
X136743371Y-114759000D01*
X136743973Y-114771252D01*
X136743371Y-114783504D01*
X136741571Y-114795638D01*
X136738591Y-114807538D01*
X136734458Y-114819087D01*
X136729213Y-114830177D01*
X136722907Y-114840698D01*
X136715599Y-114850551D01*
X136707361Y-114859640D01*
X136530584Y-115036417D01*
X136521495Y-115044655D01*
X136511642Y-115051963D01*
X136501121Y-115058269D01*
X136490031Y-115063514D01*
X136478482Y-115067647D01*
X136466582Y-115070627D01*
X136454448Y-115072427D01*
X136442196Y-115073029D01*
X136429944Y-115072427D01*
X136417810Y-115070627D01*
X136405910Y-115067647D01*
X136394361Y-115063514D01*
X136383271Y-115058269D01*
X136372750Y-115051963D01*
X136362897Y-115044655D01*
X136353808Y-115036417D01*
X135469925Y-114152534D01*
X135461687Y-114143445D01*
X135454379Y-114133592D01*
X135448073Y-114123071D01*
X135442828Y-114111981D01*
X135438695Y-114100432D01*
X135435715Y-114088532D01*
X135433915Y-114076398D01*
X135433313Y-114064146D01*
X135433915Y-114051894D01*
X135435715Y-114039760D01*
X135438695Y-114027860D01*
X135442828Y-114016311D01*
X135448073Y-114005221D01*
X135454379Y-113994700D01*
X135461687Y-113984847D01*
X135469925Y-113975758D01*
X135646702Y-113798981D01*
X135655791Y-113790743D01*
X135665644Y-113783435D01*
X135676165Y-113777129D01*
X135687255Y-113771884D01*
X135698804Y-113767751D01*
X135710704Y-113764771D01*
X135722838Y-113762971D01*
X135735090Y-113762369D01*
X135747342Y-113762971D01*
X135747342Y-113762971D01*
G37*
D17*
X136088643Y-114417699D03*
D14*
G36*
X136313027Y-113197286D02*
G01*
X136325161Y-113199086D01*
X136337061Y-113202066D01*
X136348610Y-113206199D01*
X136359700Y-113211444D01*
X136370221Y-113217750D01*
X136380074Y-113225058D01*
X136389163Y-113233296D01*
X137273046Y-114117179D01*
X137281284Y-114126268D01*
X137288592Y-114136121D01*
X137294898Y-114146642D01*
X137300143Y-114157732D01*
X137304276Y-114169281D01*
X137307256Y-114181181D01*
X137309056Y-114193315D01*
X137309658Y-114205567D01*
X137309056Y-114217819D01*
X137307256Y-114229953D01*
X137304276Y-114241853D01*
X137300143Y-114253402D01*
X137294898Y-114264492D01*
X137288592Y-114275013D01*
X137281284Y-114284866D01*
X137273046Y-114293955D01*
X137096269Y-114470732D01*
X137087180Y-114478970D01*
X137077327Y-114486278D01*
X137066806Y-114492584D01*
X137055716Y-114497829D01*
X137044167Y-114501962D01*
X137032267Y-114504942D01*
X137020133Y-114506742D01*
X137007881Y-114507344D01*
X136995629Y-114506742D01*
X136983495Y-114504942D01*
X136971595Y-114501962D01*
X136960046Y-114497829D01*
X136948956Y-114492584D01*
X136938435Y-114486278D01*
X136928582Y-114478970D01*
X136919493Y-114470732D01*
X136035610Y-113586849D01*
X136027372Y-113577760D01*
X136020064Y-113567907D01*
X136013758Y-113557386D01*
X136008513Y-113546296D01*
X136004380Y-113534747D01*
X136001400Y-113522847D01*
X135999600Y-113510713D01*
X135998998Y-113498461D01*
X135999600Y-113486209D01*
X136001400Y-113474075D01*
X136004380Y-113462175D01*
X136008513Y-113450626D01*
X136013758Y-113439536D01*
X136020064Y-113429015D01*
X136027372Y-113419162D01*
X136035610Y-113410073D01*
X136212387Y-113233296D01*
X136221476Y-113225058D01*
X136231329Y-113217750D01*
X136241850Y-113211444D01*
X136252940Y-113206199D01*
X136264489Y-113202066D01*
X136276389Y-113199086D01*
X136288523Y-113197286D01*
X136300775Y-113196684D01*
X136313027Y-113197286D01*
X136313027Y-113197286D01*
G37*
D17*
X136654328Y-113852014D03*
D14*
G36*
X136878713Y-112631600D02*
G01*
X136890847Y-112633400D01*
X136902747Y-112636380D01*
X136914296Y-112640513D01*
X136925386Y-112645758D01*
X136935907Y-112652064D01*
X136945760Y-112659372D01*
X136954849Y-112667610D01*
X137838732Y-113551493D01*
X137846970Y-113560582D01*
X137854278Y-113570435D01*
X137860584Y-113580956D01*
X137865829Y-113592046D01*
X137869962Y-113603595D01*
X137872942Y-113615495D01*
X137874742Y-113627629D01*
X137875344Y-113639881D01*
X137874742Y-113652133D01*
X137872942Y-113664267D01*
X137869962Y-113676167D01*
X137865829Y-113687716D01*
X137860584Y-113698806D01*
X137854278Y-113709327D01*
X137846970Y-113719180D01*
X137838732Y-113728269D01*
X137661955Y-113905046D01*
X137652866Y-113913284D01*
X137643013Y-113920592D01*
X137632492Y-113926898D01*
X137621402Y-113932143D01*
X137609853Y-113936276D01*
X137597953Y-113939256D01*
X137585819Y-113941056D01*
X137573567Y-113941658D01*
X137561315Y-113941056D01*
X137549181Y-113939256D01*
X137537281Y-113936276D01*
X137525732Y-113932143D01*
X137514642Y-113926898D01*
X137504121Y-113920592D01*
X137494268Y-113913284D01*
X137485179Y-113905046D01*
X136601296Y-113021163D01*
X136593058Y-113012074D01*
X136585750Y-113002221D01*
X136579444Y-112991700D01*
X136574199Y-112980610D01*
X136570066Y-112969061D01*
X136567086Y-112957161D01*
X136565286Y-112945027D01*
X136564684Y-112932775D01*
X136565286Y-112920523D01*
X136567086Y-112908389D01*
X136570066Y-112896489D01*
X136574199Y-112884940D01*
X136579444Y-112873850D01*
X136585750Y-112863329D01*
X136593058Y-112853476D01*
X136601296Y-112844387D01*
X136778073Y-112667610D01*
X136787162Y-112659372D01*
X136797015Y-112652064D01*
X136807536Y-112645758D01*
X136818626Y-112640513D01*
X136830175Y-112636380D01*
X136842075Y-112633400D01*
X136854209Y-112631600D01*
X136866461Y-112630998D01*
X136878713Y-112631600D01*
X136878713Y-112631600D01*
G37*
D17*
X137220014Y-113286328D03*
D14*
G36*
X137444398Y-112065915D02*
G01*
X137456532Y-112067715D01*
X137468432Y-112070695D01*
X137479981Y-112074828D01*
X137491071Y-112080073D01*
X137501592Y-112086379D01*
X137511445Y-112093687D01*
X137520534Y-112101925D01*
X138404417Y-112985808D01*
X138412655Y-112994897D01*
X138419963Y-113004750D01*
X138426269Y-113015271D01*
X138431514Y-113026361D01*
X138435647Y-113037910D01*
X138438627Y-113049810D01*
X138440427Y-113061944D01*
X138441029Y-113074196D01*
X138440427Y-113086448D01*
X138438627Y-113098582D01*
X138435647Y-113110482D01*
X138431514Y-113122031D01*
X138426269Y-113133121D01*
X138419963Y-113143642D01*
X138412655Y-113153495D01*
X138404417Y-113162584D01*
X138227640Y-113339361D01*
X138218551Y-113347599D01*
X138208698Y-113354907D01*
X138198177Y-113361213D01*
X138187087Y-113366458D01*
X138175538Y-113370591D01*
X138163638Y-113373571D01*
X138151504Y-113375371D01*
X138139252Y-113375973D01*
X138127000Y-113375371D01*
X138114866Y-113373571D01*
X138102966Y-113370591D01*
X138091417Y-113366458D01*
X138080327Y-113361213D01*
X138069806Y-113354907D01*
X138059953Y-113347599D01*
X138050864Y-113339361D01*
X137166981Y-112455478D01*
X137158743Y-112446389D01*
X137151435Y-112436536D01*
X137145129Y-112426015D01*
X137139884Y-112414925D01*
X137135751Y-112403376D01*
X137132771Y-112391476D01*
X137130971Y-112379342D01*
X137130369Y-112367090D01*
X137130971Y-112354838D01*
X137132771Y-112342704D01*
X137135751Y-112330804D01*
X137139884Y-112319255D01*
X137145129Y-112308165D01*
X137151435Y-112297644D01*
X137158743Y-112287791D01*
X137166981Y-112278702D01*
X137343758Y-112101925D01*
X137352847Y-112093687D01*
X137362700Y-112086379D01*
X137373221Y-112080073D01*
X137384311Y-112074828D01*
X137395860Y-112070695D01*
X137407760Y-112067715D01*
X137419894Y-112065915D01*
X137432146Y-112065313D01*
X137444398Y-112065915D01*
X137444398Y-112065915D01*
G37*
D17*
X137785699Y-112720643D03*
D14*
G36*
X138010083Y-111500229D02*
G01*
X138022217Y-111502029D01*
X138034117Y-111505009D01*
X138045666Y-111509142D01*
X138056756Y-111514387D01*
X138067277Y-111520693D01*
X138077130Y-111528001D01*
X138086219Y-111536239D01*
X138970102Y-112420122D01*
X138978340Y-112429211D01*
X138985648Y-112439064D01*
X138991954Y-112449585D01*
X138997199Y-112460675D01*
X139001332Y-112472224D01*
X139004312Y-112484124D01*
X139006112Y-112496258D01*
X139006714Y-112508510D01*
X139006112Y-112520762D01*
X139004312Y-112532896D01*
X139001332Y-112544796D01*
X138997199Y-112556345D01*
X138991954Y-112567435D01*
X138985648Y-112577956D01*
X138978340Y-112587809D01*
X138970102Y-112596898D01*
X138793325Y-112773675D01*
X138784236Y-112781913D01*
X138774383Y-112789221D01*
X138763862Y-112795527D01*
X138752772Y-112800772D01*
X138741223Y-112804905D01*
X138729323Y-112807885D01*
X138717189Y-112809685D01*
X138704937Y-112810287D01*
X138692685Y-112809685D01*
X138680551Y-112807885D01*
X138668651Y-112804905D01*
X138657102Y-112800772D01*
X138646012Y-112795527D01*
X138635491Y-112789221D01*
X138625638Y-112781913D01*
X138616549Y-112773675D01*
X137732666Y-111889792D01*
X137724428Y-111880703D01*
X137717120Y-111870850D01*
X137710814Y-111860329D01*
X137705569Y-111849239D01*
X137701436Y-111837690D01*
X137698456Y-111825790D01*
X137696656Y-111813656D01*
X137696054Y-111801404D01*
X137696656Y-111789152D01*
X137698456Y-111777018D01*
X137701436Y-111765118D01*
X137705569Y-111753569D01*
X137710814Y-111742479D01*
X137717120Y-111731958D01*
X137724428Y-111722105D01*
X137732666Y-111713016D01*
X137909443Y-111536239D01*
X137918532Y-111528001D01*
X137928385Y-111520693D01*
X137938906Y-111514387D01*
X137949996Y-111509142D01*
X137961545Y-111505009D01*
X137973445Y-111502029D01*
X137985579Y-111500229D01*
X137997831Y-111499627D01*
X138010083Y-111500229D01*
X138010083Y-111500229D01*
G37*
D17*
X138351384Y-112154957D03*
D14*
G36*
X138575769Y-110934544D02*
G01*
X138587903Y-110936344D01*
X138599803Y-110939324D01*
X138611352Y-110943457D01*
X138622442Y-110948702D01*
X138632963Y-110955008D01*
X138642816Y-110962316D01*
X138651905Y-110970554D01*
X139535788Y-111854437D01*
X139544026Y-111863526D01*
X139551334Y-111873379D01*
X139557640Y-111883900D01*
X139562885Y-111894990D01*
X139567018Y-111906539D01*
X139569998Y-111918439D01*
X139571798Y-111930573D01*
X139572400Y-111942825D01*
X139571798Y-111955077D01*
X139569998Y-111967211D01*
X139567018Y-111979111D01*
X139562885Y-111990660D01*
X139557640Y-112001750D01*
X139551334Y-112012271D01*
X139544026Y-112022124D01*
X139535788Y-112031213D01*
X139359011Y-112207990D01*
X139349922Y-112216228D01*
X139340069Y-112223536D01*
X139329548Y-112229842D01*
X139318458Y-112235087D01*
X139306909Y-112239220D01*
X139295009Y-112242200D01*
X139282875Y-112244000D01*
X139270623Y-112244602D01*
X139258371Y-112244000D01*
X139246237Y-112242200D01*
X139234337Y-112239220D01*
X139222788Y-112235087D01*
X139211698Y-112229842D01*
X139201177Y-112223536D01*
X139191324Y-112216228D01*
X139182235Y-112207990D01*
X138298352Y-111324107D01*
X138290114Y-111315018D01*
X138282806Y-111305165D01*
X138276500Y-111294644D01*
X138271255Y-111283554D01*
X138267122Y-111272005D01*
X138264142Y-111260105D01*
X138262342Y-111247971D01*
X138261740Y-111235719D01*
X138262342Y-111223467D01*
X138264142Y-111211333D01*
X138267122Y-111199433D01*
X138271255Y-111187884D01*
X138276500Y-111176794D01*
X138282806Y-111166273D01*
X138290114Y-111156420D01*
X138298352Y-111147331D01*
X138475129Y-110970554D01*
X138484218Y-110962316D01*
X138494071Y-110955008D01*
X138504592Y-110948702D01*
X138515682Y-110943457D01*
X138527231Y-110939324D01*
X138539131Y-110936344D01*
X138551265Y-110934544D01*
X138563517Y-110933942D01*
X138575769Y-110934544D01*
X138575769Y-110934544D01*
G37*
D17*
X138917070Y-111589272D03*
D14*
G36*
X139282875Y-108990000D02*
G01*
X139295009Y-108991800D01*
X139306909Y-108994780D01*
X139318458Y-108998913D01*
X139329548Y-109004158D01*
X139340069Y-109010464D01*
X139349922Y-109017772D01*
X139359011Y-109026010D01*
X139535788Y-109202787D01*
X139544026Y-109211876D01*
X139551334Y-109221729D01*
X139557640Y-109232250D01*
X139562885Y-109243340D01*
X139567018Y-109254889D01*
X139569998Y-109266789D01*
X139571798Y-109278923D01*
X139572400Y-109291175D01*
X139571798Y-109303427D01*
X139569998Y-109315561D01*
X139567018Y-109327461D01*
X139562885Y-109339010D01*
X139557640Y-109350100D01*
X139551334Y-109360621D01*
X139544026Y-109370474D01*
X139535788Y-109379563D01*
X138651905Y-110263446D01*
X138642816Y-110271684D01*
X138632963Y-110278992D01*
X138622442Y-110285298D01*
X138611352Y-110290543D01*
X138599803Y-110294676D01*
X138587903Y-110297656D01*
X138575769Y-110299456D01*
X138563517Y-110300058D01*
X138551265Y-110299456D01*
X138539131Y-110297656D01*
X138527231Y-110294676D01*
X138515682Y-110290543D01*
X138504592Y-110285298D01*
X138494071Y-110278992D01*
X138484218Y-110271684D01*
X138475129Y-110263446D01*
X138298352Y-110086669D01*
X138290114Y-110077580D01*
X138282806Y-110067727D01*
X138276500Y-110057206D01*
X138271255Y-110046116D01*
X138267122Y-110034567D01*
X138264142Y-110022667D01*
X138262342Y-110010533D01*
X138261740Y-109998281D01*
X138262342Y-109986029D01*
X138264142Y-109973895D01*
X138267122Y-109961995D01*
X138271255Y-109950446D01*
X138276500Y-109939356D01*
X138282806Y-109928835D01*
X138290114Y-109918982D01*
X138298352Y-109909893D01*
X139182235Y-109026010D01*
X139191324Y-109017772D01*
X139201177Y-109010464D01*
X139211698Y-109004158D01*
X139222788Y-108998913D01*
X139234337Y-108994780D01*
X139246237Y-108991800D01*
X139258371Y-108990000D01*
X139270623Y-108989398D01*
X139282875Y-108990000D01*
X139282875Y-108990000D01*
G37*
D17*
X138917070Y-109644728D03*
D14*
G36*
X138717189Y-108424315D02*
G01*
X138729323Y-108426115D01*
X138741223Y-108429095D01*
X138752772Y-108433228D01*
X138763862Y-108438473D01*
X138774383Y-108444779D01*
X138784236Y-108452087D01*
X138793325Y-108460325D01*
X138970102Y-108637102D01*
X138978340Y-108646191D01*
X138985648Y-108656044D01*
X138991954Y-108666565D01*
X138997199Y-108677655D01*
X139001332Y-108689204D01*
X139004312Y-108701104D01*
X139006112Y-108713238D01*
X139006714Y-108725490D01*
X139006112Y-108737742D01*
X139004312Y-108749876D01*
X139001332Y-108761776D01*
X138997199Y-108773325D01*
X138991954Y-108784415D01*
X138985648Y-108794936D01*
X138978340Y-108804789D01*
X138970102Y-108813878D01*
X138086219Y-109697761D01*
X138077130Y-109705999D01*
X138067277Y-109713307D01*
X138056756Y-109719613D01*
X138045666Y-109724858D01*
X138034117Y-109728991D01*
X138022217Y-109731971D01*
X138010083Y-109733771D01*
X137997831Y-109734373D01*
X137985579Y-109733771D01*
X137973445Y-109731971D01*
X137961545Y-109728991D01*
X137949996Y-109724858D01*
X137938906Y-109719613D01*
X137928385Y-109713307D01*
X137918532Y-109705999D01*
X137909443Y-109697761D01*
X137732666Y-109520984D01*
X137724428Y-109511895D01*
X137717120Y-109502042D01*
X137710814Y-109491521D01*
X137705569Y-109480431D01*
X137701436Y-109468882D01*
X137698456Y-109456982D01*
X137696656Y-109444848D01*
X137696054Y-109432596D01*
X137696656Y-109420344D01*
X137698456Y-109408210D01*
X137701436Y-109396310D01*
X137705569Y-109384761D01*
X137710814Y-109373671D01*
X137717120Y-109363150D01*
X137724428Y-109353297D01*
X137732666Y-109344208D01*
X138616549Y-108460325D01*
X138625638Y-108452087D01*
X138635491Y-108444779D01*
X138646012Y-108438473D01*
X138657102Y-108433228D01*
X138668651Y-108429095D01*
X138680551Y-108426115D01*
X138692685Y-108424315D01*
X138704937Y-108423713D01*
X138717189Y-108424315D01*
X138717189Y-108424315D01*
G37*
D17*
X138351384Y-109079043D03*
D14*
G36*
X138151504Y-107858629D02*
G01*
X138163638Y-107860429D01*
X138175538Y-107863409D01*
X138187087Y-107867542D01*
X138198177Y-107872787D01*
X138208698Y-107879093D01*
X138218551Y-107886401D01*
X138227640Y-107894639D01*
X138404417Y-108071416D01*
X138412655Y-108080505D01*
X138419963Y-108090358D01*
X138426269Y-108100879D01*
X138431514Y-108111969D01*
X138435647Y-108123518D01*
X138438627Y-108135418D01*
X138440427Y-108147552D01*
X138441029Y-108159804D01*
X138440427Y-108172056D01*
X138438627Y-108184190D01*
X138435647Y-108196090D01*
X138431514Y-108207639D01*
X138426269Y-108218729D01*
X138419963Y-108229250D01*
X138412655Y-108239103D01*
X138404417Y-108248192D01*
X137520534Y-109132075D01*
X137511445Y-109140313D01*
X137501592Y-109147621D01*
X137491071Y-109153927D01*
X137479981Y-109159172D01*
X137468432Y-109163305D01*
X137456532Y-109166285D01*
X137444398Y-109168085D01*
X137432146Y-109168687D01*
X137419894Y-109168085D01*
X137407760Y-109166285D01*
X137395860Y-109163305D01*
X137384311Y-109159172D01*
X137373221Y-109153927D01*
X137362700Y-109147621D01*
X137352847Y-109140313D01*
X137343758Y-109132075D01*
X137166981Y-108955298D01*
X137158743Y-108946209D01*
X137151435Y-108936356D01*
X137145129Y-108925835D01*
X137139884Y-108914745D01*
X137135751Y-108903196D01*
X137132771Y-108891296D01*
X137130971Y-108879162D01*
X137130369Y-108866910D01*
X137130971Y-108854658D01*
X137132771Y-108842524D01*
X137135751Y-108830624D01*
X137139884Y-108819075D01*
X137145129Y-108807985D01*
X137151435Y-108797464D01*
X137158743Y-108787611D01*
X137166981Y-108778522D01*
X138050864Y-107894639D01*
X138059953Y-107886401D01*
X138069806Y-107879093D01*
X138080327Y-107872787D01*
X138091417Y-107867542D01*
X138102966Y-107863409D01*
X138114866Y-107860429D01*
X138127000Y-107858629D01*
X138139252Y-107858027D01*
X138151504Y-107858629D01*
X138151504Y-107858629D01*
G37*
D17*
X137785699Y-108513357D03*
D14*
G36*
X137585819Y-107292944D02*
G01*
X137597953Y-107294744D01*
X137609853Y-107297724D01*
X137621402Y-107301857D01*
X137632492Y-107307102D01*
X137643013Y-107313408D01*
X137652866Y-107320716D01*
X137661955Y-107328954D01*
X137838732Y-107505731D01*
X137846970Y-107514820D01*
X137854278Y-107524673D01*
X137860584Y-107535194D01*
X137865829Y-107546284D01*
X137869962Y-107557833D01*
X137872942Y-107569733D01*
X137874742Y-107581867D01*
X137875344Y-107594119D01*
X137874742Y-107606371D01*
X137872942Y-107618505D01*
X137869962Y-107630405D01*
X137865829Y-107641954D01*
X137860584Y-107653044D01*
X137854278Y-107663565D01*
X137846970Y-107673418D01*
X137838732Y-107682507D01*
X136954849Y-108566390D01*
X136945760Y-108574628D01*
X136935907Y-108581936D01*
X136925386Y-108588242D01*
X136914296Y-108593487D01*
X136902747Y-108597620D01*
X136890847Y-108600600D01*
X136878713Y-108602400D01*
X136866461Y-108603002D01*
X136854209Y-108602400D01*
X136842075Y-108600600D01*
X136830175Y-108597620D01*
X136818626Y-108593487D01*
X136807536Y-108588242D01*
X136797015Y-108581936D01*
X136787162Y-108574628D01*
X136778073Y-108566390D01*
X136601296Y-108389613D01*
X136593058Y-108380524D01*
X136585750Y-108370671D01*
X136579444Y-108360150D01*
X136574199Y-108349060D01*
X136570066Y-108337511D01*
X136567086Y-108325611D01*
X136565286Y-108313477D01*
X136564684Y-108301225D01*
X136565286Y-108288973D01*
X136567086Y-108276839D01*
X136570066Y-108264939D01*
X136574199Y-108253390D01*
X136579444Y-108242300D01*
X136585750Y-108231779D01*
X136593058Y-108221926D01*
X136601296Y-108212837D01*
X137485179Y-107328954D01*
X137494268Y-107320716D01*
X137504121Y-107313408D01*
X137514642Y-107307102D01*
X137525732Y-107301857D01*
X137537281Y-107297724D01*
X137549181Y-107294744D01*
X137561315Y-107292944D01*
X137573567Y-107292342D01*
X137585819Y-107292944D01*
X137585819Y-107292944D01*
G37*
D17*
X137220014Y-107947672D03*
D14*
G36*
X137020133Y-106727258D02*
G01*
X137032267Y-106729058D01*
X137044167Y-106732038D01*
X137055716Y-106736171D01*
X137066806Y-106741416D01*
X137077327Y-106747722D01*
X137087180Y-106755030D01*
X137096269Y-106763268D01*
X137273046Y-106940045D01*
X137281284Y-106949134D01*
X137288592Y-106958987D01*
X137294898Y-106969508D01*
X137300143Y-106980598D01*
X137304276Y-106992147D01*
X137307256Y-107004047D01*
X137309056Y-107016181D01*
X137309658Y-107028433D01*
X137309056Y-107040685D01*
X137307256Y-107052819D01*
X137304276Y-107064719D01*
X137300143Y-107076268D01*
X137294898Y-107087358D01*
X137288592Y-107097879D01*
X137281284Y-107107732D01*
X137273046Y-107116821D01*
X136389163Y-108000704D01*
X136380074Y-108008942D01*
X136370221Y-108016250D01*
X136359700Y-108022556D01*
X136348610Y-108027801D01*
X136337061Y-108031934D01*
X136325161Y-108034914D01*
X136313027Y-108036714D01*
X136300775Y-108037316D01*
X136288523Y-108036714D01*
X136276389Y-108034914D01*
X136264489Y-108031934D01*
X136252940Y-108027801D01*
X136241850Y-108022556D01*
X136231329Y-108016250D01*
X136221476Y-108008942D01*
X136212387Y-108000704D01*
X136035610Y-107823927D01*
X136027372Y-107814838D01*
X136020064Y-107804985D01*
X136013758Y-107794464D01*
X136008513Y-107783374D01*
X136004380Y-107771825D01*
X136001400Y-107759925D01*
X135999600Y-107747791D01*
X135998998Y-107735539D01*
X135999600Y-107723287D01*
X136001400Y-107711153D01*
X136004380Y-107699253D01*
X136008513Y-107687704D01*
X136013758Y-107676614D01*
X136020064Y-107666093D01*
X136027372Y-107656240D01*
X136035610Y-107647151D01*
X136919493Y-106763268D01*
X136928582Y-106755030D01*
X136938435Y-106747722D01*
X136948956Y-106741416D01*
X136960046Y-106736171D01*
X136971595Y-106732038D01*
X136983495Y-106729058D01*
X136995629Y-106727258D01*
X137007881Y-106726656D01*
X137020133Y-106727258D01*
X137020133Y-106727258D01*
G37*
D17*
X136654328Y-107381986D03*
D14*
G36*
X136454448Y-106161573D02*
G01*
X136466582Y-106163373D01*
X136478482Y-106166353D01*
X136490031Y-106170486D01*
X136501121Y-106175731D01*
X136511642Y-106182037D01*
X136521495Y-106189345D01*
X136530584Y-106197583D01*
X136707361Y-106374360D01*
X136715599Y-106383449D01*
X136722907Y-106393302D01*
X136729213Y-106403823D01*
X136734458Y-106414913D01*
X136738591Y-106426462D01*
X136741571Y-106438362D01*
X136743371Y-106450496D01*
X136743973Y-106462748D01*
X136743371Y-106475000D01*
X136741571Y-106487134D01*
X136738591Y-106499034D01*
X136734458Y-106510583D01*
X136729213Y-106521673D01*
X136722907Y-106532194D01*
X136715599Y-106542047D01*
X136707361Y-106551136D01*
X135823478Y-107435019D01*
X135814389Y-107443257D01*
X135804536Y-107450565D01*
X135794015Y-107456871D01*
X135782925Y-107462116D01*
X135771376Y-107466249D01*
X135759476Y-107469229D01*
X135747342Y-107471029D01*
X135735090Y-107471631D01*
X135722838Y-107471029D01*
X135710704Y-107469229D01*
X135698804Y-107466249D01*
X135687255Y-107462116D01*
X135676165Y-107456871D01*
X135665644Y-107450565D01*
X135655791Y-107443257D01*
X135646702Y-107435019D01*
X135469925Y-107258242D01*
X135461687Y-107249153D01*
X135454379Y-107239300D01*
X135448073Y-107228779D01*
X135442828Y-107217689D01*
X135438695Y-107206140D01*
X135435715Y-107194240D01*
X135433915Y-107182106D01*
X135433313Y-107169854D01*
X135433915Y-107157602D01*
X135435715Y-107145468D01*
X135438695Y-107133568D01*
X135442828Y-107122019D01*
X135448073Y-107110929D01*
X135454379Y-107100408D01*
X135461687Y-107090555D01*
X135469925Y-107081466D01*
X136353808Y-106197583D01*
X136362897Y-106189345D01*
X136372750Y-106182037D01*
X136383271Y-106175731D01*
X136394361Y-106170486D01*
X136405910Y-106166353D01*
X136417810Y-106163373D01*
X136429944Y-106161573D01*
X136442196Y-106160971D01*
X136454448Y-106161573D01*
X136454448Y-106161573D01*
G37*
D17*
X136088643Y-106816301D03*
D14*
G36*
X135888762Y-105595888D02*
G01*
X135900896Y-105597688D01*
X135912796Y-105600668D01*
X135924345Y-105604801D01*
X135935435Y-105610046D01*
X135945956Y-105616352D01*
X135955809Y-105623660D01*
X135964898Y-105631898D01*
X136141675Y-105808675D01*
X136149913Y-105817764D01*
X136157221Y-105827617D01*
X136163527Y-105838138D01*
X136168772Y-105849228D01*
X136172905Y-105860777D01*
X136175885Y-105872677D01*
X136177685Y-105884811D01*
X136178287Y-105897063D01*
X136177685Y-105909315D01*
X136175885Y-105921449D01*
X136172905Y-105933349D01*
X136168772Y-105944898D01*
X136163527Y-105955988D01*
X136157221Y-105966509D01*
X136149913Y-105976362D01*
X136141675Y-105985451D01*
X135257792Y-106869334D01*
X135248703Y-106877572D01*
X135238850Y-106884880D01*
X135228329Y-106891186D01*
X135217239Y-106896431D01*
X135205690Y-106900564D01*
X135193790Y-106903544D01*
X135181656Y-106905344D01*
X135169404Y-106905946D01*
X135157152Y-106905344D01*
X135145018Y-106903544D01*
X135133118Y-106900564D01*
X135121569Y-106896431D01*
X135110479Y-106891186D01*
X135099958Y-106884880D01*
X135090105Y-106877572D01*
X135081016Y-106869334D01*
X134904239Y-106692557D01*
X134896001Y-106683468D01*
X134888693Y-106673615D01*
X134882387Y-106663094D01*
X134877142Y-106652004D01*
X134873009Y-106640455D01*
X134870029Y-106628555D01*
X134868229Y-106616421D01*
X134867627Y-106604169D01*
X134868229Y-106591917D01*
X134870029Y-106579783D01*
X134873009Y-106567883D01*
X134877142Y-106556334D01*
X134882387Y-106545244D01*
X134888693Y-106534723D01*
X134896001Y-106524870D01*
X134904239Y-106515781D01*
X135788122Y-105631898D01*
X135797211Y-105623660D01*
X135807064Y-105616352D01*
X135817585Y-105610046D01*
X135828675Y-105604801D01*
X135840224Y-105600668D01*
X135852124Y-105597688D01*
X135864258Y-105595888D01*
X135876510Y-105595286D01*
X135888762Y-105595888D01*
X135888762Y-105595888D01*
G37*
D17*
X135522957Y-106250616D03*
D14*
G36*
X135323077Y-105030202D02*
G01*
X135335211Y-105032002D01*
X135347111Y-105034982D01*
X135358660Y-105039115D01*
X135369750Y-105044360D01*
X135380271Y-105050666D01*
X135390124Y-105057974D01*
X135399213Y-105066212D01*
X135575990Y-105242989D01*
X135584228Y-105252078D01*
X135591536Y-105261931D01*
X135597842Y-105272452D01*
X135603087Y-105283542D01*
X135607220Y-105295091D01*
X135610200Y-105306991D01*
X135612000Y-105319125D01*
X135612602Y-105331377D01*
X135612000Y-105343629D01*
X135610200Y-105355763D01*
X135607220Y-105367663D01*
X135603087Y-105379212D01*
X135597842Y-105390302D01*
X135591536Y-105400823D01*
X135584228Y-105410676D01*
X135575990Y-105419765D01*
X134692107Y-106303648D01*
X134683018Y-106311886D01*
X134673165Y-106319194D01*
X134662644Y-106325500D01*
X134651554Y-106330745D01*
X134640005Y-106334878D01*
X134628105Y-106337858D01*
X134615971Y-106339658D01*
X134603719Y-106340260D01*
X134591467Y-106339658D01*
X134579333Y-106337858D01*
X134567433Y-106334878D01*
X134555884Y-106330745D01*
X134544794Y-106325500D01*
X134534273Y-106319194D01*
X134524420Y-106311886D01*
X134515331Y-106303648D01*
X134338554Y-106126871D01*
X134330316Y-106117782D01*
X134323008Y-106107929D01*
X134316702Y-106097408D01*
X134311457Y-106086318D01*
X134307324Y-106074769D01*
X134304344Y-106062869D01*
X134302544Y-106050735D01*
X134301942Y-106038483D01*
X134302544Y-106026231D01*
X134304344Y-106014097D01*
X134307324Y-106002197D01*
X134311457Y-105990648D01*
X134316702Y-105979558D01*
X134323008Y-105969037D01*
X134330316Y-105959184D01*
X134338554Y-105950095D01*
X135222437Y-105066212D01*
X135231526Y-105057974D01*
X135241379Y-105050666D01*
X135251900Y-105044360D01*
X135262990Y-105039115D01*
X135274539Y-105034982D01*
X135286439Y-105032002D01*
X135298573Y-105030202D01*
X135310825Y-105029600D01*
X135323077Y-105030202D01*
X135323077Y-105030202D01*
G37*
D17*
X134957272Y-105684930D03*
D14*
G36*
X132671427Y-105030202D02*
G01*
X132683561Y-105032002D01*
X132695461Y-105034982D01*
X132707010Y-105039115D01*
X132718100Y-105044360D01*
X132728621Y-105050666D01*
X132738474Y-105057974D01*
X132747563Y-105066212D01*
X133631446Y-105950095D01*
X133639684Y-105959184D01*
X133646992Y-105969037D01*
X133653298Y-105979558D01*
X133658543Y-105990648D01*
X133662676Y-106002197D01*
X133665656Y-106014097D01*
X133667456Y-106026231D01*
X133668058Y-106038483D01*
X133667456Y-106050735D01*
X133665656Y-106062869D01*
X133662676Y-106074769D01*
X133658543Y-106086318D01*
X133653298Y-106097408D01*
X133646992Y-106107929D01*
X133639684Y-106117782D01*
X133631446Y-106126871D01*
X133454669Y-106303648D01*
X133445580Y-106311886D01*
X133435727Y-106319194D01*
X133425206Y-106325500D01*
X133414116Y-106330745D01*
X133402567Y-106334878D01*
X133390667Y-106337858D01*
X133378533Y-106339658D01*
X133366281Y-106340260D01*
X133354029Y-106339658D01*
X133341895Y-106337858D01*
X133329995Y-106334878D01*
X133318446Y-106330745D01*
X133307356Y-106325500D01*
X133296835Y-106319194D01*
X133286982Y-106311886D01*
X133277893Y-106303648D01*
X132394010Y-105419765D01*
X132385772Y-105410676D01*
X132378464Y-105400823D01*
X132372158Y-105390302D01*
X132366913Y-105379212D01*
X132362780Y-105367663D01*
X132359800Y-105355763D01*
X132358000Y-105343629D01*
X132357398Y-105331377D01*
X132358000Y-105319125D01*
X132359800Y-105306991D01*
X132362780Y-105295091D01*
X132366913Y-105283542D01*
X132372158Y-105272452D01*
X132378464Y-105261931D01*
X132385772Y-105252078D01*
X132394010Y-105242989D01*
X132570787Y-105066212D01*
X132579876Y-105057974D01*
X132589729Y-105050666D01*
X132600250Y-105044360D01*
X132611340Y-105039115D01*
X132622889Y-105034982D01*
X132634789Y-105032002D01*
X132646923Y-105030202D01*
X132659175Y-105029600D01*
X132671427Y-105030202D01*
X132671427Y-105030202D01*
G37*
D17*
X133012728Y-105684930D03*
D14*
G36*
X132105742Y-105595888D02*
G01*
X132117876Y-105597688D01*
X132129776Y-105600668D01*
X132141325Y-105604801D01*
X132152415Y-105610046D01*
X132162936Y-105616352D01*
X132172789Y-105623660D01*
X132181878Y-105631898D01*
X133065761Y-106515781D01*
X133073999Y-106524870D01*
X133081307Y-106534723D01*
X133087613Y-106545244D01*
X133092858Y-106556334D01*
X133096991Y-106567883D01*
X133099971Y-106579783D01*
X133101771Y-106591917D01*
X133102373Y-106604169D01*
X133101771Y-106616421D01*
X133099971Y-106628555D01*
X133096991Y-106640455D01*
X133092858Y-106652004D01*
X133087613Y-106663094D01*
X133081307Y-106673615D01*
X133073999Y-106683468D01*
X133065761Y-106692557D01*
X132888984Y-106869334D01*
X132879895Y-106877572D01*
X132870042Y-106884880D01*
X132859521Y-106891186D01*
X132848431Y-106896431D01*
X132836882Y-106900564D01*
X132824982Y-106903544D01*
X132812848Y-106905344D01*
X132800596Y-106905946D01*
X132788344Y-106905344D01*
X132776210Y-106903544D01*
X132764310Y-106900564D01*
X132752761Y-106896431D01*
X132741671Y-106891186D01*
X132731150Y-106884880D01*
X132721297Y-106877572D01*
X132712208Y-106869334D01*
X131828325Y-105985451D01*
X131820087Y-105976362D01*
X131812779Y-105966509D01*
X131806473Y-105955988D01*
X131801228Y-105944898D01*
X131797095Y-105933349D01*
X131794115Y-105921449D01*
X131792315Y-105909315D01*
X131791713Y-105897063D01*
X131792315Y-105884811D01*
X131794115Y-105872677D01*
X131797095Y-105860777D01*
X131801228Y-105849228D01*
X131806473Y-105838138D01*
X131812779Y-105827617D01*
X131820087Y-105817764D01*
X131828325Y-105808675D01*
X132005102Y-105631898D01*
X132014191Y-105623660D01*
X132024044Y-105616352D01*
X132034565Y-105610046D01*
X132045655Y-105604801D01*
X132057204Y-105600668D01*
X132069104Y-105597688D01*
X132081238Y-105595888D01*
X132093490Y-105595286D01*
X132105742Y-105595888D01*
X132105742Y-105595888D01*
G37*
D17*
X132447043Y-106250616D03*
D14*
G36*
X131540056Y-106161573D02*
G01*
X131552190Y-106163373D01*
X131564090Y-106166353D01*
X131575639Y-106170486D01*
X131586729Y-106175731D01*
X131597250Y-106182037D01*
X131607103Y-106189345D01*
X131616192Y-106197583D01*
X132500075Y-107081466D01*
X132508313Y-107090555D01*
X132515621Y-107100408D01*
X132521927Y-107110929D01*
X132527172Y-107122019D01*
X132531305Y-107133568D01*
X132534285Y-107145468D01*
X132536085Y-107157602D01*
X132536687Y-107169854D01*
X132536085Y-107182106D01*
X132534285Y-107194240D01*
X132531305Y-107206140D01*
X132527172Y-107217689D01*
X132521927Y-107228779D01*
X132515621Y-107239300D01*
X132508313Y-107249153D01*
X132500075Y-107258242D01*
X132323298Y-107435019D01*
X132314209Y-107443257D01*
X132304356Y-107450565D01*
X132293835Y-107456871D01*
X132282745Y-107462116D01*
X132271196Y-107466249D01*
X132259296Y-107469229D01*
X132247162Y-107471029D01*
X132234910Y-107471631D01*
X132222658Y-107471029D01*
X132210524Y-107469229D01*
X132198624Y-107466249D01*
X132187075Y-107462116D01*
X132175985Y-107456871D01*
X132165464Y-107450565D01*
X132155611Y-107443257D01*
X132146522Y-107435019D01*
X131262639Y-106551136D01*
X131254401Y-106542047D01*
X131247093Y-106532194D01*
X131240787Y-106521673D01*
X131235542Y-106510583D01*
X131231409Y-106499034D01*
X131228429Y-106487134D01*
X131226629Y-106475000D01*
X131226027Y-106462748D01*
X131226629Y-106450496D01*
X131228429Y-106438362D01*
X131231409Y-106426462D01*
X131235542Y-106414913D01*
X131240787Y-106403823D01*
X131247093Y-106393302D01*
X131254401Y-106383449D01*
X131262639Y-106374360D01*
X131439416Y-106197583D01*
X131448505Y-106189345D01*
X131458358Y-106182037D01*
X131468879Y-106175731D01*
X131479969Y-106170486D01*
X131491518Y-106166353D01*
X131503418Y-106163373D01*
X131515552Y-106161573D01*
X131527804Y-106160971D01*
X131540056Y-106161573D01*
X131540056Y-106161573D01*
G37*
D17*
X131881357Y-106816301D03*
D14*
G36*
X130974371Y-106727258D02*
G01*
X130986505Y-106729058D01*
X130998405Y-106732038D01*
X131009954Y-106736171D01*
X131021044Y-106741416D01*
X131031565Y-106747722D01*
X131041418Y-106755030D01*
X131050507Y-106763268D01*
X131934390Y-107647151D01*
X131942628Y-107656240D01*
X131949936Y-107666093D01*
X131956242Y-107676614D01*
X131961487Y-107687704D01*
X131965620Y-107699253D01*
X131968600Y-107711153D01*
X131970400Y-107723287D01*
X131971002Y-107735539D01*
X131970400Y-107747791D01*
X131968600Y-107759925D01*
X131965620Y-107771825D01*
X131961487Y-107783374D01*
X131956242Y-107794464D01*
X131949936Y-107804985D01*
X131942628Y-107814838D01*
X131934390Y-107823927D01*
X131757613Y-108000704D01*
X131748524Y-108008942D01*
X131738671Y-108016250D01*
X131728150Y-108022556D01*
X131717060Y-108027801D01*
X131705511Y-108031934D01*
X131693611Y-108034914D01*
X131681477Y-108036714D01*
X131669225Y-108037316D01*
X131656973Y-108036714D01*
X131644839Y-108034914D01*
X131632939Y-108031934D01*
X131621390Y-108027801D01*
X131610300Y-108022556D01*
X131599779Y-108016250D01*
X131589926Y-108008942D01*
X131580837Y-108000704D01*
X130696954Y-107116821D01*
X130688716Y-107107732D01*
X130681408Y-107097879D01*
X130675102Y-107087358D01*
X130669857Y-107076268D01*
X130665724Y-107064719D01*
X130662744Y-107052819D01*
X130660944Y-107040685D01*
X130660342Y-107028433D01*
X130660944Y-107016181D01*
X130662744Y-107004047D01*
X130665724Y-106992147D01*
X130669857Y-106980598D01*
X130675102Y-106969508D01*
X130681408Y-106958987D01*
X130688716Y-106949134D01*
X130696954Y-106940045D01*
X130873731Y-106763268D01*
X130882820Y-106755030D01*
X130892673Y-106747722D01*
X130903194Y-106741416D01*
X130914284Y-106736171D01*
X130925833Y-106732038D01*
X130937733Y-106729058D01*
X130949867Y-106727258D01*
X130962119Y-106726656D01*
X130974371Y-106727258D01*
X130974371Y-106727258D01*
G37*
D17*
X131315672Y-107381986D03*
D14*
G36*
X130408685Y-107292944D02*
G01*
X130420819Y-107294744D01*
X130432719Y-107297724D01*
X130444268Y-107301857D01*
X130455358Y-107307102D01*
X130465879Y-107313408D01*
X130475732Y-107320716D01*
X130484821Y-107328954D01*
X131368704Y-108212837D01*
X131376942Y-108221926D01*
X131384250Y-108231779D01*
X131390556Y-108242300D01*
X131395801Y-108253390D01*
X131399934Y-108264939D01*
X131402914Y-108276839D01*
X131404714Y-108288973D01*
X131405316Y-108301225D01*
X131404714Y-108313477D01*
X131402914Y-108325611D01*
X131399934Y-108337511D01*
X131395801Y-108349060D01*
X131390556Y-108360150D01*
X131384250Y-108370671D01*
X131376942Y-108380524D01*
X131368704Y-108389613D01*
X131191927Y-108566390D01*
X131182838Y-108574628D01*
X131172985Y-108581936D01*
X131162464Y-108588242D01*
X131151374Y-108593487D01*
X131139825Y-108597620D01*
X131127925Y-108600600D01*
X131115791Y-108602400D01*
X131103539Y-108603002D01*
X131091287Y-108602400D01*
X131079153Y-108600600D01*
X131067253Y-108597620D01*
X131055704Y-108593487D01*
X131044614Y-108588242D01*
X131034093Y-108581936D01*
X131024240Y-108574628D01*
X131015151Y-108566390D01*
X130131268Y-107682507D01*
X130123030Y-107673418D01*
X130115722Y-107663565D01*
X130109416Y-107653044D01*
X130104171Y-107641954D01*
X130100038Y-107630405D01*
X130097058Y-107618505D01*
X130095258Y-107606371D01*
X130094656Y-107594119D01*
X130095258Y-107581867D01*
X130097058Y-107569733D01*
X130100038Y-107557833D01*
X130104171Y-107546284D01*
X130109416Y-107535194D01*
X130115722Y-107524673D01*
X130123030Y-107514820D01*
X130131268Y-107505731D01*
X130308045Y-107328954D01*
X130317134Y-107320716D01*
X130326987Y-107313408D01*
X130337508Y-107307102D01*
X130348598Y-107301857D01*
X130360147Y-107297724D01*
X130372047Y-107294744D01*
X130384181Y-107292944D01*
X130396433Y-107292342D01*
X130408685Y-107292944D01*
X130408685Y-107292944D01*
G37*
D17*
X130749986Y-107947672D03*
D14*
G36*
X129843000Y-107858629D02*
G01*
X129855134Y-107860429D01*
X129867034Y-107863409D01*
X129878583Y-107867542D01*
X129889673Y-107872787D01*
X129900194Y-107879093D01*
X129910047Y-107886401D01*
X129919136Y-107894639D01*
X130803019Y-108778522D01*
X130811257Y-108787611D01*
X130818565Y-108797464D01*
X130824871Y-108807985D01*
X130830116Y-108819075D01*
X130834249Y-108830624D01*
X130837229Y-108842524D01*
X130839029Y-108854658D01*
X130839631Y-108866910D01*
X130839029Y-108879162D01*
X130837229Y-108891296D01*
X130834249Y-108903196D01*
X130830116Y-108914745D01*
X130824871Y-108925835D01*
X130818565Y-108936356D01*
X130811257Y-108946209D01*
X130803019Y-108955298D01*
X130626242Y-109132075D01*
X130617153Y-109140313D01*
X130607300Y-109147621D01*
X130596779Y-109153927D01*
X130585689Y-109159172D01*
X130574140Y-109163305D01*
X130562240Y-109166285D01*
X130550106Y-109168085D01*
X130537854Y-109168687D01*
X130525602Y-109168085D01*
X130513468Y-109166285D01*
X130501568Y-109163305D01*
X130490019Y-109159172D01*
X130478929Y-109153927D01*
X130468408Y-109147621D01*
X130458555Y-109140313D01*
X130449466Y-109132075D01*
X129565583Y-108248192D01*
X129557345Y-108239103D01*
X129550037Y-108229250D01*
X129543731Y-108218729D01*
X129538486Y-108207639D01*
X129534353Y-108196090D01*
X129531373Y-108184190D01*
X129529573Y-108172056D01*
X129528971Y-108159804D01*
X129529573Y-108147552D01*
X129531373Y-108135418D01*
X129534353Y-108123518D01*
X129538486Y-108111969D01*
X129543731Y-108100879D01*
X129550037Y-108090358D01*
X129557345Y-108080505D01*
X129565583Y-108071416D01*
X129742360Y-107894639D01*
X129751449Y-107886401D01*
X129761302Y-107879093D01*
X129771823Y-107872787D01*
X129782913Y-107867542D01*
X129794462Y-107863409D01*
X129806362Y-107860429D01*
X129818496Y-107858629D01*
X129830748Y-107858027D01*
X129843000Y-107858629D01*
X129843000Y-107858629D01*
G37*
D17*
X130184301Y-108513357D03*
D14*
G36*
X129277315Y-108424315D02*
G01*
X129289449Y-108426115D01*
X129301349Y-108429095D01*
X129312898Y-108433228D01*
X129323988Y-108438473D01*
X129334509Y-108444779D01*
X129344362Y-108452087D01*
X129353451Y-108460325D01*
X130237334Y-109344208D01*
X130245572Y-109353297D01*
X130252880Y-109363150D01*
X130259186Y-109373671D01*
X130264431Y-109384761D01*
X130268564Y-109396310D01*
X130271544Y-109408210D01*
X130273344Y-109420344D01*
X130273946Y-109432596D01*
X130273344Y-109444848D01*
X130271544Y-109456982D01*
X130268564Y-109468882D01*
X130264431Y-109480431D01*
X130259186Y-109491521D01*
X130252880Y-109502042D01*
X130245572Y-109511895D01*
X130237334Y-109520984D01*
X130060557Y-109697761D01*
X130051468Y-109705999D01*
X130041615Y-109713307D01*
X130031094Y-109719613D01*
X130020004Y-109724858D01*
X130008455Y-109728991D01*
X129996555Y-109731971D01*
X129984421Y-109733771D01*
X129972169Y-109734373D01*
X129959917Y-109733771D01*
X129947783Y-109731971D01*
X129935883Y-109728991D01*
X129924334Y-109724858D01*
X129913244Y-109719613D01*
X129902723Y-109713307D01*
X129892870Y-109705999D01*
X129883781Y-109697761D01*
X128999898Y-108813878D01*
X128991660Y-108804789D01*
X128984352Y-108794936D01*
X128978046Y-108784415D01*
X128972801Y-108773325D01*
X128968668Y-108761776D01*
X128965688Y-108749876D01*
X128963888Y-108737742D01*
X128963286Y-108725490D01*
X128963888Y-108713238D01*
X128965688Y-108701104D01*
X128968668Y-108689204D01*
X128972801Y-108677655D01*
X128978046Y-108666565D01*
X128984352Y-108656044D01*
X128991660Y-108646191D01*
X128999898Y-108637102D01*
X129176675Y-108460325D01*
X129185764Y-108452087D01*
X129195617Y-108444779D01*
X129206138Y-108438473D01*
X129217228Y-108433228D01*
X129228777Y-108429095D01*
X129240677Y-108426115D01*
X129252811Y-108424315D01*
X129265063Y-108423713D01*
X129277315Y-108424315D01*
X129277315Y-108424315D01*
G37*
D17*
X129618616Y-109079043D03*
D14*
G36*
X128711629Y-108990000D02*
G01*
X128723763Y-108991800D01*
X128735663Y-108994780D01*
X128747212Y-108998913D01*
X128758302Y-109004158D01*
X128768823Y-109010464D01*
X128778676Y-109017772D01*
X128787765Y-109026010D01*
X129671648Y-109909893D01*
X129679886Y-109918982D01*
X129687194Y-109928835D01*
X129693500Y-109939356D01*
X129698745Y-109950446D01*
X129702878Y-109961995D01*
X129705858Y-109973895D01*
X129707658Y-109986029D01*
X129708260Y-109998281D01*
X129707658Y-110010533D01*
X129705858Y-110022667D01*
X129702878Y-110034567D01*
X129698745Y-110046116D01*
X129693500Y-110057206D01*
X129687194Y-110067727D01*
X129679886Y-110077580D01*
X129671648Y-110086669D01*
X129494871Y-110263446D01*
X129485782Y-110271684D01*
X129475929Y-110278992D01*
X129465408Y-110285298D01*
X129454318Y-110290543D01*
X129442769Y-110294676D01*
X129430869Y-110297656D01*
X129418735Y-110299456D01*
X129406483Y-110300058D01*
X129394231Y-110299456D01*
X129382097Y-110297656D01*
X129370197Y-110294676D01*
X129358648Y-110290543D01*
X129347558Y-110285298D01*
X129337037Y-110278992D01*
X129327184Y-110271684D01*
X129318095Y-110263446D01*
X128434212Y-109379563D01*
X128425974Y-109370474D01*
X128418666Y-109360621D01*
X128412360Y-109350100D01*
X128407115Y-109339010D01*
X128402982Y-109327461D01*
X128400002Y-109315561D01*
X128398202Y-109303427D01*
X128397600Y-109291175D01*
X128398202Y-109278923D01*
X128400002Y-109266789D01*
X128402982Y-109254889D01*
X128407115Y-109243340D01*
X128412360Y-109232250D01*
X128418666Y-109221729D01*
X128425974Y-109211876D01*
X128434212Y-109202787D01*
X128610989Y-109026010D01*
X128620078Y-109017772D01*
X128629931Y-109010464D01*
X128640452Y-109004158D01*
X128651542Y-108998913D01*
X128663091Y-108994780D01*
X128674991Y-108991800D01*
X128687125Y-108990000D01*
X128699377Y-108989398D01*
X128711629Y-108990000D01*
X128711629Y-108990000D01*
G37*
D17*
X129052930Y-109644728D03*
D18*
X108493600Y-108374000D03*
X107543600Y-108374000D03*
X106593600Y-108374000D03*
X106593600Y-110574000D03*
X108493600Y-110574000D03*
D19*
X150241000Y-111379000D03*
X151384000Y-113665000D03*
X127889000Y-114808000D03*
X127762000Y-116586000D03*
X124587000Y-109982000D03*
X122682000Y-109855000D03*
X129540000Y-115697000D03*
X131318000Y-111125000D03*
X120650000Y-107950000D03*
X133985000Y-104140000D03*
X132715000Y-108585000D03*
X170307000Y-104140000D03*
X168021000Y-106680000D03*
X166878000Y-105537000D03*
X168783000Y-104648000D03*
X145923000Y-112268000D03*
X147701000Y-112395000D03*
X149225000Y-112395000D03*
X111760000Y-106680000D03*
X113030000Y-106680000D03*
X118999000Y-107442000D03*
X117602000Y-107569000D03*
X115783165Y-106768846D03*
X114300000Y-106680000D03*
X130429000Y-116332000D03*
X159512000Y-108204000D03*
X132588000Y-103886000D03*
X133350000Y-103124000D03*
X121539000Y-108712000D03*
X101574600Y-111353600D03*
X105054400Y-106857800D03*
X101549200Y-106959400D03*
X102692200Y-106959400D03*
X108712000Y-112268000D03*
X108712000Y-114300000D03*
X108712000Y-116332000D03*
X107188000Y-112268000D03*
X107188000Y-114300000D03*
X107188000Y-116332000D03*
X101092000Y-113284000D03*
X101092000Y-115824000D03*
X102616000Y-116840000D03*
X105156000Y-116840000D03*
X104140000Y-111760000D03*
X110998000Y-105156000D03*
X102870000Y-103632000D03*
X151638000Y-110236000D03*
X153670000Y-110236000D03*
X153670000Y-111506000D03*
X151638000Y-111506000D03*
X153670000Y-112776000D03*
X152400000Y-112776000D03*
X157480000Y-113030000D03*
X170180000Y-116840000D03*
X168402000Y-116840000D03*
X166878000Y-116840000D03*
X168402000Y-115316000D03*
X166878000Y-115316000D03*
X164592000Y-116840000D03*
X163068000Y-116840000D03*
X161544000Y-116840000D03*
X162052000Y-115316000D03*
X160782000Y-115570000D03*
X161290000Y-112776000D03*
X162560000Y-111506000D03*
X164084000Y-110490000D03*
X165862000Y-110490000D03*
X167132000Y-111760000D03*
X168402000Y-112776000D03*
X165608000Y-106680000D03*
X168148000Y-107950000D03*
X108204000Y-106934000D03*
X156210000Y-116967000D03*
X103891400Y-106558384D03*
X104813101Y-110655101D03*
X134620000Y-110744000D03*
X156210000Y-115697000D03*
X136271000Y-110871000D03*
X142240000Y-115570000D03*
X149606000Y-114046000D03*
X155956000Y-113030000D03*
X126365000Y-109728000D03*
X132842000Y-112141000D03*
X124079000Y-108839000D03*
X134874000Y-112776000D03*
X135255000Y-108966000D03*
X160274000Y-114300000D03*
D20*
X130148947Y-113887367D02*
X130749986Y-113286328D01*
X126552710Y-115769290D02*
X128267024Y-115769290D01*
X125857000Y-116465000D02*
X126552710Y-115769290D01*
X128267024Y-115769290D02*
X128304657Y-115731657D01*
X128304657Y-115731657D02*
X130148947Y-113887367D01*
X130078990Y-117505990D02*
X128304657Y-115731657D01*
X141701010Y-117505990D02*
X141574010Y-117505990D01*
X141574010Y-117505990D02*
X130078990Y-117505990D01*
X144493810Y-115443000D02*
X142430819Y-117505991D01*
X150241000Y-115443000D02*
X144493810Y-115443000D01*
X141583619Y-117505990D02*
X141574010Y-117505990D01*
X142430819Y-117505991D02*
X141583619Y-117505990D01*
X150495000Y-115697000D02*
X150241000Y-115443000D01*
X161036000Y-106934000D02*
X159512000Y-106934000D01*
X159512000Y-106934000D02*
X157480000Y-108966000D01*
X157480000Y-108966000D02*
X151130000Y-108966000D01*
X151130000Y-108966000D02*
X150241000Y-109855000D01*
X150241000Y-109855000D02*
X150241000Y-111379000D01*
X150495000Y-114554000D02*
X151384000Y-113665000D01*
X150495000Y-115697000D02*
X150495000Y-114554000D01*
X104140000Y-102802081D02*
X105147719Y-103809800D01*
X104140000Y-101600000D02*
X104140000Y-102802081D01*
X105147719Y-103809800D02*
X109169200Y-103809800D01*
X109378400Y-104019000D02*
X109378400Y-105410000D01*
X109169200Y-103809800D02*
X109378400Y-104019000D01*
X124479400Y-116465000D02*
X125857000Y-116465000D01*
X109378400Y-105410000D02*
X109378400Y-106838400D01*
X110312200Y-116916200D02*
X124028200Y-116916200D01*
X109804200Y-116408200D02*
X110312200Y-116916200D01*
X109378400Y-106838400D02*
X109804200Y-107264200D01*
X124028200Y-116916200D02*
X124479400Y-116465000D01*
X109772000Y-111277400D02*
X109804200Y-111277400D01*
X108493600Y-110574000D02*
X109068600Y-110574000D01*
X109804200Y-107264200D02*
X109804200Y-111277400D01*
X109068600Y-110574000D02*
X109772000Y-111277400D01*
X109804200Y-111277400D02*
X109804200Y-116408200D01*
X129540000Y-115627686D02*
X129540000Y-115697000D01*
X131315672Y-113852014D02*
X129540000Y-115627686D01*
X153307999Y-109455001D02*
X158010001Y-109455001D01*
X158283000Y-109728000D02*
X159258000Y-109728000D01*
X158010001Y-109455001D02*
X158283000Y-109728000D01*
X152908000Y-109855000D02*
X153307999Y-109455001D01*
X107303400Y-105410000D02*
X107543600Y-105650200D01*
X107543600Y-107594000D02*
X107543600Y-108374000D01*
X106578400Y-105410000D02*
X107303400Y-105410000D01*
X101600000Y-109093000D02*
X101600000Y-111328200D01*
X101600000Y-111328200D02*
X101574600Y-111353600D01*
X105283000Y-107086400D02*
X105054400Y-106857800D01*
X107543600Y-107086400D02*
X105283000Y-107086400D01*
X107543600Y-105650200D02*
X107543600Y-107086400D01*
X107543600Y-107086400D02*
X107543600Y-107594000D01*
X111125000Y-107315000D02*
X111760000Y-106680000D01*
X111125000Y-109347000D02*
X111125000Y-107315000D01*
X129618616Y-112154957D02*
X128870573Y-112903000D01*
X128870573Y-112903000D02*
X128143000Y-112903000D01*
X128143000Y-112903000D02*
X126746000Y-111506000D01*
X126746000Y-111506000D02*
X121920000Y-111506000D01*
X121920000Y-111506000D02*
X121285000Y-112141000D01*
X121285000Y-110902000D02*
X121285000Y-112522000D01*
X119730000Y-109347000D02*
X121285000Y-110902000D01*
X119005000Y-109347000D02*
X119730000Y-109347000D01*
X121285000Y-112141000D02*
X121285000Y-112522000D01*
X121285000Y-112522000D02*
X121285000Y-113538000D01*
X113925000Y-112398000D02*
X112785000Y-113538000D01*
X113925000Y-109347000D02*
X113925000Y-112398000D01*
X115261990Y-116014990D02*
X112785000Y-113538000D01*
X123938810Y-116014990D02*
X115261990Y-116014990D01*
X129112944Y-113792000D02*
X128270000Y-113792000D01*
X130184301Y-112720643D02*
X129112944Y-113792000D01*
X128270000Y-113792000D02*
X126492000Y-112014000D01*
X124267600Y-115686200D02*
X123938810Y-116014990D01*
X126492000Y-112014000D02*
X124714000Y-112014000D01*
X124267600Y-112460400D02*
X124267600Y-115686200D01*
X124714000Y-112014000D02*
X124267600Y-112460400D01*
X105299600Y-109093000D02*
X104400000Y-109093000D01*
X106593600Y-108374000D02*
X106018600Y-108374000D01*
X106018600Y-108374000D02*
X105299600Y-109093000D01*
X106593600Y-109154000D02*
X106593600Y-108374000D01*
X106862800Y-109423200D02*
X106593600Y-109154000D01*
X108493600Y-109154000D02*
X108224400Y-109423200D01*
X108224400Y-109423200D02*
X106862800Y-109423200D01*
X108493600Y-108374000D02*
X108493600Y-109154000D01*
X103891400Y-105232200D02*
X103891400Y-106558384D01*
X104413102Y-110255102D02*
X104813101Y-110655101D01*
X104400000Y-110242000D02*
X104413102Y-110255102D01*
X104400000Y-109093000D02*
X104400000Y-110242000D01*
X146263000Y-116716000D02*
X148590000Y-116716000D01*
X145288000Y-116716000D02*
X146263000Y-116716000D01*
X133613767Y-106285969D02*
X133613767Y-109737767D01*
X133012728Y-105684930D02*
X133613767Y-106285969D01*
X133613767Y-109737767D02*
X134620000Y-110744000D01*
X158695000Y-114482000D02*
X158695000Y-115697000D01*
X159258000Y-112528000D02*
X159258000Y-113919000D01*
X159258000Y-113919000D02*
X158695000Y-114482000D01*
X160014000Y-112528000D02*
X159258000Y-112528000D01*
X163830000Y-108712000D02*
X160014000Y-112528000D01*
X170180000Y-111760000D02*
X168977919Y-111760000D01*
X165929919Y-108712000D02*
X163830000Y-108712000D01*
X168977919Y-111760000D02*
X165929919Y-108712000D01*
X156210000Y-115697000D02*
X158695000Y-115697000D01*
X142240000Y-102927686D02*
X142240000Y-101600000D01*
X137220014Y-107947672D02*
X142240000Y-102927686D01*
X137220014Y-107947672D02*
X136271000Y-108896686D01*
X136271000Y-108896686D02*
X136271000Y-110871000D01*
X145034000Y-113916000D02*
X143894000Y-113916000D01*
X143894000Y-113916000D02*
X142240000Y-115570000D01*
X142244419Y-117055980D02*
X144307410Y-114992989D01*
X131280318Y-115018738D02*
X131280318Y-116167318D01*
X132168980Y-117055980D02*
X142244419Y-117055980D01*
X131881357Y-114417699D02*
X131280318Y-115018738D01*
X144307410Y-114992989D02*
X148440201Y-114992989D01*
X131280318Y-116167318D02*
X132168980Y-117055980D01*
X157734000Y-110744000D02*
X156028000Y-110744000D01*
X158115000Y-111125000D02*
X157734000Y-110744000D01*
X160401000Y-111125000D02*
X158115000Y-111125000D01*
X163836000Y-106934000D02*
X163836000Y-107909000D01*
X162525000Y-109220000D02*
X161417000Y-109220000D01*
X161417000Y-109220000D02*
X160782000Y-109855000D01*
X160782000Y-109855000D02*
X160782000Y-110744000D01*
X160782000Y-110744000D02*
X160401000Y-111125000D01*
X148440201Y-114992989D02*
X148659011Y-114992989D01*
X148659011Y-114992989D02*
X149606000Y-114046000D01*
X155956000Y-110816000D02*
X156028000Y-110744000D01*
X155956000Y-113030000D02*
X155956000Y-110816000D01*
X163558500Y-108186500D02*
X166606500Y-108186500D01*
X163836000Y-107909000D02*
X163558500Y-108186500D01*
X163558500Y-108186500D02*
X162525000Y-109220000D01*
X167640000Y-109220000D02*
X170180000Y-109220000D01*
X166606500Y-108186500D02*
X167640000Y-109220000D01*
X114300000Y-103378000D02*
X114300000Y-101600000D01*
X129052930Y-111323730D02*
X122885200Y-105156000D01*
X122885200Y-105156000D02*
X117475000Y-105156000D01*
X129052930Y-111589272D02*
X129052930Y-111323730D01*
X117475000Y-105156000D02*
X115951000Y-103632000D01*
X115951000Y-103632000D02*
X114554000Y-103632000D01*
X114554000Y-103632000D02*
X114300000Y-103378000D01*
X111760000Y-101600000D02*
X111760000Y-103124000D01*
X111760000Y-103124000D02*
X113157000Y-104521000D01*
X113157000Y-104521000D02*
X115824000Y-104521000D01*
X115824000Y-104521000D02*
X117094000Y-105791000D01*
X117094000Y-105791000D02*
X121666000Y-105791000D01*
X121666000Y-105791000D02*
X122428000Y-105791000D01*
X122428000Y-105791000D02*
X126365000Y-109728000D01*
X133048082Y-114382345D02*
X132447043Y-114983384D01*
X133241999Y-114188428D02*
X133048082Y-114382345D01*
X133241999Y-112540999D02*
X133241999Y-114188428D01*
X132842000Y-112141000D02*
X133241999Y-112540999D01*
X134874000Y-113687798D02*
X134874000Y-112776000D01*
X133012728Y-115549070D02*
X134874000Y-113687798D01*
X106680000Y-102844600D02*
X106680000Y-101600000D01*
X107111800Y-103276400D02*
X106680000Y-102844600D01*
X121666000Y-106426000D02*
X116713000Y-106426000D01*
X124079000Y-108839000D02*
X121666000Y-106426000D01*
X116713000Y-106400600D02*
X115519200Y-105206800D01*
X112674400Y-105206800D02*
X110744000Y-103276400D01*
X110744000Y-103276400D02*
X107111800Y-103276400D01*
X116713000Y-106426000D02*
X116713000Y-106400600D01*
X115519200Y-105206800D02*
X112674400Y-105206800D01*
X165100000Y-105283000D02*
X166243000Y-104140000D01*
X160147000Y-105283000D02*
X165100000Y-105283000D01*
X157099000Y-108331000D02*
X160147000Y-105283000D01*
X140135891Y-116150109D02*
X147955000Y-108331000D01*
X147955000Y-108331000D02*
X157099000Y-108331000D01*
X135558311Y-116150109D02*
X140135891Y-116150109D01*
X134957272Y-115549070D02*
X135558311Y-116150109D01*
X166243000Y-104140000D02*
X167640000Y-104140000D01*
X170180000Y-102802081D02*
X169451681Y-103530400D01*
X170180000Y-101600000D02*
X170180000Y-102802081D01*
X168249600Y-103530400D02*
X167640000Y-104140000D01*
X169451681Y-103530400D02*
X168249600Y-103530400D01*
X167640000Y-101600000D02*
X167640000Y-102108000D01*
X136123996Y-115584423D02*
X135522957Y-114983384D01*
X140065166Y-115584423D02*
X136123996Y-115584423D01*
X159766000Y-104775000D02*
X156660011Y-107880989D01*
X166790001Y-102830999D02*
X164846000Y-104775000D01*
X147768600Y-107880989D02*
X140065166Y-115584423D01*
X156660011Y-107880989D02*
X147768600Y-107880989D01*
X164846000Y-104775000D02*
X159766000Y-104775000D01*
X167640000Y-101600000D02*
X167640000Y-102463600D01*
X167272601Y-102830999D02*
X166790001Y-102830999D01*
X167640000Y-102463600D02*
X167272601Y-102830999D01*
X136689682Y-115018738D02*
X136088643Y-114417699D01*
X139994441Y-115018738D02*
X136689682Y-115018738D01*
X165100000Y-101600000D02*
X165100000Y-102802081D01*
X165100000Y-102802081D02*
X163635081Y-104267000D01*
X163635081Y-104267000D02*
X159512000Y-104267000D01*
X159512000Y-104267000D02*
X156348022Y-107430978D01*
X147582200Y-107430978D02*
X139994441Y-115018738D01*
X156348022Y-107430978D02*
X147582200Y-107430978D01*
X162560000Y-102997000D02*
X162560000Y-101600000D01*
X161798000Y-103759000D02*
X162560000Y-102997000D01*
X137255367Y-114453053D02*
X139800947Y-114453053D01*
X136654328Y-113852014D02*
X137255367Y-114453053D01*
X139800947Y-114453053D02*
X147320000Y-106934000D01*
X147320000Y-106934000D02*
X155829000Y-106934000D01*
X155829000Y-106934000D02*
X159004000Y-103759000D01*
X159004000Y-103759000D02*
X161798000Y-103759000D01*
X139604633Y-113887367D02*
X137821053Y-113887367D01*
X160020000Y-101600000D02*
X160020000Y-102616000D01*
X159512000Y-103124000D02*
X158496000Y-103124000D01*
X137821053Y-113887367D02*
X137220014Y-113286328D01*
X160020000Y-102616000D02*
X159512000Y-103124000D01*
X158496000Y-103124000D02*
X155194000Y-106426000D01*
X155194000Y-106426000D02*
X147066000Y-106426000D01*
X147066000Y-106426000D02*
X139604633Y-113887367D01*
X154364081Y-105918000D02*
X146812000Y-105918000D01*
X139408318Y-113321682D02*
X138386738Y-113321682D01*
X157480000Y-101600000D02*
X157480000Y-102802081D01*
X146812000Y-105918000D02*
X139408318Y-113321682D01*
X157480000Y-102802081D02*
X154364081Y-105918000D01*
X138386738Y-113321682D02*
X137785699Y-112720643D01*
X154940000Y-103124000D02*
X154940000Y-101600000D01*
X152654000Y-105410000D02*
X154940000Y-103124000D01*
X138972427Y-112776000D02*
X139317590Y-112776000D01*
X139317590Y-112776000D02*
X140778089Y-111315501D01*
X138351384Y-112154957D02*
X138972427Y-112776000D01*
X140778089Y-111315501D02*
X140778089Y-110554911D01*
X140778089Y-110554911D02*
X145923000Y-105410000D01*
X145923000Y-105410000D02*
X152654000Y-105410000D01*
X152400000Y-102802081D02*
X150300081Y-104902000D01*
X145604342Y-104902000D02*
X138917070Y-111589272D01*
X150300081Y-104902000D02*
X145604342Y-104902000D01*
X152400000Y-102802081D02*
X152400000Y-101600000D01*
X149860000Y-102802081D02*
X148268081Y-104394000D01*
X149860000Y-101600000D02*
X149860000Y-102802081D01*
X144167798Y-104394000D02*
X138917070Y-109644728D01*
X148268081Y-104394000D02*
X144167798Y-104394000D01*
X147320000Y-102802081D02*
X146236081Y-103886000D01*
X147320000Y-101600000D02*
X147320000Y-102802081D01*
X143544427Y-103886000D02*
X138351384Y-109079043D01*
X146236081Y-103886000D02*
X143544427Y-103886000D01*
X144780000Y-102802081D02*
X144204081Y-103378000D01*
X144780000Y-101600000D02*
X144780000Y-102802081D01*
X142921056Y-103378000D02*
X137785699Y-108513357D01*
X144204081Y-103378000D02*
X142921056Y-103378000D01*
X136654328Y-107381986D02*
X138430000Y-105606314D01*
X138430000Y-105606314D02*
X138430000Y-104267000D01*
X138430000Y-104267000D02*
X139700000Y-102997000D01*
X139700000Y-102997000D02*
X139700000Y-101600000D01*
X136689682Y-106215262D02*
X136735738Y-106215262D01*
X136088643Y-106816301D02*
X136689682Y-106215262D01*
X136735738Y-106215262D02*
X137668000Y-105283000D01*
X137668000Y-105283000D02*
X137668000Y-103759000D01*
X137160000Y-103251000D02*
X137160000Y-101600000D01*
X137668000Y-103759000D02*
X137160000Y-103251000D01*
X136123996Y-105649577D02*
X136158423Y-105649577D01*
X135522957Y-106250616D02*
X136123996Y-105649577D01*
X136158423Y-105649577D02*
X136652000Y-105156000D01*
X136652000Y-105156000D02*
X136652000Y-104394000D01*
X136652000Y-104394000D02*
X135636000Y-103378000D01*
X135636000Y-103378000D02*
X135001000Y-103378000D01*
X134620000Y-102997000D02*
X134620000Y-101600000D01*
X135001000Y-103378000D02*
X134620000Y-102997000D01*
X134356233Y-106285969D02*
X134957272Y-105684930D01*
X134356233Y-108067233D02*
X134356233Y-106285969D01*
X135255000Y-108966000D02*
X134356233Y-108067233D01*
X160274000Y-114300000D02*
X161290000Y-114300000D01*
X161290000Y-114300000D02*
X163576000Y-112014000D01*
X163576000Y-112014000D02*
X165354000Y-112014000D01*
X167640000Y-114300000D02*
X170180000Y-114300000D01*
X165354000Y-112014000D02*
X167640000Y-114300000D01*
X132447043Y-106250616D02*
X131352427Y-105156000D01*
X131352427Y-105156000D02*
X131352427Y-103470573D01*
X131352427Y-103470573D02*
X132080000Y-102743000D01*
X132080000Y-102743000D02*
X132080000Y-101600000D01*
X131280318Y-106215262D02*
X131280318Y-106134318D01*
X131881357Y-106816301D02*
X131280318Y-106215262D01*
X129540000Y-104394000D02*
X129540000Y-101600000D01*
X131280318Y-106134318D02*
X129540000Y-104394000D01*
X127000000Y-103066314D02*
X127000000Y-101600000D01*
X131315672Y-107381986D02*
X127000000Y-103066314D01*
X130749986Y-107889986D02*
X130749986Y-107947672D01*
X124460000Y-101600000D02*
X124460000Y-102362000D01*
X124460000Y-101600000D02*
X125069600Y-102209600D01*
X124460000Y-101657686D02*
X124460000Y-101600000D01*
X130749986Y-107947672D02*
X124460000Y-101657686D01*
X122809000Y-103124000D02*
X121920000Y-102235000D01*
X127696128Y-106360128D02*
X124460000Y-103124000D01*
X130184301Y-108513357D02*
X128031072Y-106360128D01*
X121920000Y-102235000D02*
X121920000Y-101600000D01*
X124460000Y-103124000D02*
X122809000Y-103124000D01*
X128031072Y-106360128D02*
X127696128Y-106360128D01*
X124425572Y-103886000D02*
X120396000Y-103886000D01*
X119380000Y-102870000D02*
X119380000Y-101600000D01*
X120396000Y-103886000D02*
X119380000Y-102870000D01*
X129618616Y-109079043D02*
X129618615Y-109079043D01*
X129618615Y-109079043D02*
X124425572Y-103886000D01*
X116840000Y-102870000D02*
X116840000Y-101600000D01*
X118491000Y-104521000D02*
X116840000Y-102870000D01*
X123113800Y-104521000D02*
X118491000Y-104521000D01*
X129052930Y-109644728D02*
X128237528Y-109644728D01*
X128237528Y-109644728D02*
X123113800Y-104521000D01*
X101600000Y-105023600D02*
X101391400Y-105232200D01*
X101600000Y-101600000D02*
X101600000Y-105023600D01*
D21*
G36*
X154438498Y-109749820D02*
G01*
X154402188Y-109869518D01*
X154389928Y-109994000D01*
X154389928Y-111494000D01*
X154402188Y-111618482D01*
X154438498Y-111738180D01*
X154497463Y-111848494D01*
X154576815Y-111945185D01*
X154673506Y-112024537D01*
X154783820Y-112083502D01*
X154903518Y-112119812D01*
X155028000Y-112132072D01*
X155196000Y-112132072D01*
X155196000Y-112326289D01*
X155152063Y-112370226D01*
X155038795Y-112539744D01*
X154960774Y-112728102D01*
X154921000Y-112928061D01*
X154921000Y-113131939D01*
X154960774Y-113331898D01*
X155038795Y-113520256D01*
X155152063Y-113689774D01*
X155296226Y-113833937D01*
X155465744Y-113947205D01*
X155654102Y-114025226D01*
X155854061Y-114065000D01*
X156057939Y-114065000D01*
X156257898Y-114025226D01*
X156446256Y-113947205D01*
X156615774Y-113833937D01*
X156759937Y-113689774D01*
X156873205Y-113520256D01*
X156951226Y-113331898D01*
X156991000Y-113131939D01*
X156991000Y-112928061D01*
X156951226Y-112728102D01*
X156873205Y-112539744D01*
X156759937Y-112370226D01*
X156716000Y-112326289D01*
X156716000Y-112132072D01*
X157028000Y-112132072D01*
X157152482Y-112119812D01*
X157272180Y-112083502D01*
X157382494Y-112024537D01*
X157479185Y-111945185D01*
X157558537Y-111848494D01*
X157617502Y-111738180D01*
X157626804Y-111707516D01*
X157690724Y-111759974D01*
X157809414Y-111823416D01*
X157761992Y-111979746D01*
X157744928Y-112153000D01*
X157744928Y-112903000D01*
X157761992Y-113076254D01*
X157812528Y-113242850D01*
X157894595Y-113396386D01*
X158005038Y-113530962D01*
X158139614Y-113641405D01*
X158293150Y-113723472D01*
X158358809Y-113743389D01*
X158184002Y-113918197D01*
X158154999Y-113941999D01*
X158101037Y-114007753D01*
X158060026Y-114057724D01*
X158030976Y-114112073D01*
X157989454Y-114189754D01*
X157953304Y-114308928D01*
X157695000Y-114308928D01*
X157570518Y-114321188D01*
X157450820Y-114357498D01*
X157340506Y-114416463D01*
X157243815Y-114495815D01*
X157164463Y-114592506D01*
X157105498Y-114702820D01*
X157069188Y-114822518D01*
X157057913Y-114937000D01*
X156913711Y-114937000D01*
X156869774Y-114893063D01*
X156700256Y-114779795D01*
X156511898Y-114701774D01*
X156311939Y-114662000D01*
X156108061Y-114662000D01*
X155908102Y-114701774D01*
X155719744Y-114779795D01*
X155550226Y-114893063D01*
X155406063Y-115037226D01*
X155292795Y-115206744D01*
X155214774Y-115395102D01*
X155175000Y-115595061D01*
X155175000Y-115798939D01*
X155214774Y-115998898D01*
X155292795Y-116187256D01*
X155406063Y-116356774D01*
X155550226Y-116500937D01*
X155719744Y-116614205D01*
X155908102Y-116692226D01*
X156108061Y-116732000D01*
X156311939Y-116732000D01*
X156511898Y-116692226D01*
X156700256Y-116614205D01*
X156869774Y-116500937D01*
X156913711Y-116457000D01*
X157057913Y-116457000D01*
X157069188Y-116571482D01*
X157105498Y-116691180D01*
X157164463Y-116801494D01*
X157243815Y-116898185D01*
X157340506Y-116977537D01*
X157450820Y-117036502D01*
X157570518Y-117072812D01*
X157695000Y-117085072D01*
X159695000Y-117085072D01*
X159819482Y-117072812D01*
X159939180Y-117036502D01*
X160049494Y-116977537D01*
X160146185Y-116898185D01*
X160225537Y-116801494D01*
X160284502Y-116691180D01*
X160320812Y-116571482D01*
X160333072Y-116447000D01*
X160333072Y-115335000D01*
X160375939Y-115335000D01*
X160575898Y-115295226D01*
X160764256Y-115217205D01*
X160933774Y-115103937D01*
X160977711Y-115060000D01*
X161252678Y-115060000D01*
X161290000Y-115063676D01*
X161327322Y-115060000D01*
X161327333Y-115060000D01*
X161438986Y-115049003D01*
X161582247Y-115005546D01*
X161714276Y-114934974D01*
X161830001Y-114840001D01*
X161853804Y-114810997D01*
X162230000Y-114434801D01*
X162230000Y-114520128D01*
X162315890Y-114951925D01*
X162484369Y-115358669D01*
X162728962Y-115724729D01*
X163040271Y-116036038D01*
X163406331Y-116280631D01*
X163813075Y-116449110D01*
X164244872Y-116535000D01*
X164685128Y-116535000D01*
X165116925Y-116449110D01*
X165523669Y-116280631D01*
X165889729Y-116036038D01*
X166201038Y-115724729D01*
X166445631Y-115358669D01*
X166614110Y-114951925D01*
X166700000Y-114520128D01*
X166700000Y-114434802D01*
X167076201Y-114811003D01*
X167099999Y-114840001D01*
X167215724Y-114934974D01*
X167347753Y-115005546D01*
X167491014Y-115049003D01*
X167602667Y-115060000D01*
X167602676Y-115060000D01*
X167639999Y-115063676D01*
X167677322Y-115060000D01*
X168902405Y-115060000D01*
X168939294Y-115129014D01*
X169124866Y-115355134D01*
X169350986Y-115540706D01*
X169608966Y-115678599D01*
X169888889Y-115763513D01*
X170107050Y-115785000D01*
X170252950Y-115785000D01*
X170471111Y-115763513D01*
X170751034Y-115678599D01*
X171009014Y-115540706D01*
X171044001Y-115511993D01*
X171044001Y-117196000D01*
X149204026Y-117196000D01*
X149207406Y-117161683D01*
X149224974Y-117140276D01*
X149276310Y-117044234D01*
X149370518Y-117072812D01*
X149495000Y-117085072D01*
X151495000Y-117085072D01*
X151619482Y-117072812D01*
X151739180Y-117036502D01*
X151849494Y-116977537D01*
X151946185Y-116898185D01*
X152025537Y-116801494D01*
X152084502Y-116691180D01*
X152120812Y-116571482D01*
X152133072Y-116447000D01*
X152133072Y-114947000D01*
X152120812Y-114822518D01*
X152084502Y-114702820D01*
X152025537Y-114592506D01*
X151966500Y-114520569D01*
X152043774Y-114468937D01*
X152187937Y-114324774D01*
X152301205Y-114155256D01*
X152379226Y-113966898D01*
X152419000Y-113766939D01*
X152419000Y-113563061D01*
X152379226Y-113363102D01*
X152301205Y-113174744D01*
X152187937Y-113005226D01*
X152043774Y-112861063D01*
X151874256Y-112747795D01*
X151685898Y-112669774D01*
X151485939Y-112630000D01*
X151282061Y-112630000D01*
X151082102Y-112669774D01*
X150893744Y-112747795D01*
X150724226Y-112861063D01*
X150580063Y-113005226D01*
X150466795Y-113174744D01*
X150388774Y-113363102D01*
X150388449Y-113364738D01*
X150265774Y-113242063D01*
X150096256Y-113128795D01*
X149907898Y-113050774D01*
X149707939Y-113011000D01*
X149504061Y-113011000D01*
X149304102Y-113050774D01*
X149181230Y-113101669D01*
X149165502Y-113049820D01*
X149106537Y-112939506D01*
X149027185Y-112842815D01*
X148930494Y-112763463D01*
X148820180Y-112704498D01*
X148700482Y-112668188D01*
X148576000Y-112655928D01*
X147986750Y-112659000D01*
X147828000Y-112817750D01*
X147828000Y-113792000D01*
X147848000Y-113792000D01*
X147848000Y-114046000D01*
X147828000Y-114046000D01*
X147828000Y-114066000D01*
X147574000Y-114066000D01*
X147574000Y-114046000D01*
X147554000Y-114046000D01*
X147554000Y-113792000D01*
X147574000Y-113792000D01*
X147574000Y-112817750D01*
X147415250Y-112659000D01*
X146826000Y-112655928D01*
X146701518Y-112668188D01*
X146581820Y-112704498D01*
X146471506Y-112763463D01*
X146374815Y-112842815D01*
X146302073Y-112931451D01*
X146286962Y-112913038D01*
X146152386Y-112802595D01*
X145998850Y-112720528D01*
X145832254Y-112669992D01*
X145659000Y-112652928D01*
X144707874Y-112652928D01*
X146192080Y-111168721D01*
X146189928Y-111494000D01*
X146202188Y-111618482D01*
X146238498Y-111738180D01*
X146297463Y-111848494D01*
X146376815Y-111945185D01*
X146473506Y-112024537D01*
X146583820Y-112083502D01*
X146703518Y-112119812D01*
X146828000Y-112132072D01*
X147542250Y-112129000D01*
X147701000Y-111970250D01*
X147701000Y-110871000D01*
X147681000Y-110871000D01*
X147681000Y-110617000D01*
X147701000Y-110617000D01*
X147701000Y-110597000D01*
X147955000Y-110597000D01*
X147955000Y-110617000D01*
X147975000Y-110617000D01*
X147975000Y-110871000D01*
X147955000Y-110871000D01*
X147955000Y-111970250D01*
X148113750Y-112129000D01*
X148828000Y-112132072D01*
X148952482Y-112119812D01*
X149072180Y-112083502D01*
X149182494Y-112024537D01*
X149279185Y-111945185D01*
X149331740Y-111881146D01*
X149437063Y-112038774D01*
X149581226Y-112182937D01*
X149750744Y-112296205D01*
X149939102Y-112374226D01*
X150139061Y-112414000D01*
X150342939Y-112414000D01*
X150542898Y-112374226D01*
X150731256Y-112296205D01*
X150900774Y-112182937D01*
X151044937Y-112038774D01*
X151158205Y-111869256D01*
X151236226Y-111680898D01*
X151276000Y-111480939D01*
X151276000Y-111277061D01*
X151236226Y-111077102D01*
X151158205Y-110888744D01*
X151044937Y-110719226D01*
X151001000Y-110675289D01*
X151001000Y-110169801D01*
X151444802Y-109726000D01*
X154451230Y-109726000D01*
X154438498Y-109749820D01*
X154438498Y-109749820D01*
G37*
X154438498Y-109749820D02*
X154402188Y-109869518D01*
X154389928Y-109994000D01*
X154389928Y-111494000D01*
X154402188Y-111618482D01*
X154438498Y-111738180D01*
X154497463Y-111848494D01*
X154576815Y-111945185D01*
X154673506Y-112024537D01*
X154783820Y-112083502D01*
X154903518Y-112119812D01*
X155028000Y-112132072D01*
X155196000Y-112132072D01*
X155196000Y-112326289D01*
X155152063Y-112370226D01*
X155038795Y-112539744D01*
X154960774Y-112728102D01*
X154921000Y-112928061D01*
X154921000Y-113131939D01*
X154960774Y-113331898D01*
X155038795Y-113520256D01*
X155152063Y-113689774D01*
X155296226Y-113833937D01*
X155465744Y-113947205D01*
X155654102Y-114025226D01*
X155854061Y-114065000D01*
X156057939Y-114065000D01*
X156257898Y-114025226D01*
X156446256Y-113947205D01*
X156615774Y-113833937D01*
X156759937Y-113689774D01*
X156873205Y-113520256D01*
X156951226Y-113331898D01*
X156991000Y-113131939D01*
X156991000Y-112928061D01*
X156951226Y-112728102D01*
X156873205Y-112539744D01*
X156759937Y-112370226D01*
X156716000Y-112326289D01*
X156716000Y-112132072D01*
X157028000Y-112132072D01*
X157152482Y-112119812D01*
X157272180Y-112083502D01*
X157382494Y-112024537D01*
X157479185Y-111945185D01*
X157558537Y-111848494D01*
X157617502Y-111738180D01*
X157626804Y-111707516D01*
X157690724Y-111759974D01*
X157809414Y-111823416D01*
X157761992Y-111979746D01*
X157744928Y-112153000D01*
X157744928Y-112903000D01*
X157761992Y-113076254D01*
X157812528Y-113242850D01*
X157894595Y-113396386D01*
X158005038Y-113530962D01*
X158139614Y-113641405D01*
X158293150Y-113723472D01*
X158358809Y-113743389D01*
X158184002Y-113918197D01*
X158154999Y-113941999D01*
X158101037Y-114007753D01*
X158060026Y-114057724D01*
X158030976Y-114112073D01*
X157989454Y-114189754D01*
X157953304Y-114308928D01*
X157695000Y-114308928D01*
X157570518Y-114321188D01*
X157450820Y-114357498D01*
X157340506Y-114416463D01*
X157243815Y-114495815D01*
X157164463Y-114592506D01*
X157105498Y-114702820D01*
X157069188Y-114822518D01*
X157057913Y-114937000D01*
X156913711Y-114937000D01*
X156869774Y-114893063D01*
X156700256Y-114779795D01*
X156511898Y-114701774D01*
X156311939Y-114662000D01*
X156108061Y-114662000D01*
X155908102Y-114701774D01*
X155719744Y-114779795D01*
X155550226Y-114893063D01*
X155406063Y-115037226D01*
X155292795Y-115206744D01*
X155214774Y-115395102D01*
X155175000Y-115595061D01*
X155175000Y-115798939D01*
X155214774Y-115998898D01*
X155292795Y-116187256D01*
X155406063Y-116356774D01*
X155550226Y-116500937D01*
X155719744Y-116614205D01*
X155908102Y-116692226D01*
X156108061Y-116732000D01*
X156311939Y-116732000D01*
X156511898Y-116692226D01*
X156700256Y-116614205D01*
X156869774Y-116500937D01*
X156913711Y-116457000D01*
X157057913Y-116457000D01*
X157069188Y-116571482D01*
X157105498Y-116691180D01*
X157164463Y-116801494D01*
X157243815Y-116898185D01*
X157340506Y-116977537D01*
X157450820Y-117036502D01*
X157570518Y-117072812D01*
X157695000Y-117085072D01*
X159695000Y-117085072D01*
X159819482Y-117072812D01*
X159939180Y-117036502D01*
X160049494Y-116977537D01*
X160146185Y-116898185D01*
X160225537Y-116801494D01*
X160284502Y-116691180D01*
X160320812Y-116571482D01*
X160333072Y-116447000D01*
X160333072Y-115335000D01*
X160375939Y-115335000D01*
X160575898Y-115295226D01*
X160764256Y-115217205D01*
X160933774Y-115103937D01*
X160977711Y-115060000D01*
X161252678Y-115060000D01*
X161290000Y-115063676D01*
X161327322Y-115060000D01*
X161327333Y-115060000D01*
X161438986Y-115049003D01*
X161582247Y-115005546D01*
X161714276Y-114934974D01*
X161830001Y-114840001D01*
X161853804Y-114810997D01*
X162230000Y-114434801D01*
X162230000Y-114520128D01*
X162315890Y-114951925D01*
X162484369Y-115358669D01*
X162728962Y-115724729D01*
X163040271Y-116036038D01*
X163406331Y-116280631D01*
X163813075Y-116449110D01*
X164244872Y-116535000D01*
X164685128Y-116535000D01*
X165116925Y-116449110D01*
X165523669Y-116280631D01*
X165889729Y-116036038D01*
X166201038Y-115724729D01*
X166445631Y-115358669D01*
X166614110Y-114951925D01*
X166700000Y-114520128D01*
X166700000Y-114434802D01*
X167076201Y-114811003D01*
X167099999Y-114840001D01*
X167215724Y-114934974D01*
X167347753Y-115005546D01*
X167491014Y-115049003D01*
X167602667Y-115060000D01*
X167602676Y-115060000D01*
X167639999Y-115063676D01*
X167677322Y-115060000D01*
X168902405Y-115060000D01*
X168939294Y-115129014D01*
X169124866Y-115355134D01*
X169350986Y-115540706D01*
X169608966Y-115678599D01*
X169888889Y-115763513D01*
X170107050Y-115785000D01*
X170252950Y-115785000D01*
X170471111Y-115763513D01*
X170751034Y-115678599D01*
X171009014Y-115540706D01*
X171044001Y-115511993D01*
X171044001Y-117196000D01*
X149204026Y-117196000D01*
X149207406Y-117161683D01*
X149224974Y-117140276D01*
X149276310Y-117044234D01*
X149370518Y-117072812D01*
X149495000Y-117085072D01*
X151495000Y-117085072D01*
X151619482Y-117072812D01*
X151739180Y-117036502D01*
X151849494Y-116977537D01*
X151946185Y-116898185D01*
X152025537Y-116801494D01*
X152084502Y-116691180D01*
X152120812Y-116571482D01*
X152133072Y-116447000D01*
X152133072Y-114947000D01*
X152120812Y-114822518D01*
X152084502Y-114702820D01*
X152025537Y-114592506D01*
X151966500Y-114520569D01*
X152043774Y-114468937D01*
X152187937Y-114324774D01*
X152301205Y-114155256D01*
X152379226Y-113966898D01*
X152419000Y-113766939D01*
X152419000Y-113563061D01*
X152379226Y-113363102D01*
X152301205Y-113174744D01*
X152187937Y-113005226D01*
X152043774Y-112861063D01*
X151874256Y-112747795D01*
X151685898Y-112669774D01*
X151485939Y-112630000D01*
X151282061Y-112630000D01*
X151082102Y-112669774D01*
X150893744Y-112747795D01*
X150724226Y-112861063D01*
X150580063Y-113005226D01*
X150466795Y-113174744D01*
X150388774Y-113363102D01*
X150388449Y-113364738D01*
X150265774Y-113242063D01*
X150096256Y-113128795D01*
X149907898Y-113050774D01*
X149707939Y-113011000D01*
X149504061Y-113011000D01*
X149304102Y-113050774D01*
X149181230Y-113101669D01*
X149165502Y-113049820D01*
X149106537Y-112939506D01*
X149027185Y-112842815D01*
X148930494Y-112763463D01*
X148820180Y-112704498D01*
X148700482Y-112668188D01*
X148576000Y-112655928D01*
X147986750Y-112659000D01*
X147828000Y-112817750D01*
X147828000Y-113792000D01*
X147848000Y-113792000D01*
X147848000Y-114046000D01*
X147828000Y-114046000D01*
X147828000Y-114066000D01*
X147574000Y-114066000D01*
X147574000Y-114046000D01*
X147554000Y-114046000D01*
X147554000Y-113792000D01*
X147574000Y-113792000D01*
X147574000Y-112817750D01*
X147415250Y-112659000D01*
X146826000Y-112655928D01*
X146701518Y-112668188D01*
X146581820Y-112704498D01*
X146471506Y-112763463D01*
X146374815Y-112842815D01*
X146302073Y-112931451D01*
X146286962Y-112913038D01*
X146152386Y-112802595D01*
X145998850Y-112720528D01*
X145832254Y-112669992D01*
X145659000Y-112652928D01*
X144707874Y-112652928D01*
X146192080Y-111168721D01*
X146189928Y-111494000D01*
X146202188Y-111618482D01*
X146238498Y-111738180D01*
X146297463Y-111848494D01*
X146376815Y-111945185D01*
X146473506Y-112024537D01*
X146583820Y-112083502D01*
X146703518Y-112119812D01*
X146828000Y-112132072D01*
X147542250Y-112129000D01*
X147701000Y-111970250D01*
X147701000Y-110871000D01*
X147681000Y-110871000D01*
X147681000Y-110617000D01*
X147701000Y-110617000D01*
X147701000Y-110597000D01*
X147955000Y-110597000D01*
X147955000Y-110617000D01*
X147975000Y-110617000D01*
X147975000Y-110871000D01*
X147955000Y-110871000D01*
X147955000Y-111970250D01*
X148113750Y-112129000D01*
X148828000Y-112132072D01*
X148952482Y-112119812D01*
X149072180Y-112083502D01*
X149182494Y-112024537D01*
X149279185Y-111945185D01*
X149331740Y-111881146D01*
X149437063Y-112038774D01*
X149581226Y-112182937D01*
X149750744Y-112296205D01*
X149939102Y-112374226D01*
X150139061Y-112414000D01*
X150342939Y-112414000D01*
X150542898Y-112374226D01*
X150731256Y-112296205D01*
X150900774Y-112182937D01*
X151044937Y-112038774D01*
X151158205Y-111869256D01*
X151236226Y-111680898D01*
X151276000Y-111480939D01*
X151276000Y-111277061D01*
X151236226Y-111077102D01*
X151158205Y-110888744D01*
X151044937Y-110719226D01*
X151001000Y-110675289D01*
X151001000Y-110169801D01*
X151444802Y-109726000D01*
X154451230Y-109726000D01*
X154438498Y-109749820D01*
G36*
X103084866Y-102655134D02*
G01*
X103310986Y-102840706D01*
X103383971Y-102879717D01*
X103390998Y-102951067D01*
X103400989Y-102984003D01*
X103434454Y-103094327D01*
X103505026Y-103226357D01*
X103564477Y-103298797D01*
X103600000Y-103342082D01*
X103628998Y-103365880D01*
X104357245Y-104094128D01*
X103391400Y-104094128D01*
X103266918Y-104106388D01*
X103147220Y-104142698D01*
X103036906Y-104201663D01*
X102940215Y-104281015D01*
X102860863Y-104377706D01*
X102801898Y-104488020D01*
X102765588Y-104607718D01*
X102753328Y-104732200D01*
X102753328Y-105732200D01*
X102765588Y-105856682D01*
X102801898Y-105976380D01*
X102860863Y-106086694D01*
X102931070Y-106172241D01*
X102896174Y-106256486D01*
X102856400Y-106456445D01*
X102856400Y-106660323D01*
X102896174Y-106860282D01*
X102974195Y-107048640D01*
X103087463Y-107218158D01*
X103231626Y-107362321D01*
X103401144Y-107475589D01*
X103589502Y-107553610D01*
X103789461Y-107593384D01*
X103888379Y-107593384D01*
X103851746Y-107596992D01*
X103685150Y-107647528D01*
X103531614Y-107729595D01*
X103397038Y-107840038D01*
X103286595Y-107974614D01*
X103204528Y-108128150D01*
X103153992Y-108294746D01*
X103136928Y-108468000D01*
X103136928Y-109718000D01*
X103153992Y-109891254D01*
X103204528Y-110057850D01*
X103286595Y-110211386D01*
X103397038Y-110345962D01*
X103531614Y-110456405D01*
X103685150Y-110538472D01*
X103698951Y-110542658D01*
X103765026Y-110666276D01*
X103778101Y-110682208D01*
X103778101Y-110757040D01*
X103817875Y-110956999D01*
X103895896Y-111145357D01*
X104009164Y-111314875D01*
X104153327Y-111459038D01*
X104322845Y-111572306D01*
X104511203Y-111650327D01*
X104711162Y-111690101D01*
X104915040Y-111690101D01*
X105114999Y-111650327D01*
X105303357Y-111572306D01*
X105472875Y-111459038D01*
X105617038Y-111314875D01*
X105652772Y-111261395D01*
X105679098Y-111348180D01*
X105738063Y-111458494D01*
X105817415Y-111555185D01*
X105914106Y-111634537D01*
X106024420Y-111693502D01*
X106144118Y-111729812D01*
X106268600Y-111742072D01*
X106918600Y-111742072D01*
X107043082Y-111729812D01*
X107162780Y-111693502D01*
X107273094Y-111634537D01*
X107369785Y-111555185D01*
X107449137Y-111458494D01*
X107508102Y-111348180D01*
X107543600Y-111231159D01*
X107579098Y-111348180D01*
X107638063Y-111458494D01*
X107717415Y-111555185D01*
X107814106Y-111634537D01*
X107924420Y-111693502D01*
X108044118Y-111729812D01*
X108168600Y-111742072D01*
X108818600Y-111742072D01*
X108943082Y-111729812D01*
X109044200Y-111699138D01*
X109044201Y-116370868D01*
X109040524Y-116408200D01*
X109044201Y-116445533D01*
X109052451Y-116529290D01*
X109055198Y-116557185D01*
X109098654Y-116700446D01*
X109169226Y-116832476D01*
X109237937Y-116916200D01*
X109264200Y-116948201D01*
X109293198Y-116971999D01*
X109517199Y-117196000D01*
X100736000Y-117196000D01*
X100736000Y-114079872D01*
X101397000Y-114079872D01*
X101397000Y-114520128D01*
X101482890Y-114951925D01*
X101651369Y-115358669D01*
X101895962Y-115724729D01*
X102207271Y-116036038D01*
X102573331Y-116280631D01*
X102980075Y-116449110D01*
X103411872Y-116535000D01*
X103852128Y-116535000D01*
X104283925Y-116449110D01*
X104690669Y-116280631D01*
X105056729Y-116036038D01*
X105368038Y-115724729D01*
X105612631Y-115358669D01*
X105781110Y-114951925D01*
X105867000Y-114520128D01*
X105867000Y-114079872D01*
X105781110Y-113648075D01*
X105612631Y-113241331D01*
X105368038Y-112875271D01*
X105056729Y-112563962D01*
X104690669Y-112319369D01*
X104283925Y-112150890D01*
X103852128Y-112065000D01*
X103411872Y-112065000D01*
X102980075Y-112150890D01*
X102573331Y-112319369D01*
X102207271Y-112563962D01*
X101895962Y-112875271D01*
X101651369Y-113241331D01*
X101482890Y-113648075D01*
X101397000Y-114079872D01*
X100736000Y-114079872D01*
X100736000Y-110559073D01*
X100850518Y-110593812D01*
X100975000Y-110606072D01*
X101314250Y-110603000D01*
X101473000Y-110444250D01*
X101473000Y-109220000D01*
X101727000Y-109220000D01*
X101727000Y-110444250D01*
X101885750Y-110603000D01*
X102225000Y-110606072D01*
X102349482Y-110593812D01*
X102469180Y-110557502D01*
X102579494Y-110498537D01*
X102676185Y-110419185D01*
X102755537Y-110322494D01*
X102814502Y-110212180D01*
X102850812Y-110092482D01*
X102863072Y-109968000D01*
X102860000Y-109378750D01*
X102701250Y-109220000D01*
X101727000Y-109220000D01*
X101473000Y-109220000D01*
X101453000Y-109220000D01*
X101453000Y-108966000D01*
X101473000Y-108966000D01*
X101473000Y-107741750D01*
X101727000Y-107741750D01*
X101727000Y-108966000D01*
X102701250Y-108966000D01*
X102860000Y-108807250D01*
X102863072Y-108218000D01*
X102850812Y-108093518D01*
X102814502Y-107973820D01*
X102755537Y-107863506D01*
X102676185Y-107766815D01*
X102579494Y-107687463D01*
X102469180Y-107628498D01*
X102349482Y-107592188D01*
X102225000Y-107579928D01*
X101885750Y-107583000D01*
X101727000Y-107741750D01*
X101473000Y-107741750D01*
X101314250Y-107583000D01*
X100975000Y-107579928D01*
X100850518Y-107592188D01*
X100736000Y-107626927D01*
X100736000Y-106348633D01*
X100766918Y-106358012D01*
X100891400Y-106370272D01*
X101891400Y-106370272D01*
X102015882Y-106358012D01*
X102135580Y-106321702D01*
X102245894Y-106262737D01*
X102342585Y-106183385D01*
X102421937Y-106086694D01*
X102480902Y-105976380D01*
X102517212Y-105856682D01*
X102529472Y-105732200D01*
X102529472Y-104732200D01*
X102517212Y-104607718D01*
X102480902Y-104488020D01*
X102421937Y-104377706D01*
X102360000Y-104302235D01*
X102360000Y-103088072D01*
X102450000Y-103088072D01*
X102574482Y-103075812D01*
X102694180Y-103039502D01*
X102804494Y-102980537D01*
X102901185Y-102901185D01*
X102980537Y-102804494D01*
X103039502Y-102694180D01*
X103060393Y-102625313D01*
X103084866Y-102655134D01*
X103084866Y-102655134D01*
G37*
X103084866Y-102655134D02*
X103310986Y-102840706D01*
X103383971Y-102879717D01*
X103390998Y-102951067D01*
X103400989Y-102984003D01*
X103434454Y-103094327D01*
X103505026Y-103226357D01*
X103564477Y-103298797D01*
X103600000Y-103342082D01*
X103628998Y-103365880D01*
X104357245Y-104094128D01*
X103391400Y-104094128D01*
X103266918Y-104106388D01*
X103147220Y-104142698D01*
X103036906Y-104201663D01*
X102940215Y-104281015D01*
X102860863Y-104377706D01*
X102801898Y-104488020D01*
X102765588Y-104607718D01*
X102753328Y-104732200D01*
X102753328Y-105732200D01*
X102765588Y-105856682D01*
X102801898Y-105976380D01*
X102860863Y-106086694D01*
X102931070Y-106172241D01*
X102896174Y-106256486D01*
X102856400Y-106456445D01*
X102856400Y-106660323D01*
X102896174Y-106860282D01*
X102974195Y-107048640D01*
X103087463Y-107218158D01*
X103231626Y-107362321D01*
X103401144Y-107475589D01*
X103589502Y-107553610D01*
X103789461Y-107593384D01*
X103888379Y-107593384D01*
X103851746Y-107596992D01*
X103685150Y-107647528D01*
X103531614Y-107729595D01*
X103397038Y-107840038D01*
X103286595Y-107974614D01*
X103204528Y-108128150D01*
X103153992Y-108294746D01*
X103136928Y-108468000D01*
X103136928Y-109718000D01*
X103153992Y-109891254D01*
X103204528Y-110057850D01*
X103286595Y-110211386D01*
X103397038Y-110345962D01*
X103531614Y-110456405D01*
X103685150Y-110538472D01*
X103698951Y-110542658D01*
X103765026Y-110666276D01*
X103778101Y-110682208D01*
X103778101Y-110757040D01*
X103817875Y-110956999D01*
X103895896Y-111145357D01*
X104009164Y-111314875D01*
X104153327Y-111459038D01*
X104322845Y-111572306D01*
X104511203Y-111650327D01*
X104711162Y-111690101D01*
X104915040Y-111690101D01*
X105114999Y-111650327D01*
X105303357Y-111572306D01*
X105472875Y-111459038D01*
X105617038Y-111314875D01*
X105652772Y-111261395D01*
X105679098Y-111348180D01*
X105738063Y-111458494D01*
X105817415Y-111555185D01*
X105914106Y-111634537D01*
X106024420Y-111693502D01*
X106144118Y-111729812D01*
X106268600Y-111742072D01*
X106918600Y-111742072D01*
X107043082Y-111729812D01*
X107162780Y-111693502D01*
X107273094Y-111634537D01*
X107369785Y-111555185D01*
X107449137Y-111458494D01*
X107508102Y-111348180D01*
X107543600Y-111231159D01*
X107579098Y-111348180D01*
X107638063Y-111458494D01*
X107717415Y-111555185D01*
X107814106Y-111634537D01*
X107924420Y-111693502D01*
X108044118Y-111729812D01*
X108168600Y-111742072D01*
X108818600Y-111742072D01*
X108943082Y-111729812D01*
X109044200Y-111699138D01*
X109044201Y-116370868D01*
X109040524Y-116408200D01*
X109044201Y-116445533D01*
X109052451Y-116529290D01*
X109055198Y-116557185D01*
X109098654Y-116700446D01*
X109169226Y-116832476D01*
X109237937Y-116916200D01*
X109264200Y-116948201D01*
X109293198Y-116971999D01*
X109517199Y-117196000D01*
X100736000Y-117196000D01*
X100736000Y-114079872D01*
X101397000Y-114079872D01*
X101397000Y-114520128D01*
X101482890Y-114951925D01*
X101651369Y-115358669D01*
X101895962Y-115724729D01*
X102207271Y-116036038D01*
X102573331Y-116280631D01*
X102980075Y-116449110D01*
X103411872Y-116535000D01*
X103852128Y-116535000D01*
X104283925Y-116449110D01*
X104690669Y-116280631D01*
X105056729Y-116036038D01*
X105368038Y-115724729D01*
X105612631Y-115358669D01*
X105781110Y-114951925D01*
X105867000Y-114520128D01*
X105867000Y-114079872D01*
X105781110Y-113648075D01*
X105612631Y-113241331D01*
X105368038Y-112875271D01*
X105056729Y-112563962D01*
X104690669Y-112319369D01*
X104283925Y-112150890D01*
X103852128Y-112065000D01*
X103411872Y-112065000D01*
X102980075Y-112150890D01*
X102573331Y-112319369D01*
X102207271Y-112563962D01*
X101895962Y-112875271D01*
X101651369Y-113241331D01*
X101482890Y-113648075D01*
X101397000Y-114079872D01*
X100736000Y-114079872D01*
X100736000Y-110559073D01*
X100850518Y-110593812D01*
X100975000Y-110606072D01*
X101314250Y-110603000D01*
X101473000Y-110444250D01*
X101473000Y-109220000D01*
X101727000Y-109220000D01*
X101727000Y-110444250D01*
X101885750Y-110603000D01*
X102225000Y-110606072D01*
X102349482Y-110593812D01*
X102469180Y-110557502D01*
X102579494Y-110498537D01*
X102676185Y-110419185D01*
X102755537Y-110322494D01*
X102814502Y-110212180D01*
X102850812Y-110092482D01*
X102863072Y-109968000D01*
X102860000Y-109378750D01*
X102701250Y-109220000D01*
X101727000Y-109220000D01*
X101473000Y-109220000D01*
X101453000Y-109220000D01*
X101453000Y-108966000D01*
X101473000Y-108966000D01*
X101473000Y-107741750D01*
X101727000Y-107741750D01*
X101727000Y-108966000D01*
X102701250Y-108966000D01*
X102860000Y-108807250D01*
X102863072Y-108218000D01*
X102850812Y-108093518D01*
X102814502Y-107973820D01*
X102755537Y-107863506D01*
X102676185Y-107766815D01*
X102579494Y-107687463D01*
X102469180Y-107628498D01*
X102349482Y-107592188D01*
X102225000Y-107579928D01*
X101885750Y-107583000D01*
X101727000Y-107741750D01*
X101473000Y-107741750D01*
X101314250Y-107583000D01*
X100975000Y-107579928D01*
X100850518Y-107592188D01*
X100736000Y-107626927D01*
X100736000Y-106348633D01*
X100766918Y-106358012D01*
X100891400Y-106370272D01*
X101891400Y-106370272D01*
X102015882Y-106358012D01*
X102135580Y-106321702D01*
X102245894Y-106262737D01*
X102342585Y-106183385D01*
X102421937Y-106086694D01*
X102480902Y-105976380D01*
X102517212Y-105856682D01*
X102529472Y-105732200D01*
X102529472Y-104732200D01*
X102517212Y-104607718D01*
X102480902Y-104488020D01*
X102421937Y-104377706D01*
X102360000Y-104302235D01*
X102360000Y-103088072D01*
X102450000Y-103088072D01*
X102574482Y-103075812D01*
X102694180Y-103039502D01*
X102804494Y-102980537D01*
X102901185Y-102901185D01*
X102980537Y-102804494D01*
X103039502Y-102694180D01*
X103060393Y-102625313D01*
X103084866Y-102655134D01*
G36*
X128694198Y-117196000D02*
G01*
X127293840Y-117196000D01*
X127302472Y-117179850D01*
X127353008Y-117013254D01*
X127370072Y-116840000D01*
X127370072Y-116529290D01*
X128027489Y-116529290D01*
X128694198Y-117196000D01*
X128694198Y-117196000D01*
G37*
X128694198Y-117196000D02*
X127293840Y-117196000D01*
X127302472Y-117179850D01*
X127353008Y-117013254D01*
X127370072Y-116840000D01*
X127370072Y-116529290D01*
X128027489Y-116529290D01*
X128694198Y-117196000D01*
G36*
X130602617Y-114622384D02*
G01*
X130596337Y-114686147D01*
X130574772Y-114726492D01*
X130557194Y-114784440D01*
X130535556Y-114806078D01*
X130535556Y-114855772D01*
X130531315Y-114869753D01*
X130520318Y-114981406D01*
X130520318Y-114981416D01*
X130516642Y-115018738D01*
X130520318Y-115056061D01*
X130520319Y-116129986D01*
X130516642Y-116167318D01*
X130520319Y-116204651D01*
X130531316Y-116316304D01*
X130536077Y-116332000D01*
X130574772Y-116459564D01*
X130645344Y-116591594D01*
X130678262Y-116631704D01*
X130740318Y-116707319D01*
X130769316Y-116731117D01*
X130784189Y-116745990D01*
X130393792Y-116745990D01*
X129379458Y-115731657D01*
X130546373Y-114564743D01*
X130627574Y-114540111D01*
X130602617Y-114622384D01*
X130602617Y-114622384D01*
G37*
X130602617Y-114622384D02*
X130596337Y-114686147D01*
X130574772Y-114726492D01*
X130557194Y-114784440D01*
X130535556Y-114806078D01*
X130535556Y-114855772D01*
X130531315Y-114869753D01*
X130520318Y-114981406D01*
X130520318Y-114981416D01*
X130516642Y-115018738D01*
X130520318Y-115056061D01*
X130520319Y-116129986D01*
X130516642Y-116167318D01*
X130520319Y-116204651D01*
X130531316Y-116316304D01*
X130536077Y-116332000D01*
X130574772Y-116459564D01*
X130645344Y-116591594D01*
X130678262Y-116631704D01*
X130740318Y-116707319D01*
X130769316Y-116731117D01*
X130784189Y-116745990D01*
X130393792Y-116745990D01*
X129379458Y-115731657D01*
X130546373Y-114564743D01*
X130627574Y-114540111D01*
X130602617Y-114622384D01*
G36*
X126004000Y-113792000D02*
G01*
X125984000Y-113792000D01*
X125984000Y-114766250D01*
X126142750Y-114925000D01*
X126732000Y-114928072D01*
X126856482Y-114915812D01*
X126976180Y-114879502D01*
X127086494Y-114820537D01*
X127183185Y-114741185D01*
X127262537Y-114644494D01*
X127321502Y-114534180D01*
X127357812Y-114414482D01*
X127370072Y-114290000D01*
X127367119Y-113963921D01*
X127706201Y-114303003D01*
X127729999Y-114332001D01*
X127845724Y-114426974D01*
X127977753Y-114497546D01*
X128121014Y-114541003D01*
X128232667Y-114552000D01*
X128232675Y-114552000D01*
X128270000Y-114555676D01*
X128307325Y-114552000D01*
X128409513Y-114552000D01*
X127952223Y-115009290D01*
X126590043Y-115009290D01*
X126552710Y-115005613D01*
X126515377Y-115009290D01*
X126403724Y-115020287D01*
X126260463Y-115063744D01*
X126128434Y-115134316D01*
X126046048Y-115201928D01*
X125232000Y-115201928D01*
X125058746Y-115218992D01*
X125027600Y-115228440D01*
X125027600Y-114927834D01*
X125571250Y-114925000D01*
X125730000Y-114766250D01*
X125730000Y-113792000D01*
X125710000Y-113792000D01*
X125710000Y-113538000D01*
X126004000Y-113538000D01*
X126004000Y-113792000D01*
X126004000Y-113792000D01*
G37*
X126004000Y-113792000D02*
X125984000Y-113792000D01*
X125984000Y-114766250D01*
X126142750Y-114925000D01*
X126732000Y-114928072D01*
X126856482Y-114915812D01*
X126976180Y-114879502D01*
X127086494Y-114820537D01*
X127183185Y-114741185D01*
X127262537Y-114644494D01*
X127321502Y-114534180D01*
X127357812Y-114414482D01*
X127370072Y-114290000D01*
X127367119Y-113963921D01*
X127706201Y-114303003D01*
X127729999Y-114332001D01*
X127845724Y-114426974D01*
X127977753Y-114497546D01*
X128121014Y-114541003D01*
X128232667Y-114552000D01*
X128232675Y-114552000D01*
X128270000Y-114555676D01*
X128307325Y-114552000D01*
X128409513Y-114552000D01*
X127952223Y-115009290D01*
X126590043Y-115009290D01*
X126552710Y-115005613D01*
X126515377Y-115009290D01*
X126403724Y-115020287D01*
X126260463Y-115063744D01*
X126128434Y-115134316D01*
X126046048Y-115201928D01*
X125232000Y-115201928D01*
X125058746Y-115218992D01*
X125027600Y-115228440D01*
X125027600Y-114927834D01*
X125571250Y-114925000D01*
X125730000Y-114766250D01*
X125730000Y-113792000D01*
X125710000Y-113792000D01*
X125710000Y-113538000D01*
X126004000Y-113538000D01*
X126004000Y-113792000D01*
G36*
X168414120Y-112271003D02*
G01*
X168437918Y-112300001D01*
X168466916Y-112323799D01*
X168553642Y-112394974D01*
X168676045Y-112460400D01*
X168685672Y-112465546D01*
X168828933Y-112509003D01*
X168900284Y-112516031D01*
X168939294Y-112589014D01*
X169124866Y-112815134D01*
X169350986Y-113000706D01*
X169405791Y-113030000D01*
X169350986Y-113059294D01*
X169124866Y-113244866D01*
X168939294Y-113470986D01*
X168902405Y-113540000D01*
X167954802Y-113540000D01*
X165917804Y-111503003D01*
X165894001Y-111473999D01*
X165778276Y-111379026D01*
X165646247Y-111308454D01*
X165502986Y-111264997D01*
X165391333Y-111254000D01*
X165391322Y-111254000D01*
X165354000Y-111250324D01*
X165316678Y-111254000D01*
X163613322Y-111254000D01*
X163575999Y-111250324D01*
X163538676Y-111254000D01*
X163538667Y-111254000D01*
X163427014Y-111264997D01*
X163283753Y-111308454D01*
X163151724Y-111379026D01*
X163035999Y-111473999D01*
X163012201Y-111502997D01*
X160976455Y-113538744D01*
X160933774Y-113496063D01*
X160764256Y-113382795D01*
X160653247Y-113336813D01*
X160703472Y-113242850D01*
X160754008Y-113076254D01*
X160771072Y-112903000D01*
X160771072Y-112845729D01*
X164144802Y-109472000D01*
X165615118Y-109472000D01*
X168414120Y-112271003D01*
X168414120Y-112271003D01*
G37*
X168414120Y-112271003D02*
X168437918Y-112300001D01*
X168466916Y-112323799D01*
X168553642Y-112394974D01*
X168676045Y-112460400D01*
X168685672Y-112465546D01*
X168828933Y-112509003D01*
X168900284Y-112516031D01*
X168939294Y-112589014D01*
X169124866Y-112815134D01*
X169350986Y-113000706D01*
X169405791Y-113030000D01*
X169350986Y-113059294D01*
X169124866Y-113244866D01*
X168939294Y-113470986D01*
X168902405Y-113540000D01*
X167954802Y-113540000D01*
X165917804Y-111503003D01*
X165894001Y-111473999D01*
X165778276Y-111379026D01*
X165646247Y-111308454D01*
X165502986Y-111264997D01*
X165391333Y-111254000D01*
X165391322Y-111254000D01*
X165354000Y-111250324D01*
X165316678Y-111254000D01*
X163613322Y-111254000D01*
X163575999Y-111250324D01*
X163538676Y-111254000D01*
X163538667Y-111254000D01*
X163427014Y-111264997D01*
X163283753Y-111308454D01*
X163151724Y-111379026D01*
X163035999Y-111473999D01*
X163012201Y-111502997D01*
X160976455Y-113538744D01*
X160933774Y-113496063D01*
X160764256Y-113382795D01*
X160653247Y-113336813D01*
X160703472Y-113242850D01*
X160754008Y-113076254D01*
X160771072Y-112903000D01*
X160771072Y-112845729D01*
X164144802Y-109472000D01*
X165615118Y-109472000D01*
X168414120Y-112271003D01*
G36*
X132853768Y-109700435D02*
G01*
X132850091Y-109737767D01*
X132853768Y-109775100D01*
X132864765Y-109886753D01*
X132869694Y-109903003D01*
X132908221Y-110030013D01*
X132978793Y-110162043D01*
X133027999Y-110222000D01*
X133073767Y-110277768D01*
X133102765Y-110301566D01*
X133585000Y-110783802D01*
X133585000Y-110845939D01*
X133624774Y-111045898D01*
X133702795Y-111234256D01*
X133816063Y-111403774D01*
X133960226Y-111547937D01*
X134129744Y-111661205D01*
X134318102Y-111739226D01*
X134518061Y-111779000D01*
X134581021Y-111779000D01*
X134572102Y-111780774D01*
X134383744Y-111858795D01*
X134214226Y-111972063D01*
X134070063Y-112116226D01*
X133958151Y-112283715D01*
X133947545Y-112248752D01*
X133877000Y-112116774D01*
X133877000Y-112039061D01*
X133837226Y-111839102D01*
X133759205Y-111650744D01*
X133645937Y-111481226D01*
X133501774Y-111337063D01*
X133332256Y-111223795D01*
X133143898Y-111145774D01*
X132943939Y-111106000D01*
X132740061Y-111106000D01*
X132540102Y-111145774D01*
X132351744Y-111223795D01*
X132182226Y-111337063D01*
X132038063Y-111481226D01*
X131924795Y-111650744D01*
X131846774Y-111839102D01*
X131807000Y-112039061D01*
X131807000Y-112242939D01*
X131842327Y-112420543D01*
X131819889Y-112393202D01*
X131643112Y-112216425D01*
X131527479Y-112121527D01*
X131411236Y-112059393D01*
X131349102Y-111943150D01*
X131254204Y-111827517D01*
X131077427Y-111650740D01*
X130961794Y-111555842D01*
X130845552Y-111493709D01*
X130783417Y-111377464D01*
X130688519Y-111261831D01*
X130511742Y-111085054D01*
X130396109Y-110990156D01*
X130279864Y-110928021D01*
X130217731Y-110811779D01*
X130122833Y-110696146D01*
X130043687Y-110617000D01*
X130122833Y-110537854D01*
X130217731Y-110422221D01*
X130279864Y-110305979D01*
X130396109Y-110243844D01*
X130511742Y-110148946D01*
X130688519Y-109972169D01*
X130783417Y-109856536D01*
X130845552Y-109740291D01*
X130961794Y-109678158D01*
X131077427Y-109583260D01*
X131254204Y-109406483D01*
X131349102Y-109290850D01*
X131411236Y-109174607D01*
X131527479Y-109112473D01*
X131643112Y-109017575D01*
X131819889Y-108840798D01*
X131914787Y-108725165D01*
X131976921Y-108608921D01*
X132093165Y-108546787D01*
X132208798Y-108451889D01*
X132385575Y-108275112D01*
X132480473Y-108159479D01*
X132542607Y-108043236D01*
X132658850Y-107981102D01*
X132774483Y-107886204D01*
X132853767Y-107806920D01*
X132853768Y-109700435D01*
X132853768Y-109700435D01*
G37*
X132853768Y-109700435D02*
X132850091Y-109737767D01*
X132853768Y-109775100D01*
X132864765Y-109886753D01*
X132869694Y-109903003D01*
X132908221Y-110030013D01*
X132978793Y-110162043D01*
X133027999Y-110222000D01*
X133073767Y-110277768D01*
X133102765Y-110301566D01*
X133585000Y-110783802D01*
X133585000Y-110845939D01*
X133624774Y-111045898D01*
X133702795Y-111234256D01*
X133816063Y-111403774D01*
X133960226Y-111547937D01*
X134129744Y-111661205D01*
X134318102Y-111739226D01*
X134518061Y-111779000D01*
X134581021Y-111779000D01*
X134572102Y-111780774D01*
X134383744Y-111858795D01*
X134214226Y-111972063D01*
X134070063Y-112116226D01*
X133958151Y-112283715D01*
X133947545Y-112248752D01*
X133877000Y-112116774D01*
X133877000Y-112039061D01*
X133837226Y-111839102D01*
X133759205Y-111650744D01*
X133645937Y-111481226D01*
X133501774Y-111337063D01*
X133332256Y-111223795D01*
X133143898Y-111145774D01*
X132943939Y-111106000D01*
X132740061Y-111106000D01*
X132540102Y-111145774D01*
X132351744Y-111223795D01*
X132182226Y-111337063D01*
X132038063Y-111481226D01*
X131924795Y-111650744D01*
X131846774Y-111839102D01*
X131807000Y-112039061D01*
X131807000Y-112242939D01*
X131842327Y-112420543D01*
X131819889Y-112393202D01*
X131643112Y-112216425D01*
X131527479Y-112121527D01*
X131411236Y-112059393D01*
X131349102Y-111943150D01*
X131254204Y-111827517D01*
X131077427Y-111650740D01*
X130961794Y-111555842D01*
X130845552Y-111493709D01*
X130783417Y-111377464D01*
X130688519Y-111261831D01*
X130511742Y-111085054D01*
X130396109Y-110990156D01*
X130279864Y-110928021D01*
X130217731Y-110811779D01*
X130122833Y-110696146D01*
X130043687Y-110617000D01*
X130122833Y-110537854D01*
X130217731Y-110422221D01*
X130279864Y-110305979D01*
X130396109Y-110243844D01*
X130511742Y-110148946D01*
X130688519Y-109972169D01*
X130783417Y-109856536D01*
X130845552Y-109740291D01*
X130961794Y-109678158D01*
X131077427Y-109583260D01*
X131254204Y-109406483D01*
X131349102Y-109290850D01*
X131411236Y-109174607D01*
X131527479Y-109112473D01*
X131643112Y-109017575D01*
X131819889Y-108840798D01*
X131914787Y-108725165D01*
X131976921Y-108608921D01*
X132093165Y-108546787D01*
X132208798Y-108451889D01*
X132385575Y-108275112D01*
X132480473Y-108159479D01*
X132542607Y-108043236D01*
X132658850Y-107981102D01*
X132774483Y-107886204D01*
X132853767Y-107806920D01*
X132853768Y-109700435D01*
G36*
X112110600Y-105717802D02*
G01*
X112134399Y-105746801D01*
X112250124Y-105841774D01*
X112382153Y-105912346D01*
X112525414Y-105955803D01*
X112637067Y-105966800D01*
X112637077Y-105966800D01*
X112674400Y-105970476D01*
X112711723Y-105966800D01*
X115204399Y-105966800D01*
X116066717Y-106829119D01*
X116078026Y-106850276D01*
X116149200Y-106937002D01*
X116172999Y-106966001D01*
X116288724Y-107060974D01*
X116420753Y-107131546D01*
X116564014Y-107175003D01*
X116713000Y-107189677D01*
X116750333Y-107186000D01*
X121351199Y-107186000D01*
X123044000Y-108878802D01*
X123044000Y-108940939D01*
X123083774Y-109140898D01*
X123161795Y-109329256D01*
X123275063Y-109498774D01*
X123419226Y-109642937D01*
X123588744Y-109756205D01*
X123777102Y-109834226D01*
X123977061Y-109874000D01*
X124180939Y-109874000D01*
X124380898Y-109834226D01*
X124569256Y-109756205D01*
X124738774Y-109642937D01*
X124882937Y-109498774D01*
X124954248Y-109392050D01*
X125330000Y-109767802D01*
X125330000Y-109829939D01*
X125369774Y-110029898D01*
X125447795Y-110218256D01*
X125561063Y-110387774D01*
X125705226Y-110531937D01*
X125874744Y-110645205D01*
X126063102Y-110723226D01*
X126167541Y-110744000D01*
X123952000Y-110744000D01*
X123931692Y-110746000D01*
X123845308Y-110746000D01*
X123825000Y-110744000D01*
X122031269Y-110744000D01*
X121990546Y-110609753D01*
X121984584Y-110598599D01*
X121920000Y-110477772D01*
X121920000Y-109220000D01*
X121917560Y-109195224D01*
X121910333Y-109171399D01*
X121898597Y-109149443D01*
X121882803Y-109130197D01*
X121863557Y-109114403D01*
X121841601Y-109102667D01*
X121817776Y-109095440D01*
X121793000Y-109093000D01*
X120550801Y-109093000D01*
X120293804Y-108836003D01*
X120270001Y-108806999D01*
X120268072Y-108805416D01*
X120268072Y-108722000D01*
X120251008Y-108548746D01*
X120200472Y-108382150D01*
X120118405Y-108228614D01*
X120007962Y-108094038D01*
X119873386Y-107983595D01*
X119719850Y-107901528D01*
X119553254Y-107850992D01*
X119380000Y-107833928D01*
X118630000Y-107833928D01*
X118456746Y-107850992D01*
X118290150Y-107901528D01*
X118136614Y-107983595D01*
X118002038Y-108094038D01*
X117891595Y-108228614D01*
X117809528Y-108382150D01*
X117758992Y-108548746D01*
X117741928Y-108722000D01*
X117741928Y-109972000D01*
X117758992Y-110145254D01*
X117809528Y-110311850D01*
X117891595Y-110465386D01*
X118002038Y-110599962D01*
X118136614Y-110710405D01*
X118199466Y-110744000D01*
X117194896Y-110744000D01*
X117281185Y-110673185D01*
X117360537Y-110576494D01*
X117419502Y-110466180D01*
X117455812Y-110346482D01*
X117468072Y-110222000D01*
X117465000Y-109632750D01*
X117306250Y-109474000D01*
X116332000Y-109474000D01*
X116332000Y-109494000D01*
X116078000Y-109494000D01*
X116078000Y-109474000D01*
X116058000Y-109474000D01*
X116058000Y-109220000D01*
X116078000Y-109220000D01*
X116078000Y-107995750D01*
X116332000Y-107995750D01*
X116332000Y-109220000D01*
X117306250Y-109220000D01*
X117465000Y-109061250D01*
X117468072Y-108472000D01*
X117455812Y-108347518D01*
X117419502Y-108227820D01*
X117360537Y-108117506D01*
X117281185Y-108020815D01*
X117184494Y-107941463D01*
X117074180Y-107882498D01*
X116954482Y-107846188D01*
X116830000Y-107833928D01*
X116490750Y-107837000D01*
X116332000Y-107995750D01*
X116078000Y-107995750D01*
X115919250Y-107837000D01*
X115580000Y-107833928D01*
X115455518Y-107846188D01*
X115335820Y-107882498D01*
X115225506Y-107941463D01*
X115128815Y-108020815D01*
X115049463Y-108117506D01*
X115009137Y-108192950D01*
X114927962Y-108094038D01*
X114793386Y-107983595D01*
X114639850Y-107901528D01*
X114473254Y-107850992D01*
X114300000Y-107833928D01*
X113550000Y-107833928D01*
X113376746Y-107850992D01*
X113210150Y-107901528D01*
X113056614Y-107983595D01*
X112922038Y-108094038D01*
X112811595Y-108228614D01*
X112729528Y-108382150D01*
X112678992Y-108548746D01*
X112661928Y-108722000D01*
X112661928Y-109972000D01*
X112678992Y-110145254D01*
X112729528Y-110311850D01*
X112811595Y-110465386D01*
X112922038Y-110599962D01*
X113056614Y-110710405D01*
X113119466Y-110744000D01*
X112114896Y-110744000D01*
X112201185Y-110673185D01*
X112280537Y-110576494D01*
X112339502Y-110466180D01*
X112375812Y-110346482D01*
X112388072Y-110222000D01*
X112385000Y-109632750D01*
X112226250Y-109474000D01*
X111252000Y-109474000D01*
X111252000Y-109494000D01*
X110998000Y-109494000D01*
X110998000Y-109474000D01*
X110978000Y-109474000D01*
X110978000Y-109220000D01*
X110998000Y-109220000D01*
X110998000Y-107995750D01*
X111252000Y-107995750D01*
X111252000Y-109220000D01*
X112226250Y-109220000D01*
X112385000Y-109061250D01*
X112388072Y-108472000D01*
X112375812Y-108347518D01*
X112339502Y-108227820D01*
X112280537Y-108117506D01*
X112201185Y-108020815D01*
X112104494Y-107941463D01*
X111994180Y-107882498D01*
X111874482Y-107846188D01*
X111750000Y-107833928D01*
X111410750Y-107837000D01*
X111252000Y-107995750D01*
X110998000Y-107995750D01*
X110839250Y-107837000D01*
X110564200Y-107834509D01*
X110564200Y-107301522D01*
X110567876Y-107264199D01*
X110564200Y-107226876D01*
X110564200Y-107226867D01*
X110553203Y-107115214D01*
X110509746Y-106971953D01*
X110491064Y-106937002D01*
X110439174Y-106839923D01*
X110394111Y-106785015D01*
X110344201Y-106724199D01*
X110325472Y-106708829D01*
X110381362Y-106662962D01*
X110491805Y-106528386D01*
X110573872Y-106374850D01*
X110624408Y-106208254D01*
X110641472Y-106035000D01*
X110641472Y-104785000D01*
X110624408Y-104611746D01*
X110573872Y-104445150D01*
X110491805Y-104291614D01*
X110381362Y-104157038D01*
X110246786Y-104046595D01*
X110227713Y-104036400D01*
X110429199Y-104036400D01*
X112110600Y-105717802D01*
X112110600Y-105717802D01*
G37*
X112110600Y-105717802D02*
X112134399Y-105746801D01*
X112250124Y-105841774D01*
X112382153Y-105912346D01*
X112525414Y-105955803D01*
X112637067Y-105966800D01*
X112637077Y-105966800D01*
X112674400Y-105970476D01*
X112711723Y-105966800D01*
X115204399Y-105966800D01*
X116066717Y-106829119D01*
X116078026Y-106850276D01*
X116149200Y-106937002D01*
X116172999Y-106966001D01*
X116288724Y-107060974D01*
X116420753Y-107131546D01*
X116564014Y-107175003D01*
X116713000Y-107189677D01*
X116750333Y-107186000D01*
X121351199Y-107186000D01*
X123044000Y-108878802D01*
X123044000Y-108940939D01*
X123083774Y-109140898D01*
X123161795Y-109329256D01*
X123275063Y-109498774D01*
X123419226Y-109642937D01*
X123588744Y-109756205D01*
X123777102Y-109834226D01*
X123977061Y-109874000D01*
X124180939Y-109874000D01*
X124380898Y-109834226D01*
X124569256Y-109756205D01*
X124738774Y-109642937D01*
X124882937Y-109498774D01*
X124954248Y-109392050D01*
X125330000Y-109767802D01*
X125330000Y-109829939D01*
X125369774Y-110029898D01*
X125447795Y-110218256D01*
X125561063Y-110387774D01*
X125705226Y-110531937D01*
X125874744Y-110645205D01*
X126063102Y-110723226D01*
X126167541Y-110744000D01*
X123952000Y-110744000D01*
X123931692Y-110746000D01*
X123845308Y-110746000D01*
X123825000Y-110744000D01*
X122031269Y-110744000D01*
X121990546Y-110609753D01*
X121984584Y-110598599D01*
X121920000Y-110477772D01*
X121920000Y-109220000D01*
X121917560Y-109195224D01*
X121910333Y-109171399D01*
X121898597Y-109149443D01*
X121882803Y-109130197D01*
X121863557Y-109114403D01*
X121841601Y-109102667D01*
X121817776Y-109095440D01*
X121793000Y-109093000D01*
X120550801Y-109093000D01*
X120293804Y-108836003D01*
X120270001Y-108806999D01*
X120268072Y-108805416D01*
X120268072Y-108722000D01*
X120251008Y-108548746D01*
X120200472Y-108382150D01*
X120118405Y-108228614D01*
X120007962Y-108094038D01*
X119873386Y-107983595D01*
X119719850Y-107901528D01*
X119553254Y-107850992D01*
X119380000Y-107833928D01*
X118630000Y-107833928D01*
X118456746Y-107850992D01*
X118290150Y-107901528D01*
X118136614Y-107983595D01*
X118002038Y-108094038D01*
X117891595Y-108228614D01*
X117809528Y-108382150D01*
X117758992Y-108548746D01*
X117741928Y-108722000D01*
X117741928Y-109972000D01*
X117758992Y-110145254D01*
X117809528Y-110311850D01*
X117891595Y-110465386D01*
X118002038Y-110599962D01*
X118136614Y-110710405D01*
X118199466Y-110744000D01*
X117194896Y-110744000D01*
X117281185Y-110673185D01*
X117360537Y-110576494D01*
X117419502Y-110466180D01*
X117455812Y-110346482D01*
X117468072Y-110222000D01*
X117465000Y-109632750D01*
X117306250Y-109474000D01*
X116332000Y-109474000D01*
X116332000Y-109494000D01*
X116078000Y-109494000D01*
X116078000Y-109474000D01*
X116058000Y-109474000D01*
X116058000Y-109220000D01*
X116078000Y-109220000D01*
X116078000Y-107995750D01*
X116332000Y-107995750D01*
X116332000Y-109220000D01*
X117306250Y-109220000D01*
X117465000Y-109061250D01*
X117468072Y-108472000D01*
X117455812Y-108347518D01*
X117419502Y-108227820D01*
X117360537Y-108117506D01*
X117281185Y-108020815D01*
X117184494Y-107941463D01*
X117074180Y-107882498D01*
X116954482Y-107846188D01*
X116830000Y-107833928D01*
X116490750Y-107837000D01*
X116332000Y-107995750D01*
X116078000Y-107995750D01*
X115919250Y-107837000D01*
X115580000Y-107833928D01*
X115455518Y-107846188D01*
X115335820Y-107882498D01*
X115225506Y-107941463D01*
X115128815Y-108020815D01*
X115049463Y-108117506D01*
X115009137Y-108192950D01*
X114927962Y-108094038D01*
X114793386Y-107983595D01*
X114639850Y-107901528D01*
X114473254Y-107850992D01*
X114300000Y-107833928D01*
X113550000Y-107833928D01*
X113376746Y-107850992D01*
X113210150Y-107901528D01*
X113056614Y-107983595D01*
X112922038Y-108094038D01*
X112811595Y-108228614D01*
X112729528Y-108382150D01*
X112678992Y-108548746D01*
X112661928Y-108722000D01*
X112661928Y-109972000D01*
X112678992Y-110145254D01*
X112729528Y-110311850D01*
X112811595Y-110465386D01*
X112922038Y-110599962D01*
X113056614Y-110710405D01*
X113119466Y-110744000D01*
X112114896Y-110744000D01*
X112201185Y-110673185D01*
X112280537Y-110576494D01*
X112339502Y-110466180D01*
X112375812Y-110346482D01*
X112388072Y-110222000D01*
X112385000Y-109632750D01*
X112226250Y-109474000D01*
X111252000Y-109474000D01*
X111252000Y-109494000D01*
X110998000Y-109494000D01*
X110998000Y-109474000D01*
X110978000Y-109474000D01*
X110978000Y-109220000D01*
X110998000Y-109220000D01*
X110998000Y-107995750D01*
X111252000Y-107995750D01*
X111252000Y-109220000D01*
X112226250Y-109220000D01*
X112385000Y-109061250D01*
X112388072Y-108472000D01*
X112375812Y-108347518D01*
X112339502Y-108227820D01*
X112280537Y-108117506D01*
X112201185Y-108020815D01*
X112104494Y-107941463D01*
X111994180Y-107882498D01*
X111874482Y-107846188D01*
X111750000Y-107833928D01*
X111410750Y-107837000D01*
X111252000Y-107995750D01*
X110998000Y-107995750D01*
X110839250Y-107837000D01*
X110564200Y-107834509D01*
X110564200Y-107301522D01*
X110567876Y-107264199D01*
X110564200Y-107226876D01*
X110564200Y-107226867D01*
X110553203Y-107115214D01*
X110509746Y-106971953D01*
X110491064Y-106937002D01*
X110439174Y-106839923D01*
X110394111Y-106785015D01*
X110344201Y-106724199D01*
X110325472Y-106708829D01*
X110381362Y-106662962D01*
X110491805Y-106528386D01*
X110573872Y-106374850D01*
X110624408Y-106208254D01*
X110641472Y-106035000D01*
X110641472Y-104785000D01*
X110624408Y-104611746D01*
X110573872Y-104445150D01*
X110491805Y-104291614D01*
X110381362Y-104157038D01*
X110246786Y-104046595D01*
X110227713Y-104036400D01*
X110429199Y-104036400D01*
X112110600Y-105717802D01*
G36*
X162589992Y-106135746D02*
G01*
X162572928Y-106309000D01*
X162572928Y-107559000D01*
X162589992Y-107732254D01*
X162640528Y-107898850D01*
X162686096Y-107984102D01*
X162210199Y-108460000D01*
X161454333Y-108460000D01*
X161417000Y-108456323D01*
X161379667Y-108460000D01*
X161268014Y-108470997D01*
X161124753Y-108514454D01*
X160992724Y-108585026D01*
X160876999Y-108679999D01*
X160853201Y-108708997D01*
X160715841Y-108846358D01*
X160663537Y-108748506D01*
X160584185Y-108651815D01*
X160487494Y-108572463D01*
X160377180Y-108513498D01*
X160257482Y-108477188D01*
X160133000Y-108464928D01*
X159543750Y-108468000D01*
X159385000Y-108626750D01*
X159385000Y-109601000D01*
X159405000Y-109601000D01*
X159405000Y-109855000D01*
X159385000Y-109855000D01*
X159385000Y-109875000D01*
X159131000Y-109875000D01*
X159131000Y-109855000D01*
X157906750Y-109855000D01*
X157777175Y-109984575D01*
X157771333Y-109984000D01*
X157771322Y-109984000D01*
X157734000Y-109980324D01*
X157696678Y-109984000D01*
X157665087Y-109984000D01*
X157653812Y-109869518D01*
X157617502Y-109749820D01*
X157600397Y-109717819D01*
X157628986Y-109715003D01*
X157772247Y-109671546D01*
X157904276Y-109600974D01*
X157905621Y-109599871D01*
X157906750Y-109601000D01*
X159131000Y-109601000D01*
X159131000Y-108626750D01*
X159012526Y-108508276D01*
X159789863Y-107730939D01*
X159789992Y-107732254D01*
X159840528Y-107898850D01*
X159922595Y-108052386D01*
X160033038Y-108186962D01*
X160167614Y-108297405D01*
X160321150Y-108379472D01*
X160487746Y-108430008D01*
X160661000Y-108447072D01*
X161411000Y-108447072D01*
X161584254Y-108430008D01*
X161750850Y-108379472D01*
X161904386Y-108297405D01*
X162038962Y-108186962D01*
X162149405Y-108052386D01*
X162231472Y-107898850D01*
X162282008Y-107732254D01*
X162299072Y-107559000D01*
X162299072Y-106309000D01*
X162282008Y-106135746D01*
X162253874Y-106043000D01*
X162618126Y-106043000D01*
X162589992Y-106135746D01*
X162589992Y-106135746D01*
G37*
X162589992Y-106135746D02*
X162572928Y-106309000D01*
X162572928Y-107559000D01*
X162589992Y-107732254D01*
X162640528Y-107898850D01*
X162686096Y-107984102D01*
X162210199Y-108460000D01*
X161454333Y-108460000D01*
X161417000Y-108456323D01*
X161379667Y-108460000D01*
X161268014Y-108470997D01*
X161124753Y-108514454D01*
X160992724Y-108585026D01*
X160876999Y-108679999D01*
X160853201Y-108708997D01*
X160715841Y-108846358D01*
X160663537Y-108748506D01*
X160584185Y-108651815D01*
X160487494Y-108572463D01*
X160377180Y-108513498D01*
X160257482Y-108477188D01*
X160133000Y-108464928D01*
X159543750Y-108468000D01*
X159385000Y-108626750D01*
X159385000Y-109601000D01*
X159405000Y-109601000D01*
X159405000Y-109855000D01*
X159385000Y-109855000D01*
X159385000Y-109875000D01*
X159131000Y-109875000D01*
X159131000Y-109855000D01*
X157906750Y-109855000D01*
X157777175Y-109984575D01*
X157771333Y-109984000D01*
X157771322Y-109984000D01*
X157734000Y-109980324D01*
X157696678Y-109984000D01*
X157665087Y-109984000D01*
X157653812Y-109869518D01*
X157617502Y-109749820D01*
X157600397Y-109717819D01*
X157628986Y-109715003D01*
X157772247Y-109671546D01*
X157904276Y-109600974D01*
X157905621Y-109599871D01*
X157906750Y-109601000D01*
X159131000Y-109601000D01*
X159131000Y-108626750D01*
X159012526Y-108508276D01*
X159789863Y-107730939D01*
X159789992Y-107732254D01*
X159840528Y-107898850D01*
X159922595Y-108052386D01*
X160033038Y-108186962D01*
X160167614Y-108297405D01*
X160321150Y-108379472D01*
X160487746Y-108430008D01*
X160661000Y-108447072D01*
X161411000Y-108447072D01*
X161584254Y-108430008D01*
X161750850Y-108379472D01*
X161904386Y-108297405D01*
X162038962Y-108186962D01*
X162149405Y-108052386D01*
X162231472Y-107898850D01*
X162282008Y-107732254D01*
X162299072Y-107559000D01*
X162299072Y-106309000D01*
X162282008Y-106135746D01*
X162253874Y-106043000D01*
X162618126Y-106043000D01*
X162589992Y-106135746D01*
G36*
X171044000Y-105193307D02*
G01*
X171030000Y-105191928D01*
X170465750Y-105195000D01*
X170307000Y-105353750D01*
X170307000Y-106553000D01*
X170327000Y-106553000D01*
X170327000Y-106807000D01*
X170307000Y-106807000D01*
X170307000Y-106827000D01*
X170053000Y-106827000D01*
X170053000Y-106807000D01*
X168853750Y-106807000D01*
X168695000Y-106965750D01*
X168691928Y-107530000D01*
X168704188Y-107654482D01*
X168740498Y-107774180D01*
X168799463Y-107884494D01*
X168878815Y-107981185D01*
X168975506Y-108060537D01*
X169085820Y-108119502D01*
X169154687Y-108140393D01*
X169124866Y-108164866D01*
X168939294Y-108390986D01*
X168902405Y-108460000D01*
X167954802Y-108460000D01*
X167170304Y-107675502D01*
X167146501Y-107646499D01*
X167030776Y-107551526D01*
X166898747Y-107480954D01*
X166755486Y-107437497D01*
X166643833Y-107426500D01*
X166643822Y-107426500D01*
X166606500Y-107422824D01*
X166569178Y-107426500D01*
X165099072Y-107426500D01*
X165099072Y-106309000D01*
X165082008Y-106135746D01*
X165053874Y-106043000D01*
X165062678Y-106043000D01*
X165100000Y-106046676D01*
X165137322Y-106043000D01*
X165137333Y-106043000D01*
X165248986Y-106032003D01*
X165392247Y-105988546D01*
X165524276Y-105917974D01*
X165631472Y-105830000D01*
X168691928Y-105830000D01*
X168695000Y-106394250D01*
X168853750Y-106553000D01*
X170053000Y-106553000D01*
X170053000Y-105353750D01*
X169894250Y-105195000D01*
X169330000Y-105191928D01*
X169205518Y-105204188D01*
X169085820Y-105240498D01*
X168975506Y-105299463D01*
X168878815Y-105378815D01*
X168799463Y-105475506D01*
X168740498Y-105585820D01*
X168704188Y-105705518D01*
X168691928Y-105830000D01*
X165631472Y-105830000D01*
X165640001Y-105823001D01*
X165663804Y-105793998D01*
X166557802Y-104900000D01*
X167602678Y-104900000D01*
X167640000Y-104903676D01*
X167677322Y-104900000D01*
X167677333Y-104900000D01*
X167788986Y-104889003D01*
X167932247Y-104845546D01*
X168064276Y-104774974D01*
X168180001Y-104680001D01*
X168203803Y-104650998D01*
X168564402Y-104290400D01*
X169414359Y-104290400D01*
X169451681Y-104294076D01*
X169489003Y-104290400D01*
X169489014Y-104290400D01*
X169600667Y-104279403D01*
X169743928Y-104235946D01*
X169875957Y-104165374D01*
X169991682Y-104070401D01*
X170015484Y-104041398D01*
X170691002Y-103365880D01*
X170720001Y-103342082D01*
X170814974Y-103226357D01*
X170885546Y-103094328D01*
X170929003Y-102951067D01*
X170936031Y-102879716D01*
X171009014Y-102840706D01*
X171044000Y-102811994D01*
X171044000Y-105193307D01*
X171044000Y-105193307D01*
G37*
X171044000Y-105193307D02*
X171030000Y-105191928D01*
X170465750Y-105195000D01*
X170307000Y-105353750D01*
X170307000Y-106553000D01*
X170327000Y-106553000D01*
X170327000Y-106807000D01*
X170307000Y-106807000D01*
X170307000Y-106827000D01*
X170053000Y-106827000D01*
X170053000Y-106807000D01*
X168853750Y-106807000D01*
X168695000Y-106965750D01*
X168691928Y-107530000D01*
X168704188Y-107654482D01*
X168740498Y-107774180D01*
X168799463Y-107884494D01*
X168878815Y-107981185D01*
X168975506Y-108060537D01*
X169085820Y-108119502D01*
X169154687Y-108140393D01*
X169124866Y-108164866D01*
X168939294Y-108390986D01*
X168902405Y-108460000D01*
X167954802Y-108460000D01*
X167170304Y-107675502D01*
X167146501Y-107646499D01*
X167030776Y-107551526D01*
X166898747Y-107480954D01*
X166755486Y-107437497D01*
X166643833Y-107426500D01*
X166643822Y-107426500D01*
X166606500Y-107422824D01*
X166569178Y-107426500D01*
X165099072Y-107426500D01*
X165099072Y-106309000D01*
X165082008Y-106135746D01*
X165053874Y-106043000D01*
X165062678Y-106043000D01*
X165100000Y-106046676D01*
X165137322Y-106043000D01*
X165137333Y-106043000D01*
X165248986Y-106032003D01*
X165392247Y-105988546D01*
X165524276Y-105917974D01*
X165631472Y-105830000D01*
X168691928Y-105830000D01*
X168695000Y-106394250D01*
X168853750Y-106553000D01*
X170053000Y-106553000D01*
X170053000Y-105353750D01*
X169894250Y-105195000D01*
X169330000Y-105191928D01*
X169205518Y-105204188D01*
X169085820Y-105240498D01*
X168975506Y-105299463D01*
X168878815Y-105378815D01*
X168799463Y-105475506D01*
X168740498Y-105585820D01*
X168704188Y-105705518D01*
X168691928Y-105830000D01*
X165631472Y-105830000D01*
X165640001Y-105823001D01*
X165663804Y-105793998D01*
X166557802Y-104900000D01*
X167602678Y-104900000D01*
X167640000Y-104903676D01*
X167677322Y-104900000D01*
X167677333Y-104900000D01*
X167788986Y-104889003D01*
X167932247Y-104845546D01*
X168064276Y-104774974D01*
X168180001Y-104680001D01*
X168203803Y-104650998D01*
X168564402Y-104290400D01*
X169414359Y-104290400D01*
X169451681Y-104294076D01*
X169489003Y-104290400D01*
X169489014Y-104290400D01*
X169600667Y-104279403D01*
X169743928Y-104235946D01*
X169875957Y-104165374D01*
X169991682Y-104070401D01*
X170015484Y-104041398D01*
X170691002Y-103365880D01*
X170720001Y-103342082D01*
X170814974Y-103226357D01*
X170885546Y-103094328D01*
X170929003Y-102951067D01*
X170936031Y-102879716D01*
X171009014Y-102840706D01*
X171044000Y-102811994D01*
X171044000Y-105193307D01*
G36*
X105110386Y-104569800D02*
G01*
X105110396Y-104569800D01*
X105147719Y-104573476D01*
X105185042Y-104569800D01*
X105315509Y-104569800D01*
X105318400Y-105124250D01*
X105477150Y-105283000D01*
X106451400Y-105283000D01*
X106451400Y-105263000D01*
X106705400Y-105263000D01*
X106705400Y-105283000D01*
X107679650Y-105283000D01*
X107838400Y-105124250D01*
X107841291Y-104569800D01*
X108145116Y-104569800D01*
X108132392Y-104611746D01*
X108115328Y-104785000D01*
X108115328Y-106035000D01*
X108132392Y-106208254D01*
X108182928Y-106374850D01*
X108264995Y-106528386D01*
X108375438Y-106662962D01*
X108510014Y-106773405D01*
X108615569Y-106829825D01*
X108614724Y-106838400D01*
X108618401Y-106875733D01*
X108629398Y-106987386D01*
X108635258Y-107006703D01*
X108672854Y-107130646D01*
X108713093Y-107205928D01*
X108168600Y-107205928D01*
X108044118Y-107218188D01*
X108018600Y-107225929D01*
X107993082Y-107218188D01*
X107868600Y-107205928D01*
X107829350Y-107209000D01*
X107670600Y-107367750D01*
X107670600Y-107449859D01*
X107638063Y-107489506D01*
X107579098Y-107599820D01*
X107543600Y-107716841D01*
X107508102Y-107599820D01*
X107449137Y-107489506D01*
X107416600Y-107449859D01*
X107416600Y-107367750D01*
X107257850Y-107209000D01*
X107218600Y-107205928D01*
X107094118Y-107218188D01*
X107068600Y-107225929D01*
X107043082Y-107218188D01*
X106918600Y-107205928D01*
X106268600Y-107205928D01*
X106144118Y-107218188D01*
X106024420Y-107254498D01*
X105914106Y-107313463D01*
X105817415Y-107392815D01*
X105738063Y-107489506D01*
X105679098Y-107599820D01*
X105645104Y-107711883D01*
X105594324Y-107739026D01*
X105478599Y-107833999D01*
X105454801Y-107862998D01*
X105436677Y-107881121D01*
X105402962Y-107840038D01*
X105268386Y-107729595D01*
X105114850Y-107647528D01*
X104948254Y-107596992D01*
X104775000Y-107579928D01*
X104060987Y-107579928D01*
X104193298Y-107553610D01*
X104381656Y-107475589D01*
X104551174Y-107362321D01*
X104695337Y-107218158D01*
X104808605Y-107048640D01*
X104886626Y-106860282D01*
X104926400Y-106660323D01*
X104926400Y-106456445D01*
X104892298Y-106285000D01*
X105315328Y-106285000D01*
X105327588Y-106409482D01*
X105363898Y-106529180D01*
X105422863Y-106639494D01*
X105502215Y-106736185D01*
X105598906Y-106815537D01*
X105709220Y-106874502D01*
X105828918Y-106910812D01*
X105953400Y-106923072D01*
X106292650Y-106920000D01*
X106451400Y-106761250D01*
X106451400Y-105537000D01*
X106705400Y-105537000D01*
X106705400Y-106761250D01*
X106864150Y-106920000D01*
X107203400Y-106923072D01*
X107327882Y-106910812D01*
X107447580Y-106874502D01*
X107557894Y-106815537D01*
X107654585Y-106736185D01*
X107733937Y-106639494D01*
X107792902Y-106529180D01*
X107829212Y-106409482D01*
X107841472Y-106285000D01*
X107838400Y-105695750D01*
X107679650Y-105537000D01*
X106705400Y-105537000D01*
X106451400Y-105537000D01*
X105477150Y-105537000D01*
X105318400Y-105695750D01*
X105315328Y-106285000D01*
X104892298Y-106285000D01*
X104886626Y-106256486D01*
X104851730Y-106172241D01*
X104921937Y-106086694D01*
X104980902Y-105976380D01*
X105017212Y-105856682D01*
X105029472Y-105732200D01*
X105029472Y-104732200D01*
X105017212Y-104607718D01*
X105002486Y-104559173D01*
X105110386Y-104569800D01*
X105110386Y-104569800D01*
G37*
X105110386Y-104569800D02*
X105110396Y-104569800D01*
X105147719Y-104573476D01*
X105185042Y-104569800D01*
X105315509Y-104569800D01*
X105318400Y-105124250D01*
X105477150Y-105283000D01*
X106451400Y-105283000D01*
X106451400Y-105263000D01*
X106705400Y-105263000D01*
X106705400Y-105283000D01*
X107679650Y-105283000D01*
X107838400Y-105124250D01*
X107841291Y-104569800D01*
X108145116Y-104569800D01*
X108132392Y-104611746D01*
X108115328Y-104785000D01*
X108115328Y-106035000D01*
X108132392Y-106208254D01*
X108182928Y-106374850D01*
X108264995Y-106528386D01*
X108375438Y-106662962D01*
X108510014Y-106773405D01*
X108615569Y-106829825D01*
X108614724Y-106838400D01*
X108618401Y-106875733D01*
X108629398Y-106987386D01*
X108635258Y-107006703D01*
X108672854Y-107130646D01*
X108713093Y-107205928D01*
X108168600Y-107205928D01*
X108044118Y-107218188D01*
X108018600Y-107225929D01*
X107993082Y-107218188D01*
X107868600Y-107205928D01*
X107829350Y-107209000D01*
X107670600Y-107367750D01*
X107670600Y-107449859D01*
X107638063Y-107489506D01*
X107579098Y-107599820D01*
X107543600Y-107716841D01*
X107508102Y-107599820D01*
X107449137Y-107489506D01*
X107416600Y-107449859D01*
X107416600Y-107367750D01*
X107257850Y-107209000D01*
X107218600Y-107205928D01*
X107094118Y-107218188D01*
X107068600Y-107225929D01*
X107043082Y-107218188D01*
X106918600Y-107205928D01*
X106268600Y-107205928D01*
X106144118Y-107218188D01*
X106024420Y-107254498D01*
X105914106Y-107313463D01*
X105817415Y-107392815D01*
X105738063Y-107489506D01*
X105679098Y-107599820D01*
X105645104Y-107711883D01*
X105594324Y-107739026D01*
X105478599Y-107833999D01*
X105454801Y-107862998D01*
X105436677Y-107881121D01*
X105402962Y-107840038D01*
X105268386Y-107729595D01*
X105114850Y-107647528D01*
X104948254Y-107596992D01*
X104775000Y-107579928D01*
X104060987Y-107579928D01*
X104193298Y-107553610D01*
X104381656Y-107475589D01*
X104551174Y-107362321D01*
X104695337Y-107218158D01*
X104808605Y-107048640D01*
X104886626Y-106860282D01*
X104926400Y-106660323D01*
X104926400Y-106456445D01*
X104892298Y-106285000D01*
X105315328Y-106285000D01*
X105327588Y-106409482D01*
X105363898Y-106529180D01*
X105422863Y-106639494D01*
X105502215Y-106736185D01*
X105598906Y-106815537D01*
X105709220Y-106874502D01*
X105828918Y-106910812D01*
X105953400Y-106923072D01*
X106292650Y-106920000D01*
X106451400Y-106761250D01*
X106451400Y-105537000D01*
X106705400Y-105537000D01*
X106705400Y-106761250D01*
X106864150Y-106920000D01*
X107203400Y-106923072D01*
X107327882Y-106910812D01*
X107447580Y-106874502D01*
X107557894Y-106815537D01*
X107654585Y-106736185D01*
X107733937Y-106639494D01*
X107792902Y-106529180D01*
X107829212Y-106409482D01*
X107841472Y-106285000D01*
X107838400Y-105695750D01*
X107679650Y-105537000D01*
X106705400Y-105537000D01*
X106451400Y-105537000D01*
X105477150Y-105537000D01*
X105318400Y-105695750D01*
X105315328Y-106285000D01*
X104892298Y-106285000D01*
X104886626Y-106256486D01*
X104851730Y-106172241D01*
X104921937Y-106086694D01*
X104980902Y-105976380D01*
X105017212Y-105856682D01*
X105029472Y-105732200D01*
X105029472Y-104732200D01*
X105017212Y-104607718D01*
X105002486Y-104559173D01*
X105110386Y-104569800D01*
G36*
X133379294Y-102429014D02*
G01*
X133564866Y-102655134D01*
X133790986Y-102840706D01*
X133860000Y-102877595D01*
X133860000Y-102959677D01*
X133856324Y-102997000D01*
X133860000Y-103034322D01*
X133860000Y-103034332D01*
X133870997Y-103145985D01*
X133904149Y-103255275D01*
X133914454Y-103289246D01*
X133985026Y-103421276D01*
X134018221Y-103461724D01*
X134079999Y-103537001D01*
X134109003Y-103560804D01*
X134437196Y-103888997D01*
X134460999Y-103918001D01*
X134576724Y-104012974D01*
X134708753Y-104083546D01*
X134852014Y-104127003D01*
X134963667Y-104138000D01*
X134963676Y-104138000D01*
X135000999Y-104141676D01*
X135038322Y-104138000D01*
X135321199Y-104138000D01*
X135667228Y-104484029D01*
X135602840Y-104449613D01*
X135459693Y-104406190D01*
X135310825Y-104391528D01*
X135161957Y-104406190D01*
X135018810Y-104449613D01*
X134886885Y-104520129D01*
X134771252Y-104615027D01*
X133985000Y-105401279D01*
X133198748Y-104615027D01*
X133083115Y-104520129D01*
X132951190Y-104449613D01*
X132808043Y-104406190D01*
X132659175Y-104391528D01*
X132510307Y-104406190D01*
X132367160Y-104449613D01*
X132235235Y-104520129D01*
X132119602Y-104615027D01*
X132112427Y-104622202D01*
X132112427Y-103785374D01*
X132591004Y-103306798D01*
X132620001Y-103283001D01*
X132714974Y-103167276D01*
X132785546Y-103035247D01*
X132829003Y-102891986D01*
X132829888Y-102883000D01*
X132909014Y-102840706D01*
X133135134Y-102655134D01*
X133320706Y-102429014D01*
X133350000Y-102374209D01*
X133379294Y-102429014D01*
X133379294Y-102429014D01*
G37*
X133379294Y-102429014D02*
X133564866Y-102655134D01*
X133790986Y-102840706D01*
X133860000Y-102877595D01*
X133860000Y-102959677D01*
X133856324Y-102997000D01*
X133860000Y-103034322D01*
X133860000Y-103034332D01*
X133870997Y-103145985D01*
X133904149Y-103255275D01*
X133914454Y-103289246D01*
X133985026Y-103421276D01*
X134018221Y-103461724D01*
X134079999Y-103537001D01*
X134109003Y-103560804D01*
X134437196Y-103888997D01*
X134460999Y-103918001D01*
X134576724Y-104012974D01*
X134708753Y-104083546D01*
X134852014Y-104127003D01*
X134963667Y-104138000D01*
X134963676Y-104138000D01*
X135000999Y-104141676D01*
X135038322Y-104138000D01*
X135321199Y-104138000D01*
X135667228Y-104484029D01*
X135602840Y-104449613D01*
X135459693Y-104406190D01*
X135310825Y-104391528D01*
X135161957Y-104406190D01*
X135018810Y-104449613D01*
X134886885Y-104520129D01*
X134771252Y-104615027D01*
X133985000Y-105401279D01*
X133198748Y-104615027D01*
X133083115Y-104520129D01*
X132951190Y-104449613D01*
X132808043Y-104406190D01*
X132659175Y-104391528D01*
X132510307Y-104406190D01*
X132367160Y-104449613D01*
X132235235Y-104520129D01*
X132119602Y-104615027D01*
X132112427Y-104622202D01*
X132112427Y-103785374D01*
X132591004Y-103306798D01*
X132620001Y-103283001D01*
X132714974Y-103167276D01*
X132785546Y-103035247D01*
X132829003Y-102891986D01*
X132829888Y-102883000D01*
X132909014Y-102840706D01*
X133135134Y-102655134D01*
X133320706Y-102429014D01*
X133350000Y-102374209D01*
X133379294Y-102429014D01*
G36*
X109347000Y-101473000D02*
G01*
X109367000Y-101473000D01*
X109367000Y-101727000D01*
X109347000Y-101727000D01*
X109347000Y-101747000D01*
X109093000Y-101747000D01*
X109093000Y-101727000D01*
X109073000Y-101727000D01*
X109073000Y-101473000D01*
X109093000Y-101473000D01*
X109093000Y-101453000D01*
X109347000Y-101453000D01*
X109347000Y-101473000D01*
X109347000Y-101473000D01*
G37*
X109347000Y-101473000D02*
X109367000Y-101473000D01*
X109367000Y-101727000D01*
X109347000Y-101727000D01*
X109347000Y-101747000D01*
X109093000Y-101747000D01*
X109093000Y-101727000D01*
X109073000Y-101727000D01*
X109073000Y-101473000D01*
X109093000Y-101473000D01*
X109093000Y-101453000D01*
X109347000Y-101453000D01*
X109347000Y-101473000D01*
M02*
